<svg xmlns="http://www.w3.org/2000/svg" viewBox="0 0 994.6 785.49" xml:space="preserve" preserveAspectRatio="none"><title>Demo</title><g id="圖層_2" data-name="圖層 2"><g id="圖層_1-2" data-name="圖層 1"><path d="M913.32,172.21c4.07,0,7.71-.11,11.34,0,3.46.14,7.22-.24,10.32,1,16.89,6.55,35.25,5.72,52.43,10.79,6.76,2,9.27,6.81,5.31,12.71a18.24,18.24,0,0,1-5.83,5.68c-9.38,5.28-19,10.14-28.44,15.29-7.42,4-16.59,5.31-21.82,12.79-2,2.92-4,6.72-4,10.13-.22,54.32.81,108.67-.44,163-.78,33.87-1.65,68.16-11.09,101.06-6.43,22.44-14.54,44.56-26.34,64.88C884.57,587,873.59,604.06,862.55,621c-6.09,9.36-13.23,18-19.62,27.22a77.09,77.09,0,0,0-6.44,11.32c-6.84,14.57-16,27.24-29.21,36.71-8.9,6.36-17.41,13.32-26.63,19.16-16.5,10.45-33.32,20.41-50.2,30.25-7.57,4.41-15.59,8.06-23.45,12-23.36,11.62-48.24,19.07-73.19,26.21-5,1.43-10.52,1.28-15.8,1.29-49,.09-98.06.82-147.05-.26-25.33-.56-50.59-4.28-75.86-6.81-12-1.2-24-2.91-35.92-4.47A85.19,85.19,0,0,1,328.28,763c-4.79-2.68-10.39-4.07-15.7-5.56-10.42-2.91-20.94-5.48-31.45-8-18.5-4.51-35.24-12.76-51.93-21.91-25.46-14-46.93-32.87-69-51.13-3.95-3.26-7.71-6.79-11.87-9.74C125,650,107.73,627.67,90.68,605.31,73.17,582.35,56.18,559,40,535c-9.16-13.54-16.38-28.36-19.84-44.76-2.9-13.73-6-27.51-10.44-40.81C4.94,435,3.86,420.13,2.26,405.25c-3.49-32.47-2.19-65-1.05-97.53.2-5.71,2.13-11.51,4-17,6.32-18.09,13-36.08,19.61-54,1.07-2.89,3.07-5.42,4.3-8.26,3.46-8,6.48-16.18,10.17-24.06,3.84-8.19,7.94-16.3,12.52-24.09,3.17-5.4,7.75-10,11-15.33,21.44-35.66,52.11-64.86,87.76-86.31,12.8-7.7,25.67-15,39.56-20.58,13.71-5.55,26.64-13.36,40.69-17.67,29.33-9,59.14-16.46,88.81-24.34A484.83,484.83,0,0,1,452.06.06c33.1.49,66.21,0,99.32.43C582.74.89,613.75,4,643.88,13.62c8.68,2.76,17.79,4.19,26.65,6.35,10.83,2.64,16.83,6.64,27.81,12,1,.65,3,1.65,3.22,2.07,39.65,14.43,75.07,37.25,112,57,25,13.34,49.33,27.9,73,43.33C899.74,142.91,911.09,154.29,913.32,172.21Zm.43,9.2c0,3.92,0,7.34,0,10.77s-.57,7-5,7.07-5.13-3.15-5.33-6.77c-.27-5,1.33-10.23-2.44-14.72-.5-.59,0-2.66.66-3.47a8.08,8.08,0,0,0,.19-10.67c-6.26-7.76-12-16.88-20.19-22-29.46-18.33-59.52-35.74-89.9-52.5-30.67-16.93-60.63-35.4-93.89-47.25a13.51,13.51,0,0,1-2.49-1.3c-10-6-17.46-8.82-28.32-12.38-5.37-1.76-6.67-1.62-16.55-3.7h0C620.15,14.45,588.91,10,557.17,9.46c-35.65-.63-71.33-.11-107-.45-38.2-.36-75.93,3.21-113,12.44-30,7.46-60.56,13.21-89.68,23.2C211.6,57,176.92,72.37,145,93.82c-27.88,18.73-50.9,41.33-68.55,69.73A180.25,180.25,0,0,1,61.85,184.1a61.12,61.12,0,0,0-12.59,25.25c-1,4.06-1.75,8.45-3.88,11.92-10.28,16.82-16.85,35.08-23.46,53.56-7.14,20-11.5,39.79-10.45,61,1.1,22.25.5,44.6,1.79,66.84,1,16.49,2.68,33,8.72,48.83a135.35,135.35,0,0,1,8.15,31.11c2.22,17.55,9.72,32.94,19,47C65.56,554.47,83,578.73,101.28,602.2a497.16,497.16,0,0,0,43.82,48.92c13.13,12.88,28.33,23.65,42.59,35.38,18,14.77,36.83,28.18,57.42,39.06,16.11,8.51,33.29,13.91,51,18.17,13.27,3.19,26.21,7.79,39.23,12,8.64,2.78,16.95,6.93,25.76,8.72,12.51,2.53,25.34,3.52,38,5,17.79,2.14,35.56,5.67,53.38,6,55.95.92,111.92.65,167.88.69,5.08,0,10.42-.18,15.18-1.7,24.35-7.77,49.13-14.43,71.78-26.8,6.41-3.5,13.31-6.15,19.58-9.87,16.64-9.86,33.2-19.87,49.52-30.26,8.44-5.37,16.09-12,24.46-17.48,12.22-8,19.74-19.72,26.57-32.11,3-5.4,5.74-11,9.19-16,6.44-9.5,14.1-18.25,19.83-28.14,11.09-19.1,26.28-35.68,34.46-56.52,7.27-18.51,15.88-36.64,21.4-55.66a218.92,218.92,0,0,0,8.29-60.63c0-14,2.34-28.05,2.42-42.09.29-52.85.07-105.71.05-158.56,0-9.08,8.65-20.51,16.41-24,14.11-6.39,27.84-13.63,41.73-20.5,1.11-.55,2.29-1,3.44-1.44l-.3-2.37c-10.53-1.63-21.07-3.16-31.57-4.93-4.29-.72-8.77-1.34-12.68-3.08C931.7,180.14,923.07,181.42,913.74,181.41Z"/></g></g></svg>