<?xml version="1.0" encoding="utf-8"?>
<!-- Generator: Adobe Illustrator 21.1.0, SVG Export Plug-In . SVG Version: 6.00 Build 0)  -->
<svg version="1.1" id="圖層_1" xmlns="http://www.w3.org/2000/svg" xmlns:xlink="http://www.w3.org/1999/xlink" x="0px" y="0px"
	 viewBox="0 0 210.1 189.1" style="enable-background:new 0 0 210.1 189.1;" xml:space="preserve" preserveAspectRatio="none">
<style type="text/css">
	.st0{fill:#FFFFFF;}
</style>
<g>
	<path class="st0" d="M205.6,172.9c0,3.3-0.9,4.1-3,7c-1.8,1-3.9,1.8-5.9,2.2c-3,0.5-6.2,0.6-9.3,0.7c-3,0.1-3.7,2.1-6.7,2
		c-5.9-0.2-11.4,1.5-17.3,1.3c-3.2-0.1-7.8-1-11-1c-3.7,0-6.3,0.9-10,1c-3.9,0.1-8.1-0.1-12,0c-2.1,0-54.4,0-56.5,0
		c-1.8,0-5.7-0.6-7.5-0.6c-3.7,0-5.5-0.1-9.2-0.1c-3.3,0-7.4,0.7-10.8,0.7c-4.6,0-10.2-1.8-14.9-1.8c-3.2,0-6.1-1.7-9.3-1.7
		c-4.5,0.1-8.9-0.2-13.1-1.9c-1.2-0.5-2.4-1.3-3.4-2.1c-1.3-1.1-1.1-2.3-0.5-3.9c0.6-1.4,0.9-2.9,1.2-4.4c0.2-1.3-0.3-2.4-1-3.5
		c-0.8-1.3-1.3-2.8-1.7-4.3c-0.3-1.2-0.2-2.5-0.2-3.8c0-0.9,0-1.8,0-2.7c0-1.1,0-2.3,0-3.4c0-1,0.2-1.9-0.1-2.9
		c-0.1-0.3,0.2-1.9,0.2-2.3c0-0.1-0.1-3.4-0.1-4.9c0-0.4-0.1-0.7-0.1-1.1c0-0.1-0.2-0.2-0.1-0.4c0.1-1.5-0.7-2.9-0.8-4.3
		c0-0.3-0.3-0.6-0.4-1c-0.2-0.8-0.6-1.6-0.6-2.4c-0.1-1.8-0.1-3.6-0.1-5.3c0.1-2.4,1.7-41.1,2.2-43.2c0.1-0.5,0.1-1.6,0.1-1.7
		C3.6,82.4,3.8,71.7,3.9,71c0.1-0.4-0.4-6.2,0.5-8.7c0.2-0.4,0.2-0.9,0.2-1.3c0.1-1.4,0.3-2.9,0.4-4.3c0-0.4,0.1-0.9,0-1.3
		c-0.5-2.5-0.2-4.9,0.7-7.3c0.2-0.4,0.2-1,0.2-1.4c0.2-1.6,0.4-3.3,0.7-4.9c0.1-0.5,0.1-0.9,0.1-1.4c0.1-1.3-1.5-2.6-1.4-4
		c0-0.4,0-0.8-0.1-1.2c-0.7-2.7-0.6-5.4,0.4-8.1c0.2-0.5,0.2-0.8-0.2-1.2c-7-6.7-1.8-17.2,6.9-21.8c3.6-1.9,7.4-2.4,11.5-1.8
		c0.5,0.1,1.1,0.1,1.6,0c2.6-0.4,5.1-0.3,7.6,0.2c0.6,0.1,1.2,0.1,1.9,0.1c1.1,0,2.3-0.2,3.4,0c2.4,0.4,4.9,0.5,7.4,0.6
		c2.4,0.1,4.8,0.2,7.2,0.3c2.5,0.1,5,0,7.5,0c2.7,0,5.4,0.2,8.1,0c1.8-0.1,3.7-0.3,5.5-0.4c3.9-0.2,57.5-0.4,61.5-0.4
		c1.8,0,3.6,0,5.4,0c3.5,0,7,0,10.6,0c1.8,0,3.7,0,5.5,0c3.5,0,6.9,0,10.4,0c1.9,0,3.8,0,5.7,0c3.4,0,6.8,0.2,10.3-0.1
		c1.4-0.1,2.9,0,4.3-0.1c5.9-0.4,11,1.3,14.8,6.1c2.8,3.5,3.5,7.6,2.1,11.9c-0.2,0.6-0.1,1.2-0.2,1.7c-0.2,1.7,1.7,3,1.2,4.6
		c-0.5,1.8-0.4,3.5-0.3,5.3c0.1,2,0.2,4,1.2,5.9c0.3,0.5,0.4,1.2,0.4,1.7c0,2.2-1.2,4.6-0.7,6.7c0.3,1.3,0.3,2.7,0.2,4
		c-0.1,1.2,0,2.3,0.1,3.4c0.1,3.8,0,7.5,0,11.3c0,0.9,0,1.9,0,2.8c0,3.8,0,23.9,0,25.6c0,0.5,0.3,5,0.4,6.7c0,0.4-1.5,14.8-0.8,15.5
		c0.2,0.2-0.7,15.8-0.9,17.5c0,0.4,0,1.5-0.1,1.6c-0.4,1.5-0.3,3-0.5,4.5c0,0-0.2,7.8-0.3,9.1C203.9,149.2,204.9,172.5,205.6,172.9z
		"/>
	<path d="M14.6,4.6c-0.5-0.2-1.3-0.5-1.9-1c-0.5-0.3-1.1-0.9-1.1-1.4c0-0.5,0.5-1.3,1-1.5c0.7-0.3,1.5-0.3,2.3-0.4
		C24.8,0.2,34.6,0.1,44.5,0c23.8-0.1,14.9,1.4,30.1,1.2c7.6-0.1,41.3-1,50.5-0.7c8,0.3,16.3-0.3,24.3,0.3c6.1,0.5,12.1,0.4,18.3,1
		c6.8,0.6,18.1-1.6,24.3,1.2c5.6,2.6,6.2,3.2,12,5.4c4.6,1.8,6.1,11.3,6.1,16.4c0,13.8,0,27.6-0.2,41.4c-0.1,9.8-0.3,19.5-0.7,29.3
		c-0.4,10.7,0.9,21.3,0.2,32c-0.8,12.2,0.6,27.7-0.7,39.9c-0.7,6.4-3,12.4-8.3,16.6c-1.4,1.1-3.3,2-5.1,2.3
		c-8.5,1.5-19.9,0.8-28.5,1.5c-11.6,1-24.5,0.3-36.1,0.7c-15.6,0.5-25.1,0.7-34.3-0.2c-18.5-0.8-32.1-0.2-53.9-0.5
		c-6.7-0.7-13.2-0.3-19.9-1.4c-5.8-0.9-10.5-1.7-14.9-5.4c-4.1-3.4-6.7-12.4-6.8-22.1c-0.2-6-0.8-12.7-0.8-18.8
		C0,106.1,0,71.9,0.1,37.6c0-8.1,0.7-16.2,1.3-24.3c0.1-1.4,0.7-2.7,1.3-4C3.4,7.6,5.3,7,6.9,7.8C7.4,8,7.8,8.7,7.8,9.2
		c0,0.4-0.7,1.2-0.9,1.1C4.3,9.9,4.2,11.9,4,13.4c-0.5,4.1-1.1,8.1-1.1,12.2c-0.1,40.5-0.1,81,0,121.5c0,5-0.4,14.6,0.5,19.6
		c0.5,2.9,3.5,9.2,4.1,9.9c4.9,6.1,8,5.8,15.7,7.1c9.4,1.5,18.3,0.2,27.7,1.4c10.4,1.3,22.9,0,33.3,0.8c17.8,1.5,27.9,0.4,37.7,0
		c15.7-0.6,32.8-0.3,48.5-1.2c4.9-0.3,12.6,0.8,17.5,0c1.3-0.2,2.5-0.5,3.8-0.6c6.4-0.4,10-4.2,12.1-9.7c1-2.7,1.8-5.6,2.1-8.5
		c1.1-10-0.5-23.2,0.3-33.1c1.4-16.8,0.2-33.6,0.2-50.5c0-18.3,0.6-36.6,0.9-55c0-0.7,0-1.3,0-2c-0.3-4-0.7-9-3-11.7
		c-3.3-3-4.8-3.7-9-5.4c-4.4-1.8-10-4.1-15.6-3.4C172.9,4.6,165.1,4.5,159,4c-11.9-1-75.6-0.9-95.5-0.9C42.1,3,94.1,3.4,89.1,3.4
		c-18.6,0-52.6-0.1-72,0.2C16.3,3.6,15.6,4.1,14.6,4.6z"/>
</g>
</svg>
