<?xml version="1.0" encoding="utf-8"?>
<!-- Generator: Adobe Illustrator 21.1.0, SVG Export Plug-In . SVG Version: 6.00 Build 0)  -->
<svg version="1.1" id="圖層_1" xmlns="http://www.w3.org/2000/svg" xmlns:xlink="http://www.w3.org/1999/xlink" x="0px" y="0px"
	 viewBox="0 0 210.1 189.1" style="enable-background:new 0 0 210.1 189.1;" xml:space="preserve"  preserveAspectRatio="none"> 
<style type="text/css">
	.st0{fill:#FFFFFF;}
</style>
<g>
	<path class="st0" d="M205.6,172.9c0,3.3-0.9,4.1-3,7c-1.8,1-3.9,1.8-5.9,2.2c-3,0.5-6.2,0.6-9.3,0.7c-3,0.1-3.7,2.1-6.7,2
		c-5.9-0.2-11.4,1.5-17.3,1.3c-3.2-0.1-7.8-1-11-1c-3.7,0-6.3,0.9-10,1c-3.9,0.1-8.1-0.1-12,0c-2.1,0-54.4,0-56.5,0
		c-1.8,0-5.7-0.6-7.5-0.6c-3.7,0-5.5-0.1-9.2-0.1c-3.3,0-7.4,0.7-10.8,0.7c-4.6,0-10.2-1.8-14.9-1.8c-3.2,0-6.1-1.7-9.3-1.7
		c-4.5,0.1-8.9-0.2-13.1-1.9c-1.2-0.5-2.4-1.3-3.4-2.1c-1.3-1.1-1.1-2.3-0.5-3.9c0.6-1.4,0.9-2.9,1.2-4.4c0.2-1.3-0.3-2.4-1-3.5
		c-0.8-1.3-1.3-2.8-1.7-4.3c-0.3-1.2-0.2-2.5-0.2-3.8c0-0.9,0-1.8,0-2.7c0-1.1,0-2.3,0-3.4c0-1,0.2-1.9-0.1-2.9
		c-0.1-0.3,0.2-1.9,0.2-2.3c0-0.1-0.1-3.4-0.1-4.9c0-0.4-0.1-0.7-0.1-1.1c0-0.1-0.2-0.2-0.1-0.4c0.1-1.5-0.7-2.9-0.8-4.3
		c0-0.3-0.3-0.6-0.4-1c-0.2-0.8-0.6-1.6-0.6-2.4c-0.1-1.8-0.1-3.6-0.1-5.3c0.1-2.4,1.7-41.1,2.2-43.2c0.1-0.5,0.1-1.6,0.1-1.7
		C3.6,82.4,3.8,71.7,3.9,71c0.1-0.4-0.4-6.2,0.5-8.7c0.2-0.4,0.2-0.9,0.2-1.3c0.1-1.4,0.3-2.9,0.4-4.3c0-0.4,0.1-0.9,0-1.3
		c-0.5-2.5-0.2-4.9,0.7-7.3c0.2-0.4,0.2-1,0.2-1.4c0.2-1.6,0.4-3.3,0.7-4.9c0.1-0.5,0.1-0.9,0.1-1.4c0.1-1.3-1.5-2.6-1.4-4
		c0-0.4,0-0.8-0.1-1.2c-0.7-2.7-0.6-5.4,0.4-8.1c0.2-0.5,0.2-0.8-0.2-1.2c-7-6.7-1.8-17.2,6.9-21.8c3.6-1.9,7.4-2.4,11.5-1.8
		c0.5,0.1,1.1,0.1,1.6,0C28,1.9,30.5,2,33,2.5c0.6,0.1,1.2,0.1,1.9,0.1c1.1,0,2.3-0.2,3.4,0c2.4,0.4,4.9,0.5,7.4,0.6
		c2.4,0.1,4.8,0.2,7.2,0.3c2.5,0.1,5,0,7.5,0c2.7,0,5.4,0.2,8.1,0c1.8-0.1,3.7-0.3,5.5-0.4c3.9-0.2,57.5-0.4,61.5-0.4
		c1.8,0,3.6,0,5.4,0c3.5,0,7,0,10.6,0c1.8,0,3.7,0,5.5,0c3.5,0,6.9,0,10.4,0c1.9,0,3.8,0,5.7,0c3.4,0,6.8,0.2,10.3-0.1
		c1.4-0.1,2.9,0,4.3-0.1c5.9-0.4,11,1.3,14.8,6.1c2.8,3.5,3.5,7.6,2.1,11.9c-0.2,0.6-0.1,1.2-0.2,1.7c-0.2,1.7,1.7,3,1.2,4.6
		c-0.5,1.8-0.4,3.5-0.3,5.3c0.1,2,0.2,4,1.2,5.9c0.3,0.5,0.4,1.2,0.4,1.7c0,2.2-1.2,4.6-0.7,6.7c0.3,1.3,0.3,2.7,0.2,4
		c-0.1,1.2,0,2.3,0.1,3.4c0.1,3.8,0,7.5,0,11.3c0,0.9,0,1.9,0,2.8c0,3.8,0,23.9,0,25.6c0,0.5,0.3,5,0.4,6.7c0,0.4-1.5,14.8-0.8,15.5
		c0.2,0.2-0.7,15.8-0.9,17.5c0,0.4,0,1.5-0.1,1.6c-0.4,1.5-0.3,3-0.5,4.5c0,0-0.2,7.8-0.3,9.1C203.9,149.2,204.9,172.5,205.6,172.9z
		"/>
	<path d="M14.8,1.9c-0.6,0.1-1.2,0.4-1.9,0c-0.5-0.3-0.8-0.2-0.9-0.5c-0.2-0.4,0.2-0.5,0.7-0.7c0.7-0.3,1.5-0.3,2.3-0.4
		c9.9-0.1,19.6,0.5,29.5,0.4c23.8-0.1,15,0.7,30.2,0.5c7.6-0.1,41.3-1,50.5-0.7c8,0.3,16.3-0.3,24.3,0.3c6.1,0.5,12.6-0.5,18.8,0.1
		c6.8,0.6,18.9-0.5,25.7,0.1c6.2,0.5,5.9-0.7,11.7,1.5c4.6,1.8,4.6,17.2,4.6,22.3c0,13.8,0,27.6-0.2,41.4
		c-0.1,9.8-0.3,19.5-0.7,29.3c-0.4,10.7,0.9,21.3,0.2,32c-0.8,12.2,1.2,27.8-0.1,40c-0.7,6.4,3,16.8-3.5,20c-3,1.5-8,0.2-9.8,0.5
		c-8.5,1.5-20.6-0.9-29.2-0.2c-11.6,1-24.5,0.3-36.1,0.7c-15.6,0.5-28.5,0.7-37.7,0.1c-18.5-1.3-28.5,0-50.3-0.3
		c-6.7-0.7-14.5,1-21.2-0.1c-5.8-0.9-12.6,0.8-17-2.9c-4.1-3.4-3.5-16.6-3.6-26.3c-0.2-6-0.8-12.7-0.8-18.8C0,106.1,0,71.9,0.1,37.6
		c0-8.1,0.7-16.2,1.3-24.3c0.1-1.4,0.7-2.7,1.3-4C3.4,7.6,5.2,7.2,6,7.5c0.5,0.2,0.1,0.5,0.1,1c0,0.4-0.9,0.6-1.1,0.5
		c-2.3,0.7-2.3,2.8-2.5,4.3c-0.5,4.1-1.1,8.1-1.1,12.2C1.4,66,1.3,106.4,1.4,146.9c0,5,0.1,14.9,0.5,20c0.8,9.6,1.3,14.6,1.9,15.3
		c4.9,6.1,10,3.7,17.7,5c9.4,1.5,19.5-0.7,28.9-0.1c11.4,0.8,25-0.9,33.9-0.3c17.8,1.4,27.7,1.2,37.5,0.8
		c15.7-0.6,32.7,0.2,48.4-0.7c4.9-0.3,14,1.3,18.9,0.5c1.3-0.2,9.6,0.1,10.9,0c6.4-0.5,7.5-2.8,8.5-9.3c0.4-2.8-0.4-9.2-0.1-12.1
		c1.1-10-1.6-23.6-0.8-33.5c1.4-16.8,0.3-33.3,0.3-50.3c0-18.3,0.7-35.7,1-54.1c0-0.7-0.3-2.1-0.3-2.8c-0.3-4,0.5-12.9-0.8-16.3
		c-1.5-4-0.8-4-5-5.7c-4.4-1.8-18-1.6-23.6-1.3c-6.8,0.3-13.6,0.9-19.7,0.4c-11.9-1-76-0.4-95.9-0.4C42.2,2,36.7,1.4,17.3,1.7
		C16.5,1.7,15.8,1.4,14.8,1.9z"/>
</g>
</svg>
