<?xml version="1.0" encoding="utf-8"?>
<!-- Generator: Adobe Illustrator 15.1.0, SVG Export Plug-In . SVG Version: 6.00 Build 0)  -->
<!DOCTYPE svg PUBLIC "-//W3C//DTD SVG 1.1//EN" "http://www.w3.org/Graphics/SVG/1.1/DTD/svg11.dtd">
<svg version="1.1" id="圖層_1" xmlns="http://www.w3.org/2000/svg" xmlns:xlink="http://www.w3.org/1999/xlink" x="0px" y="0px"
	 width="535.699px" height="378.399px" viewBox="0 0 535.699 378.399" enable-background="new 0 0 535.699 378.399"
	 xml:space="preserve">
<g>
	<path fill-rule="evenodd" clip-rule="evenodd" fill="#F7F7F7" d="M51.648,31.518c0.934,2.079-4.807,9.772,0,12.011
		c2.67-3.335,1.733-10.277,4.805-13.211c2.066,0.891-2.434,5.008-1.201,9.008c2.814-1.189,4.206-3.802,6.605-5.405
		c0.689-2.49-1.263-2.341-1.201-4.204c1.708-0.895,1.949-3.256,4.805-3.003c-0.295-2.696,0.305-4.5,0.602-6.606
		c2.148-3.107,6.842-18.629,13.211-17.416c5.777,1.101,6.309,15.253,7.207,21.621c10.97,6.049,13.524,21.64,15.615,34.831
		c2.82,2.977,4.086-3.003,6.605,0c8.613-7.402,16.257-15.772,31.83-16.214c-0.221,1.021,0.469,1.133,1.201,1.2
		c-0.445,3.07,1.588,6.646,2.402,10.21c5.996,5.291,16.285,2.756,23.422,0.601c3.65-1.103,6.451-3.456,12.012-4.805
		c7.385-1.79,13.494-3.756,21.619-3.003c-0.583,6.527-0.545,10.543,3.604,13.213c17,1.385,24.357-6.872,34.832-12.011
		c10.637,0.626,16.674-6.845,25.224-5.405c8.605,1.448,6.034,16.721,15.615,18.616c-1.688,3.518-5.726,4.686-5.405,10.211
		c0.97-0.17,1.033,0.566,1.801,0.6c3.162-2.645,4.496-7.115,7.809-9.608c12.153-2.273,31.572-5.074,48.044-3.003
		c3.702,4.505,3.804,12.611,5.405,19.218c-3.429,0.374-5.724,1.884-9.008,2.402c2.064,4.036,6.352,0.979,10.209,0.601
		c-0.566,10.599,8.314,16.89,20.419,16.815c2.159,4.048,5.815,6.596,9.008,9.609c3.264,9.548,4.771,20.854,7.207,31.228
		c6.744,13.134,5.11,34.779,29.428,31.23c19.021-2.777,26.849-20.938,39.036-30.629c0.438-3.767,2.839-5.569,5.405-7.207
		c8.428-19.197,23.185-32.066,34.232-48.645c1.446,0.246,1.304-1.097,3.003-0.601c7.182-10.313,17.075-20.854,30.027-23.422
		c9.576,0.388,17.286,11.203,10.209,18.017c-6.896,6.639-18.203,10.767-26.425,17.417c-6.763,5.471-13.233,12.685-19.817,19.217
		c-4.616,4.58-9.198,8.316-13.213,13.213c-1.259,7.55-7.297,10.319-9.009,17.415c-9.171,8.847-16.276,22.959-28.225,27.026
		c-5.791,9.07-18.166,10.714-28.828,13.212c-10.906,2.556-11.518,11.575-14.413,21.619c3.009,6.61,2.321,19.797-4.805,19.819
		c-2.159-0.243-0.935-3.869-3.003-4.203c-2.414,0.788-1.709,4.695-1.802,7.807c-10.594,6.02,0.392,23.444-5.405,31.829
		c-1.802,0-3.604,0-5.405,0c0.223-3.424-1.01-5.396-2.402-7.206c-2.772,0.762-1.828,4.816-1.801,5.404
		c-3.161,0.759-3.561-1.243-6.006-1.2c-11.377,5.037-5.025,27.806-15.614,33.631c-5.042-1.405-7.658-0.205-13.212,0
		c-8.775,7.039-7.748,23.882-15.014,32.43c-3.396-0.407-4.725-2.883-7.809-3.603c-5.289,1.057-5.002,11.537,0,10.811
		c2.479,12.616-6.158,18.97-8.407,28.825c-6.149,3.461-6.176,13.042-16.215,12.613c-3.565-9.115,3.063-15.492,4.804-21.621
		c2.262-7.959-0.027-14.864-1.201-24.022c-3.408-3.104-13.583-2.502-19.218-2.402c0.581,2.369-2.511,1.019-3.603,3.003
		c-2.155-1.448-3.215-3.992-4.805-6.006c-3.094,0.232-1.582,5.721,0.6,6.006c-7.796,4.015-20.072,3.549-26.424,9.01
		c-2.241-1.376-7.796-2.598-9.609-2.402c-1.494-0.708-1.432-2.974-2.402-4.205c-2.17-0.568-0.838,2.366-1.201,3.604
		c-2.086-0.116-2.279-2.125-4.203-2.402c-1.877-0.185,1.526,1.734-0.602,1.801c-16.504-1.491-24.459,5.569-39.035,6.005
		c-1.031-3.381,3.249-6.249,2.401-11.41c-4.339,0.467-4.327,5.281-5.404,9.01c-14.708,0.845-25.709-11.371-40.839-13.813
		c-11.746-1.896-27.604-2.127-34.832,4.804c-1.48-0.078-2.894-0.091-3.604,0.602c-5.653,4.355-7.836,12.182-10.81,19.217
		c-6.944,5.316-7.2,20.36-19.819,18.017c-1.883-22.807,7.846-33.75,3.003-56.452c-2.598-12.18-10.735-21.664-19.218-28.226
		c-0.301-0.232,0.273-1.529,0-1.802c-0.275-0.276-1.563,0.301-1.802,0c-5.993-7.603,1.581-23.269-6.005-30.028
		c-2.09-1.861-9.682-2.957-10.21-5.405c-0.835-3.869,9.29-9.118,4.204-12.611c-3.605,2-2.984,8.227-7.807,9.009
		c-1.297-15.648,4.849-37.84-10.811-40.238c2.33-3.474,7.865-3.744,7.206-10.209c-4.95,0.062-5.698,7.504-9.608,6.605
		c-1.173-2.295-5.436-5.929-5.405-9.608c0.022-2.625,1.905-2.752,3.604-6.006c3.673-7.039,8.865-20.89,5.405-31.83
		c-1.927-6.09-11.199-8.562-5.405-18.017c4.013,3.12,5.173,11.87,11.41,10.811c-4.263-5.938-5.019-8.726-9.009-13.813
		c2.34-7.955,10.357-17.484,8.408-28.226c-0.898-4.95-4.912-5.986-6.605-10.811c1.871-6.535,10.896-5.919,16.815-8.407
		c3.254-5.199,6.557-15.243,4.804-21.62c2.688-8.323,5.865-16.156,10.811-22.222c1.015,1.578-1.969,4.885,1.803,5.405
		C50.377,41.855,48.203,33.878,51.648,31.518z M45.643,54.339c1.885,1.248,7.81,2.561,7.207-1.802
		C51.273,48.965,45.498,49.834,45.643,54.339z M53.45,66.351c0,0.399,0,0.801,0,1.2c4.853-0.752,12.746,1.536,15.614-1.2
		C66.475,64.451,56.016,64.301,53.45,66.351z M57.053,78.962c5.654,1.752,9.997,4.817,16.216,6.006
		c-2.794-5.614-11.065-5.75-16.216-9.009C57.053,76.96,57.053,77.96,57.053,78.962z"/>
	<path fill-rule="evenodd" clip-rule="evenodd" fill="#FFC76E" d="M322.407,178.663c-0.292-1.575-0.839-3.082-1.512-4.555
		c-0.153-0.877-0.379-1.748-0.7-2.601c-0.952-2.521-2.514-4.612-4.271-6.561c-1.195-2.398-2.097-4.864-2.172-7.537
		c-0.029-1.085-0.013-2.151,0.025-3.199c7.704-7.004,2.307-17.124-6.207-20.874c-7.289-5.477-18.174-5.376-23.67-12.925
		c-1.904-2.616-4.781-3.22-7.292-2.587c-1.353-1.185-2.913-2.179-4.806-2.959c-5.747-2.373-12.853,1.572-17.112,5.076
		c-0.81,0.666-1.521,1.445-2.148,2.299c-5.643,2.987-11.005,7.874-13.748,10.877c-3.526,3.859-6.915,8.605-7.823,13.87
		c-2.318,2.469-4.033,5.463-4.785,9.472c-1.83,9.753,0.861,19.988,2.724,29.538c0.291,1.493,0.526,2.973,0.821,4.42
		c-0.652,2.496-0.563,5.132,0.67,7.522c3.236,6.273,10.636,7.285,17.062,5.739c1.034,0.069,2.07,0.104,3.107,0.075
		c2.778-0.076,5.637-1.08,8.407-0.496c2.143,0.452,4.088,2.011,6.166,2.719c3.051,1.039,6.285,1.299,9.489,1.137
		c5.573-0.282,10.733-2.557,15.946-4.305c6.209-2.081,12.779-1.788,18.938-3.85C318.742,195.872,324.197,188.319,322.407,178.663z
		 M245.263,190.449c0.191-0.151,0.38-0.301,0.555-0.446c0.61-0.506,1.207-1.005,1.778-1.51c0.04,0.357,0.102,0.711,0.182,1.062
		c-0.549,0.341-1.102,0.675-1.659,0.997C245.807,190.521,245.521,190.487,245.263,190.449z"/>
	<path fill-rule="evenodd" clip-rule="evenodd" fill="#FFC76E" d="M99.885,42.097c-0.57-0.67-1.137-1.386-1.705-2.127
		c0.457-1.89,0.174-3.994-1.295-5.873c-2.316-2.962-4.989-5.634-7.115-8.737c-2.379-3.472-2.405-8.459-3.714-12.395
		c-0.079-0.239-0.177-0.466-0.277-0.689c0.491-1.077,0.933-2.186,1.277-3.355c1.697-5.749-4.659-9.841-9.548-7.34
		c-5.301,2.711-10.257,9.138-10.383,15.218c-0.757,0.904-1.494,1.802-2.169,2.7c-2.161,2.875-3.714,5.982-4.451,9.27
		c-1.86,0.125-3.697,0.474-5.444,1.157c-1.186,0.463-2.304,1.159-3.161,2.064c-4.955-0.783-10.009,6.182-5.708,11.299
		c12.729,15.144,35.238,16.898,52.377,9.017C102.65,50.428,102.354,45,99.885,42.097z"/>
	<path fill-rule="evenodd" clip-rule="evenodd" fill="#BF9A66" d="M145.611,205.967c-3.664-2.594-7.902-2.279-11.713-4.155
		c-3.064-1.509-2.607-9.852-3.838-12.797c-5.362-12.824-21.423-12.299-30.973-4.866c-4.281,3.332-7.561,7.62-11.658,11.135
		c-3.346,2.868-9.224,2.561-13.322,3.131c-11.151,1.551-15.127,13.207-11.605,23.039c1.631,4.557,5.276,7.039,8.018,10.766
		c3.379,4.592-0.314,12.348,0.771,17.731c1.925,9.554,9.829,15.197,19.326,15.027c4.905-0.088,9.556-1.758,14.222-3.137
		c6.63,5.02,16.998,3.788,24.395,0.664c4.967-2.098,8.268-7.229,10.812-11.733c1.337-2.368,2.604-4.742,4.149-6.986
		c1.813-2.636,4.793-4.459,6.772-7.036C157.958,227.645,154.938,212.569,145.611,205.967z"/>
	<path fill-rule="evenodd" clip-rule="evenodd" fill="#BF9A66" d="M233.191,49.347c-3.962,4.813-12.295,3.508-17.85,4.641
		c-3.681,0.75-6.854,2.671-10.679,2.643c-1.001-0.139-1.972-0.393-2.918-0.744c0.313-0.541,0.608-1.075,0.655-1.163
		c3.646-6.849-5.705-12.979-10.237-7.97c-1.54,1.061-2.41,2.791-2.611,4.614c-0.069,0.149-0.134,0.302-0.2,0.453
		c-1.566,1.025-2.709,2.731-2.813,5.122c-0.277,6.34,4.685,10.505,9.32,13.95c6.333,4.707,12.698,4.783,20.157,3.317
		c7.006-1.376,16.056,2.038,21.783-3.854c1.898-1.952,3.078-4.179,3.623-6.851c0.255-1.249-0.022-3.984,0.963-4.968
		C247.613,52.186,239.237,43.313,233.191,49.347z"/>
	<path fill-rule="evenodd" clip-rule="evenodd" fill="#BF9A66" d="M509.806,85.465c-1.014-3.686-4.502-5.111-7.995-4.54
		c0.548-0.09-2.217-0.694-2.823-0.879c-1.6-0.488-3.224-0.687-4.882-0.87c-3.479-0.385-7.104,1.693-9.621,3.879
		c-4.797,4.163-7.786,9.94-6.016,16.286c0.797,2.858,2.244,5.8,4.789,7.464c3.066,2.006,7.766,2.257,10.393-0.748
		c0.926-1.059,1.617-2.194,2.249-3.367c0.162-0.127,0.324-0.257,0.484-0.401c1.731-1.569,3.314-3.335,4.495-5.35
		c0.361-0.397,0.729-0.789,1.105-1.173c0.933-0.505,1.851-0.976,2.584-1.461c0.456-0.302,0.853-0.625,1.204-0.964
		C508.946,92.458,510.626,88.445,509.806,85.465z"/>
	<path fill-rule="evenodd" clip-rule="evenodd" d="M52.85,52.537c0.603,4.362-5.322,3.05-7.207,1.802
		C45.498,49.834,51.273,48.965,52.85,52.537z"/>
	<path fill-rule="evenodd" clip-rule="evenodd" d="M69.064,66.351c-2.868,2.736-10.762,0.448-15.614,1.2c0-0.399,0-0.801,0-1.2
		C56.016,64.301,66.475,64.451,69.064,66.351z"/>
	<path fill-rule="evenodd" clip-rule="evenodd" d="M57.053,75.959c5.15,3.259,13.422,3.395,16.216,9.009
		c-6.219-1.188-10.562-4.254-16.216-6.006C57.053,77.96,57.053,76.96,57.053,75.959z"/>
	<path fill-rule="evenodd" clip-rule="evenodd" fill="#F7F7F7" d="M60.057,326.993c2.68,7.127-2.771,16.415-3.004,24.622
		c-7.906,1.103-10.081,7.937-19.817,7.206c-1.878-2.717-2.804-5.573-1.802-8.406c1-2.826,5.455-4.387,7.807-6.607
		c0.689-0.649,0.559-2.284,1.201-3.003C48.687,336.064,56.962,333.078,60.057,326.993z"/>
	<path fill-rule="evenodd" clip-rule="evenodd" fill="#F7F7F7" d="M308.087,341.407c3.128,8.282,7.358,15.462,8.408,25.822
		c-8.405,2.649-10.023-6.281-13.212-10.809C305.275,351.807,306.989,346.914,308.087,341.407z"/>
	<path fill-rule="evenodd" clip-rule="evenodd" d="M1.201,139.617c2.6-2.805,1.625-9.185,4.805-11.409
		c-0.696-4.516-6.178-7.427-4.203-12.612c3.597,1.207,3.076,6.533,6.005,8.407c6.843-9.1,5.89-26.166-0.601-34.23
		c2.467-8.944,14.825-7.996,21.02-13.213c-0.396-10.401,2.604-19.559,4.203-28.226c6.359-11.66,16.039-19.997,28.227-25.825
		c5.878-9.001,7.904-24.839,23.422-22.221c1.844,7.22,7.508,12.96,5.406,22.221c10.098,5.717,14.607,17.021,17.416,30.028
		c9.628-3.583,16.363-10.061,26.424-13.212c11.277-1.469,12.878,6.74,16.816,12.611c18.574,2.594,34.095-10.47,54.05-8.408
		c0.866,1.936,0.567,5.038,0.601,7.809c9.814,5.368,23.193-1.195,31.83-4.806c3.002-1.254,4.557-3.193,7.206-3.603
		c1.718-0.266,3.739,0.336,6.006,0c6.169-0.917,15.824-6.022,21.62,0c1.039,1.079,1.457,3.613,3.003,5.405
		c4.172,4.834,6.101,4.449,8.407,9.608c5.439-1.167,6.84-6.373,12.012-7.808c1.72,3.736-3.717,5.481-5.404,7.808
		c10.182,1.94,26.514-4.162,40.236-1.803c6.817,1.173,10.457,6.271,15.615,8.408c1.963,4.476-0.926,7.796-1.803,12.611
		c3.289-0.453,7.829-2.39,11.411-0.6c-2.382,2.623-7.415,2.595-11.411,3.603c-0.088,11.899,7.994,15.629,18.618,16.816
		c2.679,3.727,5.687,7.125,9.608,9.608c5.294,13.323,6.729,30.507,12.612,43.241c-1.112,15.896,13.675,21.1,27.025,15.614
		c6.008-6.204,16.096-8.328,18.617-18.017c3.01-1.394,5.061-3.749,6.005-7.207c4.759-1.646,6.31-6.503,10.21-9.008
		c4.693-13.724,15.567-21.268,21.62-33.632c7.537-8.116,18.167-21.747,28.227-30.629c6.775-5.982,12.57-11.689,25.823-9.608
		c5.76,0.903,9.899,4.433,13.813,8.408c0,3.003,0,6.006,0,9.009c-8.454,10.563-21.731,16.303-33.03,24.021
		c-10.44,10.18-21.235,20.004-31.23,30.628c-7.31,20.115-22.182,32.669-35.433,46.845c-2.505-0.103-2.962,1.841-5.403,1.801
		c-7.268,5.546-15.85,9.775-25.825,12.612c-2.342,1.59-5.725,4.909-9.009,3.604c-6.996,9.657-0.052,23.87-5.404,35.433
		c-2.354,0.85-6.408-0.001-7.808,1.801c1.36,2.644,3.071,4.938,2.401,9.61c-2.129-1.474-2.873-4.333-4.804-6.006
		c-2.235,9.785,3.14,34.848-12.612,32.431c-1.067,0.733-0.122,3.48-3.003,2.401c-2.17,0.569-0.837-2.365-1.2-3.604
		c-2.438-0.365-3.852-1.754-6.606-1.801c-3.049,9.274-4.225,24.775-11.41,31.828c-8.148,0.26-14.838,1.979-19.818,5.405
		c-2.91,12.122-1.958,25.574-15.615,27.626c-2.883,14.466,13.842,25.021,9.009,41.438c-3.084-0.48-4.562,0.645-6.606,1.202
		c-5.48-2.127-9.34-5.875-10.811-12.012c-5.424,6.544-12.795,23.582-22.82,16.816c-9.953-6.719,12.029-36.694-1.803-47.445
		c-5.94-0.335-11.142,0.068-15.014,1.802c-0.253,3.472,1.756,7.834,0,10.811c-1.715-2.289-2.625-5.382-3.002-9.008
		c-9.906,3.933-21.164,5.357-28.827,10.209c-4.239,0.435-7.245-0.364-9.609-1.801c-0.361,0.895-1.497,3.909-3.003,5.403
		c-1.67-0.73-1.115-3.688-1.201-6.006c-16.473-0.305-30.655,7.693-44.441,3.003c-3.455,2.416-5.794,8.932-10.209,8.408
		c-0.681-3.222,4.179-5.729,5.404-9.008c-0.957-1.644-4.533-0.672-6.005-1.801c-10.733-8.778-26.857-9.045-40.838-15.016
		c-11.017-2.328-22.038,3.359-29.427,8.408c0,1.202,0,2.402,0,3.604c-7.16,9.455-11.599,21.633-19.219,30.628
		c-3.729,0.916-7.58,1.989-10.811,1.801c-4.197-2.145-6.447-10.817-3.604-16.215c-6.25,2.558-9.871,7.745-19.817,6.606
		c-3.542-1.863-5.071-5.739-6.006-10.209c8.648-10.97,19.329-19.908,30.028-28.827c-1.543-10.243-1.73-17.098-6.006-24.623
		c-5.188-9.129-17.355-14.661-19.218-24.624c-1.142-6.101,1.4-10.314-0.601-18.616c-2.315-3.49-7.731-3.879-10.811-6.606
		c-2.307,2.898-4.622,5.788-7.807,7.808c0.33-4.475,3.377-6.231,4.805-9.609c-7.535-13.882,5.043-39.227-12.012-43.239
		c-2.514,1.09-3.985,3.221-8.408,2.402c0.883-2.322,3.697-2.711,5.405-4.205c-0.567-3.129-4.451-7.892-6.606-11.411
		c4.799-11.631,15.943-29.884,7.207-42.639c-0.227-0.331-0.715,0.369-0.601,0.601C5.365,144.891,3.69,141.949,1.201,139.617z
		 M46.244,43.528c-3.771-0.521-0.788-3.827-1.803-5.405c-4.945,6.065-8.122,13.898-10.811,22.222
		c1.753,6.377-1.55,16.421-4.804,21.62c-5.919,2.488-14.944,1.872-16.815,8.407c1.693,4.824,5.707,5.86,6.605,10.811
		c1.949,10.741-6.068,20.271-8.408,28.226c3.99,5.088,4.746,7.876,9.009,13.813c-6.237,1.06-7.397-7.69-11.41-10.811
		c-5.794,9.455,3.479,11.927,5.405,18.017c3.46,10.94-1.732,24.791-5.405,31.83c-1.698,3.254-3.581,3.381-3.604,6.006
		c-0.03,3.68,4.232,7.313,5.405,9.608c3.91,0.898,4.658-6.544,9.608-6.605c0.659,6.465-4.876,6.735-7.206,10.209
		c15.659,2.398,9.514,24.59,10.811,40.238c4.822-0.782,4.201-7.009,7.807-9.009c5.086,3.493-5.039,8.742-4.204,12.611
		c0.528,2.448,8.12,3.544,10.21,5.405c7.586,6.76,0.012,22.426,6.005,30.028c0.238,0.301,1.526-0.276,1.802,0
		c0.273,0.272-0.301,1.569,0,1.802c8.482,6.562,16.62,16.046,19.218,28.226c4.843,22.702-4.886,33.646-3.003,56.452
		c12.619,2.344,12.875-12.7,19.819-18.017c2.974-7.035,5.156-14.861,10.81-19.217c0.71-0.692,2.123-0.68,3.604-0.602
		c7.228-6.931,23.086-6.7,34.832-4.804c15.13,2.442,26.131,14.658,40.839,13.813c1.077-3.729,1.065-8.543,5.404-9.01
		c0.848,5.161-3.433,8.029-2.401,11.41c14.576-0.436,22.531-7.496,39.035-6.005c2.128-0.066-1.275-1.985,0.602-1.801
		c1.924,0.277,2.117,2.286,4.203,2.402c0.363-1.238-0.969-4.173,1.201-3.604c0.971,1.231,0.908,3.497,2.402,4.205
		c1.813-0.195,7.368,1.026,9.609,2.402c6.352-5.461,18.628-4.995,26.424-9.01c-2.182-0.285-3.693-5.773-0.6-6.006
		c1.59,2.014,2.649,4.558,4.805,6.006c1.092-1.984,4.184-0.634,3.603-3.003c5.635-0.1,15.81-0.701,19.218,2.402
		c1.174,9.158,3.463,16.063,1.201,24.022c-1.741,6.129-8.369,12.506-4.804,21.621c10.039,0.429,10.065-9.152,16.215-12.613
		c2.249-9.855,10.886-16.209,8.407-28.825c-5.002,0.727-5.289-9.754,0-10.811c3.084,0.72,4.413,3.195,7.809,3.603
		c7.266-8.548,6.238-25.391,15.014-32.43c5.554-0.205,8.17-1.405,13.212,0c10.589-5.825,4.237-28.594,15.614-33.631
		c2.445-0.043,2.845,1.959,6.006,1.2c-0.027-0.588-0.972-4.643,1.801-5.404c1.393,1.811,2.625,3.782,2.402,7.206
		c1.802,0,3.604,0,5.405,0c5.797-8.385-5.188-25.81,5.405-31.829c0.093-3.111-0.612-7.019,1.802-7.807
		c2.068,0.334,0.844,3.96,3.003,4.203c7.126-0.022,7.813-13.209,4.805-19.819c2.896-10.044,3.507-19.063,14.413-21.619
		c10.662-2.498,23.037-4.142,28.828-13.212c11.948-4.067,19.054-18.18,28.225-27.026c1.712-7.096,7.75-9.865,9.009-17.415
		c4.015-4.896,8.597-8.633,13.213-13.213c6.584-6.532,13.055-13.746,19.817-19.217c8.222-6.65,19.529-10.778,26.425-17.417
		c7.077-6.813-0.633-17.629-10.209-18.017c-12.952,2.568-22.846,13.109-30.027,23.422c-1.699-0.496-1.557,0.847-3.003,0.601
		c-11.048,16.578-25.805,29.447-34.232,48.645c-2.566,1.638-4.968,3.44-5.405,7.207c-12.188,9.691-20.015,27.852-39.036,30.629
		c-24.317,3.549-22.684-18.097-29.428-31.23c-2.437-10.374-3.943-21.68-7.207-31.228c-3.192-3.014-6.849-5.562-9.008-9.609
		c-12.104,0.074-20.985-6.217-20.419-16.815c-3.857,0.378-8.145,3.436-10.209-0.601c3.284-0.519,5.579-2.028,9.008-2.402
		c-1.602-6.606-1.703-14.713-5.405-19.218c-16.472-2.071-35.891,0.729-48.044,3.003c-3.313,2.493-4.646,6.964-7.809,9.608
		c-0.768-0.033-0.831-0.77-1.801-0.6c-0.32-5.525,3.717-6.693,5.405-10.211c-9.581-1.896-7.01-17.168-15.615-18.616
		c-8.55-1.439-14.587,6.031-25.224,5.405c-10.475,5.139-17.832,13.396-34.832,12.011c-4.148-2.67-4.187-6.686-3.604-13.213
		c-8.125-0.753-14.234,1.213-21.619,3.003c-5.561,1.349-8.361,3.702-12.012,4.805c-7.137,2.155-17.426,4.69-23.422-0.601
		c-0.814-3.563-2.848-7.14-2.402-10.21c-0.732-0.067-1.422-0.179-1.201-1.2c-15.573,0.441-23.217,8.812-31.83,16.214
		c-2.52-3.003-3.785,2.977-6.605,0C100.005,45.951,97.45,30.36,86.48,24.312c-0.898-6.368-1.43-20.521-7.207-21.621
		c-6.369-1.213-11.063,14.309-13.211,17.416c-0.297,2.106-0.896,3.91-0.602,6.606c-2.855-0.253-3.097,2.108-4.805,3.003
		c-0.062,1.863,1.891,1.714,1.201,4.204c-2.399,1.604-3.791,4.216-6.605,5.405c-1.232-4,3.268-8.117,1.201-9.008
		c-3.071,2.934-2.135,9.876-4.805,13.211c-4.807-2.238,0.934-9.932,0-12.011C48.203,33.878,50.377,41.855,46.244,43.528z
		 M44.441,340.805c-0.643,0.719-0.512,2.354-1.201,3.003c-2.352,2.221-6.807,3.781-7.807,6.607
		c-1.002,2.833-0.076,5.689,1.802,8.406c9.736,0.73,11.911-6.104,19.817-7.206c0.232-8.207,5.684-17.495,3.004-24.622
		C56.962,333.078,48.687,336.064,44.441,340.805z M303.283,356.421c3.188,4.527,4.807,13.458,13.212,10.809
		c-1.05-10.36-5.28-17.54-8.408-25.822C306.989,346.914,305.275,351.807,303.283,356.421z"/>
</g>
</svg>
