<?xml version="1.0" encoding="utf-8"?>
<!-- Generator: Adobe Illustrator 15.1.0, SVG Export Plug-In . SVG Version: 6.00 Build 0)  -->
<!DOCTYPE svg PUBLIC "-//W3C//DTD SVG 1.1//EN" "http://www.w3.org/Graphics/SVG/1.1/DTD/svg11.dtd">
<svg version="1.1" id="圖層_1" xmlns="http://www.w3.org/2000/svg" xmlns:xlink="http://www.w3.org/1999/xlink" x="0px" y="0px"
	 width="475.833px" height="285.062px" viewBox="0 0 475.833 285.062" enable-background="new 0 0 475.833 285.062"
	 xml:space="preserve">
<g>
	<path fill-rule="evenodd" clip-rule="evenodd" fill="#F7F7F7" d="M319.673,77.308c-2.327-0.346-4.533-1.207-6.803-1.743
		c-12.952-7.162-28.389-10.452-42.733-10.087c-3.485,0.088-5.933,2.575-6.915,5.486c-11.805-1.714-23.518-2.755-35.703-1.703
		c-11.001,0.95-23.059,0.915-33.701,4.597c-11.136,0.356-25.525,1.924-29.568,10.415c-12.973,1.424-26.692,4.854-35.734,13.385
		c-1.457,0.224-2.914,0.467-4.371,0.754c-0.525,0.104-1.01,0.272-1.459,0.485c-5.912-0.892-11.735-2.208-17.26-4.257
		c-2.943-6.891-6.111-13.695-9.224-20.516c-2.22-10.687-5.796-21.19-9.499-31.141c-0.941-2.532-2.671-4.131-4.63-4.863
		c-0.487-1.701-0.947-3.413-1.37-5.137c-1.987-8.11-15.401-6.533-14.732,1.994c0.084,1.064,0.246,2.277,0.209,3.398
		c-1.898,0.827-3.561,2.304-4.449,4.253c-0.301,0.074-0.613,0.149-0.943,0.226c-5.92,1.375-11.803,2.23-16.975,5.708
		C33.167,55.722,25.016,69.245,24.296,82.59c-1.248,0.988-2.242,2.287-2.725,3.728c-2.488,7.424-0.284,16.256,1.729,23.524
		c1.374,4.958,3.09,10.32,5.461,15.205c0.007,0.183,0.017,0.367,0.024,0.551c-1.762,0.985-3.073,2.779-3.149,5.381
		c-0.173,5.873,0.602,11.677,1.731,17.431c0.268,1.361,0.631,2.715,1.035,4.066c-0.441,0.834-0.729,1.779-0.767,2.836
		c-0.303,8.642,3.544,17.049,6.627,25.244c21.556,14.744,46.339,6.479,46.339,6.479c-0.072-1.254-0.114-2.513-0.124-3.777
		c5.354,1.563,11.016,2.365,16.616,2.795c4.131,1.706,8.331,2.746,12.783,2.599c3.986,1.055,7.953,2.214,11.986,2.992
		c8.414,1.622,16.582,0.807,24.934-0.79c16.294-3.116,32.211-4.752,48.807-5.234c16.754-0.488,33.863-0.643,50.498-2.994
		c3.413,0.422,6.838,0.733,10.256,0.922c5.477,0.302,11.579,0.273,16.861-1.643c3.672,1.361,7.039,3.093,9.833,5.207
		c0,0,19.448,5.695,28.708-1.614c0.113-1.698,0.214-3.391,0.305-5.073c0.994,1.027,1.989,2.033,2.939,3.033
		c0.326,0.345,0.635,0.699,0.936,1.059c0.02,0.279,0.038,0.559,0.056,0.838c0,0,9.251,5.492,22.013-0.743
		c5.581-15.076,10.026-31.771,9.482-47.791c2.27-1.884,3.592-5.047,2.545-7.834c-1.904-5.069-4.309-9.825-7.115-14.304
		c-0.76-1.833-1.617-3.64-2.592-5.414c-1.391-2.528-2.984-4.967-4.734-7.321C335.595,101.946,328.888,78.68,319.673,77.308z"/>
	<path fill-rule="evenodd" clip-rule="evenodd" fill="#FFC76E" d="M91.472,57.376c0.784-1.655,0.804-3.646-0.389-5.679
		c-1.961-3.344-3.664-6.298-6.861-8.61c-0.421-0.305-0.869-0.558-1.334-0.773c-0.026-0.346-0.068-0.699-0.15-1.064
		c-1.189-5.377-3.531-10.37-5-15.667c-1.749-6.312-10.684-6.096-12.535,0c-1.674,5.511-4.724,10.629-4.869,15.732
		c-1.525,0.326-2.969,0.815-4.245,1.537c-3.3-1.635-8.063-0.818-9.552,3.731c-5.5,16.813,13.858,29.468,27.433,33.893
		C89.11,85.412,97.403,67.713,91.472,57.376z"/>
	<path fill-rule="evenodd" clip-rule="evenodd" fill="#FFC76E" d="M298.585,107.419c-0.186-1.978-0.839-3.832-1.68-5.792
		c-2.064-4.813-5.329-8.82-9.93-11.399c-9.419-5.279-21.014-1.254-29.453,3.971c-7.688,4.758-12.995,12.471-14.963,21.266
		c-4.151,18.546,7.746,35.771,26.744,37.347c0.614,0.051,1.178,0.02,1.701-0.066c6.467,3.514,12.299,1.063,17.629-2.806
		c9.5-1.255,17.231-7.763,19.59-17.249C310.506,123.51,309.96,109.31,298.585,107.419z"/>
	<path fill-rule="evenodd" clip-rule="evenodd" fill="#BF9A66" d="M81.337,188.536c0.024-0.006-0.012-0.041-0.02-0.064
		c2.124-0.968,6.131-0.459,7.986-0.66c1.119-0.121,2.135-0.487,3.016-1.02c3.068,5.091,11.592,4.39,11.984-2.98
		c0.519-9.757-2.279-21.856-11.666-26.715c-11.313-5.854-19.654,2.833-24.457,12.168c-2.493,4.844-5.367,9.447-7.161,14.621
		c-0.6,1.73-0.932,3.518-1.058,5.324C59.962,189.21,71.966,190.636,81.337,188.536z"/>
	<path fill-rule="evenodd" clip-rule="evenodd" fill="#BF9A66" d="M243.531,66.71c-10.089-3.009-19.903,0.524-30.062,0.768
		c-8.148,0.195-8.377,12.524-0.638,12.984c1.028,0.918,2.462,1.461,4.305,1.35c2.771-0.167,5.874,1.933,8.479,2.861
		c2.717,0.967,5.908,0.989,8.758,0.811c6.548-0.409,12.416-4.002,13.697-10.778C248.739,71.167,247.134,67.785,243.531,66.71z"/>
	<g>
		<path fill-rule="evenodd" clip-rule="evenodd" d="M309.271,186.437c-2,0.094-2.123-0.784-2.123-0.784
			c-0.001-8.83,0.799-17.772,3.402-25.444c1.829-5.392,3.875-16.383,10.809-16.816c0.484,4.088-1.813,5.395-3.603,7.207
			c-3.59,10.285-5.354,22.495-6.117,34.9C311.486,185.967,311.271,186.343,309.271,186.437z M281.479,187.438
			c-2.375,0.604-3.36-0.805-3.36-0.805c-12.826-1.076-22.429,2.185-33.631,3.003c-11.936,0.871-24.424-0.074-36.634,0.6
			c-8.099,0.448-15.975,2.775-24.022,3.604c-9.521,0.981-19.921,0.563-29.428,0.602c-13.969,0.056-31.617-1.328-46.242-2.402
			c-9.762-0.717-15.521-1.869-22.822-4.205c0,0-6.984,1.898-4.203-3.603c7.791-2.68,13.603,2.827,20.419,4.204
			c11.228,2.269,22.403,1.932,35.433,2.402c22.606,0.814,43.125-0.313,65.461-2.402c12.152-1.137,32.05-1.24,48.646-3.604
			c11.532-1.643,23.493-2.713,31.829,0.601c0.087,0.346,0.17,0.689,0.25,1.032C283.173,186.464,283.854,186.833,281.479,187.438z
			 M324.362,79.733c-6.324-1.058-12.429-5.168-19.218-6.606c-27.671-5.857-81.849-7.473-111.704,0
			c-17.822,4.461-34.916,12.183-50.447,18.017c-8.938,3.357-15.594,8.524-28.826,7.207c-14.143-8.079-19.75-24.692-26.426-40.237
			c0.529-6.936-2.258-10.554-4.203-15.014c-0.875-1.527-3.642-1.163-4.204-3.002c0.543-4.418-2.403-13.928-6.606-17.417
			c-5.552,4.257-7.047,12.572-9.609,19.818c-5,0.405-4.424,6.387-7.206,9.009c-3.644-2.833,1.322-6.946,2.402-9.009
			c-6.06,0.547-3.574,9.639-7.808,12.011c-2.17,0.569-0.838-2.365-1.201-3.603c-2.699-0.497-0.664,3.74-3.002,3.603
			c-3.277,0.004-2.312-3.674-1.802-6.005c-1.644,1.96-2.034,5.172-3.003,7.808c-2.006,0.004-1.592-2.413-3.003-3.003
			c-13.037,13.364-13.854,35.418-11.411,62.458c1.893,20.932,1.564,42.052,6.006,58.854c0.975,1.46,1.428,3.441,1.666,5.637
			c-3.014,2.134-4.654-2.51-4.654-2.51c0.003-0.436-0.001-0.877-0.015-1.325c-0.328-10.746-5.017-23.588-6.005-34.231
			c-0.63-6.772-0.144-15.392-1.201-22.221c-0.85-5.479-0.334-12.768-0.601-19.218c-0.288-6.938-0.568-14.716,0-20.419
			c2.044-20.541,15.67-39.165,36.033-41.439c5.418-5.073,5.158-19.622,13.813-19.819c8.348-0.188,8.241,10.423,11.411,17.417
			c0.99,2.187,3.479,3.691,4.805,6.005c2.25,3.934,4.011,10.109,5.404,15.014c2.025,7.126,3.329,14.28,6.006,20.419
			c3.18,7.292,8.408,11.99,12.012,16.816c18.484,2.747,33.582-9.029,48.044-13.813c1.411-0.466,2.968-0.106,4.204-0.6
			c1.445-0.577,2.783-2.458,4.204-3.003c5.313-2.037,11.67-2.383,17.416-4.204c18.86-5.977,41.261-8.245,66.662-7.207
			c17.046,0.697,34.173,1.581,49.847,4.204c5.786,0.969,12.921,4.162,20.794,6.19c0,0,1.679,0.185,2.304,2.091
			S324.362,79.733,324.362,79.733z"/>
		<path fill-rule="evenodd" clip-rule="evenodd" d="M46.903,74.929c0.713,3.114-1.102,3.702-1.801,5.405
			c-2.658-0.545-4.961-1.446-6.006-3.604C38.547,71.807,45.099,72.745,46.903,74.929z"/>
		<path fill-rule="evenodd" clip-rule="evenodd" d="M60.717,89.942c3.136,4.894-10.233,7.577-9.609,1.201
			C55.544,91.978,56.444,89.274,60.717,89.942z"/>
		<path fill-rule="evenodd" clip-rule="evenodd" d="M52.309,100.753c6.399,1.608,11.764,4.251,15.015,9.008
			c-5.689,0.423-10.963-4.607-16.216-6.606C50.365,101.212,53.052,102.696,52.309,100.753z"/>
		<path fill-rule="evenodd" clip-rule="evenodd" d="M341.179,187.233c1.934,0.132,2.541-1.063,4.805-0.601
			c2.529-27.037,14.355-58.224,0-82.277c-1.604,0-3.203,0-4.805,0c0,0.6,0,1.201,0,1.802c-0.605,1.806,1.338,1.064,2.4,1.201
			c-1.951,2.536,1.635,4.019,2.404,6.005c2.375,6.145,3.156,17.092,2.402,25.224c-0.744,8.016-1.734,18.9-3.605,27.626
			c-1.702,7.952-5.226,13.573-7.284,19.765C337.496,185.979,338.522,187.773,341.179,187.233z"/>
		<path fill-rule="evenodd" clip-rule="evenodd" d="M319.33,185.24c-0.256-1.807-0.414-3.71-0.373-5.813
			c-2.659-0.658-2.986,1.016-4.804,1.201c-0.027,1.668,0.001,3.258,0.078,4.785c0,0,0.033,0.961,2.505,0.805
			S319.39,185.606,319.33,185.24z"/>
	</g>
</g>
<g>
	<path fill-rule="evenodd" clip-rule="evenodd" fill="#F7F7F7" d="M322.207,80.687c0.308-2.18,11.127-0.051,16.142-0.987
		c7.768-1.449,14.813-5.308,22.061-8.334c3.141-1.312,5.822-2.548,8.27-4.926c2.105-2.045,4.254-3.994,6.844-5.406
		c0.863-0.471,1.699-0.743,2.496-0.862c2.039-2.07,4.186-3.974,6.6-5.464c0.428-1.239,1.254-2.407,2.572-3.341
		c13.166-9.325,20.516-24.664,33.221-34.636c6.125-4.807,12.559-8.841,20.42-9.904c8.268-1.119,16.383,1.578,24.639,0.653
		c6.217-0.697,7.738,6.38,4.684,10.394c-1.207,2.568-3.865,4.487-7.41,3.707c-13.338-2.935-28.494,4.498-38.145,13.303
		c-9.482,8.648-17.504,18.885-28.225,26.044c-0.539,1.86-1.871,3.513-4.176,4.32c-4.168,1.459-7.629,7.472-10.596,10.535
		c-4.164,4.297-8.908,7.719-14.035,10.754c-1.633,1.69-3.305,3.332-5.082,4.851c-5.781,4.945-12.336,10.614-20.348,10.758
		c-0.439,0.008-0.861-0.048-1.275-0.132c-1.725,0.203-3.498,0.152-5.268-0.067C335.595,101.946,318.583,106.393,322.207,80.687z"/>
	<path fill-rule="evenodd" clip-rule="evenodd" fill="#BF9A66" d="M458.749,12.697c-4.467-6.39-11.596-7.306-18.832-6.109
		c-5.221,0.863-8.451,3.667-10.613,7.488c-0.496,0.399-0.979,0.828-1.43,1.306c-1.924,2.032-2.252,4.446-1.482,6.541
		c-1.107,6.468,7.285,9.623,11.131,5.626c3.947-0.011,7.846-1.302,11.229-3.625c0.152-0.104,0.289-0.216,0.43-0.327
		c2.484-0.233,4.889-0.819,7.236-2.006C459.397,20.084,460.692,15.478,458.749,12.697z"/>
	<g>
		<path fill-rule="evenodd" clip-rule="evenodd" d="M328.325,77.463c5.051,1.791,10.828,0.927,16.455-0.733
			c3.404-1.004,8.74-3.511,12.613-5.405c0.514-0.251,0.805-1.678,1.201-1.802c0.346-0.108,1.082,0.961,1.801,0.601
			c5.348-2.684,11.074-6.745,14.414-9.609c15.98-13.699,29.879-31.201,43.24-45.042c7.563-2.639,18.902-13.303,32.432-13.813
			c11.938-0.45,29.004,6.353,24.021,18.617c-5.422,4.993-13.012,3.13-20.42,4.204c-10.941,1.587-19.848,8.607-27.625,12.612
			c-5.988,7.424-14.783,12.042-18.617,21.62c-15.828,9.798-26.02,25.228-42.641,34.232c-1.08,2.124-4.035,2.37-4.805,4.805
			c-2.766,0.438-5.213,1.192-6.006,3.603c-6.516,0.092-12.896,4.924-16.815-0.6c1.288-2.258,3.308-0.213,6.005-0.601
			c19.824-6.941,33.334-19.616,48.047-33.03c3.664-3.342,7.383-6.792,10.809-10.209c6.379-6.361,9.459-11.617,16.814-18.017
			c7.744-6.738,19.326-15.863,32.432-17.417c9.463-1.121,17.893,1.008,21.018-7.207c-3.732-9.14-18.336-9.42-29.426-7.807
			c-2.744,1.46-5.078,3.329-9.008,3.603c-7.309,4.501-14.061,9.563-21.021,14.414c-15.922,20.711-33.699,39.566-58.252,51.648
			c-6.953,3.162-15.186,5.208-25.814,4.23c0,0-1.947,0.007-4.473-0.551S321.88,75.178,328.325,77.463z"/>
	</g>
</g>
<g>
	<path fill-rule="evenodd" clip-rule="evenodd" fill="#F7F7F7" d="M312.065,180.423c-1.329,24.622-4.762,51.158-19.621,70.697
		c-1.71,5.66-4.359,11.094-8.378,15.121c-4.473,4.482-12.907-0.011-10.864-6.324c0.604-1.863,1.492-3.645,1.435-5.605
		c-0.032-1.084,0.161-2.025,0.515-2.828c-0.025-0.797,0.102-1.635,0.42-2.498c4.309-11.699,8.123-24.438,7.814-37.029
		c-0.197-8.013-1.617-16.732-0.333-24.846c0,0,0.554-1.948-9.833-5.207s-22.531-20.713-5.387-20.925
		c13.5-0.167,23.793,10.5,43.5-25.833c7.106-13.102,8.006,12.5,8.006,12.5S310.958,159.062,312.065,180.423z"/>
	<g>
		<path fill-rule="evenodd" clip-rule="evenodd" d="M282.923,185.432c7.435,29.622-10.801,50.661-6.605,82.876
			c7.078-2.035,9.59-10.222,12.611-16.214c3.213-6.372,5.785-13.293,9.01-19.218c0.133-4.471,1.635-7.573,3.603-10.209
			c2.112-8.299,3.153-17.667,6.005-25.225c-0.754-12.268-0.778-26.092,3.004-37.234c1.829-5.392,3.875-16.383,10.809-16.816
			c0.484,4.088-1.813,5.395-3.603,7.207c-5.505,15.77-6.718,36.066-6.606,54.651c-0.238,1.763-1.97,2.033-2.402,3.604
			c-4.785,23.44-13.453,42.999-24.623,60.057c0.588,0.613,1.188,1.214,1.803,1.801c-3.12,1.892-8.776,3.411-12.612,1.202
			c-0.958-0.444,0.138-2.941-1.802-2.402c-2.445-20.73,7.377-44.006,10.21-65.462c0.919-6.958,0.118-13.901-3.604-17.416
			c0,0-1.516-0.401-0.993-1.613S279.43,183.802,282.923,185.432z"/>
	</g>
</g>
<g>
	<path fill-rule="evenodd" clip-rule="evenodd" fill="#F7F7F7" d="M342.6,170.737c-2.118,7.359-4.73,14.517-7.45,21.242
		c0.823,6.553,1.841,13.084,2.922,19.604c0.219,1.325,0.072,2.525-0.328,3.575c2.949,15.527,6.924,30.911,9.994,46.425
		c1.615,8.158-10.721,11.68-12.535,3.457c-1.033-4.684-2.875-9.196-4.115-13.839c-1.133-4.247-2.534-8.405-3.775-12.618
		c-2.637-8.957-4.674-18.096-7.027-27.129c-1.918-7.359-3.676-14.707-4.07-22.33c-0.079-1.533-0.168-3.072-0.273-4.609
		c-0.301-0.359-1.219-8.921-1.545-9.266c0,0-5.246-10.438,2.346-18.688S348.825,151.239,342.6,170.737z"/>
	<path fill-rule="evenodd" clip-rule="evenodd" d="M341.146,177.053c-2.684,4.055-3.892,8.521-4.771,13.183
		c-1.793,9.497-1.078,22.394,0,32.432c1.479,13.783,10.027,31.453,7.205,45.041c-8.613-2.103-8.084-16.646-11.41-24.022
		c0-1.602,0-3.202,0-4.804c-4.682-10.732-6.898-23.931-10.811-35.434c0.894-9.701-2.578-15.037-2.401-24.021
		c-2.659-0.658-2.986,1.016-4.804,1.201c-0.209,12.612,2.814,20.797,5.404,30.627c5.297,20.104,9.182,44.356,18.017,60.057
		c2.962-0.359,3.644,1.561,6.606,1.201c3.557-1.85,4.412-6.398,5.406-10.811c-5.59-23.805-11.922-48.78-8.408-74.469
		c1.934,0.132,2.541-1.063,4.805-0.601c0.204-2.181,0.469-4.389,0.775-6.617C346.759,180.016,344.958,171.293,341.146,177.053z"/>
</g>
<g>
	<path fill-rule="evenodd" clip-rule="evenodd" fill="#F7F7F7" d="M49.144,209.716c-1.846,8.989-8.837,17.418-12.583,25.693
		c-1.683,3.719-3.821,7.371-5.194,11.215c-1.347,3.771-2.285,7.691-3.709,11.436c-2.252,5.924-4.926,12.2-11.098,14.773
		c-5.042,2.101-9.415-3.285-10.075-7.626c-0.677-4.454-0.458-9.698,1.134-13.953c1.838-4.911,3.623-9.854,5.619-14.703
		c1.668-4.054,3.461-8.722,6.672-11.881c1.317-3.938,2.595-7.896,3.883-11.877c2.078-6.423,2.609-15.823,7.904-20.573
		c0.455-3.867,0.752-7.676,2.494-11.521c0,0,0.268-11.387,9.518-9.137S61.708,190.077,49.144,209.716z"/>
	<g>
		<path fill-rule="evenodd" clip-rule="evenodd" d="M53.833,192.526c0.66,1.56,1.416,2.296,2.25,3.91l-9.779,23.827
			c-5.924,18.326-20.395,31.22-22.822,51.048c-6.273,2.313-11.928,3.729-17.416,0c-3.763-9.408-3.506-17.814,0-27.025
			c2.435-6.395,8.305-11.55,10.811-18.617c1.057-2.982,0.707-6.432,1.801-9.609c1.29-3.739,4.113-6.967,5.406-10.81
			c0.909-2.704,0.979-6.202,1.801-9.009c1.609-5.491,4.459-11.508,4.204-19.818c0,0,0.677-4.242,3.003-1.802
			c1.202,1.802,1.611,4.396,1.802,7.207c0.099,1.206-2.401,5.405-2.401,5.405c-2.066,15.551-9.282,25.951-12.012,40.838
			c-1.467,0.335-19.76,31.236-9.609,43.24c5.35,0.945,6.594-2.215,9.609-3.604c4.354-21.201,19.4-34.471,23.422-54.05
			C43.901,213.658,52.443,190.989,53.833,192.526z"/>
	</g>
</g>
<g>
	<path fill-rule="evenodd" clip-rule="evenodd" fill="#F7F7F7" d="M45.069,209.352c1.572,3.573,3.197,7.136,4.858,10.724
		c2.368,5.111,4.172,10.17,7.499,14.773c3.016,4.171,6.59,7.905,9.85,11.879c7.619,9.287,15.654,18.221,23.264,27.514
		c4.004,4.889,13.357-0.367,10.864-6.324c-3.036-7.259-6.304-14.458-9.984-21.43c0.226-0.766,0.392-1.534,0.481-2.28
		c1.172-9.71-5.963-18.648-8.467-27.646c-0.008-0.028-0.014-0.058-0.021-0.086c1.095-1.06,1.746-2.567,1.557-4.496
		c-0.665-6.761-2.321-13.305-3.91-19.86c-0.354-2.931-0.559-5.88-0.581-8.861c-1.327-7.005-0.451-21.851-30.271-29.445
		c-15.375-3.916-17.542,9.842-17.542,9.842c-0.333,4.242-0.296,11.87,1.597,16.902c-0.023,0.049-0.05,0.092-0.073,0.143
		C34.19,180.698,41.889,205.141,45.069,209.352z"/>
	<path fill-rule="evenodd" clip-rule="evenodd" fill="#BF9A66" d="M71.621,163.663c-1.295,1.757-2.444,3.665-3.44,5.602
		c-2.493,4.844-5.367,9.447-7.161,14.621c-1.913,5.52-1.103,11.612,0.433,17.092c2.616,9.346,7.26,20.979,18.352,21.834
		c6.227,0.48,7.78-6.602,4.744-10.519c-0.021-0.688-0.167-1.425-0.477-2.21c-0.188-0.475-0.346-0.953-0.504-1.432
		c-1.803-5.78-0.5-11.063-1.496-17.068c-0.175-1.051-0.746-3.088-0.754-3.111C91.302,162.382,71.621,163.663,71.621,163.663z"/>
	<g>
		<path fill-rule="evenodd" clip-rule="evenodd" d="M30.013,174.878c0.034,0.52,0.06,1.034,0.075,1.545
			c0.007,0.225,0.011,0.448,0.014,0.67 M33.091,174.621c1.202,1.802,1.611,4.396,1.802,7.207
			c8.953,34.688,27.151,60.13,46.844,84.079c4.282,3.868,10.638,10.207,18.017,7.206c-6.035-26.811-21.951-54.685-18.617-88.883
			c0.058-0.611-0.748-1.483,1.906-1.085s2.297,4.688,2.297,4.688c-1.857,26.957,9.74,54.023,18.018,72.067
			c4.818,10.505-0.475,21.426-13.213,16.815c-3.328-1.204-5.089-4.818-8.407-5.404c-10.587-14.837-22.192-28.654-33.031-43.24
			c0.745-2.385-1.479-5.274-2.401-7.808c-0.351-0.859-2.463-6.684-2.463-6.684c-5.562-7.051-6.746-18.34-11.349-26.347
			c-2.217-6.87-2.392-9.754-2.392-9.754s-1.005-3.327,0.702-4.262S33.091,174.621,33.091,174.621z"/>
	</g>
</g>
</svg>
