<?xml version="1.0" encoding="utf-8"?>
<!-- Generator: Adobe Illustrator 21.1.0, SVG Export Plug-In . SVG Version: 6.00 Build 0)  -->
<svg version="1.1" id="圖層_1" xmlns="http://www.w3.org/2000/svg" xmlns:xlink="http://www.w3.org/1999/xlink" x="0px" y="0px"
	 viewBox="0 0 743.7 550" style="enable-background:new 0 0 743.7 550;" xml:space="preserve">
<style type="text/css">
	.cat0{fill:#F7F7F7;}
	.cat1{fill:#FFC76E;}
	.cat2{fill:#BF9A66;}
	.cat3{fill:#58B0E0;}
	.cat4{fill:#D9DADB;}
	.cat5{fill:#9FBAD1;}
</style>
<g>
	<g>
		<path class="cat0" d="M438.1,422.3c-1.3-0.2-2.5-0.7-3.8-0.9c-8.7-3.3-15.5-3.8-24-4.6c-1.9,0.1-16.7,0.4-23.5,1.1
			c-6.1,0.6-12.9,0.5-18.7,2.6c-6.2,0.2-14.2,1.1-16.5,5.8c-7.2,0.8-14.9,2.7-19.9,7.5c-0.8,0.1-1.6,0.3-2.4,0.4
			c-0.3,0.1-0.6,0.2-0.8,0.3c-3.3-0.5-6.5-1.2-9.6-2.4c-1.6-3.8-3.4-7.6-5.1-11.4c-1.2-6-3.2-11.8-5.3-17.3
			c-0.5-1.4-1.5-2.3-2.6-2.7c-0.3-0.9-0.5-1.9-0.8-2.8c-1.1-4.5-8.6-3.6-8.2,1.1c0.1,0.6,0.1,1.3,0.1,1.9c-1.1,0.4-2,1.3-2.4,2.4
			c-0.2,0.1-0.3,0.1-0.5,0.1c-3.3,0.8-6.6,1.2-9.5,3.2c-5.9,4-10.5,11.5-10.8,18.9c-0.7,0.6-1.2,1.3-1.5,2.1
			c-1.4,4.1-0.2,9.1,0.9,13.1c0.8,2.8,1.7,5.7,3.1,8.5c0,0.1,0,0.2,0,0.3c-1,0.6-1.7,1.6-1.7,3c-0.1,3.3,0.3,6.5,0.9,9.7
			c0.2,0.8,0.3,1.5,0.6,2.3c-0.2,0.4-0.4,1-0.4,1.6c-0.2,4.8,1.9,9.5,3.7,14c12,8.2,25.8,3.6,25.8,3.6c-0.1-0.7-0.1-1.4-0.1-2.1
			c3,0.9,6.1,1.3,9.2,1.6c2.3,0.9,4.6,1.5,7.1,1.4c2.2,0.6,4.5,1.2,6.7,1.7c4.7,0.9,9.2,0.4,13.9-0.4c9.1-1.7,17.9-2.7,27.2-2.9
			c9.3-0.3,18.9-0.3,28.1-1.7c1.9,0.2,3.8,0.4,5.7,0.5c3.1,0.2,6.5,0.2,9.4-0.9c2.1,0.8,3.9,1.7,5.5,2.9c0,0,10.8,3.2,16-0.9
			c0.1-0.9,0.1-1.9,0.2-2.8c0.6,0.6,1.1,1.1,1.6,1.7c0.2,0.2,0.3,0.4,0.5,0.6c0,0.2,0,0.3,0.1,0.4c0,0,5.2,3.1,12.2-0.4
			c3.1-8.4,5.6-17.7,5.3-26.6c1.3-1.1,2-2.8,1.4-4.3c-1.1-2.8-2.4-5.5-4-8c-0.4-1-0.9-2-1.4-3c-0.8-1.4-1.7-2.8-2.6-4.1
			C446.9,436,443.2,423.1,438.1,422.3z"/>
		<path class="cat1" d="M311.1,411.2c0.4-0.9,0.4-2-0.2-3.2c-1.1-1.8-2.1-3.5-3.8-4.8c-0.2-0.2-0.5-0.3-0.7-0.4
			c0-0.2-0.1-0.4-0.1-0.6c-0.7-3-1.9-5.8-2.8-8.7c-0.9-3.5-6-3.4-7,0c-0.9,3.1-2.6,5.9-2.7,8.7c-0.8,0.2-1.7,0.4-2.3,0.8
			c-1.8-0.9-4.5-0.4-5.3,2.1c-3.1,9.3,7.7,16.4,15.2,18.9C309.8,426.8,314.4,417,311.1,411.2z"/>
		<path class="cat1" d="M426.3,439.1c-0.1-1.1-0.4-2.1-0.9-3.2c-1.2-2.7-2.9-4.9-5.5-6.3c-5.2-2.9-11.7-0.7-16.4,2.2
			c-4.3,2.7-7.2,7-8.3,11.9c-2.3,10.3,4.3,19.9,14.9,20.8c0.3,0.1,0.7,0,0.9-0.1c3.6,1.9,6.8,0.6,9.8-1.6c5.3-0.7,9.6-4.3,10.9-9.6
			C433,448,432.7,440.1,426.3,439.1z"/>
		<path class="cat2" d="M305.5,484.2L305.5,484.2c1.2-0.6,3.4-0.3,4.5-0.4c0.6-0.1,1.2-0.3,1.7-0.6c1.7,2.8,6.5,2.4,6.7-1.7
			c0.3-5.5-1.3-12.2-6.5-14.9c-6.3-3.3-11,1.6-13.6,6.8c-1.4,2.7-3,5.2-4,8.1c-0.3,0.9-0.5,1.9-0.6,2.9
			C293.6,484.6,300.3,485.3,305.5,484.2z"/>
		<path class="cat2" d="M395.7,416.4c-5.6-1.7-11.1,0.3-16.7,0.4c-4.5,0.1-4.7,7-0.3,7.2c0.6,0.5,1.4,0.8,2.4,0.8
			c1.6-0.1,3.3,1.1,4.7,1.6c1.5,0.6,3.3,0.6,4.9,0.4c3.6-0.2,6.9-2.2,7.6-6C398.6,418.9,397.7,417,395.7,416.4z"/>
		<g>
			<path d="M423.9,484.6c-1.3,0.3-21.4-0.3-27.6,0.2c-6.6,0.5-13.6-0.1-20.4,0.3c-4.5,0.2-8.9,1.6-13.4,2
				c-5.3,0.6-11.1,0.3-16.4,0.3c-7.8,0.1-17.6-0.7-25.7-1.3c-5.5-0.4-8.6-1.1-12.7-2.3c0,0-3.9,1.1-2.3-2c4.3-1.5,7.6,1.6,11.3,2.3
				c6.2,1.3,12.5,1.1,19.7,1.3c12.6,0.4,24-0.2,36.4-1.3c6.8-0.6,17.8-0.7,27-2c6.4-0.9,20.1-0.4,24.7,1.4c0.1,0.2,0.1,0.4,0.2,0.6
				C424.8,484.1,425.2,484.3,423.9,484.6z M440.7,423.6c-3.5-0.6-6.9-2.9-10.7-3.7c-15.4-3.3-45.5-4.2-62.1,0
				c-9.9,2.5-19.4,6.8-28,10c-5,1.9-8.7,4.7-16,4c-7.8-4.5-11-13.7-14.7-22.4c0.3-3.8-1.3-5.9-2.3-8.3c-0.5-0.8-2-0.7-2.3-1.7
				c0.3-2.4-1.3-7.7-3.7-9.7c-3.1,2.4-3.9,7-5.3,11c-2.8,0.2-2.4,3.6-4,5c-2-1.6,0.7-3.8,1.3-5c-3.4,0.3-2,5.3-4.3,6.7
				c-1.2,0.3-0.4-1.3-0.7-2c-1.5-0.3-0.4,2.1-1.7,2c-1.8,0-1.3-2.1-1-3.3c-0.9,1.1-1.1,2.9-1.7,4.3c-1.1,0-0.9-1.3-1.7-1.7
				c-7.2,7.5-7.7,19.7-6.3,34.8c1.1,11.6,0.9,23.4,3.3,32.8c0.6,0.8,0.8,1.9,0.9,3.1c-1.7,1.2-2.6-1.9-2.6-2.1
				c-0.2-6-2.8-13.1-3.3-19c-0.3-3.8-0.1-8.6-0.7-12.4c-0.5-3.1-0.7-18.9-0.3-22c1.1-11.4,8.7-21.8,20-23c3-2.8,2.9-10.9,7.7-11
				c4.6-0.1,4.6,5.8,6.3,9.7c0.6,1.2,1.9,2.1,2.7,3.3c1.3,2.2,2.2,5.6,3,8.3c1.1,4,1.8,8,3.3,11.3c1.8,4.1,4.7,6.7,6.7,9.3
				c10.3,1.5,18.7-5,26.7-7.7c0.8-0.3,3.9-1.7,4.7-2c2.9-1.1,6.5-1.3,9.7-2.3c10.5-3.3,23-4.6,37.1-4c9.5,0.4,19,0.9,27.7,2.3
				c3.2,0.6,7.2,2.3,11.6,3.4c0,0,0.9,0.1,1.3,1.2C441.5,424.1,440.7,423.6,440.7,423.6z"/>
			<path d="M286.3,421c0.4,1.7-0.6,2.1-1,3c-1.5-0.3-2.8-0.8-3.3-2C281.7,419.2,285.3,419.7,286.3,421z"/>
			<path d="M294,429.3c1.7,2.7-5.7,4.2-5.3,0.7C291.1,430.5,291.6,429,294,429.3z"/>
			<path d="M289.4,435.3c3.6,0.9,6.6,2.4,8.3,5c-3.2,0.2-6.1-2.6-9-3.7C288.2,435.6,289.7,436.4,289.4,435.3z"/>
			<path d="M450,483.4c1.1,0.1,1.4-0.6,2.7-0.3c1.4-15,8-32.4,0-45.8c-0.9,0-1.8,0-2.7,0c0,0.3,0,0.7,0,1c-0.3,1,0.7,0.6,1.3,0.7
				c-1.1,1.4,0.9,2.2,1.3,3.3c1.3,3.4,1.8,9.5,1.3,14c-0.4,4.5-0.9,10.5-2,15.4c-0.9,4.5-2.9,7.6-4.1,11
				C448,482.8,448.6,483.8,450,483.4z"/>
		</g>
	</g>
	<g>
		<path class="cat0" d="M450.8,474.3c-1.2,4.1-2.6,8.1-4.2,11.8c0.4,3.7,1,7.3,1.6,10.9c0.1,0.7,0.1,1.4-0.2,2
			c1.6,8.6,3.8,17.2,5.6,25.8c0.9,4.6-6,6.5-7,1.9c-0.6-2.6-1.6-5.1-2.3-7.7c-0.6-2.3-1.4-4.7-2.1-7c-1.4-5-2.6-10.1-3.9-15.1
			c-1.1-4.1-2.1-8.2-2.3-12.4c-0.1-0.8-0.1-1.7-0.2-2.6c-0.2-0.2,2.1-10.2,1.9-10.4c0,0,3.4-7.5,5.8-7.6
			C449.6,461.5,454.3,463.4,450.8,474.3z"/>
		<path d="M450,477.8c-1.5,2.3-2.2,4.7-2.7,7.3c-1,5.3-0.6,12.5,0,18c0.8,7.7,5.6,17.5,4,25c-4.8-1.2-4.5-9.2-6.3-13.4
			c0-0.9,0-1.8,0-2.7c-2.6-6-3.8-13.3-6-19.7c0.5-5.4-1.4-8.3-1.3-13.4c-1.5-0.4-1.7,0.6-2.7,0.7c-0.1,7,1.6,11.6,3,17
			c2.9,11.2,5.1,24.7,10,33.4c1.7-0.2,2,0.9,3.7,0.7c2-1,2.4-3.6,3-6c-3.1-13.2-6.6-27.2-4.7-41.4c1.1,0.1,1.4-0.6,2.7-0.3
			c0.1-1.2,0.3-2.4,0.4-3.7C453.1,479.4,452.1,474.6,450,477.8z"/>
	</g>
	<g>
		<path class="cat0" d="M294.4,494.2c1.1,5-0.6,10.8-0.7,15.9c0,2.3-0.3,4.6-0.2,6.9c0.2,2.2,0.5,4.4,0.7,6.6c0.1,3.5,0.2,7.3-2.4,10
			c-2.1,2.2-5.5,0.4-6.8-1.6c-1.4-2.1-2.4-4.8-2.6-7.4c-0.2-2.9-0.4-5.8-0.4-8.7c0-2.5-0.2-5.2,0.8-7.6c-0.2-2.3-0.4-4.6-0.7-6.9
			c-0.4-3.7-2.2-8.6-0.6-12.3c-0.6-2.1-1.3-4.1-1.3-6.4c0,0-2.4-5.9,2.8-6.8S296.5,481.4,294.4,494.2z"/>
		<g>
			<path d="M293,484.4c0.7,0.7,1.2,0.9,2,1.5l0.3,14.3c1.1,10.6-3.4,20.5-0.2,31.1c-2.7,2.6-5.2,4.5-8.9,3.9c-4-3.9-5.8-8.3-6-13.8
				c-0.2-3.8,1.7-7.7,1.4-11.9c-0.1-1.8-1.1-3.4-1.2-5.3c-0.2-2.2,0.5-4.5,0.3-6.7c-0.1-1.6-0.9-3.4-1.1-5c-0.4-3.2-0.3-6.9-2.3-11
				c0,0-0.6-2.3,1.1-1.6c1,0.6,1.8,1.9,2.5,3.3c0.3,0.6,0,3.3,0,3.3c2.4,8.4,1.1,15.3,3,23.5c-0.7,0.5-3.1,20.3,4.7,24.2
				c3-0.7,2.9-2.6,4.1-4c-2.5-11.8,2.2-21.9-0.1-32.8C292.6,497.3,292,483.9,293,484.4z"/>
		</g>
	</g>
	<g>
		<path class="cat0" d="M443.6,477.6c4,13.1,7.3,27.7,3.3,40.7c0.2,3.3-0.2,6.6-1.5,9.5c-1.5,3.2-6.7,2.5-6.9-1.2
			c0-1.1,0.1-2.2-0.3-3.2c-0.2-0.6-0.3-1.1-0.3-1.6c-0.2-0.4-0.3-0.9-0.3-1.4c0-6.9-0.4-14.3-3-20.8c-1.6-4.1-4-8.4-4.9-12.9
			c0,0-4.6-3.6-4.8-6.5c-2.2-13.9,9-19.7,12.5-21.8c3-0.8,3.8,0.7,3.8,0.7S439,466.7,443.6,477.6z"/>
		<g>
			<path d="M429.4,485.8c9.5,14.1,4,28.6,12.4,44.6c3.3-2.4,3.1-7.2,3.5-10.9c0.4-4,0.5-8.1,1-11.8c-0.8-2.4-0.6-4.3-0.1-6
				c-0.5-4.7-1.7-9.9-1.7-14.3c-2.8-6.3-5.4-13.5-5.5-20c-0.1-3.2-1.1-9.3,2.4-10.8c1,2,0.1,3.2-0.5,4.4c0.1,9.3,3.4,20.1,7,29.8
				c0.2,1-0.7,1.4-0.6,2.3c2,13.1,1.2,25-1.4,36.1c0.4,0.2,0.9,0.4,1.3,0.6c-1.3,1.6-3.9,3.5-6.4,3c-0.6,0-0.5-1.5-1.4-0.9
				c-5.2-10.4-4.5-24.4-7.2-36.2c-0.9-3.8-2.6-7.3-5.2-8.4c0,0-0.9,0.1-0.8-0.6C426.3,485.9,427.3,485.6,429.4,485.8z"/>
		</g>
	</g>
	<g>
		<path class="cat0" d="M282.6,489.5c-0.1,2.2-0.2,4.3-0.3,6.5c-0.1,3.1-0.5,6.1-0.1,9.2c0.4,2.8,1.3,5.6,1.9,8.4
			c1.4,6.5,3.1,13,4.5,19.5c0.7,3.4,6.7,3.2,7-0.3c0.4-4.4,0.6-8.8,0.5-13.1c0.3-0.3,0.6-0.6,0.8-1c3.1-4.5,1.8-10.7,2.8-15.8l0,0
			c0.8-0.3,1.5-0.9,1.9-1.8c1.4-3.5,2.2-7.2,3.1-10.8c0.5-1.5,1.2-3.1,2-4.6c1.1-3.8,5.3-11-7.5-22.3c-6.6-5.8-11.2,0.4-11.2,0.4
			c-1.2,2-3.2,5.8-3.5,8.8c0,0,0,0-0.1,0C284.5,472.5,282.1,486.6,282.6,489.5z"/>
		<path class="cat2" d="M307.4,473.7c-1.1,0.6-2.1,1.2-3.1,1.9c-2.5,1.7-5.1,3.3-7.3,5.4c-2.3,2.2-3.5,5.5-4.2,8.6
			c-1.1,5.3-1.7,12.2,3.6,15.5c2.9,1.8,5.5-1.3,5-4c0.2-0.3,0.3-0.7,0.3-1.2c0-0.3,0.1-0.6,0.1-0.8c0.6-3.3,2.6-5.6,3.6-8.8
			c0.2-0.6,0.4-1.7,0.4-1.7C317.4,478,307.4,473.7,307.4,473.7z"/>
		<g>
			<path d="M284,468.6c-0.1,0.2-0.2,0.5-0.3,0.8c-0.1,0.1-0.1,0.2-0.2,0.3 M285.5,469.2c0.1,1.2-0.3,2.6-0.9,4
				c-4.4,19.5-1.8,36.7,1.7,53.5c1.1,3,2.6,7.7,7.1,8.1c3.9-14.8,3-32.7,13.4-48.7c0.2-0.3,0-0.9,1.2-0.1c1.2,0.9-0.1,2.9-0.1,2.9
				c-7.8,12.9-8.9,29.2-9.4,40.3c-0.3,6.4-5.7,10.5-10.8,5c-1.3-1.4-1.3-3.7-2.8-4.8c-1.5-10-3.7-19.8-5.3-29.8c1-1,0.6-3,0.8-4.5
				c0-0.5,0.5-4,0.5-4c-1-4.9,1.3-10.8,1.1-15.9c0.7-4,1.3-5.5,1.3-5.5s0.3-1.9,1.4-1.9S285.5,469.2,285.5,469.2z"/>
		</g>
	</g>
	<g>
		<path class="cat0" d="M439.5,424.2c0.2-1.2,6.2-0.1,9-0.6c4.3-0.8,8.2-2.9,12.3-4.6c1.7-0.7,3.2-1.4,4.6-2.7c1.2-1.1,2.4-2.2,3.8-3
			c0.5-0.3,0.9-0.4,1.4-0.5c1.1-1.2,2.3-2.2,3.7-3.1c0.2-0.7,0.7-1.3,1.4-1.8c7.3-5.2,11.4-13.7,18.5-19.3c3.4-2.7,7-4.9,11.3-5.5
			c4.6-0.6,9.1,0.9,13.7,0.4c3.4-0.4,4.3,3.6,2.6,5.8c-0.7,1.4-2.2,2.5-4.1,2.1c-7.4-1.6-15.9,2.5-21.2,7.4
			c-5.3,4.8-9.7,10.5-15.7,14.5c-0.3,1.1-1.1,1.9-2.3,2.4c-2.3,0.8-4.2,4.2-5.9,5.8c-2.3,2.4-5,4.3-7.8,6c-0.9,0.9-1.8,1.8-2.8,2.7
			c-3.2,2.7-6.8,5.9-11.3,6c-0.2,0-0.5,0-0.7-0.1c-0.9,0.1-1.9,0.1-2.9-0.1C446.9,436,437.5,438.5,439.5,424.2z"/>
		<path class="cat2" d="M515.5,386.4c-2.5-3.6-6.5-4.1-10.5-3.4c-2.9,0.5-4.7,2.1-5.9,4.2c-0.3,0.2-0.6,0.4-0.8,0.7
			c-1.1,1.1-1.3,2.4-0.8,3.6c-0.6,3.6,4.1,5.3,6.2,3.1c2.2,0,4.3-0.7,6.2-2c0.1-0.1,0.2-0.1,0.2-0.2c1.4-0.1,2.7-0.4,4-1.1
			C515.8,390.5,516.5,387.9,515.5,386.4z"/>
		<g>
			<path d="M442.9,422.4c2.8,1,6,0.5,9.2-0.4c1.9-0.6,4.8-1.9,7-3c0.3-0.2,0.4-0.9,0.7-1c0.2-0.1,0.6,0.6,1,0.3
				c2.9-1.5,6.2-3.7,8-5.3c8.9-7.6,16.6-17.4,24-25c4.2-1.4,10.5-7.4,18-7.7c6.6-0.2,16.1,3.6,13.4,10.3c-3,2.8-7.2,1.7-11.3,2.3
				c-6.1,0.9-11,4.8-15.4,7c-3.3,4.1-8.2,6.7-10.3,12c-8.8,5.5-14.5,14-23.7,19c-0.6,1.2-2.2,1.3-2.7,2.7c-1.6,0.2-2.9,0.7-3.3,2
				c-3.6,0.1-7.2,2.7-9.3-0.3c0.7-1.3,1.8-0.1,3.3-0.3c11-3.8,18.5-10.9,26.7-18.4c2.1-1.8,4.1-3.8,6-5.7c3.6-3.6,5.3-6.5,9.3-10
				c4.3-3.7,10.7-8.8,18-9.7c5.3-0.6,10,0.6,11.7-4c-2.1-5.1-10.2-5.2-16.4-4.3c-1.5,0.8-2.8,1.8-5,2c-4.1,2.5-7.8,5.3-11.7,8
				c-8.8,11.5-18.7,22-32.4,28.7c-3.9,1.8-8.5,2.9-14.4,2.3c0,0-1.1,0-2.5-0.3C439.5,423.4,439.3,421.1,442.9,422.4z"/>
		</g>
	</g>
</g>
<g>
	<path class="cat0" d="M283.1,350.2c0.6,1.1-2.4,5.5,0.3,6.7c1.4-1.9,0.7-5.7,2.4-7.5c1.2,0.4-1.2,2.8-0.5,5c1.6-0.7,2.3-2.2,3.6-3.1
		c0.3-1.4-0.8-1.3-0.8-2.3c0.9-0.6,1-1.8,2.6-1.8c-0.2-1.5,0.1-2.5,0.2-3.7c1.1-1.8,3.4-10.5,7-10c3.2,0.5,3.8,8.3,4.5,11.9
		c6.2,3.1,8,11.7,9.4,19c1.6,1.6,2.2-1.8,3.7-0.1c4.6-4.3,8.7-9.1,17.4-9.7c-0.1,0.6,0.3,0.6,0.7,0.7c-0.2,1.7,1,3.7,1.6,5.6
		c3.4,2.8,9.1,1.2,13-0.2c2-0.7,3.5-2.1,6.6-2.9c4.1-1.2,7.4-2.4,12-2.1c-0.2,3.6-0.1,5.9,2.3,7.3c9.5,0.4,13.4-4.3,19.1-7.4
		c6,0.1,9.1-4.2,13.9-3.6c4.8,0.6,3.7,9.2,9.1,10c-0.9,2-3.1,2.7-2.8,5.8c0.6-0.1,0.6,0.3,1,0.3c1.7-1.6,2.3-4.1,4.1-5.5
		c6.7-1.5,17.5-3.5,26.6-2.7c2.2,2.4,2.4,7,3.4,10.6c-1.9,0.3-3.1,1.2-5,1.5c1.2,2.2,3.6,0.4,5.7,0.1c-0.1,5.9,5,9.2,11.7,8.9
		c1.3,2.2,3.4,3.6,5.2,5.2c2,5.2,3.1,11.5,4.7,17.2c4,7.2,3.6,19.3,17,16.7c10.5-1.9,14.5-12.2,21.1-17.9c0.2-2.1,1.4-3.2,2.8-4.1
		c4.3-10.8,12.2-18.3,18-27.8c0.8,0.1,0.7-0.6,1.7-0.4c3.8-5.9,9.1-12,16.2-13.6c5.3,0,9.8,5.8,6.1,9.8c-3.7,3.8-9.9,6.3-14.4,10.2
		c-3.7,3.2-7.1,7.3-10.6,11.1c-2.4,2.7-5,4.8-7.1,7.6c-0.6,4.2-3.8,5.9-4.6,9.8c-4.9,5.1-8.6,13.1-15.1,15.6c-3,5.2-9.8,6.3-15.7,8
		c-6,1.7-6.2,6.7-7.6,12.3c1.8,3.6,1.7,11-2.3,11.1c-1.2-0.1-0.6-2.1-1.8-2.3c-1.3,0.5-0.8,2.7-0.8,4.4c-5.8,3.6,0.7,13-2.3,17.8
		c-1,0.1-2,0.1-3,0.1c0.1-1.9-0.7-3-1.5-4c-1.5,0.5-0.9,2.7-0.9,3.1c-1.7,0.5-2-0.6-3.3-0.6c-6.2,3.1-2.2,15.6-8,19
		c-2.8-0.7-4.3,0.1-7.3,0.3c-4.7,4.1-3.8,13.5-7.7,18.4c-1.9-0.2-2.7-1.5-4.4-1.8c-2.9,0.7-2.6,6.5,0.2,6c1.7,7-3,10.7-4.1,16.2
		c-3.3,2.1-3.2,7.4-8.7,7.3c-2.2-5,1.4-8.7,2.2-12.1c1.1-4.5-0.3-8.3-1.2-13.4c-1.9-1.7-7.6-1.1-10.7-0.9c0.4,1.3-1.4,0.6-1.9,1.7
		c-1.2-0.8-1.9-2.2-2.8-3.2c-1.7,0.2-0.8,3.2,0.4,3.3c-4.2,2.4-11.1,2.4-14.5,5.6c-1.3-0.7-4.4-1.3-5.4-1.1
		c-0.8-0.4-0.8-1.6-1.4-2.3c-1.2-0.3-0.4,1.3-0.6,2c-1.2,0-1.3-1.1-2.4-1.2c-1.1-0.1,0.9,0.9-0.3,1c-9.2-0.5-13.5,3.6-21.6,4.2
		c-0.7-1.8,1.7-3.6,1.1-6.4c-2.4,0.3-2.3,3-2.8,5.1c-8.2,0.8-14.5-5.8-23-6.8c-6.6-0.8-15.4-0.6-19.3,3.4c-0.8,0-1.6,0-2,0.4
		c-3.1,2.6-4.1,7-5.6,10.9c-3.7,3.1-3.6,11.5-10.6,10.5c-1.5-12.6,3.7-18.9,0.5-31.4c-1.7-6.7-6.4-11.8-11.3-15.3
		c-0.2-0.1,0.1-0.8-0.1-1c-0.2-0.2-0.9,0.2-1,0.1c-3.5-4.1,0.4-13-4-16.6c-1.2-1-5.5-1.4-5.8-2.8c-0.6-2.1,5-5.3,2.1-7.1
		c-1.9,1.2-1.5,4.6-4.2,5.2c-1.1-8.7,1.9-21.1-6.8-22.1c1.2-2,4.3-2.2,3.8-5.8c-2.7,0.1-3,4.3-5.2,3.9c-0.7-1.2-3.2-3.2-3.2-5.2
		c-0.1-1.4,1-1.6,1.9-3.4c1.9-4,4.5-11.8,2.3-17.8c-1.2-3.3-6.4-4.5-3.4-9.9c2.3,1.7,3.1,6.5,6.6,5.8c-2.5-3.2-2.9-4.7-5.3-7.5
		c1.1-4.5,5.4-10,4.1-15.9c-0.6-2.7-2.8-3.2-3.9-5.9c0.9-3.7,6-3.5,9.2-5c1.7-2.9,3.3-8.6,2.2-12.1c1.3-4.7,2.9-9.1,5.6-12.6
		c0.6,0.8-1,2.8,1.1,2.9C282.6,356,281.2,351.6,283.1,350.2z M280.2,363c1.1,0.7,4.4,1.3,4-1.2C283.2,359.9,280.1,360.5,280.2,363z
		 M284.8,369.5c0,0.2,0,0.4,0,0.7c2.7-0.5,7.1,0.6,8.7-1C292,368.2,286.2,368.3,284.8,369.5z M287.1,376.5c3.2,0.8,5.7,2.4,9.1,3
		c-1.7-3.1-6.3-2.9-9.2-4.7C287,375.3,287.1,375.9,287.1,376.5z"/>
	<path class="cat1" d="M436.7,426.3c-0.2-0.9-0.6-1.7-0.9-2.5c-0.1-0.5-0.2-0.9-0.4-1.4c-0.6-1.4-1.5-2.5-2.5-3.6
		c-0.7-1.3-1.3-2.7-1.4-4.1c-0.1-0.6-0.1-1.2-0.1-1.8c4.1-4.1,0.9-9.6-3.9-11.5c-4.2-2.9-10.2-2.6-13.4-6.7
		c-1.1-1.4-2.7-1.7-4.1-1.3c-0.8-0.6-1.7-1.2-2.7-1.6c-3.2-1.2-7.1,1.2-9.4,3.2c-0.4,0.4-0.8,0.8-1.2,1.3c-3.1,1.8-6,4.6-7.4,6.3
		c-1.9,2.2-3.7,5-4.1,7.9c-1.2,1.4-2.1,3.1-2.4,5.3c-0.8,5.5,0.9,11.1,2.1,16.4c0.2,0.8,0.3,1.7,0.6,2.4c-0.3,1.4-0.2,2.8,0.6,4.2
		c1.9,3.4,6.1,3.8,9.6,2.8c0.6,0,1.2,0,1.7,0c1.6-0.1,3.1-0.7,4.7-0.4c1.2,0.2,2.3,1.1,3.5,1.4c1.7,0.5,3.5,0.6,5.3,0.4
		c3.1-0.3,5.9-1.7,8.8-2.7c3.4-1.3,7.1-1.3,10.5-2.6C435,436,437.9,431.7,436.7,426.3z M394.1,434.5c0.1-0.1,0.2-0.2,0.3-0.3
		c0.3-0.3,0.7-0.6,0.9-0.9c0.1,0.2,0.1,0.4,0.1,0.6c-0.3,0.2-0.6,0.4-0.9,0.6C394.3,434.5,394.2,434.5,394.1,434.5z"/>
	<path class="cat1" d="M310.1,355c-0.3-0.3-0.7-0.7-1-1.2c0.2-1.1,0-2.2-0.8-3.2c-1.3-1.6-2.9-3-4.1-4.7c-1.4-1.9-1.5-4.7-2.3-6.8
		c-0.1-0.1-0.1-0.3-0.2-0.4c0.3-0.6,0.5-1.2,0.6-1.9c0.8-3.2-2.8-5.4-5.5-3.9c-2.9,1.6-5.5,5.3-5.5,8.7c-0.4,0.5-0.8,1.1-1.2,1.6
		c-1.2,1.7-1.9,3.4-2.3,5.2c-1.1,0.1-2.1,0.3-3,0.8c-0.7,0.3-1.3,0.7-1.7,1.2c-2.8-0.3-5.5,3.7-2.9,6.4c7.4,8.2,19.9,8.7,29.3,3.9
		C311.8,359.7,311.6,356.6,310.1,355z"/>
	<path class="cat2" d="M339,445.2c-2.1-1.4-4.5-1.1-6.6-2.1c-1.7-0.8-1.7-5.4-2.4-7c-3.2-7-12.2-6.4-17.3-2.1
		c-2.3,1.9-4.1,4.4-6.2,6.5c-1.8,1.7-5.1,1.6-7.3,2c-6.2,1.1-8.1,7.7-6,13.1c1,2.5,3.1,3.8,4.7,5.8c1.9,2.5,0.1,6.9,0.8,9.8
		c1.3,5.3,5.8,8.2,11.1,8c2.7-0.2,5.3-1.2,7.8-2.1c3.8,2.7,9.5,1.7,13.6-0.2c2.7-1.3,4.5-4.2,5.8-6.7c0.7-1.3,1.3-2.7,2.2-4
		c0.9-1.5,2.6-2.6,3.6-4.1C346.3,457,344.3,448.7,339,445.2z"/>
	<path class="cat2" d="M384.4,356.3c-2.1,2.8-6.8,2.2-9.8,2.9c-2.1,0.5-3.7,1.6-5.9,1.7c-0.6-0.1-1.1-0.2-1.6-0.3
		c0.2-0.3,0.3-0.6,0.3-0.7c1.9-3.9-3.4-7.1-5.8-4.2c-0.8,0.6-1.3,1.6-1.3,2.6c-0.1,0.1-0.1,0.2-0.1,0.3c-0.8,0.6-1.4,1.6-1.4,2.9
		c0,3.5,2.8,5.7,5.5,7.6c3.6,2.5,7.2,2.4,11.3,1.4c3.8-0.9,9,0.8,12-2.6c1-1.1,1.6-2.4,1.9-3.9c0.1-0.7-0.1-2.2,0.4-2.8
		C392.5,357.6,387.6,352.8,384.4,356.3z"/>
	<path class="cat2" d="M538.9,370.6c-0.7-2-2.6-2.7-4.6-2.3c0.3-0.1-1.2-0.3-1.6-0.4c-0.9-0.2-1.8-0.3-2.7-0.4
		c-1.9-0.2-3.9,1.1-5.3,2.3c-2.6,2.4-4.1,5.7-3,9.2c0.5,1.6,1.4,3.2,2.8,4.1c1.7,1.1,4.3,1.1,5.8-0.6c0.5-0.6,0.8-1.3,1.2-1.9
		c0.1-0.1,0.2-0.2,0.3-0.2c0.9-0.9,1.8-1.9,2.4-3.1c0.2-0.2,0.4-0.4,0.6-0.7c0.5-0.3,1-0.6,1.4-0.9c0.2-0.2,0.4-0.4,0.7-0.6
		C538.6,374.5,539.4,372.2,538.9,370.6z"/>
	<path d="M284.2,361.8c0.4,2.4-2.9,1.8-4,1.2C280.1,360.5,283.2,359.9,284.2,361.8z"/>
	<path d="M293.5,369.2c-1.6,1.6-6,0.5-8.7,1c0-0.2,0-0.4,0-0.7C286.2,368.3,292,368.2,293.5,369.2z"/>
	<path d="M287,374.8c2.9,1.7,7.5,1.6,9.2,4.7c-3.5-0.6-6-2.2-9.1-3C287.1,375.9,287,375.3,287,374.8z"/>
	<path class="cat0" d="M293.9,514.3c1.6,3.9-1.2,9.2-1.2,13.7c-4.4,0.8-5.5,4.6-10.8,4.4c-1.1-1.4-1.7-3.1-1.2-4.6
		c0.5-1.6,2.9-2.6,4.2-3.8c0.4-0.4,0.3-1.3,0.6-1.7C287.8,519.6,292.4,517.7,293.9,514.3z"/>
	<path class="cat0" d="M432.1,517.1c1.9,4.6,4.4,8.5,5.2,14.2c-4.6,1.7-5.7-3.3-7.6-5.7C430.8,523,431.6,520.2,432.1,517.1z"/>
	<path d="M257.3,411.3c1.4-1.6,0.7-5.1,2.4-6.5c-0.5-2.5-3.6-4-2.6-6.9c2,0.6,1.8,3.6,3.5,4.6c3.6-5.2,2.7-14.7-1.1-19
		c1.2-5,8.1-4.7,11.4-7.8c-0.4-5.8,1.1-10.9,1.7-15.8c3.3-6.6,8.5-11.5,15.1-15c3.1-5.1,3.9-14,12.6-12.9c1.2,4,4.5,7.1,3.4,12.2
		c5.7,2.9,8.5,9.2,10.3,16.4c5.3-2.2,8.9-6,14.4-7.9c6.2-1.1,7.3,3.5,9.6,6.7c10.4,1.1,18.7-6.5,29.9-5.8c0.5,1.1,0.4,2.8,0.5,4.3
		c5.6,2.8,12.9-1.2,17.6-3.3c1.7-0.8,2.4-1.9,4-2.2c0.9-0.2,2.1,0.1,3.3-0.1c3.4-0.6,8.7-3.7,12-0.4c0.6,0.6,0.9,2,1.8,2.9
		c2.4,2.6,3.5,2.3,4.9,5.2c3-0.8,3.7-3.7,6.5-4.6c1.1,2.1-1.9,3.1-2.8,4.5c5.7,0.9,14.6-2.9,22.3-1.8c3.8,0.5,6,3.3,8.8,4.3
		c1.2,2.4-0.3,4.3-0.7,7.1c1.8-0.3,4.3-1.5,6.3-0.6c-1.3,1.5-4.1,1.6-6.3,2.2c0.2,6.6,4.8,8.5,10.7,9c1.6,2,3.3,3.8,5.6,5.1
		c3.2,7.3,4.4,16.8,7.9,23.8c-0.3,8.8,8.1,11.5,15.4,8.1c3.2-3.6,8.8-5,10-10.4c1.7-0.8,2.7-2.2,3.2-4.1c2.6-1,3.4-3.7,5.5-5.2
		c2.3-7.7,8.2-12.1,11.3-19.1c4-4.7,9.6-12.5,15.1-17.6c3.6-3.4,6.7-6.8,14.1-5.9c3.2,0.4,5.6,2.3,7.8,4.4c0.1,1.7,0.1,3.3,0.2,5
		c-4.5,6.1-11.7,9.5-17.9,14c-5.6,5.9-11.4,11.6-16.7,17.7c-3.6,11.3-11.6,18.6-18.7,26.8c-1.4,0-1.6,1.1-2.9,1.1
		c-4,3.2-8.6,5.8-14.1,7.6c-1.3,0.9-3.1,2.8-5,2.2c-3.7,5.5,0.4,13.3-2.3,19.8c-1.3,0.5-3.6,0.1-4.3,1.2c0.8,1.4,1.8,2.7,1.6,5.3
		c-1.2-0.8-1.7-2.3-2.8-3.2c-1.1,5.5,2.5,19.3-6.3,18.3c-0.6,0.4,0,1.9-1.6,1.4c-1.2,0.4-0.5-1.3-0.7-2c-1.4-0.2-2.2-0.9-3.7-0.9
		c-1.5,5.2-1.8,13.9-5.7,17.9c-4.5,0.3-8.2,1.4-10.9,3.4c-1.4,6.8-0.6,14.2-8.1,15.7c-1.3,8.1,8.2,13.6,5.9,22.9
		c-1.7-0.2-2.5,0.4-3.7,0.8c-3.1-1.1-5.3-3.1-6.3-6.5c-2.9,3.7-6.6,13.4-12.4,9.8c-5.7-3.5,5.9-20.6-2-26.3
		c-3.3-0.1-6.2,0.3-8.3,1.3c-0.1,1.9,1.1,4.3,0.2,6c-1-1.2-1.6-2.9-1.8-5c-5.5,2.4-11.6,3.4-15.8,6.3c-2.3,0.3-4.1-0.1-5.4-0.8
		c-0.2,0.5-0.7,2.2-1.6,3.1c-0.9-0.4-0.7-2-0.8-3.3c-9.2,0.2-16.9,4.9-24.6,2.6c-1.9,1.4-3.1,5.1-5.5,4.9c-0.4-1.8,2.2-3.3,2.8-5.1
		c-0.6-0.9-2.6-0.3-3.4-0.9c-6.2-4.7-15.1-4.5-23-7.5c-6.2-1.1-12.2,2.3-16.2,5.3c0,0.7,0.1,1.3,0.1,2c-3.8,5.4-6,12.3-10.1,17.4
		c-2.1,0.6-4.2,1.3-6,1.2c-2.4-1.1-3.8-5.9-2.3-9c-3.4,1.6-5.3,4.5-10.9,4.1c-2-0.9-2.9-3.1-3.6-5.6c4.6-6.3,10.3-11.5,16.1-16.6
		c-1.1-5.7-1.3-9.5-3.8-13.6c-3.1-5-10-7.8-11.2-13.3c-0.8-3.4,0.6-5.8-0.7-10.3c-1.3-1.9-4.4-2-6.2-3.4c-1.2,1.7-2.4,3.3-4.2,4.5
		c0.1-2.5,1.7-3.6,2.4-5.5c-4.5-7.6,2-21.9-7.6-23.8c-1.4,0.7-2.2,1.9-4.6,1.5c0.4-1.3,2-1.6,2.9-2.4c-0.4-1.7-2.6-4.3-3.9-6.2
		c2.4-6.6,8.2-17,3.1-23.9c-0.1-0.2-0.4,0.2-0.3,0.3C259.7,414.2,258.7,412.6,257.3,411.3z M280.3,357c-2.1-0.2-0.5-2.1-1.1-2.9
		c-2.6,3.4-4.2,7.9-5.6,12.6c1.1,3.5-0.5,9.2-2.2,12.1c-3.2,1.5-8.3,1.3-9.2,5c1.1,2.7,3.3,3.1,3.9,5.9c1.3,6-2.9,11.4-4.1,15.9
		c2.3,2.7,2.8,4.3,5.3,7.5c-3.4,0.7-4.3-4.1-6.6-5.8c-3,5.4,2.2,6.6,3.4,9.9c2.2,6-0.4,13.8-2.3,17.8c-0.9,1.8-1.9,1.9-1.9,3.4
		c0.1,2.1,2.5,4,3.2,5.2c2.2,0.4,2.4-3.7,5.2-3.9c0.5,3.6-2.6,3.8-3.8,5.8c8.7,1,5.8,13.5,6.8,22.1c2.7-0.6,2.2-4,4.2-5.2
		c2.9,1.8-2.6,5-2.1,7.1c0.3,1.3,4.6,1.8,5.8,2.8c4.3,3.6,0.5,12.5,4,16.6c0.1,0.2,0.8-0.2,1-0.1c0.2,0.2-0.1,0.9,0.1,1
		c4.8,3.4,9.6,8.6,11.3,15.3c3.2,12.5-2,18.8-0.5,31.4c7.1,1.1,6.9-7.3,10.6-10.5c1.5-4,2.6-8.3,5.6-10.9c0.4-0.4,1.2-0.4,2-0.4
		c3.9-4,12.7-4.2,19.3-3.4c8.5,1.1,14.9,7.6,23,6.8c0.5-2.1,0.4-4.8,2.8-5.1c0.6,2.8-1.7,4.6-1.1,6.4c8.1-0.6,12.4-4.6,21.6-4.2
		c1.2-0.1-0.7-1.1,0.3-1c1.1,0.1,1.2,1.2,2.4,1.2c0.2-0.7-0.6-2.3,0.6-2c0.6,0.7,0.6,1.9,1.4,2.3c1-0.2,4.1,0.4,5.4,1.1
		c3.4-3.2,10.2-3.2,14.5-5.6c-1.2-0.1-2.2-3.1-0.4-3.3c0.9,1.1,1.6,2.5,2.8,3.2c0.6-1.1,2.3-0.4,1.9-1.7c3.1-0.2,8.8-0.7,10.7,0.9
		c0.8,5.1,2.3,8.8,1.2,13.4c-0.8,3.4-4.4,7.1-2.2,12.1c5.6,0.1,5.4-5.3,8.7-7.3c1.1-5.5,5.7-9.2,4.1-16.2c-2.8,0.5-3.2-5.3-0.2-6
		c1.7,0.3,2.5,1.7,4.4,1.8c3.8-4.9,2.9-14.2,7.7-18.4c3.1-0.2,4.5-0.9,7.3-0.3c5.8-3.4,1.8-16,8-19c1.3-0.1,1.6,1.1,3.3,0.6
		c0-0.3-0.6-2.6,0.9-3.1c0.8,1,1.6,2.1,1.5,4c1-0.1,2-0.1,3-0.1c3.1-4.8-3.4-14.2,2.3-17.8c0-1.7-0.5-3.9,0.8-4.4
		c1.2,0.2,0.6,2.2,1.8,2.3c4-0.2,4.1-7.5,2.3-11.1c1.4-5.6,1.6-10.7,7.6-12.3c5.9-1.6,12.7-2.8,15.7-8c6.6-2.5,10.2-10.5,15.1-15.6
		c0.8-4,4.1-5.6,4.6-9.8c2.1-2.8,4.6-5,7.1-7.6c3.5-3.8,7-7.9,10.6-11.1c4.5-3.9,10.6-6.4,14.4-10.2c3.8-4-0.7-9.8-6.1-9.8
		c-7.1,1.7-12.4,7.8-16.2,13.6c-0.9-0.2-0.8,0.5-1.7,0.4c-5.8,9.5-13.7,16.9-18,27.8c-1.4,0.9-2.7,2-2.8,4.1
		c-6.6,5.6-10.6,15.9-21.1,17.9c-13.5,2.5-13-9.6-17-16.7c-1.6-5.7-2.7-12-4.7-17.2c-1.8-1.6-4-2.9-5.2-5.2
		c-6.7,0.3-11.8-3-11.7-8.9c-2.1,0.3-4.5,2.1-5.7-0.1c1.8-0.3,3.1-1.2,5-1.5c-1-3.6-1.3-8.1-3.4-10.6c-9.2-0.8-19.9,1.2-26.6,2.7
		c-1.8,1.4-2.4,4-4.1,5.5c-0.4,0-0.5-0.4-1-0.3c-0.3-3.1,1.9-3.8,2.8-5.8c-5.3-0.8-4.3-9.4-9.1-10c-4.8-0.6-8,3.7-13.9,3.6
		c-5.7,3.1-9.6,7.8-19.1,7.4c-2.3-1.4-2.4-3.6-2.3-7.3c-4.5-0.2-7.9,0.9-12,2.1c-3.1,0.9-4.6,2.2-6.6,2.9c-4,1.3-9.6,2.9-13,0.2
		c-0.5-1.9-1.7-3.9-1.6-5.6c-0.4,0-0.8-0.1-0.7-0.7c-8.6,0.6-12.7,5.4-17.4,9.7c-1.4-1.6-2.1,1.7-3.7,0.1c-1.4-7.3-3.2-15.9-9.4-19
		c-0.6-3.5-1.2-11.4-4.5-11.9c-3.6-0.6-5.8,8.2-7,10c-0.1,1.2-0.4,2.2-0.2,3.7c-1.6-0.1-1.7,1.2-2.6,1.8c0,1.1,1.1,0.9,0.8,2.3
		c-1.3,0.9-2,2.4-3.6,3.1c-0.8-2.2,1.7-4.6,0.5-5c-1.7,1.7-1,5.5-2.4,7.5c-2.7-1.2,0.3-5.6-0.3-6.7C281.2,351.6,282.6,356,280.3,357
		z M285.6,522.3c-0.3,0.4-0.2,1.3-0.6,1.7c-1.3,1.3-3.7,2.2-4.2,3.8c-0.5,1.6,0.1,3.2,1.2,4.6c5.5,0.2,6.5-3.6,10.8-4.4
		c-0.1-4.6,2.8-9.8,1.2-13.7C292.4,517.7,287.8,519.6,285.6,522.3z M429.8,525.6c1.9,2.4,2.9,7.4,7.6,5.7c-0.8-5.7-3.3-9.6-5.2-14.2
		C431.6,520.2,430.8,523,429.8,525.6z"/>
</g>
<g>
	<path class="cat3" d="M412.4,61c0-0.3-0.1-0.5-0.1-0.7c0-0.3,0-0.5,0-0.8c1.1-2.9,1.9-5.8,1.8-8.9c0-1.1-1.8-1.4-2-0.3
		c-0.3,1.5-3.1,2.8-4.5,3.7c-0.4,0-0.8,0-1.1,0.1c-0.2,0.1-0.3,0.2-0.5,0.3c0,0,0,0,0,0c-11.6,3.6-23.6,1.8-35.5,0.1
		c-0.7-0.1-1.5-0.1-2.1,0c-0.5-0.2-1-0.3-1.4-0.4c-3.2-0.6-6.3,1.4-6.3,4.8c0,3.8-0.5,7.2-1.3,10.9c-0.5,2.4-0.5,4.9,1.4,6.8
		c2,2,6.1,2.2,8.6,2.8c3.5,0.8,7.2,1.2,10.8,1c1.3,0,2.6-0.1,4-0.3c4.7,0.2,9.6-0.9,14-2c5.8-1.5,14.8-4.5,14.2-12
		c0-0.2-0.1-0.3-0.1-0.5C412.5,64.2,412.6,62.6,412.4,61z"/>
	<path class="cat4" d="M415.6,40.4c0-2.8-0.3-4.1-2.1-6.2c-3.7-4.2-8.9-4.7-14.4-5.2c-7.3-0.6-14.7,0.2-21.9,1.6
		c-5.1,1-12.4,2.4-15.7,6.9c-1.7,1.3-2.2,3.2-2.7,5.4c-0.5,2.4-2,6.4-0.5,8.7c1.6,2.5,5.6,2.4,8.3,2.9c4.4,0.8,8.9,1.5,13.3,1.9
		c8,0.8,16.2,0.8,24-1.2c2.3-0.6,4.1-1.4,5.5-2.6c1.2-0.7,2-1.7,2.7-3c0.7-0.4,1.3-1,1.6-1.9c0.1-0.4,0.3-0.8,0.4-1.2
		c0.1-0.3,0.1-0.6,0.1-0.9c0.4-0.6,0.8-1.3,1-2C415.7,42.6,415.6,41.6,415.6,40.4z"/>
	<path class="cat4" d="M413.9,70.6c0.2-0.9,0.3-1.8,0.3-2.7c0-0.6-1-0.6-1,0c0,0.3,0,0.6-0.1,1c-0.1,0-0.2,0.1-0.3,0.2
		c-0.6,1.1-1.3,2.2-1.9,3.2c-0.2,0.1-0.4,0.2-0.5,0.3c-1,0.9-2,1.7-3,2.5c0,0-0.1,0-0.1,0c-2.5,0.7-4.7,1.7-6.8,3.1
		c-0.9,0.4-1.8,0.8-2.7,1.2c-3,0.7-6,0.9-9.1,1.3c-4.4-0.4-8.8-0.3-13.2,0.1c-4.1-0.4-8.1-1.5-12.2-1.9c-1.1-0.3-2.1-0.7-3.1-1.1
		c-0.1-0.8-0.2-1.7-0.3-2.5c-0.2-1.9-3.2-1.9-3,0c0.2,1.8,0.4,3.6,0.6,5.5c0.1,0.6,0.4,1.3,1.1,1.4c1.4,0.2,2.2,0.3,3.4,0.5
		c6.3,2.6,14.1,2.9,21.2,2.2c3.1,0.2,6.1,0.3,8.9-0.4c2.1-0.5,4.1-1.2,6.1-2c0.4-0.1,0.8-0.2,1.2-0.3c0.2,0,0.4,0,0.6-0.1
		c0.1,0,0.2-0.1,0.3-0.1c5.1-1.2,9.9-3.4,12.4-7.5c0.2-0.3,0.2-0.7,0.2-1c0.2-0.5,0.4-1,0.6-1.6C413.7,71.5,413.8,71,413.9,70.6z"/>
	<path class="cat5" d="M389.2,66c-0.2-0.3-0.5-0.5-0.9-0.6c-4.4-1-15-3.1-16.2,3.6c-0.1,0.3-0.1,0.6-0.1,0.8
		c-0.3,0.5-0.4,1.1-0.1,1.8c0.7,2.1,3,2,4.8,1.5c3.5-1,7-2.3,10.4-3.5c0.3,0,0.6,0.1,0.9,0.1C390.5,70.3,391.6,66.6,389.2,66z"/>
	<path class="cat5" d="M399.8,65c-1.1-0.8-2.7-0.5-3.6,0.4c-0.2,0.2-0.3,0.3-0.4,0.5c-0.2,0-0.4,0-0.7,0c-1.1,0.1-2,0.9-2,2
		c0,1,0.9,2.1,2,2c0.5,0,0.7-0.1,1.1,0.1c0.3,0.1,0.6,0.3,1,0.4c1.6,0.4,2.5-0.9,3-2.2C400.7,67.2,400.9,65.9,399.8,65z"/>
	<g>
		<path d="M416.6,35c-2-2.4-3.8-4.5-6.8-5.5c-2-0.6-11.1-1.4-13.5-1.4c-7.3,0-14.4,0.9-21.6,2.1c-4.7,0.8-8.9,3-12.7,5.6
			c-2.2,1.5-4,4.2-4.2,7.3c0,0.9-0.6,2-0.8,2c0,1.6,0,3.2,0,4.8c0,1.5,0.4,2.7,1.9,3.4c0.8,0.3,1.9,1.5,1.8,1.5
			c-0.7,5.9-1.4,11.8-2.1,17.7c-1.9-0.1-2.2-0.1-2.2,1.4c0,1.6,0,3.7,0,5.3c0,0.7-0.1,2.1-0.1,2.8c0.2,0.1,0.9,0.3,0.9,0.3
			c6.5,1.8,22.2,3.5,26.9,2.8c0.1,0,5.6-0.3,8.3-0.7c4.1-0.5,15.5-3.2,19.9-7.4c0.1-0.1,0.2-0.2,0.2-0.4c1.8-2.7,1.9-5.8,2.4-8.7
			c0.1-0.3,0.1-0.8,0-1.1c-0.1-0.2-0.5-0.3-0.5-0.3c-0.3,1.8-0.8,3.5-1,5.2c-0.2,1.5-0.8,3.2-2.1,4.6c-4.9,4.8-13.4,6.5-19,7.3
			c-2.8,0.2-5.5,0.5-8.3,0.7c-7.4,0.9-19.3-1.9-26.9-2.9c-0.1-2.3,0.1-5.3-0.1-7.6c0.6,0,1.2-0.1,1.7-0.2c0.3-0.1,0.7-0.4,0.7-0.6
			c0.4-1.9,0.8-3.8,1.1-5.7c0.6-4.2,1.1-8.4,1.7-12.8c5.3,0.7,10.2,1.5,15.2,2c3.7,0.4,7.3,0.9,11,0.9c3.6,0,7.3-0.5,10.9-1.1
			c2.3-0.4,9.8-2.8,11.1-3.5c1.7-0.9,2.8-3.9,3.2-4.1c-0.8,5.5-1.5,11-2.3,16.5c0.2,0,0.4,0.1,0.6,0.1c0.1-0.6,0.3-1.2,0.4-1.8
			c0,0.8,0.1,2-0.1,3.4c-0.6,3.5-2.1,5.4-4.8,7.1c-0.8,0.5-8,3.8-10.2,4.3c-6.7,1.5-13.6,2-20.5,1.9c-5.2-0.1-10.3-0.7-15.2-2.6
			c-0.7-0.3-1.4-0.6-2.1-0.9c0.1-0.5,0.1-1,0.2-2.1c-1.1,2.2-1.1,0.2-2.1,0.4c0.3,1.1,0.6,2,1,2.9c0.5-0.1,1.2-0.4,1.4-0.2
			c2.1,2.1,18.4,3.7,23.9,3.2c3.7-0.3,7.5-0.5,11.2-1.2c3.2-0.6,6.3-2,9.5-3.1c0.3-0.1,3.3-1.8,4.4-2.7c4-3.4,4.5-6.6,4.5-7.2
			c0-1-0.7-3-0.9-3.9c0.3-1.4,0.7-2.9,1-4.3c0.3-1.4,0.4-2.9,0.6-4.4c0.5-3.1,1-6.1,1.6-9.2c0.3-1.3,0.7-2.6,1.2-3.8
			c0.1-0.3,0.5-0.7,0.6-0.9C417.7,38.4,416.9,35.3,416.6,35z M413.3,48.2c-3.1,4.5-6.5,5-14.2,7c-8.7,2.3-25.4-0.3-28.4-0.6
			c-2.2-0.2-4.5-0.4-6.7-0.7c-0.9-0.1-1.9-0.5-2.8-0.8c-0.6-0.2-2.7-1-2.8-1.3c-0.4-1.3-0.3-4.9-0.3-6.3c0.1,0.4,1.2,1.9,1.3,2.1
			c2.2,3.3,5.4,4.1,9.2,4.3c4.6,0.2,9.2,0.9,13.8,1c5.6,0.1,11.1-0.8,16.6-1.6c3.7-0.5,7.1-1.5,10.3-3.4c2-1.2,3.7-2.8,5.8-4.4
			C414.4,45.1,414.3,46.8,413.3,48.2z M414.9,41.8c-0.1,0.2-4.9,4.5-6.9,5.7c-1.5,0.9-7.8,2.4-8.9,2.6c-1.3,0.2-10.5,1.5-13.7,1.7
			c-1.5,0.1-5.8,0-6.4,0c-3.5-0.3-7.1-0.4-10.6-0.8c-3.2-0.3-6.3-0.8-8.4-4c-2.4-3.6-0.8-7.7,2.1-9.6c2.5-1.6,5.2-2.9,8-4
			c3.8-1.4,14.9-4,16.5-4c4.5-0.2,8.9-0.6,13.4-0.3c3.3,0.2,6.8,0.8,9.9,2.2C410.8,31.9,417.5,36.5,414.9,41.8z"/>
		<path d="M375,74c4.2-1,7.6-1.8,11.7-3.2c0.9-0.3,2.4-1.6,3.3-1.9c0.8-0.2,2-0.3,2.4-0.1c2.1,1.3,6,3.4,6.7,3.6
			c1-3.3,1.9-6.3,2.9-9.3c-0.2-0.2-0.3-0.3-0.5-0.5c-2.9,1.3-5.7,2.6-8.6,3.7c-0.6,0.2-1.5,0.3-2,0c-3.5-2-7.2-3.1-11.2-2.7
			c-3.7,0.3-6.7,1.8-8.3,5.4c-0.5,1-1.5,2.2-0.2,3.2C372.3,73.1,373.9,74.2,375,74z M401,64.2c-0.6,1.9-1.1,3.7-1.6,5.5
			C398.6,68.1,399.6,64.3,401,64.2z M398.4,64.8c0,1.7,0.1,2.9,0,4.1c0,0.5-0.4,1.1-0.7,1.3c-0.4,0.1-1-0.2-1.4-0.4
			c-1.1-0.7-2.1-1.4-3.3-2.3C394.7,66.5,396.4,65.7,398.4,64.8z M373.3,68c2.3-2.5,5.1-3.7,8.4-3.2c2.3,0.4,4.6,0.8,6.9,1.7
			c0.6,0.3,1.2,0.6,1.8,1c0,0.2,0.1,0.4,0.1,0.6c-4.1,1.5-8.2,3-12.3,4.4c-0.9,0.3-1.8,0.4-2.8,0.5c-1.4,0-2.8-0.1-3.4-1.7
			C371.5,69.9,372.4,69,373.3,68z"/>
		<path d="M399.5,32.8c-1.4,0.1-2.8,1-4.1,1.7c-1.5,0.7-2.3,1.9-2.3,3.8c-0.9-0.9-1.7-2.3-2.6-0.4c-1.2,2.7-1.1,5.5,0.2,8.1
			c3.5-0.8,4-1.4,3.7-3.9c0.2,0,0.4-0.1,0.5,0c1.9,0.6,3.8,1.5,5.8,1.9c1.3,0.2,2.5-0.2,3.5-1.7c3.4-5.3-3.3-6.6-3.7-6.6
			c-1.1-0.1-2.2-0.3-3.2-0.1c-0.9,0.1-1.8,0.7-2.9,1.4c-0.4-1.2,3.5-3.6,6.6-3.5c1.5,0,3.2,0.5,4.5,1.3c1.9,1.4,2.3,4.9,1.1,7.1
			c-1,1.8-4.9,3.7-6.8,3.1c-1.5-0.4-3-1-4.6-1.6c1.7,2.7,5.2,3.3,9.2,1.6c3.2-1.3,4.6-4.4,3.6-8C407,34.5,403.3,32.4,399.5,32.8z
			 M393.3,43.9c-0.1,0.5-1.6,0.8-2.2,1.2c-1-2.8-0.3-5.7,0.3-7.3c0.9,0.2,1.1,1.4,1.9,1.6C393.2,41.2,393.7,42.3,393.3,43.9z
			 M396.9,36.6c2.4-0.6,4.7-0.2,6.5,1.2c1.3,1,0.5,2.6-0.1,4c-0.7,1.4-1.9,1.6-3.1,1.4c-2.1-0.5-4-1.3-5.9-2
			C394.5,38.8,394.7,37.1,396.9,36.6z"/>
	</g>
</g>
</svg>
