<?xml version="1.0" encoding="utf-8"?>
<!-- Generator: Adobe Illustrator 21.1.0, SVG Export Plug-In . SVG Version: 6.00 Build 0)  -->
<svg version="1.1" id="圖層_1" xmlns="http://www.w3.org/2000/svg" xmlns:xlink="http://www.w3.org/1999/xlink" x="0px" y="0px"
	 viewBox="0 0 1305.1 1266.1" style="enable-background:new 0 0 1305.1 1266.1;" xml:space="preserve">
<style type="text/css">
	.st0{fill:#F7F7F7;}
	.st1{fill:#FFC76E;}
	.st2{fill:#BF9A66;}
	.st3{fill:#F9F5E4;}
	.st4{fill:#F4E9BE;}
</style>
<g>
	<g>
		<path class="st0" d="M735.9,940.6c-2.3-0.3-4.5-1.2-6.8-1.7c-13-7.2-28.4-10.5-42.7-10.1c-3.5,0.1-5.9,2.6-6.9,5.5
			c-11.8-1.7-23.5-2.8-35.7-1.7c-11,1-23.1,0.9-33.7,4.6c-11.1,0.4-25.5,1.9-29.6,10.4c-13,1.4-26.7,4.9-35.7,13.4
			c-1.5,0.2-2.9,0.5-4.4,0.8c-0.5,0.1-1,0.3-1.5,0.5c-5.9-0.9-11.7-2.2-17.3-4.3c-2.9-6.9-6.1-13.7-9.2-20.5
			c-2.2-10.7-5.8-21.2-9.5-31.1c-0.9-2.5-2.7-4.1-4.6-4.9c-0.5-1.7-0.9-3.4-1.4-5.1c-2-8.1-15.4-6.5-14.7,2c0.1,1.1,0.2,2.3,0.2,3.4
			c-1.9,0.8-3.6,2.3-4.4,4.3c-0.3,0.1-0.6,0.1-0.9,0.2c-5.9,1.4-11.8,2.2-17,5.7c-10.6,7.2-18.8,20.7-19.5,34
			c-1.2,1-2.2,2.3-2.7,3.7c-2.5,7.4-0.3,16.3,1.7,23.5c1.4,5,3.1,10.3,5.5,15.2c0,0.2,0,0.4,0,0.6c-1.8,1-3.1,2.8-3.1,5.4
			c-0.2,5.9,0.6,11.7,1.7,17.4c0.3,1.4,0.6,2.7,1,4.1c-0.4,0.8-0.7,1.8-0.8,2.8c-0.3,8.6,3.5,17,6.6,25.2
			c21.6,14.7,46.3,6.5,46.3,6.5c-0.1-1.3-0.1-2.5-0.1-3.8c5.4,1.6,11,2.4,16.6,2.8c4.1,1.7,8.3,2.7,12.8,2.6c4,1.1,8,2.2,12,3
			c8.4,1.6,16.6,0.8,24.9-0.8c16.3-3.1,32.2-4.8,48.8-5.2c16.8-0.5,33.9-0.6,50.5-3c3.4,0.4,6.8,0.7,10.3,0.9
			c5.5,0.3,11.6,0.3,16.9-1.6c3.7,1.4,7,3.1,9.8,5.2c0,0,19.4,5.7,28.7-1.6c0.1-1.7,0.2-3.4,0.3-5.1c1,1,2,2,2.9,3
			c0.3,0.3,0.6,0.7,0.9,1.1c0,0.3,0,0.6,0.1,0.8c0,0,9.3,5.5,22-0.7c5.6-15.1,10-31.8,9.5-47.8c2.3-1.9,3.6-5,2.5-7.8
			c-1.9-5.1-4.3-9.8-7.1-14.3c-0.8-1.8-1.6-3.6-2.6-5.4c-1.4-2.5-3-5-4.7-7.3C751.8,965.2,745.1,942,735.9,940.6z"/>
		<path class="st1" d="M507.7,920.7c0.8-1.7,0.8-3.6-0.4-5.7c-2-3.3-3.7-6.3-6.9-8.6c-0.4-0.3-0.9-0.6-1.3-0.8
			c0-0.3-0.1-0.7-0.2-1.1c-1.2-5.4-3.5-10.4-5-15.7c-1.7-6.3-10.7-6.1-12.5,0c-1.7,5.5-4.7,10.6-4.9,15.7c-1.5,0.3-3,0.8-4.2,1.5
			c-3.3-1.6-8.1-0.8-9.6,3.7c-5.5,16.8,13.9,29.5,27.4,33.9C505.4,948.7,513.6,931,507.7,920.7z"/>
		<path class="st1" d="M714.8,970.7c-0.2-2-0.8-3.8-1.7-5.8c-2.1-4.8-5.3-8.8-9.9-11.4c-9.4-5.3-21-1.3-29.5,4
			c-7.7,4.8-13,12.5-15,21.3c-4.2,18.5,7.7,35.8,26.7,37.3c0.6,0.1,1.2,0,1.7-0.1c6.5,3.5,12.3,1.1,17.6-2.8
			c9.5-1.3,17.2-7.8,19.6-17.2C726.8,986.8,726.2,972.6,714.8,970.7z"/>
		<path class="st2" d="M497.6,1051.8L497.6,1051.8c2.1-1,6.1-0.5,8-0.7c1.1-0.1,2.1-0.5,3-1c3.1,5.1,11.6,4.4,12-3
			c0.5-9.8-2.3-21.9-11.7-26.7c-11.3-5.9-19.7,2.8-24.5,12.2c-2.5,4.8-5.4,9.4-7.2,14.6c-0.6,1.7-0.9,3.5-1.1,5.3
			C476.2,1052.5,488.2,1053.9,497.6,1051.8z"/>
		<path class="st2" d="M659.8,930c-10.1-3-19.9,0.5-30.1,0.8c-8.1,0.2-8.4,12.5-0.6,13c1,0.9,2.5,1.5,4.3,1.4
			c2.8-0.2,5.9,1.9,8.5,2.9c2.7,1,5.9,1,8.8,0.8c6.5-0.4,12.4-4,13.7-10.8C665,934.5,663.4,931.1,659.8,930z"/>
		<g>
			<path d="M725.5,1049.7c-2,0.1-2.1-0.8-2.1-0.8c0-8.8,0.8-17.8,3.4-25.4c1.8-5.4,3.9-16.4,10.8-16.8c0.5,4.1-1.8,5.4-3.6,7.2
				c-3.6,10.3-5.4,22.5-6.1,34.9C727.7,1049.3,727.5,1049.6,725.5,1049.7z M697.7,1050.7c-2.4,0.6-3.4-0.8-3.4-0.8
				c-12.8-1.1-22.4,2.2-33.6,3c-11.9,0.9-24.4-0.1-36.6,0.6c-8.1,0.4-16,2.8-24,3.6c-9.5,1-19.9,0.6-29.4,0.6
				c-14,0.1-31.6-1.3-46.2-2.4c-9.8-0.7-15.5-1.9-22.8-4.2c0,0-7,1.9-4.2-3.6c7.8-2.7,13.6,2.8,20.4,4.2c11.2,2.3,22.4,1.9,35.4,2.4
				c22.6,0.8,43.1-0.3,65.5-2.4c12.2-1.1,32-1.2,48.6-3.6c11.5-1.6,23.5-2.7,31.8,0.6c0.1,0.3,0.2,0.7,0.3,1
				C699.4,1049.8,700.1,1050.1,697.7,1050.7z M740.6,943c-6.3-1.1-12.4-5.2-19.2-6.6c-27.7-5.9-81.8-7.5-111.7,0
				c-17.8,4.5-34.9,12.2-50.4,18c-8.9,3.4-15.6,8.5-28.8,7.2c-14.1-8.1-19.8-24.7-26.4-40.2c0.5-6.9-2.3-10.6-4.2-15
				c-0.9-1.5-3.6-1.2-4.2-3c0.5-4.4-2.4-13.9-6.6-17.4c-5.6,4.3-7,12.6-9.6,19.8c-5,0.4-4.4,6.4-7.2,9c-3.6-2.8,1.3-6.9,2.4-9
				c-6.1,0.5-3.6,9.6-7.8,12c-2.2,0.6-0.8-2.4-1.2-3.6c-2.7-0.5-0.7,3.7-3,3.6c-3.3,0-2.3-3.7-1.8-6c-1.6,2-2,5.2-3,7.8
				c-2,0-1.6-2.4-3-3c-13,13.4-13.9,35.4-11.4,62.5c1.9,20.9,1.6,42.1,6,58.9c1,1.5,1.4,3.4,1.7,5.6c-3,2.1-4.7-2.5-4.7-2.5
				c0-0.4,0-0.9,0-1.3c-0.3-10.7-5-23.6-6-34.2c-0.6-6.8-0.1-15.4-1.2-22.2c-0.9-5.5-0.3-12.8-0.6-19.2c-0.3-6.9-0.6-14.7,0-20.4
				c2-20.5,15.7-39.2,36-41.4c5.4-5.1,5.2-19.6,13.8-19.8c8.3-0.2,8.2,10.4,11.4,17.4c1,2.2,3.5,3.7,4.8,6c2.3,3.9,4,10.1,5.4,15
				c2,7.1,3.3,14.3,6,20.4c3.2,7.3,8.4,12,12,16.8c18.5,2.7,33.6-9,48-13.8c1.4-0.5,3-0.1,4.2-0.6c1.4-0.6,2.8-2.5,4.2-3
				c5.3-2,11.7-2.4,17.4-4.2c18.9-6,41.3-8.2,66.7-7.2c17,0.7,34.2,1.6,49.8,4.2c5.8,1,12.9,4.2,20.8,6.2c0,0,1.7,0.2,2.3,2.1
				S740.6,943,740.6,943z"/>
			<path d="M463.1,938.2c0.7,3.1-1.1,3.7-1.8,5.4c-2.7-0.5-5-1.4-6-3.6C454.8,935.1,461.3,936,463.1,938.2z"/>
			<path d="M477,953.2c3.1,4.9-10.2,7.6-9.6,1.2C471.8,955.3,472.7,952.6,477,953.2z"/>
			<path d="M468.6,964c6.4,1.6,11.8,4.3,15,9c-5.7,0.4-11-4.6-16.2-6.6C466.6,964.5,469.3,966,468.6,964z"/>
			<path d="M757.4,1050.5c1.9,0.1,2.5-1.1,4.8-0.6c2.5-27,14.4-58.2,0-82.3c-1.6,0-3.2,0-4.8,0c0,0.6,0,1.2,0,1.8
				c-0.6,1.8,1.3,1.1,2.4,1.2c-2,2.5,1.6,4,2.4,6c2.4,6.1,3.2,17.1,2.4,25.2c-0.7,8-1.7,18.9-3.6,27.6c-1.7,8-5.2,13.6-7.3,19.8
				C753.7,1049.3,754.8,1051.1,757.4,1050.5z"/>
			<path d="M735.6,1048.5c-0.3-1.8-0.4-3.7-0.4-5.8c-2.7-0.7-3,1-4.8,1.2c0,1.7,0,3.3,0.1,4.8c0,0,0,1,2.5,0.8
				C735.5,1049.4,735.6,1048.9,735.6,1048.5z"/>
		</g>
	</g>
	<g>
		<path class="st0" d="M738.5,944c0.3-2.2,11.1-0.1,16.1-1c7.8-1.4,14.8-5.3,22.1-8.3c3.1-1.3,5.8-2.5,8.3-4.9c2.1-2,4.3-4,6.8-5.4
			c0.9-0.5,1.7-0.7,2.5-0.9c2-2.1,4.2-4,6.6-5.5c0.4-1.2,1.3-2.4,2.6-3.3c13.2-9.3,20.5-24.7,33.2-34.6c6.1-4.8,12.6-8.8,20.4-9.9
			c8.3-1.1,16.4,1.6,24.6,0.7c6.2-0.7,7.7,6.4,4.7,10.4c-1.2,2.6-3.9,4.5-7.4,3.7c-13.3-2.9-28.5,4.5-38.1,13.3
			c-9.5,8.6-17.5,18.9-28.2,26c-0.5,1.9-1.9,3.5-4.2,4.3c-4.2,1.5-7.6,7.5-10.6,10.5c-4.2,4.3-8.9,7.7-14,10.8
			c-1.6,1.7-3.3,3.3-5.1,4.9c-5.8,4.9-12.3,10.6-20.3,10.8c-0.4,0-0.9,0-1.3-0.1c-1.7,0.2-3.5,0.2-5.3-0.1
			C751.8,965.2,734.8,969.7,738.5,944z"/>
		<path class="st2" d="M875,876c-4.5-6.4-11.6-7.3-18.8-6.1c-5.2,0.9-8.5,3.7-10.6,7.5c-0.5,0.4-1,0.8-1.4,1.3
			c-1.9,2-2.3,4.4-1.5,6.5c-1.1,6.5,7.3,9.6,11.1,5.6c3.9,0,7.8-1.3,11.2-3.6c0.2-0.1,0.3-0.2,0.4-0.3c2.5-0.2,4.9-0.8,7.2-2
			C875.6,883.4,876.9,878.8,875,876z"/>
		<g>
			<path d="M744.6,940.8c5.1,1.8,10.8,0.9,16.5-0.7c3.4-1,8.7-3.5,12.6-5.4c0.5-0.3,0.8-1.7,1.2-1.8c0.3-0.1,1.1,1,1.8,0.6
				c5.3-2.7,11.1-6.7,14.4-9.6c16-13.7,29.9-31.2,43.2-45c7.6-2.6,18.9-13.3,32.4-13.8c11.9-0.4,29,6.4,24,18.6
				c-5.4,5-13,3.1-20.4,4.2c-10.9,1.6-19.8,8.6-27.6,12.6c-6,7.4-14.8,12-18.6,21.6c-15.8,9.8-26,25.2-42.6,34.2
				c-1.1,2.1-4,2.4-4.8,4.8c-2.8,0.4-5.2,1.2-6,3.6c-6.5,0.1-12.9,4.9-16.8-0.6c1.3-2.3,3.3-0.2,6-0.6c19.8-6.9,33.3-19.6,48-33
				c3.7-3.3,7.4-6.8,10.8-10.2c6.4-6.4,9.5-11.6,16.8-18c7.7-6.7,19.3-15.9,32.4-17.4c9.5-1.1,17.9,1,21-7.2
				c-3.7-9.1-18.3-9.4-29.4-7.8c-2.7,1.5-5.1,3.3-9,3.6c-7.3,4.5-14.1,9.6-21,14.4c-15.9,20.7-33.7,39.6-58.3,51.6
				c-7,3.2-15.2,5.2-25.8,4.2c0,0-1.9,0-4.5-0.6C738.4,942.5,738.1,938.5,744.6,940.8z"/>
		</g>
	</g>
	<g>
		<path class="st0" d="M728.3,1043.7c-1.3,24.6-4.8,51.2-19.6,70.7c-1.7,5.7-4.4,11.1-8.4,15.1c-4.5,4.5-12.9,0-10.9-6.3
			c0.6-1.9,1.5-3.6,1.4-5.6c0-1.1,0.2-2,0.5-2.8c0-0.8,0.1-1.6,0.4-2.5c4.3-11.7,8.1-24.4,7.8-37c-0.2-8-1.6-16.7-0.3-24.8
			c0,0,0.6-1.9-9.8-5.2c-10.4-3.3-22.5-20.7-5.4-20.9c13.5-0.2,23.8,10.5,43.5-25.8c7.1-13.1,8,12.5,8,12.5
			S727.2,1022.4,728.3,1043.7z"/>
		<g>
			<path d="M699.2,1048.7c7.4,29.6-10.8,50.7-6.6,82.9c7.1-2,9.6-10.2,12.6-16.2c3.2-6.4,5.8-13.3,9-19.2c0.1-4.5,1.6-7.6,3.6-10.2
				c2.1-8.3,3.2-17.7,6-25.2c-0.8-12.3-0.8-26.1,3-37.2c1.8-5.4,3.9-16.4,10.8-16.8c0.5,4.1-1.8,5.4-3.6,7.2
				c-5.5,15.8-6.7,36.1-6.6,54.7c-0.2,1.8-2,2-2.4,3.6c-4.8,23.4-13.5,43-24.6,60.1c0.6,0.6,1.2,1.2,1.8,1.8
				c-3.1,1.9-8.8,3.4-12.6,1.2c-1-0.4,0.1-2.9-1.8-2.4c-2.4-20.7,7.4-44,10.2-65.5c0.9-7,0.1-13.9-3.6-17.4c0,0-1.5-0.4-1-1.6
				C693.9,1047.1,695.7,1047.1,699.2,1048.7z"/>
		</g>
	</g>
	<g>
		<path class="st0" d="M758.8,1034c-2.1,7.4-4.7,14.5-7.5,21.2c0.8,6.6,1.8,13.1,2.9,19.6c0.2,1.3,0.1,2.5-0.3,3.6
			c2.9,15.5,6.9,30.9,10,46.4c1.6,8.2-10.7,11.7-12.5,3.5c-1-4.7-2.9-9.2-4.1-13.8c-1.1-4.2-2.5-8.4-3.8-12.6
			c-2.6-9-4.7-18.1-7-27.1c-1.9-7.4-3.7-14.7-4.1-22.3c-0.1-1.5-0.2-3.1-0.3-4.6c-0.3-0.4-1.2-8.9-1.5-9.3c0,0-5.2-10.4,2.3-18.7
			C740.6,1011.6,765.1,1014.5,758.8,1034z"/>
		<path d="M757.4,1040.3c-2.7,4.1-3.9,8.5-4.8,13.2c-1.8,9.5-1.1,22.4,0,32.4c1.5,13.8,10,31.5,7.2,45c-8.6-2.1-8.1-16.6-11.4-24
			c0-1.6,0-3.2,0-4.8c-4.7-10.7-6.9-23.9-10.8-35.4c0.9-9.7-2.6-15-2.4-24c-2.7-0.7-3,1-4.8,1.2c-0.2,12.6,2.8,20.8,5.4,30.6
			c5.3,20.1,9.2,44.4,18,60.1c3-0.4,3.6,1.6,6.6,1.2c3.6-1.8,4.4-6.4,5.4-10.8c-5.6-23.8-11.9-48.8-8.4-74.5
			c1.9,0.1,2.5-1.1,4.8-0.6c0.2-2.2,0.5-4.4,0.8-6.6C763,1043.3,761.2,1034.6,757.4,1040.3z"/>
	</g>
	<g>
		<path class="st0" d="M465.4,1073c-1.8,9-8.8,17.4-12.6,25.7c-1.7,3.7-3.8,7.4-5.2,11.2c-1.3,3.8-2.3,7.7-3.7,11.4
			c-2.3,5.9-4.9,12.2-11.1,14.8c-5,2.1-9.4-3.3-10.1-7.6c-0.7-4.5-0.5-9.7,1.1-14c1.8-4.9,3.6-9.9,5.6-14.7
			c1.7-4.1,3.5-8.7,6.7-11.9c1.3-3.9,2.6-7.9,3.9-11.9c2.1-6.4,2.6-15.8,7.9-20.6c0.5-3.9,0.8-7.7,2.5-11.5c0,0,0.3-11.4,9.5-9.1
			S478,1053.4,465.4,1073z"/>
		<g>
			<path d="M470.1,1055.8c0.7,1.6,1.4,2.3,2.3,3.9l-9.8,23.8c-5.9,18.3-20.4,31.2-22.8,51c-6.3,2.3-11.9,3.7-17.4,0
				c-3.8-9.4-3.5-17.8,0-27c2.4-6.4,8.3-11.5,10.8-18.6c1.1-3,0.7-6.4,1.8-9.6c1.3-3.7,4.1-7,5.4-10.8c0.9-2.7,1-6.2,1.8-9
				c1.6-5.5,4.5-11.5,4.2-19.8c0,0,0.7-4.2,3-1.8c1.2,1.8,1.6,4.4,1.8,7.2c0.1,1.2-2.4,5.4-2.4,5.4c-2.1,15.6-9.3,26-12,40.8
				c-1.5,0.3-19.8,31.2-9.6,43.2c5.4,0.9,6.6-2.2,9.6-3.6c4.4-21.2,19.4-34.5,23.4-54.1C460.1,1076.9,468.7,1054.3,470.1,1055.8z"/>
		</g>
	</g>
	<g>
		<path class="st0" d="M461.3,1072.6c1.6,3.6,3.2,7.1,4.9,10.7c2.4,5.1,4.2,10.2,7.5,14.8c3,4.2,6.6,7.9,9.9,11.9
			c7.6,9.3,15.7,18.2,23.3,27.5c4,4.9,13.4-0.4,10.9-6.3c-3-7.3-6.3-14.5-10-21.4c0.2-0.8,0.4-1.5,0.5-2.3c1.2-9.7-6-18.6-8.5-27.6
			v-0.1c1.1-1.1,1.7-2.6,1.6-4.5c-0.7-6.8-2.3-13.3-3.9-19.9c-0.4-2.9-0.6-5.9-0.6-8.9c-1.3-7-0.5-21.9-30.3-29.4
			c-15.4-3.9-17.5,9.8-17.5,9.8c-0.3,4.2-0.3,11.9,1.6,16.9c0,0,0,0.1-0.1,0.1C450.4,1044,458.1,1068.4,461.3,1072.6z"/>
		<path class="st2" d="M487.9,1027c-1.3,1.8-2.4,3.7-3.4,5.6c-2.5,4.8-5.4,9.4-7.2,14.6c-1.9,5.5-1.1,11.6,0.4,17.1
			c2.6,9.3,7.3,21,18.4,21.8c6.2,0.5,7.8-6.6,4.7-10.5c0-0.7-0.2-1.4-0.5-2.2c-0.2-0.5-0.3-1-0.5-1.4c-1.8-5.8-0.5-11.1-1.5-17.1
			c-0.2-1.1-0.7-3.1-0.8-3.1C507.5,1025.7,487.9,1027,487.9,1027z"/>
		<g>
			<path d="M446.3,1038.2c0,0.5,0.1,1,0.1,1.5c0,0.2,0,0.4,0,0.7 M449.3,1037.9c1.2,1.8,1.6,4.4,1.8,7.2c9,34.7,27.2,60.1,46.8,84.1
				c4.3,3.9,10.6,10.2,18,7.2c-6-26.8-22-54.7-18.6-88.9c0.1-0.6-0.7-1.5,1.9-1.1c2.7,0.4,2.3,4.7,2.3,4.7c-1.9,27,9.7,54,18,72.1
				c4.8,10.5-0.5,21.4-13.2,16.8c-3.3-1.2-5.1-4.8-8.4-5.4c-10.6-14.8-22.2-28.7-33-43.2c0.7-2.4-1.5-5.3-2.4-7.8
				c-0.4-0.9-2.5-6.7-2.5-6.7c-5.6-7.1-6.7-18.3-11.3-26.3c-2.2-6.9-2.4-9.8-2.4-9.8s-1-3.3,0.7-4.3S449.3,1037.9,449.3,1037.9z"/>
		</g>
	</g>
</g>
<g>
	<path class="st0" d="M465.1,811c1,2-4.4,9.9,0.5,12c2.5-3.4,1.3-10.3,4.3-13.4c2.1,0.8-2.2,5.1-0.9,9c2.8-1.3,4.1-4,6.4-5.6
		c0.6-2.5-1.4-2.3-1.4-4.2c1.7-1,1.8-3.3,4.7-3.2c-0.4-2.7,0.1-4.5,0.4-6.6c2-3.2,6.1-18.9,12.5-17.9c5.8,0.9,6.9,15,8,21.3
		c11.2,5.6,14.3,21.1,16.9,34.2c2.9,2.9,4-3.2,6.6-0.2c8.3-7.7,15.7-16.4,31.2-17.4c-0.2,1,0.5,1.1,1.2,1.2
		c-0.3,3.1,1.8,6.6,2.8,10.1c6.2,5.1,16.4,2.1,23.4-0.3c3.6-1.2,6.3-3.7,11.8-5.3c7.3-2.1,13.3-4.3,21.5-3.8
		c-0.3,6.5-0.1,10.6,4.1,13.1c17,0.7,24.1-7.8,34.4-13.3c10.7,0.2,16.4-7.5,25-6.4c8.7,1.1,6.7,16.5,16.3,18
		c-1.6,3.6-5.5,4.9-5,10.4c1-0.2,1.1,0.5,1.8,0.5c3.1-2.8,4.2-7.3,7.4-9.9c12.1-2.7,31.4-6.3,47.9-4.8c3.9,4.4,4.3,12.5,6.1,19
		c-3.4,0.5-5.6,2.1-8.9,2.7c2.2,4,6.4,0.7,10.2,0.2c-0.2,10.6,8.9,16.6,21,16c2.3,4,6.1,6.4,9.4,9.3c3.6,9.4,5.6,20.7,8.4,30.9
		c7.2,12.9,6.4,34.6,30.6,30.1c18.9-3.5,26-21.9,37.9-32.1c0.3-3.8,2.6-5.7,5.1-7.4c7.7-19.5,22-32.9,32.4-49.9
		c1.5,0.2,1.3-1.1,3-0.7c6.8-10.6,16.3-21.5,29.1-24.5c9.6,0,17.7,10.5,10.9,17.6c-6.6,6.9-17.8,11.4-25.8,18.4
		c-6.6,5.7-12.7,13.2-19.1,19.9c-4.4,4.8-8.9,8.7-12.7,13.7c-1,7.6-6.9,10.6-8.3,17.7c-8.8,9.2-15.4,23.6-27.2,28.1
		c-5.4,9.3-17.7,11.4-28.3,14.3c-10.8,3-11.1,12-13.6,22.1c3.3,6.5,3.1,19.7-4.1,20c-2.2-0.2-1.1-3.8-3.2-4.1
		c-2.4,0.9-1.5,4.8-1.5,7.9c-10.4,6.4,1.3,23.4-4.2,32c-1.8,0.1-3.6,0.1-5.4,0.2c0.1-3.4-1.2-5.4-2.7-7.1c-2.7,0.9-1.6,4.9-1.6,5.5
		c-3.1,0.9-3.6-1.1-6-1c-11.2,5.5-4,28-14.3,34.2c-5.1-1.2-7.7,0.1-13.2,0.5c-8.5,7.4-6.8,24.2-13.8,33c-3.4-0.3-4.8-2.7-7.9-3.3
		c-5.2,1.3-4.6,11.7,0.4,10.8c3,12.5-5.4,19.2-7.3,29.1c-6,3.7-5.7,13.3-15.7,13.2c-3.9-9,2.5-15.6,4-21.8c2-8-0.6-14.9-2.1-24
		c-3.5-3-13.7-2-19.3-1.7c0.7,2.3-2.5,1.1-3.5,3.1c-2.2-1.4-3.4-3.9-5-5.8c-3.1,0.3-1.4,5.8,0.8,6c-7.6,4.3-19.9,4.3-26.1,10
		c-2.3-1.3-7.9-2.3-9.7-2c-1.5-0.7-1.5-2.9-2.6-4.1c-2.2-0.5-0.7,2.4-1.1,3.6c-2.1,0-2.4-2-4.3-2.2c-1.9-0.1,1.6,1.7-0.5,1.8
		c-16.5-0.9-24.2,6.5-38.8,7.5c-1.2-3.3,3-6.4,2-11.5c-4.3,0.6-4.1,5.4-5.1,9.2c-14.7,1.4-26.1-10.4-41.3-12.3
		c-11.8-1.5-27.7-1.1-34.6,6.1c-1.5,0-2.9,0-3.6,0.7c-5.5,4.6-7.4,12.5-10.1,19.6c-6.7,5.6-6.4,20.6-19.1,18.8
		c-2.7-22.7,6.6-34,0.9-56.5c-3.1-12.1-11.5-21.2-20.3-27.5c-0.3-0.2,0.2-1.5-0.1-1.8c-0.3-0.3-1.6,0.4-1.8,0.1
		c-6.3-7.4,0.7-23.3-7.1-29.8c-2.2-1.8-9.8-2.6-10.4-5c-1-3.8,8.9-9.5,3.7-12.8c-3.5,2.1-2.7,8.3-7.5,9.3
		c-1.9-15.6,3.4-38-12.3-39.8c2.2-3.6,7.7-4,6.8-10.5c-4.9,0.2-5.4,7.7-9.4,7c-1.3-2.2-5.7-5.7-5.8-9.4c-0.1-2.6,1.8-2.8,3.4-6.1
		c3.4-7.2,8.1-21.2,4.2-32c-2.2-6-11.5-8.1-6.1-17.8c4.1,3,5.6,11.7,11.8,10.4c-4.5-5.8-5.3-8.5-9.5-13.5c2-8,9.7-17.9,7.3-28.5
		c-1.1-4.9-5.1-5.8-7-10.6c1.6-6.6,10.7-6.3,16.5-9c3.1-5.3,6-15.5,4-21.8c2.4-8.4,5.3-16.4,10-22.6c1.1,1.5-1.8,5,2,5.3
		C464.2,821.4,461.8,813.5,465.1,811z M460,834c1.9,1.2,7.9,2.3,7.1-2.1C465.4,828.4,459.7,829.5,460,834z M468.2,845.7
		c0,0.4,0,0.8,0,1.2c4.8-0.9,12.8,1.1,15.6-1.8C481.2,843.3,470.7,843.6,468.2,845.7z M472.3,858.2c5.7,1.5,10.2,4.4,16.4,5.4
		c-3-5.5-11.3-5.3-16.5-8.4C472.2,856.2,472.3,857.2,472.3,858.2z"/>
	<path class="st1" d="M741.2,947.8c-0.4-1.6-1-3-1.7-4.5c-0.2-0.9-0.4-1.7-0.8-2.6c-1-2.5-2.7-4.5-4.5-6.4c-1.3-2.4-2.3-4.8-2.5-7.4
		c-0.1-1.1-0.1-2.1-0.1-3.2c7.4-7.3,1.7-17.2-7-20.6c-7.5-5.2-18.4-4.7-24.1-12c-2-2.5-4.9-3-7.4-2.3c-1.4-1.1-3-2.1-4.9-2.8
		c-5.8-2.2-12.8,2.1-16.9,5.7c-0.8,0.7-1.5,1.5-2.1,2.4c-5.5,3.2-10.7,8.3-13.3,11.4c-3.4,4-6.6,8.9-7.3,14.2
		c-2.2,2.6-3.8,5.6-4.4,9.6c-1.5,9.8,1.6,19.9,3.8,29.4c0.3,1.5,0.6,3,1,4.4c-0.6,2.5-0.4,5.1,1,7.5c3.5,6.1,10.9,6.9,17.3,5.1
		c1,0,2.1,0,3.1,0c2.8-0.2,5.6-1.3,8.4-0.8c2.2,0.4,4.2,1.9,6.3,2.5c3.1,0.9,6.3,1.1,9.5,0.8c5.6-0.5,10.6-3,15.8-4.9
		c6.1-2.3,12.7-2.3,18.8-4.6C738.2,965.2,743.4,957.4,741.2,947.8z M664.6,962.5c0.2-0.2,0.4-0.3,0.5-0.5c0.6-0.5,1.2-1,1.7-1.6
		c0.1,0.4,0.1,0.7,0.2,1.1c-0.5,0.4-1.1,0.7-1.6,1.1C665.1,962.6,664.8,962.5,664.6,962.5z"/>
	<path class="st1" d="M513.7,819.7c-0.6-0.6-1.2-1.3-1.8-2.1c0.4-1.9,0-4-1.5-5.8c-2.4-2.9-5.2-5.4-7.4-8.5
		c-2.5-3.4-2.7-8.4-4.2-12.2c-0.1-0.2-0.2-0.5-0.3-0.7c0.5-1.1,0.9-2.2,1.1-3.4c1.5-5.8-5-9.7-9.8-7c-5.2,2.9-9.9,9.5-9.8,15.6
		c-0.7,0.9-1.4,1.9-2.1,2.8c-2.1,3-3.5,6.1-4.1,9.4c-1.9,0.2-3.7,0.6-5.4,1.4c-1.2,0.5-2.3,1.2-3.1,2.2c-5-0.6-9.8,6.6-5.3,11.5
		c13.3,14.7,35.8,15.6,52.7,7C516.8,828,516.3,822.5,513.7,819.7z"/>
	<path class="st2" d="M565.6,981.8c-3.8-2.5-8-2-11.9-3.7c-3.1-1.4-3-9.7-4.3-12.6c-5.8-12.6-21.9-11.5-31.1-3.7
		c-4.2,3.5-7.3,7.9-11.2,11.6c-3.2,3-9.1,2.9-13.2,3.6c-11.1,2-14.6,13.8-10.7,23.5c1.8,4.5,5.5,6.8,8.4,10.5
		c3.5,4.5,0.2,12.4,1.4,17.7c2.3,9.5,10.4,14.8,19.9,14.3c4.9-0.3,9.5-2.1,14.1-3.7c6.8,4.8,17.1,3.1,24.4-0.3
		c4.9-2.3,8-7.5,10.4-12.1c1.2-2.4,2.4-4.8,3.9-7.1c1.7-2.7,4.6-4.6,6.5-7.3C578.7,1003,575.1,988,565.6,981.8z"/>
	<path class="st2" d="M647.2,822c-3.8,5-12.2,4-17.7,5.3c-3.7,0.9-6.7,2.9-10.6,3c-1-0.1-2-0.3-2.9-0.6c0.3-0.6,0.6-1.1,0.6-1.2
		c3.4-7-6.2-12.8-10.5-7.6c-1.5,1.1-2.3,2.9-2.4,4.7c-0.1,0.2-0.1,0.3-0.2,0.5c-1.5,1.1-2.6,2.8-2.6,5.2c0,6.3,5.1,10.3,9.8,13.6
		c6.5,4.5,12.9,4.3,20.3,2.6c6.9-1.6,16.1,1.4,21.6-4.7c1.8-2,2.9-4.3,3.4-7c0.2-1.3-0.2-4,0.8-5C661.7,824.3,653,815.7,647.2,822z"
		/>
	<path class="st2" d="M925,847.6c-1.2-3.6-4.7-4.9-8.2-4.2c0.5-0.1-2.2-0.6-2.9-0.8c-1.6-0.4-3.2-0.6-4.9-0.7c-3.5-0.3-7,2-9.5,4.2
		c-4.6,4.3-7.4,10.2-5.4,16.5c0.9,2.8,2.5,5.7,5.1,7.3c3.1,1.9,7.8,2,10.4-1.1c0.9-1.1,1.5-2.3,2.1-3.4c0.2-0.1,0.3-0.3,0.5-0.4
		c1.7-1.6,3.2-3.5,4.3-5.5c0.3-0.4,0.7-0.8,1.1-1.2c0.9-0.5,1.8-1,2.5-1.6c0.4-0.3,0.8-0.7,1.2-1C924.4,854.7,925.9,850.6,925,847.6
		z"/>
	<path d="M467.1,831.9c0.8,4.3-5.2,3.2-7.1,2.1C459.7,829.5,465.4,828.4,467.1,831.9z"/>
	<path d="M483.8,845.1c-2.8,2.8-10.7,0.9-15.6,1.8c0-0.4,0-0.8,0-1.2C470.7,843.6,481.2,843.3,483.8,845.1z"/>
	<path d="M472.2,855.2c5.3,3.1,13.5,2.9,16.5,8.4c-6.3-1-10.7-3.9-16.4-5.4C472.3,857.2,472.2,856.2,472.2,855.2z"/>
	<path class="st0" d="M484.6,1105.9c2.9,7-2.2,16.5-2.1,24.7c-7.9,1.4-9.8,8.3-19.5,7.9c-2-2.6-3-5.5-2.1-8.3
		c0.9-2.9,5.3-4.6,7.6-6.9c0.7-0.7,0.5-2.3,1.1-3C473.6,1115.4,481.8,1112.1,484.6,1105.9z"/>
	<path class="st0" d="M733,1111c3.4,8.2,7.9,15.2,9.4,25.5c-8.3,3-10.3-5.9-13.6-10.3C730.6,1121.5,732.1,1116.5,733,1111z"/>
	<path d="M418.8,920.9c2.5-2.9,1.3-9.2,4.4-11.6c-0.9-4.5-6.5-7.2-4.7-12.4c3.6,1.1,3.3,6.4,6.3,8.2c6.5-9.4,4.9-26.4-1.9-34.2
		c2.1-9,14.5-8.5,20.5-14c-0.8-10.4,1.9-19.6,3.1-28.4c5.9-11.9,15.3-20.6,27.2-26.9c5.5-9.2,7-25.1,22.6-23.1
		c2.1,7.1,8,12.7,6.2,22c10.3,5.3,15.2,16.5,18.5,29.4c9.5-3.9,16-10.7,25.9-14.2c11.2-1.9,13.1,6.3,17.3,12
		c18.7,1.9,33.7-11.7,53.7-10.4c0.9,1.9,0.8,5,0.9,7.8c10,5,23.1-2.1,31.6-6c3-1.4,4.4-3.4,7.1-3.9c1.7-0.3,3.7,0.2,6-0.2
		c6.1-1.1,15.6-6.6,21.6-0.8c1.1,1,1.6,3.6,3.2,5.3c4.4,4.7,6.3,4.2,8.8,9.3c5.4-1.4,6.6-6.6,11.7-8.3c1.9,3.7-3.5,5.6-5.1,8
		c10.2,1.6,26.3-5.2,40.1-3.3c6.9,0.9,10.7,5.9,15.9,7.8c2.1,4.4-0.6,7.8-1.3,12.7c3.3-0.6,7.7-2.7,11.4-1c-2.3,2.7-7.3,2.9-11.3,4
		c0.4,11.9,8.6,15.3,19.2,16.1c2.8,3.6,6,6.9,10,9.2c5.8,13.1,7.9,30.2,14.2,42.7c-0.5,15.9,14.5,20.6,27.6,14.6
		c5.8-6.4,15.8-8.9,17.9-18.7c3-1.5,4.9-3.9,5.7-7.4c4.7-1.8,6.1-6.7,9.9-9.4c4.2-13.9,14.8-21.8,20.3-34.4
		c7.2-8.4,17.3-22.4,27.1-31.7c6.5-6.2,12.1-12.2,25.4-10.6c5.8,0.7,10.1,4.1,14.1,7.9c0.1,3,0.2,6,0.3,9
		c-8.1,10.9-21.1,17.1-32.1,25.2c-10,10.6-20.5,20.8-30.1,31.8c-6.5,20.4-20.9,33.5-33.6,48.1c-2.5,0-2.9,2-5.3,2
		c-7.1,5.8-15.5,10.4-25.3,13.6c-2.3,1.7-5.5,5.1-8.9,3.9c-6.6,9.9,0.8,23.9-4.1,35.6c-2.3,0.9-6.4,0.2-7.7,2.1
		c1.5,2.6,3.3,4.8,2.8,9.5c-2.2-1.4-3-4.2-5-5.8c-1.9,9.9,4.5,34.7-11.4,32.9c-1,0.8,0,3.5-2.9,2.5c-2.1,0.7-0.9-2.3-1.3-3.6
		c-2.5-0.3-3.9-1.6-6.7-1.6c-2.7,9.4-3.3,24.9-10.2,32.2c-8.1,0.6-14.8,2.5-19.6,6.1c-2.5,12.2-1,25.6-14.6,28.2
		c-2.3,14.6,14.8,24.5,10.6,41.1c-3.1-0.4-4.5,0.8-6.6,1.4c-5.6-1.9-9.6-5.5-11.3-11.6c-5.2,6.7-11.9,24-22.2,17.7
		c-10.2-6.3,10.6-37.1-3.6-47.3c-5.9-0.1-11.1,0.5-14.9,2.4c-0.1,3.5,2,7.8,0.4,10.8c-1.8-2.2-2.8-5.3-3.3-8.9
		c-9.8,4.3-20.9,6.2-28.4,11.3c-4.2,0.6-7.3-0.1-9.7-1.4c-0.3,0.9-1.3,4-2.8,5.5c-1.7-0.7-1.3-3.6-1.4-6
		c-16.5,0.3-30.3,8.8-44.3,4.7c-3.4,2.5-5.5,9.1-9.9,8.8c-0.8-3.2,4-5.9,5.1-9.2c-1-1.6-4.6-0.5-6.1-1.6c-11.1-8.4-27.2-8-41.4-13.5
		c-11.1-1.9-21.9,4.2-29.1,9.5c0,1.2,0.1,2.4,0.1,3.6c-6.8,9.7-10.8,22.1-18.1,31.3c-3.7,1.1-7.5,2.3-10.7,2.2
		c-4.3-2-6.8-10.6-4.2-16.1c-6.1,2.8-9.6,8.1-19.6,7.3c-3.6-1.7-5.3-5.5-6.4-10c8.2-11.3,18.6-20.6,28.9-29.9
		c-1.9-10.2-2.4-17-6.9-24.4c-5.5-8.9-17.9-14-20.1-23.9c-1.4-6.1,1-10.4-1.3-18.6c-2.4-3.4-7.9-3.6-11.1-6.2c-2.2,3-4.4,6-7.5,8.1
		c0.2-4.5,3.1-6.4,4.4-9.8c-8.1-13.6,3.6-39.4-13.6-42.8c-2.5,1.2-3.9,3.4-8.3,2.7c0.8-2.4,3.6-2.8,5.2-4.4c-0.7-3.1-4.7-7.7-7-11.2
		c4.4-11.8,14.8-30.5,5.6-42.9c-0.2-0.3-0.7,0.4-0.6,0.6C423.1,926,421.3,923.1,418.8,920.9z M460.2,823.2c-3.8-0.4-0.9-3.8-2-5.3
		c-4.7,6.2-7.6,14.2-10,22.6c2,6.3-0.9,16.5-4,21.8c-5.8,2.7-14.9,2.4-16.5,9c1.9,4.8,5.9,5.6,7,10.6c2.4,10.7-5.3,20.5-7.3,28.5
		c4.2,4.9,5,7.7,9.5,13.5c-6.2,1.3-7.7-7.4-11.8-10.4c-5.4,9.7,3.9,11.8,6.1,17.8c3.9,10.8-0.8,24.8-4.2,32
		c-1.6,3.3-3.5,3.5-3.4,6.1c0.1,3.7,4.5,7.1,5.8,9.4c3.9,0.8,4.4-6.7,9.4-7c0.9,6.4-4.6,6.9-6.8,10.5c15.7,1.8,10.4,24.2,12.3,39.8
		c4.8-1,3.9-7.2,7.5-9.3c5.2,3.3-4.7,8.9-3.7,12.8c0.6,2.4,8.2,3.2,10.4,5c7.8,6.5,0.9,22.4,7.1,29.8c0.2,0.3,1.5-0.3,1.8-0.1
		c0.3,0.3-0.2,1.6,0.1,1.8c8.7,6.2,17.2,15.4,20.3,27.5c5.7,22.5-3.6,33.8-0.9,56.5c12.7,1.9,12.4-13.2,19.1-18.8
		c2.7-7.1,4.6-15,10.1-19.6c0.7-0.7,2.1-0.8,3.6-0.7c7-7.2,22.8-7.6,34.6-6.1c15.2,1.9,26.7,13.7,41.3,12.3c0.9-3.8,0.7-8.6,5.1-9.2
		c1,5.1-3.1,8.2-2,11.5c14.5-1,22.2-8.3,38.8-7.5c2.1-0.1-1.3-1.9,0.5-1.8c1.9,0.2,2.2,2.2,4.3,2.2c0.3-1.3-1.1-4.1,1.1-3.6
		c1,1.2,1,3.5,2.6,4.1c1.8-0.3,7.4,0.7,9.7,2c6.1-5.7,18.4-5.7,26.1-10c-2.2-0.2-3.9-5.6-0.8-6c1.7,2,2.8,4.5,5,5.8
		c1-2,4.2-0.8,3.5-3.1c5.6-0.3,15.8-1.3,19.3,1.7c1.5,9.1,4.1,15.9,2.1,24c-1.5,6.2-7.9,12.8-4,21.8c10,0.1,9.7-9.5,15.7-13.2
		c1.9-9.9,10.3-16.6,7.3-29.1c-5,0.9-5.7-9.5-0.4-10.8c3.1,0.6,4.5,3,7.9,3.3c6.9-8.8,5.3-25.6,13.8-33c5.5-0.4,8.1-1.7,13.2-0.5
		c10.4-6.2,3.2-28.7,14.3-34.2c2.4-0.1,2.9,1.9,6,1c0-0.6-1.1-4.6,1.6-5.5c1.5,1.8,2.8,3.7,2.7,7.1c1.8-0.1,3.6-0.1,5.4-0.2
		c5.5-8.6-6.2-25.6,4.2-32c0-3.1-0.9-7,1.5-7.9c2.1,0.3,1,3.9,3.2,4.1c7.1-0.3,7.3-13.5,4.1-20c2.5-10.1,2.8-19.2,13.6-22.1
		c10.6-2.9,22.9-5,28.3-14.3c11.8-4.5,18.4-18.9,27.2-28.1c1.4-7.2,7.4-10.1,8.3-17.7c3.8-5,8.3-9,12.7-13.7
		c6.3-6.8,12.5-14.2,19.1-19.9c8-7,19.1-11.5,25.8-18.4c6.8-7.1-1.3-17.6-10.9-17.6c-12.8,3.1-22.3,14-29.1,24.5
		c-1.7-0.4-1.5,0.9-3,0.7c-10.4,17-24.7,30.4-32.4,49.9c-2.5,1.7-4.8,3.6-5.1,7.4c-11.8,10.1-19,28.6-37.9,32.1
		c-24.2,4.5-23.3-17.2-30.6-30.1c-2.8-10.3-4.8-21.5-8.4-30.9c-3.3-2.9-7.1-5.3-9.4-9.3c-12.1,0.5-21.2-5.4-21-16
		c-3.8,0.5-8,3.7-10.2-0.2c3.3-0.6,5.5-2.2,8.9-2.7c-1.8-6.5-2.3-14.6-6.1-19c-16.5-1.4-35.8,2.1-47.9,4.8c-3.2,2.6-4.4,7.1-7.4,9.9
		c-0.8,0-0.9-0.7-1.8-0.5c-0.5-5.5,3.5-6.8,5-10.4c-9.6-1.5-7.7-16.9-16.3-18s-14.3,6.6-25,6.4c-10.3,5.5-17.3,14.1-34.4,13.3
		c-4.2-2.5-4.4-6.5-4.1-13.1c-8.1-0.4-14.2,1.7-21.5,3.8c-5.5,1.6-8.2,4-11.8,5.3c-7.1,2.4-17.2,5.3-23.4,0.3
		c-0.9-3.5-3.1-7-2.8-10.1c-0.7,0-1.4-0.1-1.2-1.2c-15.5,1-22.9,9.7-31.2,17.4c-2.6-2.9-3.7,3.1-6.6,0.2
		c-2.6-13.1-5.7-28.6-16.9-34.2c-1.1-6.3-2.2-20.5-8-21.3c-6.4-1-10.5,14.7-12.5,17.9c-0.2,2.1-0.7,3.9-0.4,6.6
		c-2.9-0.1-3,2.2-4.7,3.2c0,1.9,2,1.6,1.4,4.2c-2.3,1.7-3.6,4.4-6.4,5.6c-1.4-4,3-8.2,0.9-9c-3,3-1.8,9.9-4.3,13.4
		c-4.9-2.1,0.6-10-0.5-12C461.8,813.5,464.2,821.4,460.2,823.2z M469.6,1120.3c-0.6,0.7-0.4,2.4-1.1,3c-2.3,2.3-6.7,4-7.6,6.9
		s0.1,5.7,2.1,8.3c9.8,0.4,11.7-6.5,19.5-7.9c-0.1-8.2,5-17.7,2.1-24.7C481.8,1112.1,473.6,1115.4,469.6,1120.3z M728.8,1126.2
		c3.4,4.4,5.3,13.3,13.6,10.3c-1.4-10.3-5.9-17.3-9.4-25.5C732.1,1116.5,730.6,1121.5,728.8,1126.2z"/>
</g>
<g>
	<path class="st3" d="M672.9,181.6c-2.3-2-5-3.8-7.9-5.1c2.4-4.1,4.7-8.2,7.1-12.3c2.9-5,1.3-12.3-4-15.1c-5.2-2.8-11.9-1.4-15,3.8
		c-16-18.6-49.1-17-60.9,7.7c-3.8,7.9-4.8,15.8-3.3,23.1c-2.6,2-4.8,4.1-6.5,6.4c-0.3,0.1-0.6,0.1-0.9,0.2
		c-4.7,1.5-9.2,4.4-11.6,8.9c-2.5,4.8-3,9.6-2,14.9c1.8,9,10.7,15,19.4,16c0.2,2.5,0.9,5,2.1,6.9c2.3,3.5,5.7,6.7,9.9,7.6
		c4.4,1,8.8,0.6,12.8-1.7c1.5-0.8,2.7-1.8,4.1-2.9c1.3-1,2.6-2,3.8-3.2c0.5-0.5,1-1.1,1.4-1.7c0.4,0.5,0.8,1,1.2,1.4
		c9.2,9.2,21.8,8.8,31.8,2.4c6.5-1.4,12.3-5.5,15.9-11c0.8-0.7,1.5-1.4,2.2-2.2C683.3,214.2,686.1,192.8,672.9,181.6z"/>
	<path class="st4" d="M621.9,186.5c-5-3-11.2-1.9-15.1,2.2c-3.8,4-4.5,9.5-4.5,14.8c-0.5-0.1-1-0.1-1.6-0.1c-3.1,0-6.3-0.2-9.2,1
		c-3.7,1.5-6.4,5.5-6.5,9.6c-0.1,3.2,1.2,6.4,3.4,8.6c0.3,0.3,0.5,0.5,0.8,0.7c-0.1,0.6-0.3,1.2-0.4,1.8c-0.6,3.9-0.4,7.7,1.2,11.3
		c3.1,7.2,11.2,11.7,18.9,9.2c6.3-2,13-8.6,11-15.8c-0.5-1.8-1.8-4-3.4-5.2c0.2-2.9-0.2-7.3-0.1-10.8c0-0.8-0.1-1.5-0.2-2.2
		c0.5-1.4,1-2.7,1.6-4c1.7-3.4,3.7-4.9,6.3-7.5C628.5,195.9,626.8,189.5,621.9,186.5z"/>
	<path class="st4" d="M587.6,190.2c-1.5-0.5-3.4,0.6-4.7,1.1c-2.1,0.8-4.3,1.5-6.5,2.2c-1.4,0.4-1.9,1.6-1.9,2.7
		c-1.3,0.5-2.5,1.1-3.7,1.9c-3.3,2.2-5.4,5.4-5.5,9.4c-0.1,3.6,5.4,3.6,5.5,0c0.2-4.7,6.1-6.3,9.7-7.7c2.5-1,7.5-1.8,9-4.3
		C590.6,193.5,589.7,190.9,587.6,190.2z"/>
	<g>
		<path d="M660.8,176.3c6.2-4,8.3-10,9.5-15.9c0.5-2.6-1.6-6.1-3.5-8.5c-0.8-1-4.2-0.4-6.2,0.2c-2.1,0.6-4,2-5.9,3.1
			c-1.6,1-4.6,0.1-5.4-1.8c-3.3-8.2-10.8-12.6-19.8-13.1c-6.3-0.3-12.2,1.2-17.8,2.9c-5.5,1.7-11,5-14.2,10.2c-2.3,3.7-3.6,8-5.3,12
			c-2.5,6-2.3,12.3-2.1,18.5c0.1,2.2,0.8,3.3,2.9,4c2.5,0.8,5,2,8.1,3.3c-0.7,1.8-1.3,3.7-2.1,5.5c-0.2,0.4-1.1,0.7-1.4,0.6
			c-4.5-2.1-8.2,1.2-12.3,1.7c-2.9,0.3-5.7,1.9-8.4,3.1c-8.3,3.6-10.6,16.6-1.2,22.8c4,2.6,7.9,2.4,12.1,2.5c4,0.1,4.4,0.4,4.4,4.4
			c0,1.4,0,2.9,0,4.3c0.1,6.5,5.6,10.1,11.5,7.5c2.2-1,4.4-2.1,6.7-2.9c0.8-0.3,1.9,0.1,2.8,0.2c-0.4,0.9-0.5,2.3-1.2,2.7
			c-3.3,1.6-6.6,3.5-10.1,4.2c-7.6,1.7-14.5-4.4-14.4-12.1c0-1.1-0.3-2.3-0.4-2.8c-5.2-1.4-10.4-2.4-15.2-4.4
			c-2-0.8-3.5-3.6-4.6-5.8c-3.6-7.3-7.8-16.8-0.1-24.8c4.8-5.1,10.9-8.8,17.9-10.7c-1.5-7-1.7-14.2,1.6-21.1
			c2.6-5.4,4.8-11.2,8.4-15.8c3-3.8,7.8-6.4,12.1-9c8.5-5.2,18.2-4.6,27.5-3.9c3.9,0.3,8,2.4,11.4,4.6c2.5,1.7,5.9,2.9,6.8,6.8
			c0.3,1.2,2.3,1.3,3.8-0.1c3.5-3.3,10.6-3.2,13.9,0.4c5.2,5.5,6.3,16,0.7,22.1c-1.7,1.9-2,3.8,0.4,5.4c6.6,4.2,10.1,10.2,10.7,18.1
			c0.2,2.8,1,5.5,1.2,8.3c0.4,4.2-1.5,7.9-2.7,11.8c-1.5,4.6-3.5,8.6-6.3,12.5c-3,4.2-6,8.3-10.8,10.3c-7.2,3-14.5,6.7-22,8
			c-4.8,0.8-10.4-1.6-15.2-3.4c-9-3.4-10.8-11.6-11.7-19.8c-0.5-4.5,0.2-9.2,0.6-13.8c0.3-3.3,6.2-10.1,9.4-10.8
			c0.5-0.1,1.6,0.3,1.8,0.7c0.2,0.6,0.1,1.8-0.3,2.2c-7.3,5.6-8,13.3-6.9,21.4c0.6,4,2,8,3.4,11.8c0.4,1.2,1.8,2.3,3,3.1
			c6.7,4.3,14,6.3,21.7,3.7c3.5-1.2,6.8-3.6,9.6-6.1c5.2-4.7,10.4-9.5,14.8-14.9c3.7-4.6,7.6-9.6,7.2-16c-0.4-6.6-0.9-13.3-5.2-18.8
			c-2.5-3.2-5.6-6-10-6.5C663,178,662.1,177,660.8,176.3z M589.2,194.6c-1.6-2.6-3.2-5.2-6.1-3.5c-4.7,2.8-9.2,5.9-13.3,9.4
			c-1.8,1.5-2.3,4.6-3.4,6.9c0.4,0.4,0.8,0.7,1.2,1.1C570.6,197.1,581.4,198.6,589.2,194.6z"/>
		<path d="M638.8,231c-3,2.4-6.5,2.3-9.2,1.1c-4.1-1.9-5-5.4-4.3-9.8c0.4-2.4,0.5-4.5,3.5-4.9c2.8-0.4,5.8,1.9,5.9,4.9
			C634.8,225.8,635.3,229,638.8,231z"/>
	</g>
</g>
</svg>
