<?xml version="1.0" encoding="utf-8"?>
<!-- Generator: Adobe Illustrator 21.1.0, SVG Export Plug-In . SVG Version: 6.00 Build 0)  -->
<svg version="1.1" id="圖層_1" xmlns="http://www.w3.org/2000/svg" xmlns:xlink="http://www.w3.org/1999/xlink" x="0px" y="0px"
	 viewBox="0 0 1305.1 1266.1" style="enable-background:new 0 0 1305.1 1266.1;" xml:space="preserve">
<style type="text/css">
	.pop0{fill:#FFFFFF;}
	.pop1{fill:#FF6E6E;}
	.pop2{fill:#EAD065;}
	.pop3{fill:#7DD1EF;}
	.pop4{fill:#F9F5E4;}
	.pop5{fill:#F4E9BE;}
</style>
<g>
	<path class="pop0" d="M764.4,190.1c-6.7-31.4-21.1-59.9-36.4-87.6c-13.4-24.2-30.9-51.3-59.3-53.7c-1.7-0.4-3.5-0.4-5.4-0.2
		c-1.2,0-2.4,0.1-3.6,0.2c-7.4,0.7-14.4,5.2-16.6,12.5c-3.6,3.1-6.9,6.5-10,10.2c-2.8,3.5-5.5,7.3-7.9,11.1
		c-1.3,2.2-2.5,4.4-3.6,6.7c-1.9,1.4-3.6,3.4-5.1,6c-3.3,5.9-6.6,11.7-9.8,17.6c-11.2,10.7-18.6,24.3-21.7,39.8c0,0.1,0,0.2,0,0.3
		c-1.2,1.5-2.2,3.2-3,5.2c-1.8,4.7-2.2,8.3-2.5,13.4c-0.1,1.6,0.1,3,0.4,4.4c-2.3,9.8-6.6,19.7-9.2,28.9
		c-4.6,16.1-8.7,32.4-11.7,48.9c-5.6,30.7-7.8,61.7-3.8,92.8c2,15.5,5.2,30.8,8.5,46.1c3.4,15.4,5.2,32.5,10.6,47.3
		c10.1,27.6,49.9,19,72.1,16.2c2.5,0,5.1-0.2,7.5-0.9c12.6-1.3,25-2,37.8-1.3c14,0.7,31.8,5.1,45.1-1c11.7-5.4,14.5-18.5,18-30.1
		c4.7-15.6,8.6-31.5,11.6-47.6C777.6,314.2,777.4,250.9,764.4,190.1z"/>
	<path class="pop1" d="M755.2,149.5c-2.2-8.7-7.7-17.4-13.7-25.6c-3.5-12.4-11.6-21.9-20.2-32.6c-8.6-10.7-16.9-23.3-28.1-31.8
		c-1.8-2.3-3.7-4.6-5.5-6.9c-3.5-4.3-9.4-5.8-15-5c-1.9-0.3-3.9-0.3-5.8,0c-4.3-0.3-8.7,0.9-12.5,4.3c-3.2,2.7-6.6,5.5-9.6,9.2
		c-8.6,10.9-14.2,15.4-18.4,25.2c-4.9,4.4-9.5,8.9-13.2,14c-12.5,17.4-21.4,38.2-31.6,57c-4.9,9.1-1.7,18.5,6.5,24.3
		c10,7,21.8,7,33.6,6.4c16.3-0.8,32.6-1.9,48.9-3.2c24-1.9,61.4-0.4,80.1-18.1C755.2,162.3,756.7,155.5,755.2,149.5z"/>
	<path class="pop1" d="M574.2,430.7c-7.3-17.6-9.8-36.9-12.1-55.6c-0.1-1.1-0.5-2.1-0.9-3c0.8-1.8,0.4-3.6,0.1-5.5
		c-2.1-15.2-8.1-19.3-13.2-8.8c-22.5,45.3-55,131.2,9.1,157.8c8.5,3.5,24.6,8.5,23.1-2.1c-0.9-6.6,0.6-12.3,1.9-19.4
		c1.9-10,2.1-17.6,3.7-27.6C588.1,452.2,579.4,443.1,574.2,430.7z"/>
	<path class="pop1" d="M668.8,514.8c1.4-0.6,2.3-1.9,2.1-3.9c-0.7-6.2-1.5-12.4-2.1-18.6c2.3-17.6,2.1-34.9-0.6-52.1c0-0.3,0-0.7,0-1
		c-0.7-4.9-1.4-9.8-2.1-14.6c0.5-14.6,1.4-25.9,0.5-41.2c0-0.1,0.5-3.7,0.5-3.8c0.8-3.8-0.9-6.5-0.1-10.3c1.2-5.7-8.1-11.9-9.4-6.2
		c-1.3,5.8-2.2,11.6-3.5,17.5c-1,2.7-2.5,6.5-3.1,9.4c-1.2,0.5-1.1,4.2-1.5,5.7c-6.3,21.9-7,43.9-2.3,65.7
		c2,21.7,8.4,42.6,14.3,63.6c1.6,5.7,9.8,3.3,8.7-2.4C669.7,520,669.3,517.4,668.8,514.8z"/>
	<path class="pop1" d="M804.4,401.6c-0.8-10.1-3.5-19.7-7.1-29.2c0.2-1.8,0.4-3.6,0.6-5.4c0.5-5.1-2.8-7.9-6.7-8.5
		c-1.7-3.6-3.5-7.2-5.4-10.7c-0.4-0.7-0.9-1.2-1.4-1.6c-1.7-3.2-7.3-3.7-8.4,0.7c-1,4-1.7,8-2.3,12.1c-0.2,0.7-0.4,1.4-0.5,2.1
		c-4,33.7-12.7,66.7-25.8,98.1c-3,3.6-3.6,7.6-2.9,13.5c2.2,17.4,6.9,34.8,10.2,52c1.7,8.4,12.4,7.8,16.5,2.2
		c2.7-3.8,4.8-7.7,6.6-11.9c0.5-0.4,1-0.8,1.5-1.3c15.7-18,26-39.3,29.2-63.1C811,433.5,808.8,417.4,804.4,401.6z"/>
	<path class="pop2" d="M660.4,227.9c-6.8,0-12.6,1.4-17.6,3.7c-19.6,3.5-35.1,21.1-35.1,41.5c0,22.9,19.3,42.2,42.2,42.2
		c3.5,0,7-0.5,10.3-1.4c9.5-1.3,18.2-5.9,24.7-12.6C710.8,280.9,702.7,227.9,660.4,227.9z"/>
	<path class="pop3" d="M655.7,246.5c-37.8,0-37.8,50.8,0,50.8C693.4,297.3,693.5,246.5,655.7,246.5z"/>
	<g>
		<path d="M580,519.4c-4.4,1-8.6,0.4-12.9-1c-1.1-0.4-2.2-0.9-3.3-1c-9.7-0.8-18-4.8-24.8-11.7c-6.2-6.3-11.4-13.7-14.3-22
			c-2.4-6.9-5.4-13.8-5.4-21.5c0-5.6-1.6-11.2-1.2-16.6c0.8-10.7,1.6-21.6,3.9-32c2.7-11.9,6.8-23.4,10.8-34.9c1.5-4.3,4.5-8,6.9-12
			c4.1-6.9,8.1-13.8,12.3-20.6c0.8-1.3,2.5-2.1,4.6-3.6c-0.6-2.1-1.5-4.8-2.3-7.6c-0.7-2.4-2.2-4.8-2.2-7.2
			c-0.1-8.4,0.5-16.8,0.6-25.2c0-4.4-0.6-8.8-0.6-13.2c0-4.5,0.3-9.1,0.7-13.6c0.7-8.1,1.2-16.1,2.3-24.1c0.7-5.1,2.6-10,3.5-15
			c0.6-3.2,0.2-6.5,0.7-9.7c1-6.3,2.4-12.6,3.5-18.9c0.3-1.9-0.1-3.9,0.5-5.7c2-7.3,4.1-14.6,6.6-21.8c2.1-6.3,4.3-12.6,7.2-18.6
			c5.3-10.8,10.9-21.5,16.7-32.1c4.9-8.9,9.9-17.7,15.7-26c6.1-8.8,13.2-17,19.8-25.5c4.1-5.3,8-10.7,12-16c3.1-4.2,8-6.7,10.3-11.8
			c1.3-2.8,4.2-5,6.9-6.9c1.5-1.1,3.8-1.5,5.7-1.4c6.6,0.4,12.6,1.6,18.7,5.7c6.2,4.3,12,8.9,17.3,14c5.5,5.3,10.1,11.5,14.8,17.6
			c4.3,5.6,8.4,11.3,12.3,17.3c5.3,8.2,10.2,16.6,15.3,24.9c1.8,2.8,3.4,6.1,5.2,8.9c0.5,0.8,1.3,2.7,1.8,4
			c1.8,4.6,2.5,6.1,4.9,11.9c0.5,0.6,1,1.5,1,2.2c0.1,6.8,4,12.4,6.2,18.5c1.8,4.9,3.1,10,4.8,14.9c1.3,3.7,2.9,7.2,4.1,10.8
			c1,2.9,1.2,6,2.4,8.7c2.9,6.6,3.1,13.8,5.1,20.6c2.4,8.4,1,16.9,2,25.3c1.2,9.7,1.9,19.4,2.7,29.1c0.4,5.3,1.1,10.6,0.9,15.8
			c-0.5,12.3-0.5,24.7-2.5,36.8c-1,6,0.8,8.6,4.2,12.8c5,6.1,9.7,12.8,12.3,20.6c2,5.9,5.6,11.2,7.7,17c2.2,6.1,4.3,12.5,4.9,18.9
			c1.3,12.9,2,26,2.2,39c0.1,6.9-1.1,14-2.3,20.8c-1.2,6.5-3,12.9-4.9,19.2c-0.9,2.8-2.7,5.4-4.2,8c-3.2,5.8-6.6,11.5-9.7,17.3
			c-2.9,5.5-6.1,10.7-11,14.9c-4.8,4.2-8.8,9.3-13.1,14.1c-0.4-0.1-0.8-0.1-1.2-0.2c0.1-1.3-0.2-3,0.4-3.9c3.9-5,7.9-9.9,12-14.7
			c4.9-5.7,9.4-11.5,12.5-18.6c2.2-5,5.8-9.4,8.1-14.3c1.7-3.7,2.5-7.9,3.3-12c1-5.3,1.5-10.7,2.3-16.1c0.7-4.8,1.8-9.5,2-14.4
			c0.3-4.2-0.4-8.4-0.6-12.6c0-0.7,0-1.5-0.1-2.2c-0.7-7.8-1.3-15.5-2.2-23.3c-0.5-4.3-0.7-8.8-2.3-12.7c-2.2-5.3-1.7-11.2-5.2-16.3
			c-2.7-3.9-3.3-9.2-5.6-13.5c-2.6-4.8-6-9.1-9.2-13.6c-0.3-0.4-1-0.4-2.2-0.8c-0.8,4-1.6,7.8-2.4,11.5c-1.1,5.2-2.3,10.3-3.4,15.5
			c-0.5,2.3-0.5,4.7-1,7c-2.1,9.6-4,19.4-6.7,28.9c-2,7-5.1,13.7-7.6,20.7c-1.7,5-2.9,10.2-4.7,15.2c-1.6,4.5-3.6,8.9-5.3,13.4
			c-0.5,1.4-1.3,3-1.1,4.3c0.7,4.4,1.9,8.7,2.7,13.1c1.5,7.7,3,15.4,4.3,23.2c0.2,1.3-1.2,2.2-0.7,4.2c1.9,8.8,3.1,17.8,4.4,26.7
			c0.1,1.1-0.9,2.3-1.4,3.5c-0.7-1.1-1.8-2-2-3.2c-1.1-5.4-1.9-10.8-3-16.2c-0.8-4.2-2.1-8.3-3-12.4c-0.6-2.9-0.7-5.9-1.4-8.7
			c-0.5-2.3-1.6-4.4-2.6-7.1c0-0.9,0.2-2.5,0-4.1c-0.4-2.4-0.9-4.9-1.7-7.2c-0.5-1.3-1.6-2.4-2.3-3.7c-0.4-0.8-1-1.8-0.9-2.6
			c0.3-2.4,1-4.8,1.9-6.9c1.2-1.9,2.6-3.7,3.5-5.7c2.2-5.1,4.6-10.2,6.2-15.5c1.5-4.8,2.1-9.8,3.2-14.8c0.6-2.9,1.3-5.9,2.2-8.8
			c1.8-5.4,3.8-10.7,5.7-16.1c2.1-6,4.3-11.9,6.2-17.9c0.7-2.1,0.7-4.4,1-6.7c0.7-4.8,1.1-9.7,2.3-14.3c2.5-9.6,2.2-19.7,4.3-29.1
			c2.6-11.5,1.8-22.9,2.6-34.3c0.7-11-0.6-22.1-1.2-33.1c-0.5-9.4-1.2-18.8-2.2-28.1c-0.6-5.1-1.9-10.2-3-15.2
			c-1.1-5.3-2.1-10.5-3.5-15.7c-1.4-5.1-3.1-10.1-4.7-15.1c-1.8-5.6-3.7-11.2-5.4-16.8c-1.1-3.6-1.8-4.3-5.2-2.6
			c-4.2,2.1-8,5-12.3,6.9c-5.3,2.4-11,4.1-16.5,6.1c-2.3,0.8-4.7,1.6-7.1,2.2c-6.5,1.5-13,3.2-19.5,4.4c-8.9,1.6-17.8,3.9-26.8,4.1
			c-15.4,0.5-30.9-0.1-46.3-0.6c-5.9-0.2-11.8-1.2-17.6-2.1c-6.2-1-12.4-1.9-18.4-3.7c-4.2-1.3-8-3.9-12.5-6.2c-0.2,0.5-0.7,1.2-1,2
			c-1.2,4.6-2.5,9.2-3.6,13.9c-1.3,5.8-2.3,11.7-3.7,17.5c-2.5,10.4-5.2,20.6-7.6,31c-1.3,5.6-2.4,11.3-3.1,17
			c-1.2,9-2.3,18.1-2.8,27.1c-0.3,6.3,0.6,12.6,1,18.9c0.1,1.6,0.1,3.1,0.3,4.7c0.6,6,1.3,12,2,18c0.8,7.1,1.4,14.1,2.4,21.2
			c0.9,6.6,2.1,13.2,3.3,19.8c0.9,4.9,2,9.7,3.2,14.6c0.7,3.1,1,9.1,0.1,8.7c0.5,2.3,0.9,4.4,1.4,6.4c1.7,7.1,3,14.3,5.1,21.2
			c1.9,6,5,11.7,7.2,17.7c0.6,1.6,4.4,11.7,6.4,15.1c1.8,3,2.3,6.3,1.7,10.1c-0.8,5.1-0.5,10.3-1,15.4c-0.5,4.5-1.5,9-2.3,13.5
			c-0.5,2.7-1.4,5.4-1.8,8.2c-0.7,4.4-1,8.8-1.6,13.1c-0.1,1-1,1.8-1.6,2.7c-0.9-0.8-1.9-1.4-2.6-2.3c-3.3-4.5-0.6-9.1,0.1-13.6
			c1.4-9.2,3-18.4,5-27.5c1.4-6.4,1-12.7-0.8-18.9c-0.5-1.7-1.1-3.6-2.3-4.9c-3.7-4.4-5.2-9.6-6.5-15.1c-2.3-9.3-5.7-18.4-7.7-27.8
			c-1.2-5.5-3.1-10.7-2.6-16.8c0.4-5.8-2.3-11.8-3.6-17.7c-0.3-1.4-0.4-2.8-0.7-4.2c-1-5-1.9-10-3-15.3c-3.1,0.7-4.2,3.5-5.7,5.8
			c-2.7,4.2-5.3,8.5-8,12.7c-4.9,7.7-8.5,16-10.7,24.9c-1.2,5-3.2,9.8-4.8,14.7c-0.5,1.4-0.8,2.9-1,4.4c-0.7,5.5-1.4,11-2.1,16.5
			c-0.4,2.8-0.9,5.6-1.4,8.4c-1,6.4-1.6,12.7,0.3,19.1c0.8,2.8,0.3,6,1.2,8.8c2.6,8.5,4.5,17.2,9.3,24.9
			c4.9,7.8,11.7,13.9,19.6,17.9c5.9,3,13,3.6,19.5,5.4c2.7,0.7,5.3,1.6,7.9,2.4C580.1,518.7,580,519.1,580,519.4z M638.2,73.1
			c-1.3,0.9-2.8,1.6-3.7,2.7c-2.6,3.3-5,6.8-7.6,10.1c-4.3,5.6-8.9,10.9-12.9,16.6c-5,7.3-9.8,14.9-14.2,22.6
			c-3.6,6.3-6.4,13.1-9.5,19.7c-0.9,1.8-1.1,4.5-2.5,5.3c-4,2.3-4,6.5-5.4,9.9c-1.7,4.3-2.9,8.8-4.5,13.8c1.8,1.3,3.5,3.2,5.6,4.1
			c4.7,2,9.6,3.8,14.6,5c5.5,1.3,11.1,1.8,16.7,2.6c2.1,0.3,4.2,0.9,6.3,1c7.7,0.2,15.5,0.4,23.2,0.3c4.5,0,9-0.5,13.5-0.7
			c3.7-0.2,7.5,0,11.2-0.5c6.1-0.7,12.2-1.7,18.2-2.6c1.6-0.2,3.2,0.3,5-0.5c2.6-1.1,6-0.4,8.9-1c5.8-1.3,11.5-3,17.2-4.5
			c-0.1-0.3,4.6-1.3,6.7-3.5c2.6-2.7,11.7-4.7,18.1-8.8c3.4-2.2,5.1-7.4,10.5-5.5c0-0.9,0.2-1.3,0.1-1.6c-2.8-7.3-5.5-14.7-8.5-21.9
			c-2.1-5.1-4.5-10-7-14.9c-2-3.9-4.2-7.9-6.6-11.6c-3.8-5.7-7.7-11.3-11.9-16.8c-7.3-9.8-14.3-20-22.5-29
			c-5.8-6.3-12.6-12-20.7-15.5c-5.6-2.4-11-3.8-16.4,0.9c-6.9,5.9-13.7,11.9-19.5,18.9C639.6,69.4,639,71.4,638.2,73.1z"/>
		<path d="M651.8,376.2c1.1-3.5,2.2-7,3.3-10.5c0.3-1,1-2,1.1-3.1c0.4-2.9,2.5-4.1,4.8-4.8c1.8-0.5,5.4,3.7,6.1,5.5
			c4.5,12.7,1,25.8,2.1,38.7c0.2,1.9,0.6,3.8,0.7,5.6c0.3,4.7,0.6,9.3,0.7,14c0.3,11.4,0.4,22.8,0.8,34.2
			c0.3,10.1,1.1,20.1,1.4,30.1c0.2,9.3-0.1,18.7,0.1,28c0.1,6.4-1.5,12.3-3.9,18c-0.5,1.1-2.2,2.3-3.5,2.4c-0.8,0.1-1.9-1.6-2.7-2.6
			c-4.1-5.6-4.2-12.5-6.1-18.8c-1.1-3.7-1.5-7.6-2.7-11.4c-1.8-6-3.9-11.8-5.8-17.8c-0.8-2.4-1.2-4.9-2-7.4
			c-2.5-8.1-5.4-16-5.2-24.6c0.3-11.1,0.2-22.2,0.9-33.2c0.3-5.2,2.3-10.2,3.3-15.4c0.5-2.7,0.6-5.4,0.9-8.1
			c0.5-4.5,2.4-7.9,3.4-12.3C650.2,379.3,651.7,376.4,651.8,376.2z M664.5,526.6c1.3-1.5,2.4-2.5,3.3-3.7c1.8-2.3,0.3-4.8,0.2-7.2
			c0-4,1.1-8,1.2-12c0.2-9.2,0.6-18.4-0.2-27.5c-0.4-4.5-1-16-1-16.7c-0.2-26.6-2.8-52.4-3.2-79c-0.1-5.4-0.8-10.9-1.5-16.3
			c-0.1-0.9-1.3-1.7-2.5-3.1c-0.8,2.4-1,3.1-1.4,4.2c-2.6,6.9-4,14.3-5.8,21.6c-1.6,6.5-3.9,12.8-5.4,19.2
			c-1.3,5.6-2.7,11.4-2.7,17.1c0,9.5-1.4,19.1,1.2,28.6c1.5,5.6,1.9,11.6,2.8,17.4c0.2,1.4,0.1,2.9,0.4,4.3c1,3.9,2.3,7.8,3.4,11.7
			c1.1,3.9,1.9,8,3,11.9c1.8,6.5,3.9,12.9,5.7,19.3C662.9,519.9,663.7,523.4,664.5,526.6z"/>
		<path d="M652.8,317c-6.2-0.7-13.7-0.8-20.8-2.5c-6.8-1.6-12.8-4.6-17.3-11c-7.8-11.1-9.6-23.1-7.5-35.7
			c1.6-9.7,5.5-18.9,11.7-26.7c3.4-4.2,7.3-7.6,13.3-8.3c3.8-0.4,7.2-3.4,10.9-4.4c6.1-1.6,12.2-4,18.8-3.4c3,0.3,6.1,0.2,9.1,0
			c6.4-0.4,11.4,2.8,15.3,7.1c4,4.4,8.1,9.3,10.4,14.7c3.8,8.9,6.1,18.2,4.5,28.3c-1.1,7.2-3.2,13.9-6.1,20.4
			c-2.5,5.6-7.2,9.3-11.9,12.9C674.9,314.8,663.5,316.2,652.8,317z M698.3,269.9c-1.1-6.2-1.6-12.7-3.5-18.6c-1.9-6-6-11-10.4-15.6
			c-3.5-3.6-7.8-6.3-12.3-6.7c-9.7-0.8-19.7-1-28.9,3.7c-2.1,1.1-4.3,2-6.4,3c-2.3,1-4.9,1.5-6.7,3.1c-7.5,6.7-12.2,15.2-15.5,24.6
			c-2.8,7.9-3,16-2.4,24.1c0.3,3.5,1.1,7.5,3.1,10.3c5.2,7,11.9,12.5,20.9,13.5c8.1,0.9,16.1,3.4,24.4,0.8c3.8-1.2,7.8-1.3,11.7-2.3
			c2.7-0.7,5.7-1.5,7.7-3.3c4.9-4.3,10.2-8.3,12.7-14.8c2.1-5.4,5.1-10.5,4.9-16.6C697.4,273.4,698,269.9,698.3,269.9z"/>
		<path d="M728.3,456.6c-5.5,0-10.2,0.2-14.8-0.1c-5.9-0.3-11.3,1.1-16.6,3.5c-0.5,0.2-1.4,0.3-1.7,0.1c-2.6-2.6-5-0.5-7.6,0
			c-3.5,0.6-7.1,0.7-10.7,0.7c-0.6,0-1.4-1.1-1.6-1.8c-0.1-0.4,0.9-1.5,1.5-1.6c13.3-1.8,26.5-3.7,39.8-5c3.3-0.3,6.9,1.3,10.3,2.1
			C727.4,454.7,727.6,455.4,728.3,456.6z"/>
		<path d="M621.6,461.2c-7.4,0.7-14.6,1.4-21.7,1.9c-1.9,0.1-4.6,0.3-4.5-3.1c8.8-1.6,17.2-2.8,25.7-0.8
			C621.3,459.3,621.3,459.9,621.6,461.2z"/>
		<path d="M685.8,284.3c-5,12.8-16.6,14.7-28,16.9c-11.4,2.2-20.9-1.4-28.4-9.8c-6.1-6.7-8.2-15.3-6.1-23.8
			c1.9-7.4,5.3-14.7,11.3-20.1c0.6-0.6,1.5-1.2,2.3-1.4c6.6-1.7,13.1-4.2,19.8-4.7c8.7-0.6,16.8,2.3,23.1,8.8c2.8,2.9,6,5.7,8.1,9.2
			C689.6,262.3,690.6,272.6,685.8,284.3z M652.6,295.5c4-0.8,8-2,12-2.3c6.6-0.5,13.6-5.5,15.7-12c1.3-4,2.2-8.2,3.7-12.2
			c1.1-3,0.9-5.4-1.3-7.8c-1.3-1.4-2.4-2.9-3.6-4.3c-7.6-9.4-18.1-11-28.7-8.8c-7.1,1.5-13.2,6.4-17.9,12.2
			c-6.3,7.6-7.5,17-0.8,24.7C637,291.3,643.6,295.7,652.6,295.5z"/>
	</g>
</g>
<g>
	<path class="pop4" d="M489.9,524.5c0-0.1,0-0.1,0-0.2c0-3.8-1-7.4-2.9-10.7l-0.4-0.8c-1.3-2.5-3.1-4.4-5.4-5.9
		c-2-1.9-4.4-3.1-7.2-3.8c-2.8-0.9-5.6-1-8.4-0.4c-2.5,0.1-4.9,0.8-7.1,2.1c-6-6-14.5-10-25.6-10c-5.6,0-10.5,1-14.9,2.8
		c-25.9,2.6-32.1,33.9-18.7,50.3c2.5,6.4,6.7,12.1,12.5,16.1c-5.2-0.4-10.4,0.5-14.8,3.3c-6,3.8-9.2,8.8-11.8,15.3
		c-0.3,0.8-0.6,1.5-0.9,2.3c-3.3,8.2,0.7,19,6.6,24.9c6.8,6.8,15.8,8.4,24.9,6.6c4.1-0.8,8.2-1.4,12.3-2.5c3.6-1,6.5-2.6,9.4-4.3
		c3,9.2,10.7,16.6,23.3,16.6c12.3,0,20-7.1,23.1-16.1c21.7-2.3,39.4-21.3,39.4-43.5C523.5,546.7,508.9,529.3,489.9,524.5z"/>
	<path class="pop5" d="M491.5,589.3c0-0.9,0.1-1.7,0-2.6c-0.4-4-2.6-8.6-6.8-9.9c0,0,0,0,0-0.1c-3.9-4.4-8.2-5.9-12.3-5.3
		c0.2-3.3,0-6.3-0.6-8.7c-0.9-3.3-3.9-6.7-7.4-7.4c-10.1-1.9-15.1,4.1-16.2,13.3c-3-1.1-6.2-2.1-9.4-2c-6.4,0.1-12.3,3.5-14.6,9.6
		c-4.4,11.4,4,16.7,13.4,19c-0.3,5.2,1.5,9.9,7.9,12.5c3.3,1.3,6.3,1.3,9,0.3c2.7,3,6.4,5,11.5,5.7c9,1.1,20.6-1.9,25.2-10.3
		C493.7,598.4,493.5,593.5,491.5,589.3z"/>
	<g>
		<path d="M487.5,612.6c-1.5,5.1-15.5,15.9-21.4,17.1c-9.6,1.9-26.5-9.4-30.2-19.1c-7.7,5.6-16.8,7.1-25.8,7.8
			c-8,0.6-16-1.1-22.9-5.8c-1.5-1-2.7-2.6-3.6-4.2c-4.5-8.7-4.9-17.5-1.1-26.8c1.5-3.7,2.4-7.4,5.1-10.6c3.9-4.9,8.8-8.3,14.5-10.7
			c1.1-0.4,2.1-0.9,2.9-1.3c-3.6-4-7.2-7.7-10.5-11.6c-1-1.2-1.1-3-1.7-4.5c-4.4-10.7-5.5-21.6,1.2-31.6
			c4.9-7.3,11.9-12.7,20.1-16.1c4.7-1.9,9.7-3.8,14.7-4.4c4.5-0.5,9.3,0.4,13.8,1.3c5.3,1.1,9.8,3.9,13.4,8.1
			c0.7,0.8,2.5,0.9,3.7,0.8c2.6-0.3,5.2-1.5,7.8-1.5c8.2-0.1,15,3.5,20.5,9.2c1.8,1.9,3,5,3.3,7.7c0.3,2.5,1.2,3.9,3.4,4.6
			c9.2,3.3,15.9,10,22,17.1c2.4,2.7,3.8,6.5,4.9,10c1.6,5.3,3.2,10.8,3.3,16.3c0.1,5.6-1.3,11.3-2.4,16.8c-0.5,2.8-1.7,5.5-2.7,8.3
			c-2.6,7.1-7.4,12.2-14.2,15.5c-4.1,2-8,4.4-12.1,6.3C491.7,612.3,489.5,612.3,487.5,612.6z M485.7,521.1c0.3-3.2,1.5-6.3,0.5-7.9
			c-6.2-9.8-14.7-12.1-25.2-5.6c-3.4,2.1-5.5,1.5-6.4-2.4c-0.1-0.5-0.4-1-0.7-1.4c-5.1-6.4-11.7-9.4-19.8-8.6
			c-4,0.4-7.9,1.1-11.8,2.2c-6.9,1.9-12.6,5.8-16.2,12.1c-2,3.6-3,7.6-4.7,11.4c-2.9,6.3-4.1,12.9-3.1,19.6
			c0.5,3.6,2.2,7.3,4.3,10.2c1.8,2.4,5.2,3.6,7.6,5.6c1.2,1,2.1,2.5,3,3.9c0.5,0.8,0.9,1.7,1.3,2.6c0.2,0.6,0.3,1.3,0.5,1.9
			c-0.7,0.1-1.5,0.4-2.2,0.4c-2.5-0.1-5.1-0.8-7.5-0.3c-6.6,1.4-12.3,4.9-15.7,10.8c-2.3,4-3.9,8.7-4.8,13.2
			c-0.9,4.7-1.3,9.7,2.3,13.9c2,2.3,4.1,4.6,5.8,7.2c2.3,3.4,6,4.3,9.4,4.7c11.6,1.4,22.6-1.2,32.7-6.8c2.5-1.4,3.3-0.6,4.5,1.2
			c1.6,2.6,2.8,5.7,4.9,7.7c4.1,3.8,9,6.3,14.7,7.2c9.6,1.5,17.7,0.4,21.5-9.5c-7.7-1.5-8.8-2.4-8.3-6.9c1.7,0.3,3.6,1,5.2,0.7
			c3.9-0.9,7.8-2.2,11.6-3.7c7.7-3.1,15.1-6.6,20.7-13.4c6.2-7.6,9-16.3,10.1-25.7c0.8-7.6-1.4-14.6-5-21c-3.4-6-7.5-11.8-13.7-15.3
			C495.7,525.9,490.3,523.4,485.7,521.1z M404.6,505.9c-8.7,3.1-15,21.6-10.3,28.9C394.5,526.3,399.8,511.9,404.6,505.9z
			 M515.7,586.8c-5.5,11-15.6,15.7-26.2,21C499.2,608.3,516.6,594.3,515.7,586.8z"/>
	</g>
</g>
<g>
	<path class="pop4" d="M802.3,639.9c-2.5-2.2-5-4.3-7.6-6.2c0.7-9.7-4.3-19.9-15.1-22.4c-8.9-32.2-55.3-29.6-65.9-0.1
		c-1.4-0.3-2.9-0.4-4.5-0.4c-13.1,0-19.9,9.9-20.3,20.1c-4,1-7.8,3-10.7,6.3c-0.2,0.1-0.3,0.2-0.5,0.3c-4.6,3.3-8.1,6.9-10.3,12.1
		c-3.8,9-2.2,19.2,2.6,27.6c5,8.8,15.4,13.4,25.2,13.3c1.2,0,2.4-0.1,3.5-0.2c1,0.4,2.1,0.9,3.2,1.2c2.8,2.5,6,4.4,9.5,5.9
		c3.4,3.7,8.3,6.1,14.8,6.1c7.5,0,12.9-3.2,16.3-7.9c3-1.5,5.8-3.4,8.2-5.7c1.3,0,2.6,0.1,4,0.2c13.9,11.4,34.4,12.2,47.7-1.1
		C815,676.2,816.3,652.4,802.3,639.9z"/>
	<path class="pop5" d="M790.4,668.5c0.1-4.2-1.3-8.5-4.3-12c0-3.5-0.8-7.1-2.4-9.6c-2.1-3.3-5.7-4.9-9.4-5c-1.1,0-3.7,0.5-5.7,0.5
		c0-0.2,0-0.3-0.1-0.5c-0.7-4.2-2.6-8.2-7-9.4c-4.4-1.2-9,1.1-11.1,5.1c-1.4,2.7-1.5,5.6-0.8,8.4c0.2,1,0.4,2,0.7,3
		c-4.9-0.5-9.7,0.7-13.8,4.8c-6.3,6.3-6.4,17.2-0.1,23.5c6,6,15.9,6.2,23.1,2.4c0.2-0.1,0.3-0.2,0.5-0.3c0.4,0.2,0.8,0.5,1.3,0.7
		c1,1.2,2.2,2.2,3.6,3.1c4.7,2.8,10.2,3.1,15.2,1c0.3-0.1,0.6-0.3,1-0.5c5.5-2.3,9.5-7,9.5-13.6
		C790.5,669.6,790.4,669.1,790.4,668.5z"/>
	<g>
		<path d="M753.3,692.2c-5.5,4.1-10.6,8.9-16.6,12.3c-3.4,2-8.1,2.2-12.2,2.7c-4.2,0.5-7.6-0.7-11.2-3.7c-3.9-3.3-6.6-6.9-9-11.4
			c-5.2,0-10.6,0.1-16,0c-5.4-0.1-10-2.1-13.8-6c-1.1-1.1-2.8-1.6-3.9-2.6c-7.2-6.6-10.3-14.6-8.4-24.3c0.4-2.1,0.2-4.3,0.8-6.3
			c2.3-7.5,7.1-13.5,13.3-18.2c2.2-1.7,5.3-2.6,8.1-3.2c2.8-0.6,3.6-2,3.4-4.5c-0.4-4.8,0.7-9,4.1-12.5c0.7-0.7,1.5-1.5,2.4-1.9
			c3-1.2,6.3-1.9,9.2-3.3c2.7-1.3,5.1-1.6,8-0.6c2.2,0.8,4-0.6,4.4-2.9c1.3-6.3,4.5-11.3,9.7-14.8c2-1.3,4.4-2.1,6.7-3
			c7.7-3.1,15.7-3.3,23.4-1.4c10.2,2.5,19,8,24.2,17.5c1.5,2.8,1.8,6.3,2.4,8.5c4.4,1.5,8.4,2.5,11.9,4.3c3.3,1.6,4.1,5.1,3.9,8.5
			c-0.1,2.3-1.1,4.5-1.8,6.7c-1,3.5,2.2,3.2,3.6,3.4c5.5,0.8,9.6,3.9,13.3,7.4c4.1,3.9,6.1,8.6,4.8,14.6c-0.9,4-1.1,8.1-1.5,12.2
			c-0.6,6.8-5.1,11.7-8.6,17.1c-2.5,3.7-5.3,7.4-8.8,10.1c-3.5,2.7-7.8,4.2-12,5.9c-2.1,0.9-4.6,1.2-6.9,1.5
			c-7.8,0.8-13.7-3.7-20-7.1C758.1,695.9,755.9,694,753.3,692.2z M709.6,685.5c-0.1,3-1,5.8-0.1,7.4c3.5,5.5,8.7,9.1,15.3,10.1
			c5,0.7,9.2-1.5,13.1-4.2c5.1-3.5,10.2-7.1,13.3-12.9c3.7,2.5,7.3,5.4,11.3,7.6c4.7,2.7,9.2,7,15.1,5.1c8.1-2.5,16.3-5.4,22.1-11.9
			c4.2-4.7,9.4-9.4,11.2-15.1c2.3-7,3.3-15.3-1.2-22.3c-2.2-3.5-5.4-6.6-8.8-8.9c-2.3-1.5-5.7-1.2-9.3-1.9c-1-1.7-0.6-1.7,0.1-5
			c0.9-3.9,3.7-8,0.6-12c-1.1-1.4-2.7-2.7-4.3-3.1c-1.5-0.4-4.3,0-4.7,0.9c-1.1,2.5-2.6,1.8-4.2,1.7c-0.3-1.3-0.2-2.9-0.9-3.2
			c-3.6-2-2.9-5.7-3.9-8.7c-0.9-2.7-2.6-5.2-4.2-7.7c-0.6-1-1.8-1.8-2.6-2.7c-4.1-4.3-8.8-8.2-14.9-8.5c-6.4-0.4-13.2-1.5-19.2,2.1
			c-3.9,2.3-8.1,4.7-11,8c-4.9,5.6-2.7,12.7-2,19.1c0.5,4.1-2,7.8-6.8,7.2c0-2.7,0.1-5.5,0-8.3c-0.1-2.7-6.5-7.1-8.9-6.1
			c-2.4,1-5,2-7.3,3.2c-1.3,0.6-2.3,1.7-3.4,2.7c-3.4,3.2-2,7.3-2.2,11.2c-0.2,4.5-0.9,5-5.4,5.7c-4.7,0.8-9.1,2.3-12.2,6.7
			c-4.3,5.9-5.7,12.6-7,19.4c-1.1,5.9-0.7,11.3,4,16.2c4.2,4.3,9.7,6,14.5,9.1c3.8,2.4,7.7,1.6,11.6,1.1
			C701.9,687,706.2,686.1,709.6,685.5z"/>
		<path d="M772.9,687.6c-3.3,0.9-5.4-0.7-7.8-3c-2.5-2.4-1.8-4.9-1.1-7.4c0.7-2.6,3.1-2.3,5.3-2.5c2.8-0.3,5.5-1,8.3-1.4
			c2.4-0.3,4.9-0.8,7.2-0.5c1.2,0.1,3.2,1.6,3.1,2.5c-0.1,2.3-0.3,5.4-1.8,6.8C782.6,685.4,778.6,688.7,772.9,687.6z"/>
	</g>
</g>
<g>
	<path class="pop4" d="M971.6,510.3c-2.6-2.2-5.5-4.1-8.6-5.5c2.6-4.5,5.1-8.9,7.7-13.4c3.1-5.5,1.5-13.4-4.3-16.5
		c-5.7-3-12.9-1.5-16.4,4.1c-17.4-20.2-53.5-18.5-66.4,8.4c-4.1,8.6-5.2,17.2-3.6,25.2c-2.8,2.2-5.2,4.5-7.1,7
		c-0.3,0.1-0.7,0.1-1,0.2c-5.1,1.7-10,4.8-12.6,9.7c-2.8,5.2-3.3,10.5-2.1,16.3c2,9.8,11.6,16.4,21.2,17.4c0.2,2.7,1,5.4,2.3,7.5
		c2.5,3.9,6.2,7.3,10.8,8.3c4.8,1.1,9.6,0.6,13.9-1.8c1.6-0.9,3-2,4.4-3.1c1.5-1.1,2.8-2.2,4.1-3.5c0.6-0.6,1.1-1.2,1.5-1.9
		c0.4,0.5,0.9,1,1.4,1.5c10.1,10.1,23.7,9.5,34.7,2.6c7.1-1.5,13.4-5.9,17.3-12c0.8-0.7,1.6-1.5,2.4-2.4
		C983,545.8,986,522.5,971.6,510.3z"/>
	<path class="pop5" d="M916,515.7c-5.4-3.3-12.2-2.1-16.5,2.4c-4.1,4.3-4.9,10.4-4.9,16.2c-0.6-0.1-1.1-0.2-1.7-0.2
		c-3.4,0-6.8-0.2-10,1.1c-4.1,1.7-7,6-7.1,10.4c-0.1,3.5,1.3,6.9,3.8,9.4c0.3,0.3,0.6,0.5,0.9,0.7c-0.1,0.6-0.3,1.3-0.4,1.9
		c-0.7,4.2-0.4,8.4,1.3,12.3c3.4,7.8,12.2,12.7,20.6,10c6.9-2.2,14.1-9.4,12-17.2c-0.5-2-1.9-4.3-3.8-5.7c0.3-3.2-0.2-8-0.1-11.8
		c0-0.9-0.1-1.6-0.2-2.4c0.5-1.5,1-3,1.8-4.4c1.8-3.7,4-5.4,6.9-8.1C923.3,526,921.4,519,916,515.7z"/>
	<path class="pop5" d="M878.7,519.8c-1.7-0.5-3.7,0.6-5.1,1.2c-2.3,0.8-4.7,1.6-7.1,2.3c-1.5,0.5-2.1,1.7-2.1,2.9
		c-1.4,0.6-2.7,1.2-4,2c-3.6,2.4-5.9,5.9-6,10.2c-0.1,3.9,5.9,3.9,6,0c0.2-5.2,6.6-6.8,10.6-8.3c2.7-1,8.1-1.9,9.8-4.7
		C881.9,523.3,881,520.4,878.7,519.8z"/>
	<g>
		<path d="M958.4,504.5c6.8-4.3,9.1-10.9,10.4-17.4c0.6-2.8-1.8-6.7-3.8-9.2c-0.9-1.1-4.6-0.4-6.8,0.2c-2.3,0.7-4.3,2.2-6.4,3.4
			c-1.8,1.1-5,0.1-5.8-1.9c-3.6-8.9-11.8-13.7-21.6-14.3c-6.9-0.4-13.2,1.3-19.4,3.2c-6,1.9-12,5.4-15.5,11.1
			c-2.5,4-3.9,8.7-5.8,13.1c-2.7,6.5-2.5,13.4-2.3,20.2c0.1,2.4,0.9,3.6,3.2,4.4c2.8,0.9,5.4,2.2,8.8,3.6c-0.7,2-1.4,4-2.3,6
			c-0.2,0.4-1.2,0.8-1.5,0.6c-4.9-2.3-9,1.3-13.4,1.8c-3.1,0.4-6.2,2.1-9.2,3.4c-9.1,3.9-11.5,18.1-1.3,24.9
			c4.4,2.9,8.6,2.6,13.1,2.7c4.4,0.1,4.8,0.4,4.8,4.8c0,1.6,0,3.1,0,4.7c0.1,7,6.1,11,12.5,8.2c2.4-1.1,4.8-2.3,7.3-3.1
			c0.9-0.3,2,0.1,3.1,0.2c-0.4,1-0.6,2.6-1.3,2.9c-3.6,1.8-7.2,3.8-11,4.6c-8.2,1.9-15.8-4.8-15.7-13.2c0-1.2-0.4-2.5-0.5-3.1
			c-5.6-1.6-11.3-2.6-16.5-4.8c-2.2-0.9-3.8-3.9-5-6.3c-3.9-7.9-8.5-18.3-0.1-27.1c5.3-5.6,11.9-9.6,19.5-11.7
			c-1.7-7.7-1.8-15.5,1.7-23c2.8-5.9,5.2-12.2,9.2-17.2c3.3-4.1,8.5-7,13.1-9.8c9.3-5.7,19.8-5,30-4.3c4.3,0.3,8.7,2.6,12.4,5
			c2.8,1.8,6.5,3.1,7.4,7.4c0.3,1.3,2.5,1.5,4.2-0.1c3.8-3.6,11.6-3.4,15.2,0.4c5.7,6,6.9,17.4,0.7,24.1c-1.9,2-2.2,4.2,0.4,5.9
			c7.2,4.6,11,11.2,11.7,19.7c0.2,3,1.1,6,1.3,9.1c0.4,4.6-1.6,8.6-3,12.9c-1.6,5-3.8,9.4-6.9,13.6c-3.3,4.5-6.5,9-11.7,11.2
			c-7.9,3.3-15.7,7.3-24,8.7c-5.2,0.9-11.3-1.8-16.6-3.8c-9.8-3.7-11.8-12.6-12.8-21.6c-0.6-4.9,0.2-10,0.6-15
			c0.3-3.6,6.8-11,10.2-11.8c0.6-0.1,1.8,0.3,1.9,0.8c0.2,0.7,0.1,2-0.3,2.4c-7.9,6.1-8.8,14.5-7.5,23.3c0.6,4.4,2.2,8.7,3.7,12.9
			c0.5,1.3,2,2.5,3.2,3.3c7.3,4.7,15.3,6.9,23.7,4.1c3.8-1.3,7.4-4,10.4-6.7c5.7-5.1,11.3-10.4,16.1-16.2c4.1-5,8.2-10.5,7.9-17.5
			c-0.4-7.2-1-14.5-5.7-20.5c-2.7-3.5-6.1-6.5-10.9-7.1C960.8,506.4,959.8,505.4,958.4,504.5z M880.4,524.5
			c-1.8-2.8-3.5-5.6-6.6-3.8c-5.1,3-10,6.4-14.5,10.3c-1.9,1.7-2.5,5-3.7,7.5c0.5,0.4,0.9,0.8,1.3,1.1
			C860.1,527.2,871.9,528.8,880.4,524.5z"/>
		<path d="M934.4,564.2c-3.3,2.6-7.1,2.5-10,1.2c-4.5-2-5.5-5.9-4.7-10.7c0.4-2.6,0.6-4.9,3.8-5.3c3.1-0.4,6.3,2.1,6.5,5.4
			C930.2,558.5,930.7,562,934.4,564.2z"/>
	</g>
</g>
<g>
	<path class="pop4" d="M477.1,749.1c-0.3-3.9-1.9-7.7-4.4-10.5c-0.1-0.6-0.2-1.3-0.3-1.9c5-6,2.5-17.7-7.7-17.7c-4,0-6.8,1.9-8.5,4.5
		c-4.6-0.2-9.2,1.3-12.8,4.8c-4.1,3.9-6,9.8-5.6,15.5c-5.5,1-10.3,6-10,11.8c0.3,6.5,5.3,12.1,12.1,12.1h2.3c0.7,0,1.5-0.1,2.2-0.2
		c0.1,0.1,0.2,0.2,0.3,0.3c6.8,6.7,18.3,5.4,23.4-2.7c0.8-0.6,2.1-1.7,2.3-1.9C474.5,759.8,477.5,754.6,477.1,749.1z"/>
	<path d="M473.7,736.1c7.7,6.2,8.3,18.7,5.9,25.9c-1.8,5.7-7,6.4-10.8,9.2c-4.8,3.5-10.9,2.4-16.4,3.4c-3.5,0.6-8.7,1.1-10.8-4.3
		c-0.3-0.8-2.5-0.8-3.9-1.1c-2.8-0.6-5.8-0.7-8.5-1.7c-3.9-1.5-5.7-5.1-6-8.9c-0.2-4,1-7.9,4.7-10.4c0.5-0.3,1.1-0.5,1.6-0.6
		c2.6-0.6,3.7-2.2,3.7-4.9c-0.1-7.2,2.3-13.2,8.5-17.2c1.2-0.8,2.6-1.7,4-1.7c3.2,0,5.7-0.4,8.3-2.8c4-3.7,9.4-4.8,14.5-3.6
		c2.9,0.7,6.1,3,7.8,5.6c1.9,2.9,1.5,6.7-1,9.7C474.6,733.7,474.3,735,473.7,736.1z M448.4,753.6c-4.1,1-6.8,0.1-9.1-2.5
		c-0.6-0.6-1.2-1.5-1.9-1.5c-4.2-0.5-8.3,2.7-8.5,6.5c-0.3,5.9,2.1,8.8,7.5,8.8c1.4,0,2.9-0.5,4.2-0.3c1.2,0.2,2.6,0.9,3.5,1.8
		c2.6,2.5,4.5,6.4,8.9,4.9c6.7-2.2,12.6-5.7,16.9-11.5c1.7-2.3,4.9-4.5,4.9-6.7c0-4.3,0.9-9.3-2.9-12.8c-1.2-1.1-2.5-2.1-3.1-2.5
		c1.5-3.1,2.9-5.8,4.1-8.6c1.2-2.6,0-6.2-2.5-7.8c-4.6-3.1-13.2-0.8-15.5,4.3c-1,2.1-2.4,2.6-4.1,1.4c-2.9-2.1-4.8,0-6.8,1.5
		c-1,0.7-1.6,1.9-2.4,2.9c-5.1,6.4-3.5,14.9,3.4,19.2C446.2,751.3,447,752.3,448.4,753.6z"/>
</g>
<g>
	<path class="pop4" d="M901,819.2c-0.3-3.9-1.9-7.7-4.4-10.5c-0.1-0.6-0.2-1.3-0.3-1.9c5-6,2.5-17.7-7.7-17.7c-4,0-6.8,1.9-8.5,4.5
		c-4.6-0.2-9.2,1.3-12.8,4.8c-4.1,3.9-6,9.8-5.6,15.5c-5.5,1-10.3,6-10,11.8c0.3,6.5,5.3,12.1,12.1,12.1h2.3c0.7,0,1.5-0.1,2.2-0.2
		c0.1,0.1,0.2,0.2,0.3,0.3c6.8,6.7,18.3,5.4,23.4-2.7c0.8-0.6,2.1-1.7,2.3-1.9C898.4,829.9,901.4,824.7,901,819.2z"/>
	<path d="M897.7,806.2c7.7,6.2,8.3,18.7,5.9,25.9c-1.8,5.7-7,6.4-10.8,9.2c-4.8,3.5-10.9,2.4-16.4,3.4c-3.5,0.6-8.7,1.1-10.8-4.3
		c-0.3-0.8-2.5-0.8-3.9-1.1c-2.8-0.6-5.8-0.7-8.5-1.7c-3.9-1.5-5.7-5.1-6-8.9c-0.2-4,1-7.9,4.7-10.4c0.5-0.3,1.1-0.5,1.6-0.6
		c2.6-0.6,3.7-2.2,3.7-4.9c-0.1-7.2,2.3-13.2,8.5-17.2c1.2-0.8,2.6-1.7,4-1.7c3.2,0,5.7-0.4,8.3-2.8c4-3.7,9.4-4.8,14.5-3.6
		c2.9,0.7,6.1,3,7.8,5.6c1.9,2.9,1.5,6.7-1,9.7C898.5,803.8,898.2,805.1,897.7,806.2z M872.3,823.7c-4.1,1-6.8,0.1-9.1-2.5
		c-0.6-0.6-1.2-1.5-1.9-1.5c-4.2-0.5-8.3,2.7-8.5,6.5c-0.3,5.9,2.1,8.8,7.5,8.8c1.4,0,2.9-0.5,4.2-0.3c1.2,0.2,2.6,0.9,3.5,1.8
		c2.6,2.5,4.5,6.4,8.9,4.9c6.7-2.2,12.6-5.7,16.9-11.5c1.7-2.3,4.9-4.5,4.9-6.7c0-4.3,0.9-9.3-2.9-12.8c-1.2-1.1-2.5-2.1-3.1-2.5
		c1.5-3.1,2.9-5.8,4.1-8.6c1.2-2.6,0-6.2-2.5-7.8c-4.6-3.1-13.2-0.8-15.5,4.3c-1,2.1-2.4,2.6-4.1,1.4c-2.9-2.1-4.8,0-6.8,1.5
		c-1,0.7-1.6,1.9-2.4,2.9c-5.1,6.4-3.5,14.9,3.4,19.2C870.1,821.3,871,822.4,872.3,823.7z"/>
</g>
<g>
	<path class="pop4" d="M1088.2,1051.8c-2.6-10.4-6.4-20.6-10.6-30.5c-0.6-1.5-1.3-3-1.9-4.5c4.2-2.8,7.9-6.4,10.8-10.8
		c8.9-13.2,8.9-31,0.3-44.3c-4.7-7.2-11.3-12.1-18.9-14.9c-0.7-2.1-1.6-4.2-2.8-6.2c-7.2-12.8-21.5-20.1-35.3-17
		c-7.2-9.6-15.4-17.6-24.8-22.3c-0.1,0-0.2-0.1-0.3-0.1c-5.8-4.6-12.5-8.2-20.7-10.5c-10-2.7-22-2.9-33-0.3
		c-19.3-11.8-43.2-16.5-65-8.7c-13.7,4.9-25.7,12.1-34.5,23.5c-5-14.2-17.2-25.5-36.8-25.5c-22.3,0-35,14.7-38.4,31.6
		c-8.3-4.1-17.8-6.5-27.9-6.5c-15.4,0-30.5,6.2-42.3,16.2c-18.5-7.4-39.2-10.9-58.2-8.9c-0.5,0.1-1,0.1-1.4,0.2
		c-2.2-0.2-4.4-0.4-6.6-0.4c-13.4,0-26.5,4.7-37.4,12.4c-4.7-2.2-9.8-4.4-14.6-6.1c-1.1-0.4-2.3-0.8-3.4-1.1
		c-15.4-3.4-29.8-3.8-45.2,0.4c-13.9,3.7-27.1,13.3-35.7,25.1c-11.1-9.7-25.4-15.7-41.7-15.7c-22.5,0-44.4,13.2-56.1,32.3
		c-5.3-4.4-12.4-7.1-21.3-7.1c-11.8,0-20.4,4.8-26,11.9c-8.4-2.2-18.6-1.6-28.1,0.7c-4.9,0.9-9.6,2.5-14.1,4.8
		c-8,2.6-15,7.1-20.9,13.4c-6,5.5-10.2,12-12.9,19.5c-11.4-0.1-22.7,2.7-32.1,8.7c-14.4,9.3-23.9,22-28.4,36.3
		c-11-4.3-23.6-4.3-34,1.7c-14.2,8.1-22.1,25.1-17.3,41c0.7,2.2,1.6,4.3,2.6,6.2c-17.9,30.9-6.9,71.4,20.5,92.5
		c9,7,18.9,11.2,29.2,13.6c-2.3,7-3.4,14.4-2.2,22.2c2.5,16.1,13.7,29.5,29.9,33c11,2.4,20.9-0.8,29.3-6.8
		c8.7,7.6,19.1,13,31.1,13.5c17.9,0.7,32.4-13.3,40-28.3c0.9-1.8,1.7-3.6,2.5-5.5c37.4,6.8,75.6-1.4,104-25.5
		c14.5-0.3,29-0.6,43.6-0.8c35.8-0.6,71.5-1.2,107.3-1.9c9.4,20.5,34.1,32.3,56,32.5c14.8,0.1,28.4-4.5,39.8-12.6
		c0.9,0.3,1.8,0.6,2.7,0.8c4.5,1.1,8,1,12.3,0.4c7.2-1,14.1-4.2,19.3-9.4c4.3-4.3,7.1-9.4,9.1-15.1c38.4-1.1,76.7-2.4,115-3.9
		c3.4-0.1,6.9-0.3,10.3-0.4c17.1,13.7,44.2,15.8,64.8,13.5c7.3-0.8,14.4-2.5,21.3-5c14,6.9,29.5,10.6,45.9,10.2
		c37.3-0.9,70.6-27.9,76.9-65.1c0.2-1.1,0.3-2.2,0.4-3.3c16.4-10.2,29.2-24.9,30.7-44.9C1114.8,1078.4,1104.1,1061.8,1088.2,1051.8z
		"/>
	<path class="pop5" d="M686.9,1103.2c-5.7-1.3-7.3-3.5-8.9-10.8c-0.8-3.7,1.8-3.1,0.1-7.7c-1.5-4.2-6-9.2-10.2-10.7
		c-7.6-2.8-12,2.3-14.3,8.4c-4.1-3.7-9.8-5-15.3-2.1c-4.1,2.1-5,5.8-7.8,9.1c-2.3,2.7-4.3,2.1-4.4,6.3c0,2.2,1.9,3.1,3.6,2.8
		c0.2,0.4,0.5,0.8,0.8,1.2c1.7,2,4.7,6.4,8.3,10.2c1.4,2.9,2.4,5.9,3.2,9.2c0.4,1.9,2.8,2.8,4.4,1.8c13-8.2,26.2-0.7,36.9,7.6
		c2,1.5,5.1,0.7,5.1-2.1c0-6.8,0.3-13.5,0.8-20.2C689.3,1104.9,688.2,1103.5,686.9,1103.2z"/>
	<path class="pop5" d="M908.3,1029.7c1.7-1.9,2.7-4.4,2.3-7.1c-0.4-3.3-2.9-5.9-6.1-6.7c-0.4-0.1-0.8-0.1-1.1-0.1
		c-0.1-0.2-0.1-0.5-0.2-0.7c-2-5.8-8-9.2-14-8c-2.6,0.5-4.9,2-6.5,4c-2.1,2.8-2.5,6.1-1.9,9.4c0.2,1.2,0.7,2.4,1.3,3.5
		c-3.6,2.9-6,7.1-6.1,12.1c-0.1,4.1,1.6,8.2,4.6,11c1.5,1.5,3.3,2.6,5.1,3.3c1.6,1.5,3.6,2.7,5.6,3.2c3.5,0.8,7.4,0.6,10.5-1.4
		c2.9-1.9,5.4-4.6,6.2-8.1c1-4.4,1.7-9.6,0.4-14C908.3,1029.9,908.3,1029.8,908.3,1029.7z"/>
	<path class="pop5" d="M440.9,1015.6c-4.7,0-8.5,1.3-11.6,3.3c-2.8-6.8-9-12-18.6-12c-20.8,0-25.7,24.6-14.7,36.3
		c-2.2,5.4-0.7,11.9,4.6,15.2c0.9,0.5,1.9,1,2.9,1.3c1.3,3.7,4,6.9,7.6,9c6.2,3.4,14.2,2.3,19.3-2.6c2.6-2.6,4.1-5.7,4.7-9
		c1.8,0.5,3.7,0.8,5.8,0.8C468.1,1057.8,468.1,1015.6,440.9,1015.6z"/>
	<path class="pop5" d="M1014.5,974.8c-2-1.8-4.4-2.5-7.1-2.3c-1.3,0.1-2.4,0.4-3.6,0.8c0-0.1,0-0.3,0-0.4c-0.3-1.9-1-3.7-2.2-5.3
		c-2.4-3-6.3-4.2-10.1-3.9c-4.7,0.4-7.6,2.7-8.7,5.9c-0.4,0.2-0.7,0.4-1,0.7c-4.1,4-1.5,10.7,3.9,11.3c1.1,0.9,2.4,1.1,3.7,0.8
		c4,3.9,11.2,6.6,15,8.6c1.4,0.7,2.8,0.7,3.9,0.2c2.6,1.3,5.2,1.6,7.7-1.5C1019.2,985.4,1018.6,978.3,1014.5,974.8z"/>
	<path class="pop5" d="M795.1,1067.8c0.2-1.1,0.2-2.2-0.2-3.2c-0.7-2-5.1-4.3-5.7-4.8c-2.4-4.9-5.2-9.5-6.7-12.7
		c-0.7-1.5-2.9-1.9-4.1-1.1c-8.9,5.5-18,8.8-28,3c-8-4.6-12.6-12.6-14.4-21.4c-0.1-0.3,0-6.9-3.1-5.6c-6.2,2.5-10.9,7.7-9.2,14.9
		c0.9,4.1,5.8,5.6,6.7,8.5c0.4,1.3-2.1,7.3-2.1,9.5c-0.2,22,23.6,24.6,39.6,18.1c-0.1,3.2,0.3,5.9,3.9,8.5
		c4.5,3.2,11.6,3.2,16.3,0.5c3.8-2.2,5.1-5.4,5.1-9.1c0.5-0.8,0.9-1.5,1.2-2.4C794.4,1070.1,795.1,1068.4,795.1,1067.8z"/>
	<path class="pop5" d="M715.6,1148.1c-3.8-0.5-7.3,1.1-10.3,3.3c-1.2,0.9-5.9,6.7-9.3,10.8c-1.9-7.9-12.4-11.9-19-6.1
		c-7.2,6.2-4.4,12.8,1.1,17.1c-1.5,0.8-2.7,1.9-3.7,3c-5.1,6-2.4,14.9,4.9,17.6c6.1,2.3,11.8-0.1,15.8-4.4c3.3,4.8,10.9,6,16.8,2.1
		c5.7-3.7,5.4-8.4,2.6-12.6c6.8-1.7,12.9-6,13.2-12.1C728.2,1159.3,723.9,1149.2,715.6,1148.1z"/>
	<path class="pop5" d="M832.1,1026.2c7.5-7.2,8.1-18.9-2.6-27.8c-5.8-4.9-15.5-5.2-22.4-2.2c-5,2.2-7,5.5-7.6,9.5
		c-10.5-3.2-24.7,1.7-28,12.1c-2.4,7.6,1.9,15.5,9.5,17.6c4,1.1,8.7,1.1,12.9,1.1c1.3,12.7,21.5,21.2,34.4,14.2
		C840.1,1044.4,838.9,1032.9,832.1,1026.2z"/>
	<path class="pop5" d="M330.7,1212.4c0.3-1.3,0.5-2.7,1.1-4c1.1-2.3,2.8-4.1,3-6.7c0.4-4.1-2.5-7.3-6.7-6.3c-4.6,1-6.9,6.1-6.5,10.4
		c0,0.3,0.1,0.6,0.1,0.9c-0.7-0.5-1.4-0.9-2.3-1.2c-2.3-0.8-5.2-1-7.4,0.2c-9.1,4.7,2.5,14.5,9.6,11c0.3,0.1,0.5,0.2,0.8,0.4
		c-0.2,3.9-3,9.2,0.4,11.8c2.6,1.9,6.6,0.6,8.8-1.2C337.2,1223.3,337.5,1214.4,330.7,1212.4z"/>
	<path class="pop5" d="M329.6,1057.7c-2.9-2.6-8-2.9-11.3-1c-1.6,0.9-2.9,2.2-3.7,3.8c-2.9-0.9-6-0.6-8.7,0.9
		c-11.8-7.5-34.8,0.1-33.3,14.9c-8.4-1.5-18.3,2-26.2,7.3c-4.4-1.5-9.6-1-12.3,3.4c-0.7,1.1-1,2.3-0.9,3.3c-2.7,0.8-5.1,2.6-5,5.5
		c0.1,3.7,4.8,5.4,8.1,5.5c0.7,0.4,1.7,0.4,2.6-0.3c12.7-9.2,25.6-15.2,40.3-5.4c1.3,0.9,3.4,0.3,4.1-1.1
		c7.6-14.4,23.1-21.6,38.9-13.6c2.8,1.4,5.2-1.6,4.3-3.8c1.7-2,3.4-4,3.9-6.6c0.1-0.6,0.1-1.2-0.1-1.8
		C332.9,1065.8,333.3,1061,329.6,1057.7z"/>
	<path class="pop5" d="M624.9,1168.8c0-0.1,0-0.2,0-0.3c-1.8-21.3-36.3-22.8-40.9-2.8c-6.9-3.8-15.3-7.2-19.9,2.3
		c-3.6,7.5,0.7,11.4,6.3,13.4c-6.2,5.8-12.7,15.7-6.8,21.7c3.6,3.6,12.1,0.8,16.5,0.6c8.7-0.4,18.2,1.5,26.7,0.2
		c1-0.2,1.8-1.2,2.1-2.1c0.7-2.5-0.2-2.4-0.2-4.8c-0.1-8.3,0.7-22.9,13.3-24.2C623.8,1172.6,625.7,1170.6,624.9,1168.8z"/>
	<g>
		<path d="M921.7,1022.5c-0.7,4.1-0.8,8.2-2.3,11.9c-1.7,4.1-3.8,8.7-7.1,11.4c-10.2,8.5-22.1,9.5-35,7.2c-5.1-0.9-9.4-2.3-12.7-6.3
			c-1.5-1.8-2.3-4.1-3.6-6.5c-1.5,1.9-3.7,3.6-4.3,5.7c-1.9,7-7.6,10.6-12.2,15.3c-7,7.1-16.5,6.9-25.3,8.6
			c-9.3,1.8-18-0.9-26.4-4.4c-6.7-2.8-9.1-8.7-10-15.4c-0.1-1.1,0-2.2-0.1-3.3c0-0.2-0.2-0.4-0.4-0.7c-3.8,1.7-7.5,3.5-11.3,4.9
			c-6,2.2-12,1.5-18-0.4c-2-0.6-4-1.6-6-2.5c-4.1-1.7-6.4-5-8.3-8.9c-3.5-6.9-4.6-14.2-4.7-21.7c0-2.7-0.2-5.4-0.4-8.6
			c-2.2,0.3-4.7,0.5-7,1.1c-8,2.2-15.2,1.7-22.9-2.4c-6.4-3.4-9.6-9.2-11.6-14.4c-2.5-6.6-4.1-14.6-0.6-22
			c3.1-6.6,8.1-11.7,13.7-16.3c1.6-1.3,3.5-2,5.4-3c-2.9-10.2-2.4-21.1-1.6-32.8c-6.3-1.4-12.5-2.9-18.8-4.1
			c-6.7-1.3-13.5-2.4-20.2-3.5c-1.1-0.2-2.2-0.2-3.2-0.2c-9,0-18.1-0.6-27.1,0.2c-7.9,0.7-16,2-23.5,4.5c-5,1.7-10.1,4.3-13.8,8.6
			c-0.6,0.7-2.3,1.3-3.2,1c-4.8-1.6-9.5-3.6-14.3-5.3c-2.7-1-5.5-1.9-8.4-2.4c-5-0.9-10-2-15-2.2c-9.3-0.3-18.3,1.5-27.3,4
			c-5.5,1.5-10.2,4.4-14.8,7.9c-4.7,3.6-8.5,7.5-10.7,13c-0.2,0.5-1.5,0.6-2.4,0.8c-0.1-0.9-0.7-2.1-0.4-2.7
			c4-6.8,9.2-12.3,16.1-16.2c7.4-4.2,15.6-6.7,23.8-7.9c7.6-1.2,15.5-0.8,23.2-0.2c6,0.5,11.9,2.3,17.8,3.8c4.1,1.1,8,2.8,12,4.1
			c0.8,0.3,2-0.1,2.8-0.6c4.6-2.4,8.9-5.4,13.7-7.3c17.1-7,35.2-5.6,53-4.9c11.3,0.5,22.5,3.8,33.8,5.8c2.1,0.4,4.2,1,6.3,1
			c1.1,0,2.6-0.5,3.4-1.3c3.5-3.5,6.8-7.4,10.4-10.8c1.5-1.4,3.7-2.7,5.6-2.8c9.4-0.3,18.9-0.7,28.3,0.1c6.2,0.5,12,3.5,16.8,7.7
			c0.6,0.5,1,1.2,1.6,2c0.8-2.3,1.6-4.5,2.2-6.8c1.6-6.1,5.2-11,9.2-15.6c1.3-1.5,2.2-3.4,3.7-4.7c7.2-6.4,15.7-7.7,25-5.9
			c3.2,0.6,6.6,0.8,9.8,1.4c5.7,1,11.6,2.7,15.5,6.8c4.3,4.5,8.3,9.8,7.9,16.8c-0.2,3.5-0.5,7-0.3,10.4c0,0.8,1.6,1.7,2.7,2.1
			c7.7,2.8,15.4,6.1,19.7,13.4c2.8,4.7,3.8,10.5,6.1,15.5c1.8,3.9,2.3,7.9,2.1,12.1c-0.3,7.5-3.8,13.1-9.6,17.6
			c-1.5,1.2-3,2.4-4.3,3.8c-0.5,0.5-0.6,1.8-0.4,2.5c0.7,2.2,1.6,4.3,2.6,6.8c0.4-0.4,1.1-0.8,1.5-1.4c3.5-5.8,8.6-10.1,14.6-12.9
			c5.1-2.3,10.7-3.8,16.5-1.3c2.6,1.1,5.5,1.7,8.3,2.6c3.5,1.2,5.9,3.7,7.5,6.9c1.4,2.7,2.4,5.6,3.9,8.3c0.5,0.9,1.7,1.8,2.7,2
			c5.4,1.4,9.1,5.1,12.1,9.4c2.9,4.2-1.3,16.6-5.9,18.1C925.6,1019.9,923.5,1021.5,921.7,1022.5z M859.8,977.9
			c1.5-1.2,3-2.4,4.5-3.6c6.6-5.2,11.4-11.2,10.5-20.4c-0.6-6.5-2.7-12.5-5.2-18.5c-4-9.3-11.3-14.7-20.8-17.4
			c-5.2-1.5-6.3-2.3-5.1-7.4c1.3-5.9,0.6-11.3-2.3-16.4c-2.4-4.3-4.9-8.5-10.3-9.5c-5.8-1.2-11.5-2.6-17.4-3.3
			c-7.9-1-15.5,0.1-21.5,6.2c-1.6,1.6-2.9,3.5-4.3,5.3c-4.3,6-7.3,12.5-7.4,20c0,2.9,0.3,5.8-4.1,5.2c-0.5-0.1-1.2,0.7-1.7,1.1
			c-1.5,1.5-2.3,1.7-3-0.8c-0.6-2.4-1.3-5.4-3.1-6.8c-7.5-5.9-16.4-7.6-25.7-7.3c-3.4,0.1-7,0.2-10,1.4c-3.2,1.3-6.3,3.7-8.7,6.2
			c-3.1,3.3-7.1,6-7.5,11.3c-0.1,2.1-0.7,4.2-1.3,6.2c-2.2,7.5-1.8,15,0.6,22.4c0.8,2.5,0.1,4.1-2.8,4.7c-1.5,0.3-3.1,1-4.4,1.9
			c-5.7,3.8-8.9,9.5-11.9,15.4c-3,5.9-2.6,12-0.1,17.6c2.5,5.7,7.7,9.7,13.3,11.9c5.3,2.1,10.9,5.1,17.1,3.9c2-0.4,4-1.1,6.1-1.4
			c2.1-0.3,4.4,0,6.5-0.3c2.3-0.3,4.2,1.3,3.5,3.5c-0.9,3.1-2.4,6-2.9,9.2c-0.6,3.2-0.4,6.5-0.3,9.7c0,0.9,1.3,1.7,1.3,2.6
			c0.2,4.5,2,8.3,4.9,11.6c5.4,6.1,15.3,8.5,23.1,5.5c4.2-1.7,8.3-3.4,12.6-4.8c2-0.7,3.6-0.2,3.8,2.7c0.3,3.4,1.1,6.7,2.1,10
			c0.6,2,1.6,4.4,3.2,5.6c5.6,4,12.1,6.5,18.8,6.7c7.3,0.2,14.7-0.9,21.9-2.1c3-0.5,6.1-2.2,8.5-4.1c6-4.7,11.9-9.7,14.6-17.3
			c0.6-1.6,1.9-2.9,2.8-4.4c-3.2,2.6-5.7,5.6-8.5,8.3c-2.8,2.8-5.6,5.6-8.8,7.8c-4.3,2.9-8.6,6-14.2,5.6c-0.7-0.1-1.5,0.1-2.1,0.3
			c-4.8,2-8.6-0.4-12.5-2.6c-0.4-0.2-0.4-1-1-2.2c2,0.3,3.6,0.1,4.8,0.8c6.8,3.7,13.4,1.4,19.3-1.4c4.7-2.3,8.8-6.2,12.4-10.2
			c4.3-4.7,8.5-9.7,11.4-15.3c2.7-5.1,3.6-11.1,5.4-16.6c2.1-6.3,1.9-12.5-0.7-18.6c-0.1-0.3-0.1-0.7,0-1.1
			C865.3,988.4,862.1,983.5,859.8,977.9z M915.2,1020.6c1.8-1,3.6-1.7,5.2-2.8c2-1.5,4.7-2.9,5.6-5c1.4-3.5,1.7-7.5,2.4-11.3
			c0.6-3.1-1.7-4.2-3.7-5.3c-1.5-0.8-3.3-1.3-5.1-1.5c-3.5-0.3-4.8-2.1-5.2-5.6c-0.2-2.3-1.2-4.9-2.8-6.5c-7-7.2-17.7-10.7-27.7-4.3
			c-6,3.9-10.1,8.9-13.9,14.4c-1.2,1.8-1.9,4.5-1.7,6.7c0.8,7.4,0,14.4-2.7,21.3c-1,2.6-2.7,5.5-2.3,8c1.9,11.6,9.7,18.2,20.3,21.6
			c6.7,2.1,12.9-0.9,19-3c5-1.7,7.8-5.8,10.2-10.2C915.6,1032,918.2,1026.7,915.2,1020.6z"/>
		<path d="M685.3,1124.2c0.6-2.9,1.6-6.3,1.9-9.7c0.8-10.3,5-18.9,13.7-24.4c10-6.2,20.9-8.1,32.1-2.8c6.3,3,12,13.6,6.8,20.5
			c1.5,0.4,2.8,0.7,4,1.2c4.8,2.1,10.6,2.6,13.8,7.3c2.4,3.4,4.6,7,3.4,11.7c-0.6,2.3,0.1,4.9-0.1,7.3c-0.8,9.6-5.6,16.9-13.1,22.8
			c-1.1,0.9-1.6,3.3-1.5,4.8c0.4,3.7,1.1,7.4,2.3,10.9c2.7,7.9,0.5,15.7-1.2,23.1c-2.3,10-8,18.6-16.8,24.1
			c-4.7,3-10.1,4.7-16.6,3.5c-6.2-1.2-9.8-4-12.2-9.2c-0.4-0.9-1.1-1.6-1.5-2.1c-6.2,6.2-11.2,12.4-19.5,15.6
			c-8.1,3.2-16.1,6.5-24.7,5.8c-8.7-0.7-17.1-3.7-25.3-7.1c-8.2-3.5-12.5-10.5-17.4-17c-1.2-1.6-2.6-3.2-3.6-5
			c-3.3-6.4-6.3-12.9-3.2-20.4c1.1-2.7,1.3-5.7,2.4-8.4c0.5-1.2,2.1-2,3.7-3.5c0.3,1.4,0.6,1.9,0.5,2.3c-1.1,3.3-2.3,6.5-3.5,9.7
			c-1.4,3.7-1.6,7.6-0.3,11.3c3.7,10.6,11.4,18.5,19.3,26.1c1.6,1.6,4.4,2,6.7,2.8c5,1.8,9.9,4.4,15.1,4.9c7,0.6,14.3,1,21.3-1.4
			c10.7-3.6,19.6-9.3,26.3-18.4c1.1-1.5,2.9-2.3,4.3,0.1c1.2,1.9,2.5,3.8,4,5.6c4.9,6,9.1,6.7,16.9,4.4c9.2-2.8,14.1-9.5,18.4-17.3
			c3.8-6.7,4.6-14.2,4.6-21.5c0-7.5-1.8-15.1-3-23.7c1.9-1.8,5-4.6,7.7-7.7c6.5-7.6,9.2-16.7,7.4-26.3c-0.9-5-4.2-9.6-10.2-11.2
			c-3.7-1-6.9-3.1-11.1-2c-2,0.5-2.9-1.7-1.6-3.7c4.7-7.2,1.7-15.8-6.3-18.7c-10.6-3.8-20.4-1.4-28.4,5.5c-5,4.3-9.6,9.9-9.5,17.8
			c0.1,4.9-1.4,9.8-2,14.7c-0.2,1.5,0.7,3.1,0.5,4.5c-0.2,1.2-1,2.5-1.9,3.3c-0.3,0.3-2.5-0.6-2.6-1.3c-1.3-5.3-5.1-8.3-9.4-11
			c-5.5-3.4-11.5-5.8-18.1-4.4c-6.3,1.3-12.1,4-16.2,9.3c-3.1,4-6.2,8.1-8.4,12.6c-1.8,3.7-2.8,8.1-3.2,12.2
			c-0.8,7.4-1.2,14.9-1.2,22.3c0,3.1,1.7,6.1,2.6,9.3c-2.9,1.6-4.3,0.8-5.1-2.6c-2.7-10.6-1.3-21.2,0.2-31.7
			c0.7-4.5,3.1-8.9,5.1-13.1c1.4-2.9,3.1-5.7,5.1-8.1c4.1-4.9,3-9.9,0.6-14.9c-3.8-7.8-10-13.1-18.2-15.1
			c-5.8-1.5-11.9-1.2-17.7,1.5c-4.4,2-8.3,3.9-10.6,8.5c-2.3,4.8-2.1,10-1.9,14.9c0.1,3.3-0.2,7.2,2.8,10c0.5,0.5-0.2,2.4-0.4,4.2
			c-1.6-1-2.8-1.4-3.3-2.1c-3.8-6.2-11-7.2-16.6-10.5c-3-1.8-6.9-2.2-10.4-2.9c-4.3-0.8-8.6-1.4-12.9-1.7
			c-10.3-0.8-17.9,4.5-24.8,11.4c-5.5,5.5-9.4,12-11.6,19.2c-2.2,6.9-5.9,13.5-4.8,21.3c0.3,2.2-0.2,4.5-0.8,6.7
			c-0.3,1-1.7,1.7-2.6,2.5c-0.5-0.3-0.9-0.5-1.4-0.8c0.7-5.4,0.7-10.9,2.1-16.1c2-7.4,4.4-14.9,7.6-21.9
			c5.2-11.1,13.7-19.4,25.2-23.8c6.8-2.6,13.9-3.5,21.1-0.8c2.9,1.1,6.3,1.2,9.2,2.3c5.8,2.1,11.4,4.6,17.3,6.9
			c0.4-3.8,0.7-7.7,1.1-11.7c0.7-7,3.7-12.4,10.1-15.9c11.1-6,21.8-7.6,33.3-0.2c7.2,4.7,12,10.7,14.6,18.7c0.2,0.5,1.8,1.2,2.3,0.9
			c5.3-2.5,11.1-3.3,16.8-3.6c2.4-0.1,5.1,0.3,7.2,1.3C675.4,1118.7,680.3,1121.5,685.3,1124.2z"/>
		<path d="M478.5,1040.9c4.9,3,10.7,4.4,10.6,11.4c0.9,0.2,1.8,0.4,3.3,0.8c-0.2,5.7,0.2,11.4-0.7,16.9c-0.6,3.1-3.5,5.8-5.2,8.8
			c-2.4,4.2-7,4.4-10.7,6.2c-3.3,1.5-7.2,1.9-10.9,2.3c-3.3,0.4-4.7,2.7-5.4,5.2c-2.3,8.1-7.4,13.7-14.3,17.9
			c-4.6,2.8-9.1,5.7-13.9,8.2c-7.5,3.9-15.4,5.4-23.9,4.8c-6.3-0.4-11-2.7-15.1-7.2c-1.5-1.7-3.7-2.8-5.5-4.2c0-0.5,0.1-1.1,0.1-1.6
			c-4.3,1.6-8.8,3-13,4.9c-6.1,2.8-12.6,3.8-19,3.4c-4.9-0.3-9.7-2.5-14.3-4.6c-4.3-1.9-8.2-4.7-12.1-7.3c-1.6-1.1-2.9-2.8-4-4.4
			c-4.5-6.5-4.2-14-3.8-21.4c0.1-3,5.2-8.1,9.1-9.1c-0.8,1.9-1.4,3.1-2,4.5c-0.9,2.2-2.1,4.3-2.5,6.5c-1.7,10.1,0.6,18.1,9.6,23.9
			c6.5,4.2,13.7,7.2,21.3,7.8c5.3,0.4,10.8-0.9,16.1-2.2c4.7-1.2,9.1-3.6,13.7-5.2c1.8-0.7,3.3-0.3,4.9,1.4c3.2,3.5,6.8,7,10.7,9.7
			c2,1.4,5.2,1.4,7.9,1.6c5.2,0.4,10.6,0.4,15.4-2.1c7.5-3.9,15.1-7.7,22.1-12.4c6.3-4.2,9.4-10.9,10.5-18.6c0.3-2,1.4-3.8,4.1-2.2
			c0.6,0.3,1.4,0.7,2,0.5c7.2-1.7,14.6-3,20.3-8.5c5.1-5,4.9-11.4,4.7-17.9c-0.1-3.5-1.3-5.9-3.3-8.6c-2.7-3.5-5.5-6.3-10.3-6.5
			c-2.3-0.1-2.3-1.8-0.6-4.1c2.7-3.9,5.5-7.7,7.6-12c1.8-3.6-0.3-9.7-3.6-11.9c-5.1-3.5-10.2-7.3-15.7-10.1c-2.4-1.2-6-1.1-8.7-0.4
			c-4.1,1.1-7.9,3.5-11.9,5c-1.7,0.7-3.7,1-5.5,1c-0.9,0-2.5-1.1-2.5-1.8c-0.3-4.5-3.9-6.3-6.9-8.4c-5.5-3.9-11.9-4.1-18-2.5
			c-3.4,0.9-6.3,3.7-9.7,5.3c-8.9,4.2-13.5,11.7-15.1,21c-0.6,3.1,0.6,6.6,1.2,9.9c0.7,3.7,1.6,7.4,2.6,11.9
			c-3.8-0.7-7.1-1-10.2-2.1c-5.5-1.9-10.2,0.5-13.6,3.8c-6,5.8-9.4,13.5-11.3,21.6c-0.9,3.5-1.7,7.2-1.8,10.8
			c-0.1,2.8,1.1,5.7,1.4,8.6c0.1,1.2-0.2,3.4-0.9,3.7c-1.8,0.8-2.2-0.7-2.9-2.4c-4-10.3-0.2-19.6,3.2-29.1
			c2.2-6.2,6.6-10.8,10.4-15.8c1.4-1.9,4.3-3.1,6.7-3.6c3.9-0.8,8-0.9,12.2-1.3c-0.1-2.3,0.1-5.6-0.6-8.7
			c-1.7-7.1,1.3-12.9,4.4-18.9c3.8-7.2,10.6-10.5,17.2-14.1c3.8-2.1,7.6-4,12-4.4c6.4-0.6,12.2,1.5,17.5,4.8
			c1.8,1.1,3.2,2.9,4.5,4.6c2.7,3.7,5,4.3,9.1,1.8c6-3.7,12.5-4,19.1-2.9c2.8,0.5,5.5,2.4,7.9,4.2c3.9,3.1,7.3,6.9,11.2,9.9
			c4.6,3.5,3.8,8.3,3.2,12.7c-0.3,2.4-3.2,4.5-4.8,6.8C480.6,1037.8,479.5,1039.3,478.5,1040.9z"/>
		<path d="M412.5,974.1c-3.4,0.9-4.3-1.6-5.4-3.2c-3-3.9-5.7-8-8.6-12c-0.5-0.7-1.1-1.4-1.8-1.7c-6.6-2.4-13.6-3.4-20.4-2.1
			c-4.1,0.8-7.4,4.1-9.4,8.3c3.4,3,9.5,2.4,10.8,8.3c-3.8,1.8-6.2-1.1-8.9-2.3c-8.2-3.7-16.5-6.5-25.6-6.6c-5,0-10.1,0.1-15.1,0.7
			c-6.8,0.8-12.8,4.1-18.9,7.1c-10,5-15.8,13.6-21.1,22.8c-1.9,3.2-3.3,6.7-5.4,9.8c-1,1.4-3.1,2.7-4.9,2.8
			c-5.5,0.6-11.2-0.2-16.5,1.1c-6.2,1.5-12.1,4.4-17.9,7.1c-6.4,3-8.9,9.4-12.5,15c-4.7,7.3-4.5,15.6-6.1,23.6
			c-0.4,1.9-0.4,3.9-1.1,5.5c-1.2,2.7-1.8,5.1,0.9,7.7c-2.3,0.8-4,1.4-5.9,2c-2.8-7.9-1.1-15.4,0.2-22.8c0.8-5.1,2.1-10.3,4-15
			c1.4-3.3,4-6.2,6.5-9c4.8-5.4,10-10.6,16.8-13.1c7.9-2.9,15.9-6.2,24.7-6.1c2.2,0,4.3-2.2,6.5-0.2c0.6-0.8,1.4-1.6,1.7-2.6
			c4.3-11.9,12.1-21.3,22.3-28.3c9.8-6.7,20.7-11.4,33-11.6c8.5-0.2,17-0.4,25.3,1.9c1.1,0.3,2.9-0.6,3.9-1.5c3.7-3.3,7-7,12.2-7.8
			c5.1-0.8,10.2-1.7,15.2,0.4c2.3,0.9,4.9,1.4,7.3,2.3c5.6,2.1,7.9,7.3,10.9,11.8C410.7,968.5,411.4,971.3,412.5,974.1z"/>
		<path d="M1010.5,1105.3c6.7-3.2,12-3.6,18,0.3c7.5,5,4.3,10.2,1.7,15.3c2.5,1.7,5.1,2.7,6.8,4.6c1.7,2,3.2,4.7,3.3,7.2
			c0.3,5-0.6,9.9-4.5,13.9c-3.3,3.3-7.9,4.2-12.1,2c-0.7-0.4-2.2,0.1-2.9,0.7c-2.6,2.2-5.1,4.5-7.5,6.9c-4.1,4.2-8.9,3.1-13.6,1.8
			c-7.9-2-9.2-9.1-11.4-15.4c-0.4-1.1-1.7-2.6-2.6-2.5c-10.5,0.3-16.2-7-14.6-17.5c0.8-5.6,2.4-10.8,7.4-14.2
			c0.4-0.3,0.7-0.8,1.2-0.8c4-0.5,4.3-3.8,5.2-6.7c1.2-3.7,2.7-8.4,6.6-9c5.1-0.7,10.9-2.2,15.4,3.1
			C1009.3,1098,1011.4,1100.5,1010.5,1105.3z M1023.9,1145.6c8,0.5,8.6,1.8,12.2-6.5c1.7-3.9-1-7-1.2-10.6c-0.1-2.4-2.1-4.1-5.2-3
			c-1.2,0.4-2.8,0.5-3.9,0c-0.9-0.4-1.9-2.3-1.6-3c0.7-1.8,2.1-3.2,3.3-4.8c3.3-4.5,1.5-9.3-3.6-11c-4.7-1.6-8.3-0.9-11.8,2.7
			c-0.8,0.9-3.1,0.3-4.8,0.4c0-1.1,0-2.2,0.1-3.3c0-0.6,0.3-1.3,0.1-1.9c-0.9-2.3-2.1-4.4-2.9-6.7c-1.7-5.1-10.1-4.4-12.5-1.5
			c-2.8,3.3-3.9,7.4-3.8,11.6c0.1,2.7-0.6,3.4-3.2,3.1c-1.5-0.1-3.4,0.4-4.5,1.4c-5.7,4.6-5.8,11.1-5,17.5c0.7,6,5.1,8,11.1,6.2
			c1.2-0.4,3.9,0.9,4.4,2.1c1.8,4.1,3,8.6,4.5,12.9c1.1,3.2,9,6.8,11.6,4.9c5.3-3.8,10.3-7.9,13-14.4c1.1,0.1,2.3,0.1,3.6,0.2
			C1023.8,1143.3,1023.8,1144.3,1023.9,1145.6z"/>
		<path d="M906.2,931.7c7.6-4.2,14.9-3.6,22.4-0.9c2.8,1,5.8,1.2,8.5,2.2c8.7,3.2,16.8,7.3,23.4,14.1c1.8,1.8,4.1,3,5.9,4.7
			c6.8,6.5,12.3,13.7,13.3,23.6c0.1,1.2,1.9,2.6,3.2,3.4c4.5,2.6,9.1,4.9,13.7,7.2c1.4,0.7,3,1.1,4.5,1.7c6.6,2.6,13.4,4.8,19.8,7.9
			c6.1,2.9,11.8,6.5,17.5,10.1c5,3.1,9.9,6.4,14.7,10c10.9,8.1,21.3,16.8,29.5,27.8c3.5,4.7,7.8,8.9,11.6,13.4
			c1,1.1,1.5,2.5,2.3,3.8c-0.3,0.3-0.7,0.6-1,0.9c-1-0.7-2.3-1.3-3.1-2.2c-5.2-6.1-10.2-12.4-15.6-18.4c-2.8-3.1-6.1-5.8-9.1-8.6
			c-3.7-3.4-7.1-7.1-11-10.1c-6-4.6-12.3-8.6-18.5-12.9c-4.9-3.4-9.7-7-14.9-9.9c-2.9-1.6-6.5-2-9.6-3.2
			c-9.1-3.7-18.3-7.1-26.7-12.3c-2.3-1.4-5.3-1.7-7.8-2.9c-1.3-0.7-2.7-2.1-3.1-3.5c-1.2-3.8-1.2-8.1-2.9-11.6c-2-4.1-5-8-8.3-11.2
			c-4.4-4.4-9.3-8.3-14.4-11.9c-3-2.1-6.5-3.5-9.9-5.1c-7.9-3.7-16.2-5.1-24.9-4.4c-1.5,0.1-3,0.5-4.3,1.1
			C908.9,935.3,907.9,933.4,906.2,931.7z"/>
		<path d="M1064.9,989.7c-2.8-1.2-2.5-4.3-3.3-6.6c-1.7-4.7-2.3-9.8-4.5-14.2c-5.4-10.7-11.3-21.3-17.4-31.6
			c-2.4-4.1-5.8-7.7-8.9-11.4c-5.1-5.8-10-11.9-15.6-17.2c-7.4-7-16.3-12-26.3-14.6c-11.6-3.1-23.5-3.3-35.4-3.1
			c-3.1,0-6.4-1.3-9.4-2.3c-3.6-1.2-7-2.9-10.6-4.1c-4.3-1.4-8.7-2.5-13.2-3.4c-3-0.6-6.1-1-9.2-0.9c-6.7,0.1-13.6-0.4-20.1,0.9
			c-7.3,1.4-14.8,3.2-20.3,9.3c-1.4,1.5-3.3,3.8-6.2,2.3c3.9-5.1,13.3-10.5,19.8-11.8c3.9-0.8,7.6-2.4,11.5-3c3.9-0.6,8-1,11.9-0.7
			c5.4,0.4,10.8,1.2,16.1,2.4c6.9,1.6,13.8,3.7,20.6,5.7c1.9,0.6,3.6,1.9,5.5,2.2c3.2,0.5,6.4,0.6,9.7,0.7c4.9,0.2,9.9-0.1,14.7,0.8
			c7.4,1.3,14.7,2.9,21.9,5.1c8.5,2.7,15.9,7.5,22.5,13.6c7.9,7.4,14.9,15.5,20.9,24.5c4.4,6.7,8.7,13.3,12.7,20.2
			c3.6,6.3,6.9,12.8,9.6,19.5c2.2,5.4,3.3,11.3,4.8,16.9C1065.9,989.2,1065.4,989.4,1064.9,989.7z"/>
		<path d="M345.4,1242.8c-3.9,6.1-7.4,12.1-11.4,17.8c-2.9,4.1-7.5,6.3-12.4,6.8c-15.4,1.6-29-2.4-39.5-14.3
			c-3.3-3.7-4.5-3.8-8.2-0.7c-9.8,8.1-24.3,10.2-35.6,2.8c-4.6-3-9.2-6.2-12.8-10.2c-2.3-2.6-3.2-6.8-4.1-10.4
			c-2.2-8.2-0.1-15.9,3.1-23.4c1.1-2.6,1.5-5.5,2.7-8c1.2-2.6,2.9-4.9,4.8-7.1c0.5-0.6,2.1-0.2,3.2-0.3c-0.1,0.9,0.3,2.2-0.2,2.7
			c-4,4-6.1,9-7.5,14.3c-1.4,5.3-3.1,10.8-3.1,16.3c0.2,14.1,6.2,20.6,19.6,26.1c1.9,0.8,3.8,1.4,5.8,1.7c8.5,1.1,15.5-2.4,22-7.3
			c1.3-1,2.8-1.8,4.4-2.2c0.9-0.3,2.4,0.1,3.2,0.7c3.3,2.8,6.3,6.1,9.8,8.8c3.2,2.5,6.6,4.9,10.3,6.4c6.8,2.8,14.3,3.3,21.4,2.1
			c6.9-1.2,11.8-6.1,15-12.4c1.5-3,3.2-6,4.6-9.1C341.3,1241.4,342.6,1240.8,345.4,1242.8z"/>
		<path d="M401.7,1028.8c-3.9-0.9-8.8-6.2-7.2-9.1c1.7-3,5.1-5.5,8.4-6.9c2.3-1,5.8-0.2,7.5,2.9c1.8,3.1,0,6.1-1.5,8.1
			C407.4,1026,404.2,1027.2,401.7,1028.8z"/>
		<path d="M821.7,1053.8c-3.6,0.8-5.1-0.6-6.1-4.1c-0.8-3.1,1.4-3.9,2.6-5.2c3-3.1,6.6-5.7,9.8-8.7c1.7-1.6,3.3-3.2,5.5-1.5
			c1.8,1.4,4.6,3,1.4,5.8c-0.3,0.2-0.1,0.9-0.1,1.4c0,3.1,0.7,6.6-2.6,8.5c-3.3,1.8-6.8,3.2-10.2,4.7
			C822,1054.6,821.9,1054.2,821.7,1053.8z"/>
	</g>
	<path class="pop5" d="M671,990.5c-7.6-14.3-25.9-9.1-33.6,1.7c-5.8-5.9-12.4-10.8-21.2-9.6c-4.6,0.6-7.5,4.1-11.5,5.5
		c-5.9,2.1,0.1,1.8-7.7,0.9c-1.7-0.2-3.6-0.9-5.4-0.9c-4.7,0-8.2,2.8-12.7,3.1c-5.4,0.4-10.3-2.2-15.9-1.5c-2.4,0.3-4.6,1-6.5,2
		c-0.5-0.3-1.1-0.6-1.7-0.8c-2.2-1.8-5-2.8-8.2-3.2c-3.7-0.5-8.1,0.4-9.4,3.9c-0.2,0.2-0.4,0.4-0.6,0.7c-2.8,3.7-0.9,8.2,2.2,11
		c2,1.8,4.4,2.8,6.9,3.3c0.8,1.4,2.8,2.2,4.3,1.3c3.1,0.3,6.2,0.6,9.2,0.9c0.6,0.6,1.4,0.8,2.1,0.8c0.6,0.6,1.5,0.9,2.6,0.6
		c15.1-4,26.9-0.6,33.6,13.8c0.7,1.4,2.9,1.9,4.1,1.1c6.8-4.6,19.3-12.4,25.5,0.9c0.9,1.9,4.3,2,5.2,0c3.9-8.7,10-15.4,19.1-18.8
		c4.8-1.8,11.5-0.6,15.8-2.9C672.7,1001.2,673.8,995.7,671,990.5z"/>
	<path class="pop5" d="M243.2,1184.7c-2.3-3.2-3.4-7.1-2.8-11.4c0.3-2.1,1-4.3,2-6.4c-3.3-0.4-6.5-1.3-9.2-3.6
		c-4.1-3.4-4.1-7.9-4.3-12.7c-1.3,0.1-2.6,1.1-2.6,2.9c-0.1,1.7,0,3.4,0.1,5.2c0,3.7-0.5,7.5-2.7,10.6c-3.4,4.8-8.1,3.7-11.8,7.2
		c-2.5,2.3-3.5,5.6-3.8,9c-1,10.2,6.1,19.3,16.7,18.3c1.5,0.6,3.5,0.2,4.2-1.8c0.1-0.2,0.1-0.4,0.2-0.5c0.1-0.1,0.2-0.1,0.2-0.2
		c4.8-5.7,10.3-9.6,17.4-12c0.2-0.1,0.3-0.2,0.5-0.2C245.4,1187.8,244.1,1186.5,243.2,1184.7z"/>
</g>
<!-- <g>
	<path class="pop1" d="M669.4,974.7c1.7-2,3.3-4,4.9-6c4-3.9,8.1-7.7,12.3-11.4c0.8-0.4,1.6-0.8,2.5-1.1
		c14.3-5.3,28.3-12.9,38.2-24.7c3-3.6,5.2-6.9,7.1-10.1c5.8-3.8,11.4-7.8,16.2-12.8c6.9-7.2,10.4-14.6,12.3-22.8c0,0,0,0,0,0
		c3.8-4.2,6.3-6.8,9.3-12.6c4.4-8.5,6.9-18,5.9-27.7c-2.5-22.8-19.2-41.6-42.1-45.4c-4.8-0.8-9.6-0.7-14.2,0
		c0.4-14.6-5.5-29.3-19.3-39.3c-6.6-4.8-14.3-7.8-22-8.6c-5.5-21.4-27.1-40.2-50.2-29.2c-1.4,0.7-2.8,1.3-4.1,2
		c-0.8-0.6-1.7-1.1-2.6-1.5c-8.9-3.7-17.4-0.2-22.1,7.9c-1.9,3.2-3.6,6.5-5.3,9.8c-3.1-3.6-7.6-5.8-12.9-5.2
		c-7.2,0.8-15,7-15.5,14.7c-2.6,1.9-5,4-7.2,6.5c-1.9,2.2-3.7,4.5-5.5,6.8c-22.5,9.8-33.1,37-45.8,56.6
		c-13.3,20.6-27.8,40.6-42,60.5c-15.5,21.7-10.1,47.4,13.1,60.8c24.1,13.9,46.5,30,70,44.7c24,15,53.2,23.5,81.2,14.6
		C646.8,996.4,658.8,986.8,669.4,974.7z"/>
	<path class="pop0" d="M578.8,908.5c5.7-5.2,67.7-60.6,71.2-68.1c8.4-18.3-7.5-38.8-23.1-48.5c-20-12.3-33.3,2-35.6,4.7
		c-4.6,5.3-24.1,27.3-27.3,33.2c-10.5,14.9-18.5,31.3-30.3,45.2c-1.5,1.7-43.4,59.3-50.5,66.1c18.1,10.2,21.3,13.5,36,22
		C524,959.3,570.2,916.3,578.8,908.5z"/>
	<path class="pop0" d="M618.6,998.2c8.3-7,21.6-18.7,32.8-31.1c15.9-13.7,29.3-29.2,45.7-42.4c0.9-0.7,1.7-1.4,2.5-2
		c4.3-3.4,7.7-7,11.9-10.7c5.5-4.8,19.6-17.5,26.1-25.1c8.8-10.3-7.2-24-16.1-13.6c-8.5,9.9-17.9,18.7-27.8,27
		c-6.8,4.8-13.1,10-19.3,15.3c-6.5,5-13.1,9.8-19.7,14.8c-24.3,18.2-48.8,42.6-73.1,60.8c-10.9,8.2-4.9,8.2,4.8,9.2
		c0.2,0.1,8.9,1.2,9.1,1.2c6.4,0.7,7.7,0.9,15.2,1C614.5,1001.4,614.6,1001.6,618.6,998.2z"/>
	<path class="pop2" d="M616.9,909.9c8.2-3.6,11.4-17.1,0.9-22.2c-4.9-2.4-9.8-4.9-14.7-7.6c-12.7-9.2-25.3-18.3-38-27.5
		c-0.6-0.4-1.2-0.8-1.8-1.1c-4.7-4-10.2-6.4-16.8-4.2c-5.6,1.8-6.6,5.2-10.3,9c-3.2,3.3-7.8,5.1-10.3,9.3
		c-4.8,8.1-0.9,15.6,6.2,20.4c11.7,8,25.5,13,37.4,20.6c8.4,5.3,17.3,17.7,28.2,16.2C604.3,922,612.7,916.2,616.9,909.9z"/>
	<g>
		<path d="M778.5,833.6c0.8,2.8,1.3,5.6,2.4,8.3c1.8,4.3,1.8,8.6,0.5,13c-1.5,5.4-2.9,10.7-4.7,16c-0.4,1.2-2.5,2.8-3.4,2.6
			c-3.3-0.7-1.4-3.1-0.7-4.5c3.5-6.5,5.5-13.4,5.3-20.7c-0.1-3.6-0.6-7.4-2.1-10.5c-2.8-6-5.7-12.3-10.1-17.2
			c-6.4-7.2-13-15.2-22.3-18.3c-6-2-13-4.6-19.8-0.7c-0.9,0.5-2.5,0-3.6,0c2.2-5.9,0.6-11.3-1.8-16.2c-3.7-7.7-7.6-15.3-12-22.6
			c-2.7-4.6-7.2-7.3-12.4-8.7c-1.6-0.4-3.2-0.6-4.7-1.2c-3.2-1.4-6.4-2.7-10.1-2.2c-0.8,0.1-2.7-1.7-2.6-2.2
			c1.2-4.4-1.3-7.4-3.6-10.2c-4.2-5.1-9-9.5-15-12.4c-8.8-4.3-17.7-3.4-26.5,0.6c-0.1,1.1-0.2,2.2-0.3,3.2c-1.2,0.3-2.3,0.9-3.1,0.6
			c-1.4-0.4-3.3-1-3.7-2c-2.9-7.5-10.9-8.5-17.8-1.6c-1.3,1.3-2.4,2.8-3.6,4.3c-1.4,2.9-1.7,5.3-4,12.5c-3.3-1.5-6.4-3-9.6-4.3
			c-0.6-0.3-1.6,0.4-2.5,0.6c-0.3,0.1-0.8,0.2-0.9,0.1c-3.8-5-7.4-0.4-9.9,1.1c-3.2,1.9-5.3,5.9-7.4,9.2c-1.1,1.7-0.6,3.1,2,3.6
			c7.4,1.3,14.3,3.9,19,10.2c3.1,4.2,5.9,8.6,8.8,12.9c0.1,0.1,0.1,0.2,0.2,0.3c2.6,7.4,2.6,7.7,10.6,7.7c9.8,0.1,18.3,3.6,25.4,9.8
			c7.1,6.2,13.6,13.2,16.9,22.5c1.3,3.6,4.2,6.6,4,10.8c0,0.4,1.1,1.4,1.8,1.4c2.6-0.1,5.3-0.1,7.9-0.6c4.5-1,8.9-0.2,13,0.9
			c9.3,2.6,17.2,8.1,23.8,14.8c4.7,4.8,8.1,11.1,11.6,16.9c2,3.3,3.1,7.1,4.7,10.8c6.5-4.2,13.4-5,20,1.2c5.1-2.6,9.2-8.3,15.4-7.5
			c5.4,0.7,10.6,3.2,15.5,4.8c0,4.3-0.1,8.1-0.1,12c0,6.1-4.2,10-7.7,14.3c-0.4,0.5-1.7,0.2-2.6,0.3c0-1.2-0.4-2.9,0.2-3.6
			c5.6-5.8,5.1-13.3,5.8-20.4c0-0.5-0.4-1.1-0.8-1.5c-4.7-4.4-13.1-4-17.9,0.6c-2.5,2.4-5.4,4.3-8.5,6.8c-0.8-1.1-1.5-2.2-2.2-3.3
			c-2.3-3.3-6.3-4-9.7-1.7c-1.4,0.9-2.7,2-4.2,2.8c-2.7,1.5-4.3,3.4-3.9,6.7c0.1,1-0.7,2.9-1.3,3.1c-1.7,0.3-3.7,0.3-5.1-0.5
			c-0.8-0.5-1.4-3-0.9-4c3.3-6.1,0.6-11.7-0.8-17.4c-2.9-11.4-9.9-19.7-19.9-25.8c-4.8-3-9.4-6.2-15.3-7c-6.4-0.9-12.6-1.2-18.2,2.9
			c-2,1.4-3.3,0.6-3.7-1.5c-0.6-3.6-0.7-7.4-1.4-11c-0.3-1.5-1.7-2.8-2.3-4.4c-1.9-5.5-5.1-10.2-9-14.4c-6.6-7-14.3-12-23.7-14.4
			c-5.8-1.5-11.5-0.4-17.2,0.7c-0.8,0.2-1.2,1.9-1.9,2.8c-5.5,6.7-11,13.4-16.5,20.1c-4.5,5.6-8.7,11.4-13.6,16.6
			c-3,3.1-5,6.5-6.8,10.3c-0.4,0.8-1.7,1.2-2.7,1.9c-0.8-0.6-1.7-1.3-2.7-2.1c0.6-1,1.1-2,1.8-2.9c4.2-5.3,8.4-10.6,12.6-15.9
			c5.6-7.1,11.2-14.3,16.8-21.5c2.8-3.6,5.7-7.1,8.4-10.7c1.6-2.2,3-4.6,0.5-7.3c-0.4-0.4-0.2-1.3-0.4-2c-0.9-2.5-1.4-5.3-2.7-7.5
			c-5.7-9.5-14.8-13.6-25.5-15c-8-1-13.2,2.4-16.8,9.3c-1.7,3.3-4.3,6.2-5.8,9.6c-1.6,3.6-1.8,7.8-3.5,11.4
			c-1.4,2.9-3.9,5.2-6.1,7.7c-2.5,2.8-4.9,5.5-6.5,9.1c-1.1,2.7-3.8,4.7-5.6,7c-1.8,2.3-3.6,4.6-5.3,7.1c-0.6,0.9-0.5,2.2-0.3,3.3
			c-23.9,30.6-45.2,63.4-70.6,93.4c4.3,2.6,8,4.7,11.5,7.1c6,4,12.9,6.4,18.2,11.7c3.1,3,7.3,4.9,11,7.4c3.9,2.7,7.8,5.5,11.7,8.2
			c2.4,1.7,4.7,3.5,7.1,5c4.3,2.7,8.8,5.2,13.4,7.9c18.4-16.4,36.8-32.6,55.1-48.9c-19.4-14.9-41-24.8-60.6-37.7
			c0.1-0.4,0.2-0.8,0.3-1.2c1.6-0.3,3.2-0.6,4.6-0.9c1.8-1.8,3.6-3.7,5.5-5.6c4.1-4,8.3-7.8,12.3-11.8c4.3-4.5,8.3-9.2,12.6-13.7
			c1.9-2,4.1-0.8,6.1,0.5c3.9,2.4,8,4.4,11.7,7c6.8,5,13.4,10.3,20.1,15.4c3.2,2.5,6.7,4.7,9.7,7.3c5.7,5,11.8,9.3,18.6,12.7
			c5.1,2.6,9.7,6.2,14.5,9.5c0.6,0.4,0.8,1.2,1.4,2c-9.6,12.8-21.5,23-34.7,32c-0.6-0.7-0.9-1-1.2-1.4c-0.4-0.6-0.8-1.2-1.2-2
			c0.8-0.6,1.5-1.2,2.2-1.8c5.2-4.4,11.2-8.3,15.4-13.6c2.9-3.7,5.8-7.3,9.1-10.6c1.3-1.3,2.8-2.5,4.6-4c-6.7-3.6-13.2-7-19.6-10.7
			c-2.2-1.3-4-3.2-6.1-4.7c-0.9-0.6-2.3-1.5-3.1-1.2c-10.6,3.5-21.7,3.4-32.6,4.7c-7.5,0.9-15,1.9-23.7,3c2.9,2,4.8,3.4,6.7,4.6
			c5.4,3.3,10.8,6.5,16.2,9.9c1.9,1.2,3.6,2.5,5.3,4c4.3,3.7,9,4.6,14.7,3.9c6-0.7,12.1-0.4,18.1-0.2c1.8,0,3.5,1,5.2,2.2
			c-7.9,3.1-16.2,1.3-24.5,1.9c1.9,4.3,8.7,3.7,8.9,9c-0.3,0.3-0.6,0.7-0.8,1c-3.4-2.1-6.7-4.3-10.2-6.2c-1-0.5-2.9-0.9-3.5-0.3
			c-6.8,5.9-13.4,12-20.1,18c-5.7,5.1-11.5,10.2-17.3,15.3c-5.4,4.7-10.7,9.4-16.6,14.5c6.8,4.5,13.3,9,20.1,13.1
			c6.6,3.9,13.9,6.9,20,11.6c-2.7,1.1-6.9-0.3-10.1-2.2c-3.3-2-6.8-3.7-10.2-5.6c-7.9-4.3-16-8.1-22.8-14.3
			c-2.1-1.9-5.3-2.7-7.8-4.3c-3-1.8-5.8-4-8.7-5.9c-4.4-2.8-8.9-5.4-13.2-8.4c-7.8-5.4-15.3-11.1-23.1-16.4c-2.2-1.5-5-2.2-7.4-3.6
			c-4.5-2.6-8.9-5.2-13.2-8.2c-5.9-4.1-5.7-4.1-0.5-9.1c1.5-1.5,2.3-3.8,3.5-5.6c1.5-2.3,3-4.6,4.7-6.9c3.5-4.8,7.2-9.4,10.6-14.3
			c3.7-5.3,7.2-10.7,10.8-16.1c3.6-5.4,7.1-11,10.6-16.4c0.9-1.4,2-2.6,2.9-3.9c5.2-7.5,10.5-15,15.6-22.5c2.8-4.1,5.5-8.2,8.2-12.4
			c3.4-5.3,6.7-10.6,10.2-15.8c2.2-3.2,4.9-5.9,7-9.1c5.7-8.5,11-17.2,16.7-25.6c1.4-2,2.7-3.4,0.9-5.9c-0.2-0.3,2-3.4,3.3-3.5
			c4.1-0.4,8.3-0.2,12.4,0.3c2.2,0.3,2.9-0.2,3.2-2.1c1.1-6.5,5.8-10.7,10.1-14.9c4.3-4.2,13.9-2.9,19,1.9c2-3.5,4.1-6.8,5.9-10.2
			c3.8-7,16.6-11.9,24.3-5.8c2.6,2,4.8,1.7,7.4,0.8c8.7-3.1,17.5-3.8,26.2-0.3c6.2,2.5,11.4,6.4,15.4,11.8c2,2.7,4.2,5.2,6.2,7.9
			c0.5,0.7,0.2,1.9,0.6,2.6c0.7,1.1,1.5,2.6,2.6,3c5.9,2.2,12,3.7,17.7,6.2c3.3,1.5,6.4,4.2,8.6,7.1c3.6,4.7,7,9.8,9.5,15.2
			c2.7,5.7,4.4,11.8,6.1,17.9c0.6,2,1.2,2.8,3.4,3c5.2,0.5,10.6,0.8,15.3,2.6c9.7,3.8,17.8,10,23.7,18.9c0.3,0.4,0.9,0.5,1.4,0.8
			C772,824,775.2,828.8,778.5,833.6z M577.4,862.3c-1.9-0.8-3-1-3.7-1.6c-3.6-3.7-7.8-3-12.1-1.9c-6.4,1.6-12.8,2.9-19.1,4.6
			c-3.4,0.9-7,1.5-9.9,3.3c-3.8,2.3-7,5.6-11.1,8.9c3.4,2.1,6.1,3.5,8.6,5.2c2.3,1.5,4.6,2.9,7.4,2.3c2.3-0.5,4.5-1.4,6.8-1.7
			c5.3-0.7,10.7-1.1,16-1.7c5.7-0.6,11.4-1.5,17.1-2c4.9-0.4,9.8,0.6,14.6-0.9c0.6-0.2,1.1-0.5,1.7-0.8c-0.4-0.6-0.6-1.4-1.1-1.8
			c-2.2-1.7-4.7-3.1-6.7-5c-2.6-2.4-5.4-3.1-8.8-2.4c-4.8,0.9-9.6,1.6-14.4,2.3c-3.3,0.5-6.5,0.8-9.8,1.3
			c-6.1,0.8-12.2,1.8-18.3,2.6c-0.9,0.1-2-0.5-2.9-0.8c0.6-0.9,1.1-2.3,2-2.5c2.7-0.8,5.6-1.3,8.4-1.6c10.7-1.4,21.4-2.6,32.1-4
			C574.9,863.9,575.7,863.2,577.4,862.3z M564,854.5c0-0.1-0.1-0.4-0.2-0.5c-4.3-2.7-8.5-5.3-12.9-7.9c-0.3-0.2-1.4,0.5-1.9,0.9
			c-2.6,2.7-5.2,5.5-7.6,8.3c-1.5,1.7-2.9,3.6-4.8,6C546.2,859,555.1,856.8,564,854.5z"/>
		<path d="M759.5,904.4c-7.6,5.8-15.1,11.1-22.3,17c-6.5,5.4-12.6,11.3-19,17c-2.4,2.1-4.9,4.2-7.4,6.2c-8.2,6.5-17,12.4-24.5,19.7
			c-6.8,6.5-14.3,11.9-21.8,17.3c-1.4,1-2.6,2.4-4,3.6c-4.5,3.8-9.1,7.6-13.7,11.3c-0.6,0.5-1.3,0.9-1.8,1.6
			c-3.9,5.3-8.9,6.7-15.4,6.2c-6.1-0.5-12.3,0.4-18.4,0.3c-6.5-0.1-13-0.5-19.5-0.8c-4.3-0.2-8.7,0.2-12.7-1c-3-0.8-7.5,1.5-9-4.3
			c1.7-1.6,3.6-3.8,5.9-5.5c6.1-4.6,12.6-8.9,18.6-13.7c7.7-6.3,15.1-13,22.6-19.5c2.2-1.9,4.5-3.8,6.8-5.7
			c6.8-5.5,13.5-11.1,20.4-16.5c9.6-7.6,19.4-14.9,29-22.5c5.8-4.6,11.3-9.6,17.1-14.2c3.3-2.6,7-4.9,10.6-7.2
			c0.7-0.4,1.9,0,2.8,0.1c-0.3,0.9-0.3,2-0.8,2.7c-7.2,8.9-16.5,15.3-25.6,22c-9.6,7-19.1,14-28.5,21.3c-9.8,7.6-19.4,15.4-29,23.3
			c-9.7,7.9-19.1,16.1-28.8,24.1c-3.9,3.2-8.2,6-12.2,9.2c-0.7,0.5-0.9,1.8-1.3,2.7c0.9,0.3,1.9,0.8,2.8,0.8c5.5,0.1,11,0,16.6,0.1
			c8.8,0.2,17.6,0.5,26.4,0.7c3.3,0.1,6.6,0.1,9.9-0.2c1.9-0.2,4.8,0.9,5.2-3.1c0.1-0.9,3.3-1.8,5.2-2.4c2.9-0.9,5.3-2,6.4-5.1
			c0.3-0.7,0.9-1.4,1.5-1.9c5.6-4.4,11.3-8.8,16.8-13.3c7.1-5.8,14-11.8,21-17.7c0.8-0.7,1.8-1.2,2.6-1.9c6.4-5.3,13.8-9.7,19-16
			c4-4.9,8.6-8.5,13.3-12.2c4.9-3.8,9.8-7.6,14.5-11.6c3.9-3.3,7.5-6.9,11.4-10.2C752.5,902.8,755.1,900.1,759.5,904.4z"/>
		<path d="M489.6,931.1c4.6-5.2,9.3-10.4,13.8-15.8c4.1-4.9,8.1-10,12-15.2c3.3-4.3,6.3-8.7,9.6-13c0.5-0.6,1.7-0.7,2.6-1
			c0.1,0.9,0.6,2.2,0.2,2.8c-2,3-4.2,5.9-6.3,8.8c-3.2,4.4-6.2,9-9.5,13.3c-3,3.8-6.4,7.4-9.5,11.1c-2.7,3.1-5.3,6.3-7.9,9.5
			C492.7,933.9,491.5,933.8,489.6,931.1z"/>
		<path d="M610.4,890.2c-2.3,0.4-4.6,1-7,1.1c-13.3,0.9-26.7,1.6-40.1,2.4c-0.7,0-1.4,0.4-2,0.3c-1.2-0.2-2.3-0.8-3.4-1.2
			c0.8-1,1.4-2.8,2.4-3c4.3-0.8,8.6-1.3,13-1.5c9-0.4,17.9-0.5,26.9-0.7c3.3,0,6.7,0.2,10,0.3C610.3,888.8,610.4,889.5,610.4,890.2z
			"/>
		<path d="M647.3,840.7c2,2.3,1.7,3.9-0.3,5.5c-3.3,2.7-6.3,5.6-9.5,8.3c-1.4,1.2-3.3,1.9-4.3,3.4c-3.9,5.3-9.1,9.2-14.2,13.2
			c-2.4,1.9-4.4,4.9-9,2.4C622.6,862.4,634.9,851.7,647.3,840.7z"/>
		<path d="M619.9,897.4c-3.6,0.6-6.4,1.3-9.2,1.4c-4.9,0.2-9.8-0.2-14.7,0.1c-6.7,0.3-13.4,0.8-20,1.5c-1.6,0.2-3.1,1.3-4.6,2
			c-0.3-0.3-0.6-0.7-0.9-1c1.1-1.3,1.9-3.4,3.3-3.9c6.1-2.2,12.6-2.9,19.1-3.1c2.4-0.1,4.8-0.3,7.2-0.1c5.9,0.4,11.7,1,17.5,1.6
			C618.1,895.9,618.6,896.5,619.9,897.4z"/>
	</g>
</g> -->
</svg>
