<?xml version="1.0" encoding="utf-8"?>
<!-- Generator: Adobe Illustrator 15.1.0, SVG Export Plug-In . SVG Version: 6.00 Build 0)  -->
<!DOCTYPE svg PUBLIC "-//W3C//DTD SVG 1.1//EN" "http://www.w3.org/Graphics/SVG/1.1/DTD/svg11.dtd">
<svg version="1.1" id="圖層_1" xmlns="http://www.w3.org/2000/svg" xmlns:xlink="http://www.w3.org/1999/xlink" x="0px" y="0px"
	 width="1443.181px" height="368.039px" viewBox="-85.82 436 1443.181 368.039"
	 enable-background="new -85.82 436 1443.181 368.039" xml:space="preserve">
<g>
	<g>
		<path fill="#97CCEB" d="M1353.613,564.762c-1.021-0.197-0.186-2.253-0.456-3.199c0.102-0.865-0.517-1.009-0.459-1.828
			c-1.837,0.755-0.981-1.523-1.827-3.2c-3.994-3.167-7.092-7.23-12.799-8.685c0-0.457,0-0.914,0-1.371
			c-1.698-0.282-2.872-1.089-4.571-1.372c-9.384-1.873-19.451-6.527-30.167-7.771c-7.646-0.886-14.863-0.45-20.569-4.57
			c-1.384-0.901-4.629,0.059-5.942-0.914c0.002,0.458-0.37,0.543-0.458,0.914c1.714,0.269-3.146,0.862-5.484-0.914
			c-0.457,0-0.915,0-1.371,0c-0.538-0.072-1.299,0.078-1.372-0.457c-2.085,0.41-2.591-0.762-4.113-0.914
			c-1.825,1.196-5.253,0.087-7.313,0c-1.389-0.287-3.938,0.584-4.571-0.457c-2.42-0.932-7.085,0.382-8.685-1.371
			c-0.664-0.251-2.362,0.533-2.285-0.458c-1.214-0.004-2.61,0.174-3.199-0.456c0.374,1.655-3.45,1.104-3.199,0
			c-0.458,0.001-0.544-0.371-0.915-0.458c-0.264,2.083-3.228-0.571-4.57,0.914c-1.219,0-2.438,0-3.657,0
			c-2.124-1.176-4.815,0.93-6.856-0.456c-2.589,0-5.18,0-7.771,0c-1.456,1.447-6.982,1.233-8.685,0.914
			c-1.398,0.332-1.344-0.79-2.742-0.458c-0.11,0.805-0.787,1.042-1.828,0.914c-0.047,0.514,0.663,0.712,0,0.915
			c-6.068,2.593-15.561,2.169-21.026,4.113c-4.914-2.267-10.149-1.411-14.17-4.571c-0.766,0.808-1.531-0.406-3.2,0
			c-0.523,2.22-2.173,1.532-2.742,1.372c-5.832,10.38-5.965,24.227-7.771,37.024c-1.98,14.035-7.348,26.208-10.97,37.938
			c-6.824,11.866-15.755,23.849-25.598,33.368c-12.179,11.778-27.94,18.211-44.795,25.597c-0.266-2.096,1.526-2.131,2.286-3.2
			c-4.088,0.487-7.75,3.825-11.428,3.2c9.343-6.586,20.787-6.609,29.711-11.427c6.086-3.287,12.479-9.306,17.827-14.17
			c5.629-5.12,15.167-10.866,18.283-16.455c5.888-10.56,11.84-21.409,15.999-33.367c0.892-2.567,1.969-5.295,2.742-7.771
			c5.419-17.354,3.892-43.438,14.626-54.394c-4.901-1.569-9.397-5.741-15.084-5.027c-3.983-3.025-8.416-5.602-12.341-8.686
			c-2.778,3.622-5.445,7.354-9.6,9.6c-2.209,3.885-4.659,7.529-7.771,10.513c0,0.762,0,1.523,0,2.286
			c-3.114,4.046-6.243,8.079-9.142,12.341c-3.003,1.115-4.188,6.471-7.771,5.485c7.163-8.532,13.521-17.867,19.197-27.882
			c5.155-4.445,11.023-8.177,14.171-14.628c-2.398-0.201-6.547-1.057-7.771-0.914c1.744,0.705,3.396,3.903,3.2,5.028
			c-2.903-0.448-2.928-3.776-4.114-5.942c-3.127-0.072-5.415-0.984-5.942-3.657c5.368-0.379,12.803,2.964,17.37,2.286
			c9.134-3.969,19.158-7.048,28.339-10.971c0-0.152,0-0.304,0-0.457c0.474-1.051,0.944-2.103,1.828-2.742
			c0.619,0.144,0.874,0.649,1.83,0.457c0.583,0.024,0.633,0.585,1.37,0.457c0.427-0.278,1.687-1.063,1.372,0.456
			c0.761,0,1.522,0,2.285,0c-1.189-2.094,4.107-2.681,5.941-1.827c1.179-0.11-0.627-0.786,0-1.828c1.824,0.251,1.377,0.251,3.2,0
			c-0.439-1.204-0.884-3.916,0-5.028c2.456,0.133,2.994,2.186,3.199,4.57c1.303,2.507,5.21,2.409,7.313,4.113
			c0.457,0,0.915,0,1.372,0c0.608-1.196,2.028-0.872,3.199-0.456c0.589,0.63,1.985,0.452,3.199,0.456c1.067,0,2.134,0,3.2,0
			c8.173,0.296,14.043,0.113,22.397,0c0.02,0.63-0.215,1.005-0.457,1.372c1.597-1.263,5.255-0.112,6.398-1.828
			c1.009-1.581,3.734-1.444,5.942-1.828c-0.169,0.777,0.357,0.861,0.915,0.914c0,0.152,0,0.305,0,0.457
			c0.684-0.078,1.686,0.163,1.827-0.457c-0.538-0.072-1.297,0.078-1.37-0.457c5.936-4.882,14.012-7.622,20.569-11.885
			c1.483-1.867,3.159-3.543,5.027-5.028c2.409-3.199,4.495-8.218,3.199-13.712c0-0.153,0-0.305,0-0.457c-0.152,0-0.304,0-0.457,0
			c-1.245,0.888-3.981,0.284-5.027,1.37c-1.626,0.712-0.277-1.552-1.372-1.37c-13.409,0.455-27.565-1.066-37.938-5.941
			c-0.804-2.702-3.632-3.379-6.4-4.114c-0.084-0.39,0.179-0.433,0.458-0.458c-0.563-0.655-1.572-0.865-2.743-0.914
			c-5.051-1.043-10.033-2.155-13.256-5.027c-0.427,0.334-0.692,0.831-0.914,1.371c-2.081-0.311-7.398-1.904-5.485-3.2
			c-2.833-0.976-5.555-2.063-7.771-3.656c-0.761,0-1.522,0-2.285,0c0,0.152,0,0.305,0,0.457c1.081,1.066,2.028,4.656,0.915,6.399
			c-1.503-2.001-2.225-4.785-2.743-7.771c-1.018,0.963-2.203-0.482-4.114,0c0.399,1.749,2.444,4.242,0.915,6.399
			c-1.996-1.052-2.409-3.686-3.2-5.943c0-0.305,0-0.608,0-0.913c-1.828,0-3.656,0-5.485,0c0-0.305,0-0.609,0-0.914
			c-0.864,0.506-2.158,0.582-3.198,0.914c-0.78,1.047-4.527,3.493-5.485,1.371c-1.505,1.327-2.907-0.089-4.571,0.914
			c-13.921,4.197-24.48,6.442-42.509,6.856c-0.66,0.104-0.16,1.364-0.914,1.371c-3.512-0.603-7.815-0.414-10.514-1.828
			c-0.457,0-0.915,0-1.371,0c-3.093,0.796-6.549,1.117-7.771-0.457c-0.151,0-0.305,0-0.456,0c0,0.151,0,0.305,0,0.457
			c-3.03,2.307-9.146,3.955-14.17,2.742c-0.61,0-1.22,0-1.828,0c0.137,1.661-2.438,0.611-3.2,1.371
			c-4.205,1.917-10.343,6.688-14.627,5.485c-2.549,1.413-5.306,2.617-7.313,4.571c-0.632,1.653-2.89,1.681-3.656,3.199
			c2.583-0.319,5.186-3.03,7.313-2.285c-3.026,3.354-7.642,3.803-11.428,5.485c-11.536,5.122-21.272,13.854-31.539,20.111
			c-0.898,0.137-0.906-0.616-1.371-0.915c-1.421,0.972-0.098,2.038-0.914,3.201c-1.619-0.153-1.124-1.258-2.742-0.458
			c-11.002,8.197-20.287,18.11-31.083,26.512c-0.398-1.356,1.953-2.255,0.914-2.743c-4.078,4.76-10.618,9.491-11.884,15.541
			c1.594-1.91,2.284-4.723,5.485-5.027c-3.362,5.933-8.049,10.54-10.971,16.912c-1.64-4.768,3.733-8.573,4.507-11.225
			c-0.254,0.382-1.218,0.304-1.307-0.202c0.245-6.157,6.528-8.705,7.313-12.799c-6.23,4.362-16.288,3.784-21.483,8.228
			c-0.152,0-0.305,0-0.456,0c-1.748,1.907-8.828,2.848-11.428,0.914c-1.066,0-2.133,0-3.199,0c-1.33,2.175-5.29,1.719-8.228,2.286
			c-1.163-0.21-0.768-1.977-1.829-2.286c-1.58,0.371-1.93-0.854-2.742,0c-1.738,2.416-5.565,1.346-8.227,1.372
			c-26.141,0.244-63.553,4.074-89.134-1.372c-2.833-0.679-5.515-0.148-8.227,0.456c-2.78,0.013-4.837,0.911-6.856-0.456
			c-1.371,0-2.743,0-4.115,0c-1.99,0.761-7.149,0.761-9.141,0c-3.828-0.285-8.02-0.208-11.428-0.914
			c-2.165,1.966-6.279,1.117-9.599,0.914c-1.095-0.275-2.085-0.657-3.656-0.456c-12.811,1.116-25.867,0.033-38.854,0.456
			c-0.816-0.555-2.659-0.084-3.199-0.914c-3.702,0.621-5.503,0.504-9.599,0.914c-2.144,0.761-7.456,0.761-9.6,0
			c-0.457,0-0.914,0-1.371,0c-19.984,2.741-37.593,0.673-55.765,0c-0.305,0-0.609,0-0.914,0c-8.181,2.117-18.315,0.594-27.425,0
			c-4.567-0.828-13.429-0.823-19.198,0c-1.975,1.114-8.665,1.731-10.513,0c-1.218,0-2.437,0-3.656,0
			c-2.446,0.761-8.067,0.761-10.513,0c-4.434,0.016-8.058-0.779-12.799-0.456c-1.079,1.258-4.863,1.258-5.942,0
			c-0.458,0.001-0.544-0.37-0.914-0.458c0.025,2.005-2.034-0.312-3.657,0.458c-12.498-1.396-27.849-1.257-40.681-4.115
			c-6.6,1.881-15.709,1.786-21.026,0c-0.55-0.516-576.819-5.637-578.276-5.247c1.525,0.003,156.322-0.107,190.389,0.523
			c120.611,1.756,387.083,4.983,386.059,5.182c-0.371,0.086-0.456,0.459-0.915,0.457c-3.959,1.374-265.806-3.432-385.145-5.639
			c-34.019-0.496-188.759-0.346-190.295-0.506l-0.093-0.018v200.33l501.002-11.652l71.581-1.205
			c5.747,0.646,11.811,0.658,18.034-0.304c1.061-0.146,1.755,0.073,2.286,0.458c0,0.152,0,0.304,0,0.456
			c0.584-0.024,0.633-0.586,1.371-0.456c0.594-0.843,1.52-1.22,2.61-1.371l0.008-0.001c1.82-0.251,4.098,0.123,6.066,0
			c13.288-0.832,28.086-3.354,40.224-1.828c0.457,0,0.914,0,1.371,0c5.672-3.26,12.29-2.126,19.198-2.286
			c2.355-0.054,4.718-0.831,7.089-1.377l5.683,1.569l52.591-0.192l0.363-0.018c0.733,0.066,0.792,0.806,1.922,0.475
			c5.534,0.351,10.146-1.076,15.084,0c0.457,0,0.915,0,1.371,0c0.152,0,0.305,0,0.457,0c1.981,0,3.961,0,5.942,0
			c2.743,0,5.485,0,8.228,0c1.981,0,3.961,0,5.942,0c2.743,0,5.485,0,8.228,0c2.133,0,4.267,0,6.4,0c3.16,0.141,4.613-0.727,7.313,0
			c0.28,0.635,1.759,0.069,1.827,0.915c10.23-2.132,19.253-0.713,30.626-0.915c0.754-0.006,0.256-1.267,0.913-1.371
			c20.539-2.331,45.965,0.308,64.907,2.743c1.376,1.241,2.04-1,4.113-0.457c1.238-0.76,5.62-0.76,6.857,0c0.761,0,1.523,0,2.285,0
			c3.063-1.376,6.689,0.616,10.513,0c5.047-1.634,10.316,0.513,15.541,0c1.643-0.162,3.122-0.983,4.572-0.915
			c6.336,0.306,10.824,3.827,17.825,3.201c6.531-0.586,13.761-0.65,19.655,2.284c2.809-0.505,5.3,0.624,7.771,0.457
			c4.261-0.296,10.945,0.937,15.083,2.286c0.458,0,0.915,0,1.372,0c2.536-1.607,5.125,0.652,7.771,0.457
			c1.409-0.812-1.762-1.324,0-2.286c10.735,2.735,23.231,3.248,31.539,7.314c0.152,0,0.305,0,0.457,0
			c2.171-1.692,7.686-0.914,10.056,0c0-0.153,0-0.305,0-0.457c-2.537-2.582-3.294-11.515-1.372-15.541
			c1.517,0.16,0.719,2.634,0.916,4.113c5.05,2.415,3.405,11.525,7.313,15.084c-0.888,2.137,0.834,4.308,1.372,6.398
			c0.182,1.096-2.083-0.253-1.372,1.372c3.125,5.56,8.01,9.36,11.428,14.627c1.501,0.479,1.998,1.963,2.742,3.2
			c0.31,1.061,1.519,1.223,1.828,2.285c1.535,1.207,2.756,2.729,5.028,3.199c1.755,0.091,4.263,1.809,3.656,2.743
			c0.588,0.783,0.946,1.796,2.286,1.828c2.94,0.043,2.663,1.927,5.028,0.457c1.84,3.395,6.269,4.231,9.598,5.941
			c3.587,1.842,7.495,4.491,10.514,5.942c2.42-0.272,5.422,1.263,5.027,2.285c0.085,0.678,1.105,0.42,1.829,0.458
			c1.968-0.283,6.205,1.101,7.771,2.741c0.618,0.145,0.873,0.651,1.828,0.457c22.108,8.214,51.479,13.122,79.991,16.457
			c1.728,0.66,0.877-1.257,2.285-0.916c0.214,2.072,3.348,1.224,5.484,1.372c1.43,0.14-1.162-1.32,0.458-1.372
			c3.545,0.566,11.525-1.463,15.541,1.829c0.457,0,0.913,0,1.371,0c11.017-1.416,20.834,2.324,30.625,3.656
			c0.538,0.072,1.297-0.079,1.371,0.458c0.306,0,0.61,0,0.915,0c11.053-2.503,21.943,2.202,31.539,4.113
			c0.973,0.855,2.91,0.746,3.655,1.828c1.974-0.545,2.563,1.498,3.657,0.457c0.073-0.526-0.079-1.312,0.457-1.37
			c2.617-0.286,9.566,0.896,12.799,1.37c3.493,0.514,6.936,2.392,10.513,2.742c8.056,0.793,15.318-0.412,23.312,0.458
			c0.305,0,0.61,0,0.915,0c0.108-0.804,0.786-1.042,1.827-0.914c3.196-2.29,7.136-3.834,10.514-5.942
			c0.459-0.001,0.544,0.37,0.915,0.457c-0.918-0.931-0.12-1.218,0.456-1.828c0.026-0.279,0.068-0.541,0.457-0.457
			c2.2-2.372,5.037-4.105,7.313-6.399c0-0.151,0-0.306,0-0.458c0.916-2.588,2.207-4.801,2.286-8.227
			c1.457-0.271,1.413,0.857,2.285,0c0.367-2.223,0.394-4.788,1.828-5.942c-0.002-0.458,0.371-0.544,0.457-0.914
			c-1.879,0.203-0.416-2.388,0-2.742c0-0.458,0-0.914,0-1.372c3.881-8.561-16.205-27.827-13.713-25.14c0.152,0,0.305,0,0.457,0
			c2.908-1.362,6.548-4.416,10.057-3.657c2.313,0.333,2.707-1.255,4.57-1.37c3.665-3.649,10.036-4.592,15.541-6.399
			c0.664-0.25,2.362,0.533,2.286-0.458c-0.393-1.926,4.676-2.323,6.855-3.198c4.782-4.175,11.272-8.533,11.885-16.456
			c0.608-7.865-4.338-13.068-7.771-18.741c-3.11-0.589-6.038-4.001-8.685-2.285c-0.813-3.446-7.682-12.531-2.743-8.227
			c0-0.153,0-0.307,0-0.458c-1.057-0.923,0.663-4.975,2.743-5.485c0.479-1.501,1.964-1.998,3.199-2.742
			c1.673-0.308,2.126-1.836,3.657-2.286c-0.645-1.122,2.589-2.271,4.114-2.742c2.231-1.425,3.919-3.394,5.941-5.028
			c1.009-2.342,3.859-2.844,5.028-5.027c0.354-0.102,0.902-0.012,0.914-0.457c-0.486,0.02-1.161-0.215-0.457-0.458
			c4.425-6.264,0.41-16.265,1.828-24.682c-0.409-1.138-1.321-4.134-0.457-5.028c0-0.304,0-0.609,0-0.913
			c-3.854-9.3-15.52-18.922-6.399-15.999c-0.067-1.135-0.085-2.218,0.915-2.285c5.872-3.27,11.258-7.025,16.911-10.514
			c0-0.151,0-0.305,0-0.457c2.697-8.121,3.148-18.487,8.229-24.226C1351.261,568.2,1352.268,566.312,1353.613,564.762z
			 M959.601,633.782c-2.396-5.366,1.396-10.133,0-16.912c-1.36,2.143,0.448,7.456-0.913,9.599
			c-2.661-8.158-1.339-21.398-1.83-32.453c-0.33-7.463-2.531-16.023,3.201-21.483c0.738-0.129,0.786,0.432,1.371,0.457
			c-2.137,16.975-2.934,33.796,0.913,50.737C960.828,626.476,960.037,629.951,959.601,633.782z M962.802,622.356
			c-0.139-1.204,0.633-1.5,1.828-1.371C964.768,622.189,963.996,622.485,962.802,622.356z"/>
		<path fill-rule="evenodd" clip-rule="evenodd" fill="#FCF27E" d="M733.072,610.928c3.294,1.841,7.331,5.017,7.771,8.228
			c3.044,0.312,3.678,6.983,4.571,10.97c-0.075,2.056-0.103,4.064,1.37,4.571c1.038,0.486,0.175,2.873,0.457,4.114
			c-6.73,1.802-12.824,4.239-20.111,5.485c-0.051-0.864-1.511-0.318-1.371-1.372c2.438-2.258-1.388-3.781-1.828-5.941
			c-0.962-2.848-3.173-4.444-5.027-6.399c-0.153,0-0.307,0-0.459,0c-2.923-2.714-7.332-3.941-11.883-5.028c-0.152,0-0.305,0-0.458,0
			c-3.983-2.72-10.404-3.004-17.369-2.742c-0.609,0-1.219,0-1.829,0c-2.292,0.008-4.218-0.354-5.941-0.915
			c-0.634-1.041-3.182-0.171-4.57-0.457c-2.735-0.77-6.231-0.776-5.486-5.028c0.277-1.094,0.658-2.085,0.458-3.655
			c0.426-1.402,1.423-2.234,1.828-3.657c1.805-1.699,4.368-2.641,7.313-3.2c0.077-0.532,0.723-0.495,1.372-0.457
			c7.618,0,15.235,0,22.854,0c1.066,0,2.133,0,3.2,0c3.748,0.823,8.54,0.603,12.341,1.372c3.526,0.739,7.25,1.282,10.057,2.742
			c0,0.153,0,0.305,0,0.457C731.767,609.795,732.116,610.665,733.072,610.928z"/>
		<path fill-rule="evenodd" clip-rule="evenodd" fill="#FCF27E" d="M729.872,667.607c-1.313-0.818-2.268-1.997-2.742-3.656
			c0-1.066,0-2.134,0-3.199c2.265-1.767-0.36-4.221-1.828-5.029c-0.444-0.012-0.354-0.559-0.457-0.913
			c4.326,0.504,8.171,0.216,11.884,0c1.539-0.29,4.246,0.588,5.027-0.457c1.821-0.008,3.22-0.438,4.114-1.372
			c1.204-0.929,3.368-0.898,4.572-1.828c0.151,0,0.305,0,0.456,0c0,1.981,0,3.962,0,5.942c0.356,2.947-0.675,4.506-0.914,6.856
			c-3.109,1.31-5.306,3.531-9.599,3.656C736.881,667.607,733.377,667.607,729.872,667.607z"/>
		<path fill-rule="evenodd" clip-rule="evenodd" fill="#CECDBB" d="M510.469,569.79c0.442,1.233,1.146,2.205,2.742,2.285
			c0.653-0.108,0.771-0.753,1.371-0.914c0.279,0.025,0.542,0.067,0.458,0.457c0,0.763,0,1.523,0,2.285
			c-0.733,6.388-2.441,13.339-2.743,18.74c0.384,0.531,0.603,1.227,0.457,2.286c-3.023-0.658,0.431,3.214-0.457,5.942
			c-0.552,7.796,0.251,13.882,0,22.397c0,1.829,0,3.656,0,5.485c0.432,1.614,0.314,2.502,0,3.656
			c-1.063,4.117-0.154,10.206-0.457,15.084c-4.146,0.729-5.342,4.41-8.685,5.942c-0.459,0-0.544-0.37-0.915-0.458
			c-0.199-0.562-0.584-0.938-1.371-0.913c-0.939,0.127-0.912,1.221-1.371,1.827c-0.864,0.052-0.317,1.512-1.371,1.372
			c-0.762,0-1.524,0-2.286,0c-0.604-0.006-0.417-0.802-0.915-0.914c0.084-0.389-0.178-0.432-0.457-0.458
			c-0.077-0.532-0.723-0.496-1.372-0.456c-1.229,0.314-0.883-0.945-1.371-1.371c-1.34,0.03-1.698,1.044-2.286,1.827
			c-0.652-0.108-0.771-0.752-1.371-0.914c-0.649-0.038-1.294-0.075-1.371,0.458c-1.012,0.7-2.431,3.125-3.657,0.914
			c-0.199-0.563-0.585-0.938-1.371-0.914c-0.305,0-0.609,0-0.914,0c-1.204-0.474-1.54-1.813-2.743-2.286
			c-0.303-1.221-0.192-2.855-0.915-3.656c-0.136-0.945-0.531-2.543,0-3.657c0.315-3.672-2.307-8.354-1.371-14.17
			c0.152,0,0.305,0,0.457,0c0.004-1.214-0.172-2.609,0.457-3.199c0.459-0.002,0.544,0.37,0.915,0.457
			c3.121,6.631,3.448,16.056,7.313,21.941c-1.087-9.732-5.198-20.399-7.771-30.169c-3.263-1.355-2.491-9.025-1.829-12.799
			c0-0.152,0-0.305,0-0.457c-1.488-6.182-1.25-19.733,0-27.425c0.153,0,0.305,0,0.458,0c2.336-3.327,7.873-3.731,10.513-0.457
			c-0.264,0.277-1.07,2.168,0,2.285c1.747,14.495,4.926,35.682,8.684,51.651c1.293,5.493,2.028,11.541,5.028,15.541
			c-4.631-20.966-8.936-42.258-12.341-64.45c0-1.523,0-3.047,0-4.57c1.674-2.135,3.769-3.85,5.942-5.485
			c0.459-0.001,0.544,0.37,0.915,0.457c1.777,6.926,2.262,16.161,3.199,26.055c0.287,1.389-0.585,3.937,0.458,4.57
			c2.325,8.493,4.296,17.34,8.228,24.226c-3.329-13.892-8.306-30.086-9.142-47.994c0-1.675,0-3.352,0-5.028
			c0.427-0.334,0.692-0.83,0.915-1.37c0.658-0.257,1.115-0.714,1.371-1.372c1.443-0.224,1.614,0.824,3.199,0.457
			c0.317,0.357,2.551,1.018,2.743,0c0.407-0.203,0.817-0.401,0.915-0.914c1.643-0.643,1.943-2.627,3.657-3.2
			C510.084,568.957,509.934,569.716,510.469,569.79z M505.899,577.103c-0.729-0.337,0.104-2.236-1.371-1.827
			c1.249,8.871-0.486,19.212,4.57,26.511c0.708-1.957-1.765-5.522-1.371-8.228c-0.287-1.391,0.585-3.938-0.457-4.57
			c-0.714-2.028-0.51-4.976-0.914-7.314C506.069,580.284,506.941,577.737,505.899,577.103z M479.844,592.644
			c-0.055-1.316,0.25-2.992-0.457-3.655c-0.941-0.401-2.053,1.186-0.915,1.37c1.924,17.6,6.366,36.585,13.256,50.737
			C488.149,626.354,482.259,610.066,479.844,592.644z"/>
		<path fill-rule="evenodd" clip-rule="evenodd" fill="#CECDBB" d="M616.057,578.932c1.599,15.313,6.654,27.17,8.685,42.053
			c1.384,1.939,2.028-3.1,0.914-3.657c-2.313-12.313-6.11-23.144-7.771-36.109c0-0.915,0-1.829,0-2.743
			c1.761-0.678,4.172-0.703,5.942-1.372c0.252,0.814,0.234,1.898,0.914,2.286c0.915,4.57,2.045,8.925,2.742,13.713
			c0.628,3.267,0.177,4.488,0,7.313c0,0.153,0,0.306,0,0.458c1.283,14.291-0.827,28.895,0.457,44.794
			c-0.842,0.986-1.405,2.252-2.285,3.201c-0.28-0.135-1.76-1.138-1.828,0c-0.513,0.096-0.712,0.507-0.915,0.913
			c-0.604,0.006-0.417,0.802-0.913,0.914c-0.457,0-0.914,0-1.372,0c-0.025-0.278-0.068-0.541-0.457-0.457c0-0.151,0-0.305,0-0.457
			c-0.586-1.186-2.733,0.352-2.742-0.457c-6.104-22.237-13.15-43.469-18.284-67.649c-0.09-1.308-0.057-2.494,1.372-2.285
			c1.313,0.095,2.321-0.115,2.742-0.914c0.458,0.001,0.544-0.37,0.914-0.457c1.215-0.005,2.61,0.172,3.199-0.457
			c0.761,0.916-0.037,3.39,0.915,4.113c1.62,9.583,2.831,18.748,5.028,26.511c3.646,12.888,8.047,25.105,12.341,37.024
			c-4.964-22.918-14.034-41.73-16.455-67.191c0.629-0.021,1.003,0.215,1.372,0.457c1.061-0.31,1.223-1.519,2.284-1.829
			c0.82-0.058,0.964,0.561,1.828,0.457C614.82,578.034,615.923,577.999,616.057,578.932z"/>
		<path fill-rule="evenodd" clip-rule="evenodd" fill="#CECDBB" d="M598.231,584.416c5.47,22.413,11.746,44.018,18.283,65.364
			c0,0.306,0,0.609,0,0.914c-1.077,0.011-1.346-0.787-2.743-0.457c-0.097-0.513-0.507-0.712-0.914-0.914
			c-0.262-0.952-2.957-0.571-2.742,0.457c-0.604,0.006-0.418,0.802-0.914,0.914c-0.407-0.354-1.032-0.491-1.829-0.457
			c-0.458,0.002-0.544-0.37-0.914-0.457c-0.085-0.676-1.104-0.419-1.828-0.457c-0.574,0.188-0.935,0.589-0.914,1.371
			c-0.609,0-1.219,0-1.829,0c-0.87-0.856-1.147-0.05-2.285,0c-0.762,0-1.522,0-2.285,0c-0.661-0.71-0.609-2.134-1.371-2.743
			c0-0.151,0-0.304,0-0.456c0.095-4.563-0.133-11.074,0-14.17c0-0.305,0-0.61,0-0.914c0.289-1.539-0.589-4.246,0.457-5.028
			c3.006,6.593,2.865,16.332,7.313,21.484c-1.48-9.338-4.601-17.035-6.399-26.055c-0.451-1.073-0.802-2.246-0.914-3.657
			c0.224-3.204-0.383-6.142,0-8.228c-0.071-2.22,0.023-3.41,0.914-1.371c2.545,9.948,7.321,17.666,9.599,27.882
			c-0.019,1.39-0.265,3.01,1.372,2.743c0.892-1.12,0.457-3.842-0.458-4.57c-3.359-10.659-8.057-19.979-10.513-31.54
			c0.331-1.398-0.788-1.344-0.457-2.741c1.188-4.539,2.503-8.957,0.457-13.257c0.292-1.688-0.592-4.553,0.458-5.485
			C597.851,583.274,597.611,584.276,598.231,584.416z"/>
		<path fill-rule="evenodd" clip-rule="evenodd" fill="#FCF27E" d="M729.872,608.185c-3.834-1.041-8.133-1.616-11.428-3.198
			c-1.446-0.382-3.84,0.184-4.113-1.372c7.382-0.221,12.93,1.394,16.912,4.57C730.787,608.185,730.33,608.185,729.872,608.185z"/>
		<path fill-rule="evenodd" clip-rule="evenodd" fill="#F87CBA" d="M519.611,609.1c15.373-0.826,29.382-0.896,47.08-0.457
			c0.729,0.337-0.104,2.237,1.372,1.828c0.078-0.684-0.164-1.688,0.457-1.828c1.066,0,2.133,0,3.199,0
			c0.291,0.998-1.295,1.454,0.457,1.371c6.053-0.718,9.777,0.093,15.541-0.914c-0.66,3.158,2.894,1.296,5.485,2.285
			c-0.521,1.39-0.142,2.253,0,4.57c-0.865-0.811-3.02-0.333-4.571-0.456c-0.387-0.68-1.472-0.662-2.285-0.914
			c-0.763,0-1.523,0-2.285,0c-1.082-1.052-4.103-0.164-5.943-0.458c-1.828,0-3.656,0-5.484,0c-15.939,1.661-31.227-3.53-45.252-1.37
			c1.456,1.134,5.827-0.647,5.485,2.285c-2.258-1.157-9.36,0.821-7.771-2.743c-2.499-0.182,0.148,1.945-1.828,2.286
			c-2.097-0.733-3.105-0.033-5.485,0c-0.103-0.355-0.013-0.901-0.458-0.915c-0.265-1.484,0.311-2.127,0.458-3.199
			C518.715,610.337,518.679,609.235,519.611,609.1z"/>
		<path fill-rule="evenodd" clip-rule="evenodd" fill="#F87CBA" d="M667.708,611.385c-0.291,2.375,1.008,3.664,0,5.485
			c-12.428-1.877-25.368-2.195-37.481-2.285c0.869-1.962-0.059-3.198,0.457-5.028C644.825,608.027,655.288,610.202,667.708,611.385z
			"/>
		<path fill-rule="evenodd" clip-rule="evenodd" fill="#CECDBB" d="M593.203,635.612c0.279,2.222,0.279,2.348,0,4.57
			c0,2.285,0,4.571,0,6.856c-3.467-1.857-2.613-10.536,0-12.799C593.203,634.697,593.203,635.154,593.203,635.612z"/>
		<path fill-rule="evenodd" clip-rule="evenodd" fill="#FCF27E" d="M753.184,651.152c-0.324-0.337-1.14-2.236,0.457-1.828
			c0.152,0,0.305,0,0.457,0c0.254,4.323,1.334,11.102-0.457,14.627c0.218-2.113,0.517-3.697-0.457-5.485c0-0.608,0-1.218,0-1.828
			C753.941,655.849,753.941,651.94,753.184,651.152z"/>
		<path fill-rule="evenodd" clip-rule="evenodd" fill="#F87CBA" d="M752.727,640.639c0.152,0,0.305,0,0.457,0
			c1.449,2.537-0.488,5.175-0.915,7.313c-3.855,3.464-28.051,10.567-30.168,1.829c0.697-2.057,2.503-4.365,1.829-6.399
			c6.048,5.174,23.236,2.96,25.14-4.57c0.389-0.084,0.432,0.177,0.457,0.457c0,0.152,0,0.305,0,0.456
			c1.077,0.142,0.85,1.588,2.285,1.372C751.825,640.651,752.372,640.741,752.727,640.639z"/>
		<path fill-rule="evenodd" clip-rule="evenodd" fill="#FCF27E" d="M746.784,668.978c0.462-0.756,1.941-0.495,2.743-0.913
			c2.033,0.677-4.008,3.177-5.485,1.828C745.213,669.844,746.22,669.634,746.784,668.978z"/>
		<path fill-rule="evenodd" clip-rule="evenodd" fill="#F87CBA" d="M401.682,612.757c16.437-2.429,34.137-1.76,51.193-4.114
			c0.305,0,0.61,0,0.915,0c1.066,0,2.133,0,3.2,0c1.066,0,2.132,0,3.199,0c3.924,0.342,9.618-1.085,10.97,1.828
			c0.923,1.058,0.466,3.507-0.457,4.114c-18.872,0.856-38.205,3.666-60.792,5.484c-0.914,0-1.829,0-2.743,0
			c-3.657,0-7.313,0-10.971,0c-0.101-0.356-481.518,28.202-482.049,28.276c-0.317-2.602,0.351-9.832,0.033-12.435
			C-83.98,635.618,400.6,613.807,401.682,612.757z"/>
		<path fill-rule="evenodd" clip-rule="evenodd" fill="#FCF27E" d="M1234.584,458.53c-3.606-0.051-5.551-1.763-8.228-2.743
			c-0.391-1.456,0.398-1.734,0.914-2.284c0.152,0,0.305,0,0.457,0c1.99-0.296,5.168,0.596,6.399-0.458c0.152,0,0.305,0,0.457,0
			c3.95-0.011,7.736-0.186,10.97-0.913c1.391-0.287,3.938,0.585,4.571-0.458c1.371,0,2.742,0,4.114,0
			c0.8,0.418,2.281,0.157,2.743,0.914c0.891,0.937,3.068,0.588,4.113,1.372c0.416,0.802,1.602,0.836,2.285,1.37
			c0,0.153,0,0.306,0,0.457c1.144-0.077,1.431,0.703,1.828,1.372c-0.467,2.276-4.106,1.378-5.942,2.285c-0.152,0-0.305,0-0.457,0
			c-2.142,0.297-5.474-0.598-6.855,0.458c-0.153,0-0.305,0-0.458,0c-1.828,0-3.656,0-5.485,0c-0.152,0-0.305,0-0.457,0
			c-0.932-1.05-3.795-0.166-5.484-0.458C1239.105,458.275,1236.697,458.55,1234.584,458.53z"/>
	</g>
	<g>
		<path fill-rule="evenodd" clip-rule="evenodd" fill="#FFFFFF" d="M1184.947,440.115c0.85-0.82,4.261-0.323,4.113,1.37
			C1187.476,441.241,1186.626,440.263,1184.947,440.115z"/>
		<path fill-rule="evenodd" clip-rule="evenodd" d="M1190.888,444.685c1.298-0.669,4.397,0.77,5.485,1.829
			C1194.41,446.039,1192.393,445.618,1190.888,444.685z"/>
		<path fill-rule="evenodd" clip-rule="evenodd" d="M1174.89,493.594c-1.578,0.858-4.194,0.679-5.941,1.371
			C1169.299,492.806,1173.183,493.029,1174.89,493.594z"/>
		<path fill-rule="evenodd" clip-rule="evenodd" fill="#FFFFFF" d="M1183.576,494.965c1.817-0.143,2.296,1.056,4.114,0.914
			C1186.9,496.785,1183.658,496.28,1183.576,494.965z"/>
		<path fill-rule="evenodd" clip-rule="evenodd" fill="#FFFFFF" d="M1200.945,497.706c-0.954,1.363-2.403-0.606-4.114,0
			C1196.018,496.651,1200.027,497.565,1200.945,497.706z"/>
		<path fill-rule="evenodd" clip-rule="evenodd" fill="#FFFFFF" d="M1213.287,497.706c-2.949,1.5-10.663,0.53-4.571,0.458
			C1210.17,498.148,1211.802,497.243,1213.287,497.706z"/>
		<path fill-rule="evenodd" clip-rule="evenodd" d="M967.372,524.218c-1.34,5.67-8.592,9.386-9.598,16.913
			C957.194,533.541,963.818,529.198,967.372,524.218z"/>
		<path fill-rule="evenodd" clip-rule="evenodd" fill="#FFFFFF" d="M1265.852,528.332c0.953-1.363,2.403,0.606,4.112,0
			C1269.062,529.644,1267.112,528.174,1265.852,528.332z"/>
		<path fill-rule="evenodd" clip-rule="evenodd" d="M633.215,569.928c2.379,5.788-0.471,10.223-1.372,15.083
			c-1.508-4.07,0.191-10.645-0.456-14.17C631.667,570.207,633.145,570.773,633.215,569.928z"/>
		<path fill-rule="evenodd" clip-rule="evenodd" d="M506.601,574.041c2.315,9.249,1.719,20.497,4.57,27.426
			C505.731,595.756,506.827,582.855,506.601,574.041z"/>
		<path fill-rule="evenodd" clip-rule="evenodd" d="M487.86,577.24c4.607,23.275,8.595,47.17,13.712,69.935
			C493.808,627.296,490.363,599.485,487.86,577.24z"/>
		<path fill-rule="evenodd" clip-rule="evenodd" fill="#FFFFFF" d="M957.316,581.355c0.866,0.896,0.606,4.545,0,5.484
			C955.991,585.485,957.491,583.075,957.316,581.355z"/>
		<path fill-rule="evenodd" clip-rule="evenodd" d="M480.089,588.668c3.873,17.799,9.037,36.624,13.256,52.565
			C486.631,626.263,481.591,607.345,480.089,588.668z"/>
		<path fill-rule="evenodd" clip-rule="evenodd" d="M629.557,598.267c1.542,0.391,0.26,4.053,0,5.485
			C628.233,602.397,629.733,599.99,629.557,598.267z"/>
		<path fill-rule="evenodd" clip-rule="evenodd" fill="#FFFFFF" d="M632.3,598.267c1.405-0.699,1.405,2.985,0,2.285
			C632.3,599.79,632.3,599.03,632.3,598.267z"/>
		<path fill-rule="evenodd" clip-rule="evenodd" fill="#FFFFFF" d="M415.183,608.781c-3.032,1.539-7.625,1.517-11.884,1.828
			C407.208,609.299,411.209,609.031,415.183,608.781z"/>
		<path fill-rule="evenodd" clip-rule="evenodd" fill="#FFFFFF" d="M594.362,608.781c-0.103,1.421-2.275,0.772-3.657,0.914
			C590.806,608.273,592.979,608.922,594.362,608.781z"/>
		<path fill-rule="evenodd" clip-rule="evenodd" d="M477.347,617.465c4.639,8.623,7.574,21.365,9.142,31.539
			C482.878,639.34,478.846,627.723,477.347,617.465z"/>
		<path fill-rule="evenodd" clip-rule="evenodd" d="M1163.007,641.234c0.2,0.678,0.585-0.181,1.371,0
			c1.245,6.141-0.057,12.632-0.456,18.74c-4.199-3.505,0.04-11.553-0.915-15.998c-1.338,1.36-2.105-4.929,0-5.941
			C1163.76,638.096,1163.76,641.171,1163.007,641.234z"/>
		<path fill-rule="evenodd" clip-rule="evenodd" fill="#FFFFFF" d="M748.4,666.372c0.995,2.075-3.937,2.148-5.941,2.743
			C743.748,667.511,746.849,667.716,748.4,666.372z"/>
		<path fill-rule="evenodd" clip-rule="evenodd" fill="#FFFFFF" d="M1325.273,666.83c0.753,1.23-2.283,2.577-4.114,2.743
			C1322.109,668.238,1324.323,668.166,1325.273,666.83z"/>
		<path fill-rule="evenodd" clip-rule="evenodd" fill="#FFFFFF" d="M742.002,668.658c-1.502,1.829-6.086,1.517-8.684,0.915
			C734.77,668.376,738.824,669.217,742.002,668.658z"/>
		<path fill-rule="evenodd" clip-rule="evenodd" fill="#FFFFFF" d="M747.512,698.369c2.295-0.761,7.761-0.761,10.056,0
			C756.843,698.618,748.535,698.51,747.512,698.369z"/>
		<path fill-rule="evenodd" clip-rule="evenodd" fill="#FFFFFF" d="M644.21,700.198c-0.634,1.043-3.182,0.171-4.571,0.457
			C640.321,698.639,642.329,700.665,644.21,700.198z"/>
		<path fill-rule="evenodd" clip-rule="evenodd" fill="#FFFFFF" d="M921.664,708.425c1.685-0.604,5.482,0.602,7.77,0.915
			C927.746,709.947,923.635,709.054,921.664,708.425z"/>
		<path fill-rule="evenodd" clip-rule="evenodd" fill="#FFFFFF" d="M1142.437,790.243c-2.339,0.655-6.391-0.915-9.599-0.913
			C1134.778,788.268,1139.62,789.163,1142.437,790.243z"/>
		<path fill-rule="evenodd" clip-rule="evenodd" d="M1175.347,792.073c-1.709,0.875-8.397-1.169-4.113-0.915
			C1172.567,791.239,1174.326,792.243,1175.347,792.073z"/>
		<path fill-rule="evenodd" clip-rule="evenodd" fill="#FFFFFF" d="M1249.853,803.043c3.23-0.483,10.777-1.336,13.255,0.456
			C1259.408,802.631,1254.26,803.206,1249.853,803.043z"/>
		<path fill-rule="evenodd" clip-rule="evenodd" d="M521.71,519.191c0.774,1.821,5.254-0.183,9.6,0.457
			c-0.069-0.845-1.548-0.28-1.829-0.914c58.313,2.209,122.78,6.576,180.551,5.484c1.808,0.077-0.146-0.702,0.914-1.371
			c3.943,2.69,9.179,0.21,14.628,0c2.316-0.09,4.493,0.896,6.855,0.914c8.427,0.065,17.384-0.866,26.511-0.914
			c13.024-0.068,26.404,2.144,38.396,1.829c15.579-0.409,31.343,0.418,46.165,0c-0.788,1.344-4.696-0.432-5.485,0.913
			c17.462,2.177,38.16,0.344,57.594-0.913c6.65-0.431,13.748-1.564,19.655-0.458c2.596,0.487,9.488,0.505,15.083,0.458
			c-0.335-0.428-0.831-0.693-1.37-0.915c4.063-0.242,8.837,0.101,13.713-0.914c1.556-0.487-1.273-0.142-0.458-1.372
			c9.745-0.767,18.097-2.928,24.227-7.313c0.128,0.738-0.433,0.787-0.458,1.371c9.816-4.499,15.588-12.416,25.14-17.827
			c6.107-3.458,11.645-8.649,17.37-12.797c11.564-8.379,23.306-16.558,35.652-24.227c1.77-0.306,1.627-0.002,2.743-0.457
			c13.221-9.873,34.117-17.534,55.765-14.627c-0.073,0.536-0.833,0.386-1.371,0.458c1.117,0.79,4.054-0.5,6.398,0
			c-0.051-1.168-1.529-0.908-2.742-0.916c24.012,2.393,46.797-6.703,68.564-9.141c6.632,2.685,18.329,2.078,23.768,8.228
			c9.523,0.634,17.427,7.597,26.97,7.771c4.888,0.089,9.479-2.105,15.082-0.914c-5.06-0.836,3.536-1.408,5.485-1.372
			c8.888,0.17,22.254,4.644,25.598,10.514c-3.173,8.042-4.248,17.602-9.142,22.855c-0.541-3.121-3.207,4.146-5.484,5.027
			c-3.947-1.588-6.912,3.47-11.429,4.113c0,0.915,0,1.828,0,2.743c-0.62-0.142-0.379-1.145-0.457-1.828
			c-11.302,4.586-26.121,6.534-38.853,7.313c0.073-0.535,0.834-0.385,1.372-0.457c-10.18-1.107-21.312-2.617-29.254-4.57
			c0.46-1.781,1.573-0.071,3.199-0.457c-0.24-1.74-2.692-1.27-4.57-1.371c-1.56,0.311,1.97-1.084,3.199-0.915
			c-0.243-2.041-1.375-3.195-0.914-5.941c2.896-0.154,2.199,3.284,3.199,5.027c9.479,5.598,24.607,5.158,37.481,4.114
			c-0.113,0.495-0.909,0.31-0.914,0.914c7.151-1.658,7.387-1.45,13.712-3.199c-0.412,0.958-2.579,0.162-2.742,1.371
			c3.346-0.232,7.342-2.007,10.057-1.371c9.667-7.397,24.521-9.609,27.426-23.769c-1.486-2.443,1.06-4.538-0.457-7.771
			c-1.643-0.41-6.129,0.262-8.229,0.914c0.073-0.535,0.833-0.386,1.372-0.457c-12.372-1.673-29.778-0.943-39.767-6.856
			c-0.672-1.078-0.966-0.851-0.458-2.284c-6.049-1.569-10.9-4.336-17.369-5.485c-2.843-2.494-8.201-4.898-12.342-4.571
			c-1.187-1.606-5.735-3.26-8.685-4.571c0.511,2.69,1.667,4.733,1.372,8.228c-0.805-2.852-1.982-5.331-2.743-8.228
			c-1.548-0.128-2.624-0.728-4.57-0.456c0.173,2.721,1.941,3.848,1.371,7.313c-1.713-2.098-2.489-5.13-3.657-7.771
			c-13.38,1.867-24.432,3.509-35.195,8.229c-1.481-0.269-0.854-0.961-1.372-1.372c-8.401,2.691-22.441,2.965-30.167,2.285
			c1.239,1.047,4.055,0.517,5.484,1.371c-11.93-0.113-19.935-2.168-32.453-0.914c1.082,1.052,4.103,0.164,5.942,0.458
			c-1.869,0.879-8.646,0.796-11.885,1.827c0.341,1.031,2.564,0.179,3.657,0.457c-14.24,2.063-22.777,9.829-33.825,15.085
			c2.838,1.891,6.939-2.373,10.514-2.743c-16.102,6.905-30.206,15.81-43.425,25.598c6.926-7.551,19.53-13.381,27.884-21.025
			c-22.765,14.563-44.337,30.32-62.622,49.365c2.658-6.182,10.501-11.136,15.084-16.913c-5.588,3.48-10.77,8.683-13.712,12.342
			c-4.525,5.624-11.371,9.6-14.627,18.284c-0.646-6.134,5.375-9.556,8.228-13.713c-4.152,0.04-6.856,2.892-10.514,4.113
			c-1.551,0.518-3.324,0.119-5.028,0.457c-6.813,1.35-11.819,8.707-23.312,4.57c-1.005,2.278-6.357,2.366-8.684,1.829
			c0.192-1.026,2.425-0.013,2.742-0.914c-4.762-1.292-7.481,0.757-11.884-0.458c0.195,1.022,2.252,0.186,3.199,0.458
			c-15.42,1.902-37.674,0.469-55.765,2.285c-15.739,1.58-32.7-2.843-46.167-2.285c-20.596,0.852-40.178-2.084-62.621-2.286
			c-5.644-0.051-11.177,0.647-16.912,0.915c-34.251,1.593-69.738,2.538-104.673,0.913c-12.834-0.597-26.062,0.737-38.853,0
			c-10.28-0.591-19.812,0.233-31.996-0.457c-14.273-0.809-461.038-11.429-478.396-9.908c-7.952,0.696-16.386,2.6-24.226,0.456
			c-0.248-0.067,1.598-0.882,1.829-0.456c-1.102-2.033-142.973,1.191-144.218-1.3c1.332-1.378,139.813-0.468,143.304-0.985
			c-49.103,8.506-41.352,0.914,5.028,0.914c3.233,0,6.041,0.099,8.228,0C79.509,513.911,518.617,520.323,521.71,519.191z
			 M1189.06,441.485c0.147-1.693-3.264-2.19-4.113-1.37C1186.626,440.263,1187.476,441.241,1189.06,441.485z M1217.857,451.084
			c-1.613,0.057-5.432-1.932-5.028-0.915C1214.034,450.661,1216.555,452.206,1217.857,451.084z M1221.057,453.827
			c6.265,3.691,16.099,6.271,25.597,6.398c6.188,0.082,13.463-0.062,18.283-2.743
			C1256.617,447.097,1236.123,453.215,1221.057,453.827z M1261.738,460.683c2.179-0.519,3.297,0.356,4.571-1.37
			C1264.904,459.603,1261.306,460.073,1261.738,460.683z M1187.69,495.879c-1.818,0.142-2.297-1.057-4.114-0.914
			C1183.658,496.28,1186.9,496.785,1187.69,495.879z M1196.831,497.706c1.711-0.606,3.16,1.363,4.114,0
			C1200.027,497.565,1196.018,496.651,1196.831,497.706z M1208.716,498.164c-6.092,0.072,1.622,1.042,4.571-0.458
			C1211.802,497.243,1210.17,498.148,1208.716,498.164z M532.223,521.019c18.315,1.779,33.182,3.796,50.737,1.828
			C567.989,521.869,546.994,520.484,532.223,521.019z M583.417,523.304c1.093-0.277,3.316,0.574,3.657-0.457
			C585.8,522.303,584.292,522.324,583.417,523.304z M575.19,524.676c7.256,1.101,15.024-0.171,20.112,0.457
			c-1.898-0.063-0.092-0.3,0-0.915c13.833,0.286,31.52,1.261,43.881,0.458C618.592,523.457,594.123,522.283,575.19,524.676z
			 M646.038,525.133c3.59,0.184,1.496-0.817-0.914-0.457c-1.689,0.291-4.553-0.593-5.485,0.457
			C642.421,525.433,642.834,525.688,646.038,525.133z M939.032,524.676c-4.906,0.472-3.038,1.251,2.744,0.913
			c0.006-0.753,1.267-0.256,1.37-0.913C941.483,524.757,940.194,524.565,939.032,524.676z M894.695,526.046
			c5.362-0.964,12.117,1.961,15.084-0.913C905.375,525.485,896.935,524.737,894.695,526.046z"/>
		<path fill-rule="evenodd" clip-rule="evenodd" fill="#FFFFFF" d="M1212.829,450.169c-0.403-1.017,3.415,0.972,5.028,0.915
			C1216.555,452.206,1214.034,450.661,1212.829,450.169z"/>
		<path fill-rule="evenodd" clip-rule="evenodd" fill="#FFFFFF" d="M1266.309,459.313c-1.274,1.727-2.393,0.852-4.571,1.37
			C1261.306,460.073,1264.904,459.603,1266.309,459.313z"/>
		<path fill-rule="evenodd" clip-rule="evenodd" d="M1324.816,609.238c1.897-0.999,4.465-1.325,5.485-3.2
			c-1.904,0.229-2.668,1.599-4.571,1.829c6.382-4.59,13.739-8.202,19.655-13.256c-0.121-5.517,5.094-9.056,5.485-14.627
			c0.088-1.255-0.655-2.765-0.457-4.114c0.219-1.503,2.014-3.634,2.284-5.484c0.191-1.301-0.801-2.056-0.456-3.2
			c0.785-2.613,3.194-4.787,1.828-7.771c-6.38-8.123-16.157-13.013-22.854-17.369c-0.535,0.073-0.386,0.834-0.457,1.371
			c-1.173-0.047-0.734-1.704-1.371-2.285c-16.479-5.453-33.874-7.474-53.938-9.6c0.863,0.813,1.847,1.506,3.657,1.372
			c-23.048-4.373-51.328-7.681-79.076-4.571c-2.003-0.333,0.368,0.908-0.914,0.914c-6.151-0.949-13.428,0.463-19.655,0.915
			c-0.523-2.068-3.391-1.789-5.941-1.829c-3.333-1.543-8.356-1.396-11.885-2.743c4.187,3.28,11.009,3.923,15.541,6.857
			c-4.961-0.681-11.9-3.335-16.913-5.485c-1.228,1.281,1.715,0.973,2.286,1.828c-0.44,1.132-1.755-0.63-3.2,0
			c-1.423,1.318-0.086,5.397-2.742,5.485c0.622-1.206,0.54-3.116,0.914-4.571c-7.517,8.736-7.423,25.806-9.142,37.481
			c-1.937,13.155-6.191,26.796-10.97,38.396c-2.623,6.366-7.303,11.575-11.885,17.369c-4.246,5.37-8.734,11.134-13.256,15.542
			c-12.548,12.232-29.55,18.813-44.795,25.597c2.907-3.645,8.795-4.31,13.256-6.399c-7.159,0.765-14.715,5.091-22.397,6.856
			c10.154-6.231,23.525-6.324,32.91-13.255c5.508-4.067,10.973-9.014,16.455-13.715c5.286-4.529,12.24-8.636,15.999-13.712
			c2.071-2.798,2.403-6.711,5.485-8.685c6.691-16.023,16.653-33.404,18.74-54.851c1.094-11.236,2.357-22.57,7.313-31.082
			c0.877-0.951,2.915-0.741,3.2-2.285c-10.662-6.064-19.889-5.121-27.426-14.17c-8.725,7.658-13.245,13.591-19.654,21.939
			c0.198,0.68,0.584-0.179,1.37,0c-5.095,6.276-8.766,14.448-16.912,18.741c7.629-7.913,13.654-17.428,19.197-27.426
			c5.295-4.608,11.395-8.413,14.628-15.084c-4.48-1.306-11.218-1.477-15.085-4.57c4.336-1.384,11.994,2.035,16.456,2.286
			c11.758-4.852,23.928-9.287,35.653-14.171c-1.758,2.995-8.831,3.321-10.971,7.313c-1.247,0.334-0.921-0.907-1.828-0.913
			c-7.097,3.72-15.649,5.986-22.854,9.599c0.47,2.882,3.57,3.133,6.399,3.656c5.667,4.135,14.266,6.648,23.312,8.685
			c9.054,2.04,15.754,3.104,26.511,3.657c10.355,0.531,23.232-2.144,36.11-2.743c16.304-0.758,32.026,2.485,47.537,4.114
			c0.129,0.738-0.433,0.787-0.457,1.371c22.287,3.394,45.938,3.109,63.992,12.799c5.857,3.143,10.476,7.576,15.999,11.885
			c2.55,1.988,4.786,2.242,5.485,6.398c0.535-0.073,0.385-0.833,0.456-1.371c3.593,9.073-3.592,17.429-3.657,26.054
			c-0.62-0.142-0.379-1.144-0.456-1.828c-1.385,1.205-0.789,4.393-0.915,6.856c-1.415-0.825-0.244-1.4-0.456-3.2
			c-2.13,4.118-3.262,9.234-7.314,11.428c1.026,1.126,0.848,1.323,2.743,0.914c-7.035,3.517-14.847,10.241-21.026,10.514
			c1.778,4.796,6.66,10.387,9.142,15.997c-0.938,7.202,3.629,11.986,2.742,20.57c0.976,0.213,0.871-0.653,0.915-1.372
			c3.911,3.276-4.226,9.813-2.743,11.885c-4.187,0.895-3.339,7.43-7.771,9.598c-0.128-0.737,0.433-0.787,0.457-1.37
			c-2.456,8.346-20.044,5.146-21.482,15.998c-2.744-2.467,1.82-4.646,1.828-7.313c6.699-6.333,16.727-6.52,21.483-14.626
			c-1.61-1.133-2.002,2.857-4.571,2.283c5.313-5.453,11.589-7.354,10.513-18.282c-1.152-11.707-4.957-24.457-10.97-30.625
			C1321.61,609.921,1324.816,609.238,1324.816,609.238z M1133.296,514.162c3.829,3.483,8.988,5.639,14.627,7.313
			C1144.207,518.181,1137.17,515.777,1133.296,514.162z M1161.178,524.676c-2.992-1.889-8.424-3.762-11.885-3.657
			C1152.858,522.442,1157.188,525.16,1161.178,524.676z M1251.224,526.961c-15.416-1.126-33.903-3.53-47.08-0.457
			c19.873-1.55,37.966,0.288,58.508,1.828C1259.791,526.037,1255.213,527.252,1251.224,526.961z M1190.888,527.875
			c-3.352,0-6.704,0-10.056,0C1182.616,529.925,1188.385,528.978,1190.888,527.875z M1269.965,528.332
			c-1.709,0.606-3.159-1.363-4.112,0C1267.112,528.174,1269.062,529.644,1269.965,528.332z M1273.622,530.618
			c-1.931,0.103-2.952-0.705-4.57-0.915C1269.042,531.139,1274.463,531.321,1273.622,530.618z M1351.785,577.698
			c-0.021,0.627,2.231-6.519,2.285-7.313C1352.602,572.117,1351.568,574.281,1351.785,577.698z M1142.437,587.754
			c0.656-3.007,3.659-6.084,2.286-9.599C1145.004,582.099,1141.467,584.642,1142.437,587.754z M1140.153,593.697
			c0.313-0.955,2.219-4.931,0.456-1.829c-0.8,1.407-2.806,4.531-2.286,7.771C1138.736,597.854,1139.495,595.693,1140.153,593.697z
			 M1340.358,601.467c0.999-0.677,2.459-0.893,3.198-1.829C1342.013,599.49,1339.829,601.056,1340.358,601.467z M1136.038,604.209
			c-2.49,4.977-6.764,10.604-8.228,15.084C1131.021,615.322,1135.708,608.019,1136.038,604.209z M1093.072,651.29
			c8.442-4.205,16.589-11.142,21.026-17.827C1107.5,639.512,1099.065,646.158,1093.072,651.29z M1321.159,669.573
			c1.831-0.166,4.867-1.513,4.114-2.743C1324.323,668.166,1322.109,668.238,1321.159,669.573z"/>
		<path fill-rule="evenodd" clip-rule="evenodd" d="M1120.497,510.048c2.076-0.844,2.294,4.097,4.571,4.572
			c-0.316,1.14-1.219-0.849-2.286-0.458C1122.701,512.111,1121.92,510.759,1120.497,510.048z"/>
		<path fill-rule="evenodd" clip-rule="evenodd" fill="#FFFFFF" d="M1269.052,529.703c1.618,0.21,2.64,1.018,4.57,0.915
			C1274.463,531.321,1269.042,531.139,1269.052,529.703z"/>
		<path fill-rule="evenodd" clip-rule="evenodd" d="M-85.82,633.625c15.607-2.223,517.088-24.521,533.456-26.217
			c5.695-0.589,11.051,0,16.456-0.913c2.338-1.775,6.871-1.357,10.055-2.286c-0.438-10.479-0.007-19.111-0.457-31.083
			c1.939-0.019,0.566,3.271,0.457,4.114c1.531-1.82,1.467-5.238,2.286-7.77c2.909-0.319,3.016,2.163,4.571,3.199
			c2.115-1.237,3.676-3.029,5.027-5.028c2.209,0.534,1.597,3.888,2.743,5.484c2.61-1.198,2.652-4.966,5.486-5.941
			c1.229,1.512,1.641,3.845,3.199,5.028c3.29-0.824,3.011-5.217,5.485-6.857c2.082,0.661,2.152,3.334,2.743,5.485
			c3.442-0.977,3.857-4.979,6.856-6.398c0.61,1.675,1.081,3.489,1.371,5.485c2.362-0.229,1.972-3.209,4.114-3.657
			c0.072,1.577-1.841,4.766-4.114,5.485c-1.699-0.587-1.67-2.902-2.285-4.571c-2.073,1.431-3.003,4.006-5.028,5.485
			c-0.407-0.355-1.033-0.491-1.829-0.457c-1.302-1.46-0.974-3.074-1.371-4.571c-2.766,1.196-2.27,5.654-5.028,6.856
			c1.073,18.618,4.808,37.2,10.056,53.023c-2.77-2.311-3.324-6.739-4.571-10.514c-3.052-9.24-4.882-21.678-6.399-33.825
			c-0.771-6.177,0.768-10.581-3.657-13.712c-1.94,1.259-2.178,4.221-4.571,5.027c-1.676-0.609-2.573-1.999-2.743-4.113
			c-1.794,0.796-2.792,2.388-4.113,3.656c-2.707,0.116-3.421-1.76-4.571-3.2c-2.656,7.334-2.291,22.898-2.286,32.911
			c0.2,0.562,0.585,0.939,1.371,0.913c-2.527,11.484,0.548,24.963,0.458,37.024c0.562-0.198,0.938-0.585,0.914-1.37
			c0.302,5.68,0.73,11.082,2.286,17.369c1.403-1.035,1.152-3.724,2.743-4.571c2.297-0.011,1.167,3.405,2.742,4.114
			c0.97-1.468,1.392-3.484,2.743-4.571c2.234,0.661,2.737,3.053,3.657,5.028c1.795-0.644,1.148-3.728,3.2-4.114
			c1.683,0.756,1.737,3.139,3.199,4.114c1.556-1.796,2.221-4.483,3.657-6.398c1.522,1.066,2.492,2.687,3.2,4.569
			c1.534-1.664,2.089-4.311,3.657-5.941c1.783,0.503,1.018,3.554,2.286,4.57c0.988-1.906,1.426-4.363,1.828-6.856
			c0.854,2.844,0.44,8.357-1.828,9.6c-1.841-0.597-1.75-3.126-2.286-5.028c-2.273,1.078-0.935,5.769-3.657,6.398
			c-2.127-0.615-0.958-4.526-3.2-5.027c-1.656,1.545-1.061,5.338-3.657,5.942c-1.254-0.879-2.408-1.858-2.742-3.657
			c-2.124,0.162-1.4,3.171-3.2,3.657c-1.236-1.507-2.591-2.894-3.2-5.028c-2.52,0.528-1.241,4.854-3.657,5.485
			c-1.556-1.112-1.826-3.551-2.285-4.571c-1.502,1.547-1.146,4.949-3.657,5.485c-1.875,0.21,0.186-0.976-0.457-2.286
			c-4.382-9.882-5.766-27.217-6.399-42.052c-16.711,1.414-35.214,0.325-52.108,3.2c-0.83,0.141-1.855,1.235-2.743,1.371
			c-7.165,1.094-499.271,26.988-504.168,29.598l-0.066-2.373c27.259-2.837,535.627-32.974,559.543-34.08
			c-0.581-3.641,1.988-9.197-1.372-8.229c0.355,0.103,0.902,0.013,0.915,0.458c-24.689,2.88-532.921,27.654-559.053,29.416V633.625z
			 M403.299,610.609c4.259-0.312,8.853-0.289,11.884-1.828C411.209,609.031,407.208,609.299,403.299,610.609z"/>
		<path fill-rule="evenodd" clip-rule="evenodd" fill="#FFFFFF" d="M1354.07,570.385c-0.054,0.795-2.307,7.94-2.285,7.313
			C1351.568,574.281,1352.602,572.117,1354.07,570.385z"/>
		<path fill-rule="evenodd" clip-rule="evenodd" d="M672.981,607.408c-0.977,1.528-0.393,2.236-0.914,3.656
			c1.289-0.538,1.391-2.266,1.828-3.656c-1.411-2.021-2.738,1.098-3.656,0.458c8.326-6.924,28.173-4.738,44.337-3.657
			c10.509,0.703,22.53,5.366,28.34,10.514c0.261,2.634,2.351,3.438,3.656,5.027c0.806,5.596,5.284,9.949,4.114,15.998
			c4.929,1.814,10.582,10.568,3.657,13.712c0.204,7.488,2.169,13.558-1.829,17.828c-5.924,1.055-10.976,4.706-16.913,4.112
			c-7.257-0.724-10.205-8.199-10.97-16.455c-0.765-1.521-2.323-2.246-2.742-4.113c6.757-16.196-7.525-23.514-21.026-25.141
			c-8.887,0.999-21.558-1.818-30.624-3.656c0.359-2.189-1.515-2.142-1.372-4.114c-10.748-0.433-23.203-3.103-32.453-0.913
			c-1.265,0.077-1.569-0.702-0.914-1.372c-1.12,0.404-1.677,1.371-3.657,0.914c0.551,8.691-1.242,18.276-0.913,28.797
			c-2.803-5.367-1.04-12.98-0.915-18.74c0.196-9.008-0.532-19.037,0.915-27.426c-2.68-7.279-3.183-19.721-7.313-26.968
			c-7.825,4.484-2.987,17.039-0.457,27.425c1.774,7.288,4.231,14.423,4.113,21.483c-3.315-13.348-8.521-29.496-9.142-42.51
			c-1.146-1.291-1.979-2.896-2.743-4.57c-1.821,0.932-1.816,5.052-4.57,3.657c2.335,25.851,11.91,44.463,16.455,68.106
			c-3.979-13.54-11.216-31.689-15.083-48.452c-1.558-6.744-0.421-12.476-2.286-18.741c-1.838-6.171-3.663-1.308-6.856,0.457
			c-1.569-0.929-4.003-3.565-2.286-5.027c2.282-0.302,1.783,2.178,2.742,3.199c2.287-0.762,2.177-3.919,4.571-4.57
			c1.082,1.051,2.377,1.89,2.743,3.657c2.698-0.807,2.953-4.056,5.941-4.571c0.834,0.994,0.44,3.217,1.829,3.656
			c2.569-0.781,2.552-4.151,5.485-4.571c2.363,0.075,1.209,3.666,2.742,4.571c1.842,0.146,2.573-3.188,3.656-2.286
			c-0.081,2.205-1.565,3.007-3.656,3.201c0.009,2.183,1.616,4.55,2.285,7.313c0.745,3.076-0.184,8.303,3.199,7.771
			c0.915-0.796-1.834-1.795-1.828-3.198c2.537,1.583,2.124-3.224,3.2-4.572c0.715,7.742-0.292,12.152,0.457,19.197
			c-3.165-1.283-0.444,3.151-1.829,5.029c6.413,0.328,14.403-1.025,22.855-0.458C663.392,607.961,668.813,611.462,672.981,607.408z
			 M632.3,600.552c1.405,0.7,1.405-2.984,0-2.285C632.3,599.03,632.3,599.79,632.3,600.552z M747.944,633.006
			c-0.834-2.868-1.073-6.651-1.829-9.143c-3.529-11.643-15.495-16.414-27.425-18.283c-12.446-1.95-28.311-2.13-37.938,0.457
			c-0.292-0.997,1.295-1.454-0.458-1.372c-3.08,0.233-1.853,3.648-4.112,1.83c-2.413,4.085-4.984,6.387-3.658,12.34
			c11.69,5.964,29.41,3.746,41.596,8.687c2.545,1.031,3.896,3.748,6.856,3.198c1.597,4.345,5.786,6.098,7.314,10.514
			c-0.187,0.881-1.773,0.36-1.372,1.828c6.24,4.199,16.522,0.452,21.482-2.285C749.817,637.289,748.665,635.483,747.944,633.006z
			 M632.3,609.238c-0.516,1.829,0.412,3.065-0.457,5.028c12.113,0.088,25.054,0.407,37.481,2.284c1.008-1.821-0.291-3.109,0-5.485
			C656.904,609.883,646.441,607.708,632.3,609.238z M694.465,624.779c-1.523-0.585-6.757-1.908-6.856-0.915
			C690.194,623.574,692.636,625.827,694.465,624.779z M725.547,643.062c0.411,4.187-3.317,6.341-0.458,9.142
			c3.294,3.227,24.621,0.955,28.797-4.571c3.336-4.412,0.983-9.121-3.199-9.598C749.32,646.225,731.629,648.158,725.547,643.062z
			 M726.461,654.489c2.639,4.688,0.536,11.685,5.942,13.256c7.203,2.095,13.899-2.232,18.74-3.199
			c0.912-3.616,3.174-10.39,0.915-14.17C744.675,654.417,736.368,655.114,726.461,654.489z M742.459,669.115
			c2.005-0.595,6.937-0.668,5.941-2.743C746.849,667.716,743.748,667.511,742.459,669.115z M733.318,669.573
			c2.598,0.602,7.182,0.914,8.684-0.915C738.824,669.217,734.77,668.376,733.318,669.573z"/>
		<path fill-rule="evenodd" clip-rule="evenodd" d="M962.344,623.406c-1.792,2.476-3.226,5.307-2.742,10.057
			c-0.784-6.434,1.663-14.896-0.457-23.313c-1.314,3.104,0.016,10.767-0.456,15.999c-3.117-9.444,0.67-24.6-1.83-37.025
			c-0.979-4.873-0.735-13.084,4.114-16.454c0.353,8.477-3.665,19.164-1.371,28.34c0.333,2.002-0.908-0.369-0.913,0.914
			c1.057,6.713,2.513,13.027,2.284,21.025C960.89,624.703,961.347,623.116,962.344,623.406z M957.316,586.839
			c0.606-0.939,0.866-4.588,0-5.484C957.491,583.075,955.991,585.485,957.316,586.839z"/>
		<path fill-rule="evenodd" clip-rule="evenodd" fill="#FFFFFF" d="M1343.556,599.638c-0.739,0.937-2.199,1.152-3.198,1.829
			C1339.829,601.056,1342.013,599.49,1343.556,599.638z"/>
		<path fill-rule="evenodd" clip-rule="evenodd" fill="#FFFFFF" d="M687.608,623.864c0.1-0.993,5.333,0.33,6.856,0.915
			C692.636,625.827,690.194,623.574,687.608,623.864z"/>
		<path fill-rule="evenodd" clip-rule="evenodd" d="M1273.622,740.879c16.046-7.571,36.565-10.666,49.822-21.026
			c1.732-6.812,3.743-13.444,1.829-20.569c-3.852-2.823-9.22-13.398-16.912-11.427c-0.226-1.488-1.046-2.696-2.14-3.598
			c-2.905-3.442-0.059-2.779-0.059-2.779c0.636,0.571,1.107,1.161,1.284,1.806c0.864-0.812,3.019-0.333,4.57-0.456
			c6.342,4.932,12.894,9.657,15.998,17.825c-0.878,5.921-0.1,14.349-1.828,21.026c-0.535-0.074-0.386-0.833-0.457-1.371
			c-7.858,9.668-27.595,10.222-38.853,18.74c-3.304-0.353-7.651,1.023-11.428,2.743c3.636,5.964,10.35,8.849,15.541,13.256
			c-1.074,1.538,0.608,4.88,0.458,7.77c-1.374,0.461-0.81-1.018-0.914-1.828c-2.383,6.76-3.088,15.197-6.4,21.026
			c-0.339,2.07,1.255-0.699,0.915,1.371c-7.515,6.496-6.998,15.342-16.455,18.284c0.16-0.602,0.805-0.72,0.914-1.372
			c-1.252-0.48-3.278,1.546-1.372,1.372c-0.961,1.011-4.738-0.448-4.57,2.742c-20.937-1.445-41.441-3.572-63.078-4.114
			c2.626-1.585,9.974-0.798,13.713-0.456c-25.14-4.651-49.807-5.825-76.791-6.399c-2.023,0.071,0.215-1.293-0.915-1.829
			c-12.166-2.766-27.422-2.44-38.395-6.399c-7.585-0.389-18.519-1.292-26.055-2.743c-27.152-5.226-54.602-15.343-72.677-27.424
			c-3.062,0.013-4.145-1.951-7.313-1.829c-10.613-7.519-21.014-15.249-28.34-26.055c0.225-4.337-2.482-5.745-3.199-9.142
			c-0.62,0.142-0.379,1.145-0.457,1.829c-0.679-0.389-0.983-1.151-0.915-2.285c-1.669-3.029-4.739-2.314-7.771-2.742
			c-15.117-2.142-34.307-5.529-53.479-6.4c-8.709-0.396-18.721-0.616-26.054-1.371c-12.961-1.334-25.299-3.411-37.481-2.285
			c-14.102-3.045-27.45-2.448-42.509-3.656c-1.329,0.397-0.515,0.684-0.457,1.828c-1.375,0.46-0.811-1.019-0.915-1.828
			c-2.47-0.292-4.555,0.507-5.941,0c0.782-1.047,3.488-0.168,5.028-0.458c-5.86-1.3-12.888-1.434-19.656-1.827
			c0.563,1.57,3.6,0.667,5.028,1.37c-1.579,1.308-4.373-0.86-5.485,0.915c-1.291,0.073-1.063-1.374-2.285-1.372
			c-22.911,0.873-45.595-0.116-71.763,1.372c-5.464,0.311-11.286,1.921-15.084,1.371c-2.898-0.421-9.06-0.056-13.713-0.458
			c-5.619-0.484-10.758,1.522-15.998,1.371c-2.533-0.072-4.797-1.556-7.313-1.827c-5.538-0.602-11.27,0.194-16.913,0.456
			c-24.48,1.139-50.901-2.843-77.248,0.915c0.113-0.496,0.909-0.311,0.914-0.915c-13.726-0.081-24.953,1.313-37.938,2.743
			c-1.468-0.402-0.626,1.507-1.828,1.37c-6.571-1.142-592.552,11.745-599.436,14.409c1.073-5.175,140.357-4.813,145.132-5.101
			c8.827-0.529,451.305-11.979,460.704-12.507c9.676-0.543,20.06-1.865,31.082-2.286c27.486-1.048,58.222-3.054,84.561-1.827
			c10.227,0.476,18.505,2.36,28.797,0.456c27.503,2.659,56.529-1.398,83.648,0c-0.774-2.382-4.282-0.229-7.313-0.914
			c20.986-4.603,44.021,1.828,66.277,1.828c15.146,0,29.718,0.485,42.968,2.743c-0.076-0.536-0.835-0.386-1.372-0.457
			c13.836-0.892,29.291,4.026,47.537,4.114c-2.113-1.393-5.968-1.041-8.685-1.829c10.479,0.179,25.195,2.608,36.109,3.656
			c-0.139-2.146-3.348-1.222-4.57-2.286c6.623,0.702,17.908,2.187,25.14,5.028c2.003,0.334-0.368-0.907,0.915-0.913
			c4.164,2.844,11.618,2.397,16.912,4.114c-1.281-4.387-3.967-12.146-1.372-17.37c-0.307,3.81,1.104,5.904,1.372,9.141
			c1.231-1.114-0.651-2.979,0-5.026c0.622,2.272,2.299,3.491,1.828,6.855c0.62-0.142,0.379-1.145,0.456-1.829
			c1.246,2.32,1.711,10.093,3.2,9.143c0.156,2.074,0.986,4.732,1.828,7.314c-0.601-0.162-0.719-0.806-1.371-0.915
			c1.727,7.873,8.401,10.797,11.885,16.913c-1.492,0.119-1.32-1.422-2.285-1.829c2.101,2.477,6.796,7.479,11.426,9.143
			c2.773,4.426,7.7,5.57,12.343,7.771c6.561,3.108,12.766,7.954,19.654,10.97c4.462,1.954,9.956,3.102,15.084,5.028
			c14.172,5.323,30.367,9.693,46.623,12.341c13.994,2.279,27.634,3.986,43.423,5.028c2.792,0.184,4.553,0.489,6.4,0
			c-0.531-2.301-3.106,0.289-5.028-0.457c8.035-2.955,19.35,1.724,26.512,4.114c-0.641,1.34-4.388-0.428-5.028,0.913
			c16.089,2.377,46.044,0.629,64.449,5.942c2.07,0.341-0.699-1.255,1.372-0.914c18.334,2.456,49.238,10.143,63.078-2.742
			c-0.345-0.906-2.567,1.534-3.657,0c0.278-1.855,3.142-1.124,4.57-1.828c3.793-3.674,6.155-8.778,7.314-15.085
			c2.066,1.919-0.957,5.83-1.828,7.771c4.291-4.557,7.173-16.885,5.484-27.425c-1.158,1.188,0.642,3.297,0,5.484
			c-0.591-5.046-2.932-8.343-5.028-11.885c-2.184,0.218-2.594-0.193-1.371-1.371c-0.917-0.154-1.431,0.095-1.371,0.915
			c0.346-2.691-2.289-4.049-4.571-4.113c0.074-0.535,0.834-0.386,1.371-0.457c-0.165-0.941-0.809-1.27-1.563-1.531
			C1270.499,743.201,1273.622,740.879,1273.622,740.879z M1315.218,686.485c-1.424-0.572-3.255-3.122-4.57-2.285
			C1312.142,684.699,1313.874,687.351,1315.218,686.485z M1324.36,697.455c-0.509-1.93-1.405-3.472-2.743-4.571
			C1322.579,694.36,1322.503,696.873,1324.36,697.455z M1132.839,789.33c3.208-0.002,7.26,1.568,9.599,0.913
			C1139.62,789.163,1134.778,788.268,1132.839,789.33z M1263.108,803.499c-2.478-1.792-10.024-0.939-13.255-0.456
			C1254.26,803.206,1259.408,802.631,1263.108,803.499z M757.568,698.369c-2.295-0.761-7.761-0.761-10.056,0
			C748.535,698.51,756.843,698.618,757.568,698.369z M582.96,699.74c-1.455,0.63,1.615,0.452,2.286,0.457
			c16.61-0.251,36.39,1.339,53.937,0C621.728,697.845,603.398,699.76,582.96,699.74z M958.688,709.34
			c-0.5-1.329-0.429-3.229-1.372-4.114C957.271,706.818,958.169,709.828,958.688,709.34z M929.433,709.34
			c-2.287-0.313-6.085-1.52-7.77-0.915C923.635,709.054,927.746,709.947,929.433,709.34z"/>
		<path fill-rule="evenodd" clip-rule="evenodd" fill="#FFFFFF" d="M1310.647,684.199c1.315-0.837,3.146,1.713,4.57,2.285
			C1313.874,687.351,1312.142,684.699,1310.647,684.199z"/>
		<path fill-rule="evenodd" clip-rule="evenodd" fill="#FFFFFF" d="M1321.617,692.884c1.338,1.1,2.234,2.642,2.743,4.571
			C1322.503,696.873,1322.579,694.36,1321.617,692.884z"/>
		<path fill-rule="evenodd" clip-rule="evenodd" fill="#FFFFFF" d="M957.316,705.226c0.943,0.885,0.872,2.785,1.372,4.114
			C958.169,709.828,957.271,706.818,957.316,705.226z"/>
		<path fill-rule="evenodd" clip-rule="evenodd" d="M997.54,755.962c0.986-1.249,2.251,1.071,3.2,1.372
			C1000.171,758.166,998.405,756.347,997.54,755.962z"/>
		<path fill-rule="evenodd" clip-rule="evenodd" d="M1150.666,789.787c-0.346-0.949,3.575,1.133,5.027,1.371
			c4.413,0.906-3.375-0.196-4.114,0.457C1152.527,790.708,1151.092,790.57,1150.666,789.787z"/>
		<path fill-rule="evenodd" clip-rule="evenodd" d="M594.819,613.351c1.16-0.361-1.286-1.599,0-2.286
			c-1.857-1.085-3.926,0.33-5.485-0.456c-0.252-1.014,0.873-0.65,0.914-1.371c-6.451-0.088-9.947,0.138-17.826,0.457
			c2.174-1.215-0.391-1.644-2.285-1.372c-0.95,0.118-0.125,2.009-0.915,2.286c-0.948-0.117-0.124-2.008-0.914-2.286
			c-10.096-0.228-21.316,0.006-31.539-0.914c0.297,0.465,1.051,0.473,0.915,1.372c-4.177-2.098-11.601,1.524-16.913,0
			c-0.215-0.063,0.737-0.462,0.914-0.458c-0.944-0.02-3.265,0.891-4.114,0c2.57-3.149,8.011-2.699,10.513-1.371
			c10.493-0.328,25.686-1.609,40.681-0.456c3.543,0.271,7.157,2.195,10.513,2.285c5.438,0.144,10.127-2.651,15.085-1.372
			c2.087-10.554-1.227-24.003,4.57-31.081c2.687,0.435,0.654,1.807,0.915,3.198c4.266,22.865,13.791,46.603,19.197,69.479
			c0.009,0.809,2.156-0.729,2.742,0.456c-0.32,1.998,0.777,2.575,0.457,4.572c2.57-0.479,0.973-5.123,3.657-5.485
			c2.136,1.517,2.415,5.381,1.827,7.313c3.515-1.149,1.789-4.952,2.743-8.228c2.229,3.419,0.97,8.104-1.828,10.057
			c-2.337-0.862-2.019-4.38-3.199-6.398c-0.775,1.51-1.03,3.54-2.742,4.112c-2.272-0.166-2.211-2.665-3.2-4.112
			c-0.948,1.185-1.242,3.022-2.743,3.655c-1.817-0.468-2.868-1.702-3.656-3.199c-0.518,1.615-1.812,2.454-2.742,3.656
			c-1.632-0.5-2.699-1.567-3.199-3.199c-1.103,0.879-1.815,2.147-2.743,3.199c-1.774-0.053-1.414-2.241-3.2-2.285
			c-0.457,0.687-0.559,4.245-2.742,4.571c-1.909-2.019-2.828-6.127-3.199-8.685c-1.387-9.527,0.299-18.333-0.457-31.083
			c-19.052-4.145-41.417,0.847-55.308-4.57c-1.262,0.109-1.043,1.7-1.828,2.285c-4.056-0.263-13.924-0.783-21.484,0.914
			c-0.374,12.767-0.384,27.328-0.914,35.196c-3.206-11.357-0.278-22.375-0.915-32.453c-0.489-7.753-1.313-15.712,0.457-22.854
			c-0.296-0.775-1.051-0.286-0.914,0.456c-1.01-0.056-0.194-1.938-0.457-2.741c0.465,0.296,0.473,1.051,1.371,0.913
			c-1.696-7.048,0.958-17.821,3.657-25.596c-1.146,13.228-0.589,31.117-1.829,44.795c1.686,0.595,5.989-0.946,8.228,0
			c1.64-0.603,0.144-1.502,0.915-2.743c-0.19,3.272,5.082,2.502,8.685,3.2c0.215-2.959-4.261-1.225-5.942-2.286
			c6.758-1.475,14.833-0.231,22.854,0.914c7.132,1.019,14.584-0.092,21.94,0.456c7.195,0.537,14.372,1.645,21.483,1.829
			C595.197,614.552,593.788,612.278,594.819,613.351z M597.104,600.552c3.859,13.054,10.89,25.372,12.341,39.31
			c-3.343-12.807-8.75-23.549-12.341-36.109c0.432,3.022-1.198,5.435,0.914,6.398c-0.719,0.045-1.585-0.061-1.371,0.914
			c0.143,13.71,7.948,24.545,8.228,37.939c-3.715-7.104-4.538-17.098-7.771-24.684c0.431,9.574-1.313,21.121,2.286,30.625
			c1.069-1.52,1.197-3.98,3.199-4.57c1.433,0.09,0.057,2.99,1.828,2.742c1.204-1.233,0.557-4.319,3.2-4.113
			c1.426,0.707,0.52,3.746,2.742,3.656c1.462-1.127,0.441-4.738,3.656-4.113c1.432,1.158,0.774,4.405,3.199,4.57
			c0.536-0.684,0.568-1.869,1.372-2.285c-7.171-22.846-13.719-46.312-19.655-70.392C598,587.831,597.971,593.502,597.104,600.552z
			 M590.705,609.695c1.382-0.142,3.555,0.507,3.657-0.914C592.979,608.922,590.806,608.273,590.705,609.695z"/>
	</g>
</g>
</svg>
