<?xml version="1.0" encoding="utf-8"?>
<!-- Generator: Adobe Illustrator 15.1.0, SVG Export Plug-In . SVG Version: 6.00 Build 0)  -->
<!DOCTYPE svg PUBLIC "-//W3C//DTD SVG 1.1//EN" "http://www.w3.org/Graphics/SVG/1.1/DTD/svg11.dtd">
<svg version="1.1" id="圖層_1" xmlns="http://www.w3.org/2000/svg" xmlns:xlink="http://www.w3.org/1999/xlink" x="0px" y="0px"
	 width="206.748px" height="368.039px" viewBox="15.695 416.98 206.748 368.039"
	 enable-background="new 15.695 416.98 206.748 368.039" xml:space="preserve">
<g>
	<g>
		<path fill="#97CCEB" d="M125.346,540.344c-1.125,0.541-2.543,0.617-3.937,1.176c-8.979-0.868,0.738,2.526-8.333,1.749
			c0.82-0.059,1.068,0.454,0.913,1.371c-8.092-1.242-17.174-2.176-22.854,1.829c-3.289,6.021-9.427,11.896-7.313,20.568
			c0.069-1.137,1.548-0.134,1.828,0c0.286,3.677,4.075,3.848,5.942,5.941c14.551,2.75,24.534,7.389,41.139,8.228
			c3.091,2.909,7.005,0.999,10.97,0.916c4.582-0.099,9.77,1.882,15.084,2.284c12.573,0.954,22.876,2.563,31.996,5.485
			c-0.067-1.135-0.085-2.218,0.915-2.285c5.872-3.27,11.258-7.025,16.911-10.514c0-0.151,0-0.305,0-0.457
			c2.697-8.121,3.148-18.487,8.229-24.226c-0.523-3.418,0.483-5.307,1.828-6.856c-1.021-0.197-0.186-2.253-0.456-3.199
			c0.102-0.865-0.517-1.009-0.459-1.828c-1.837,0.755-0.981-1.523-1.827-3.2c-3.994-3.167-7.092-7.23-12.799-8.685
			c0-0.457,0-0.914,0-1.371c-1.698-0.282-5.233-4.15-6.933-4.434c-8.689-1.734-61.009-12.616-70.844-14.204
			C125.346,508.633,125.346,526.77,125.346,540.344z M125.346,779.353c0,0.729-0.039,1.028,0,1.714
			c3.196-2.29,7.206-3.945,10.584-6.054c0.459-0.001,0.544,0.37,0.915,0.457c-0.918-0.931-0.12-1.218,0.456-1.828
			c0.026-0.279,0.068-0.541,0.457-0.457c2.2-2.372,5.037-4.105,7.313-6.399c0-0.151,0-0.306,0-0.458
			c0.916-2.588,2.207-4.801,2.286-8.227c1.457-0.271,1.413,0.857,2.285,0c0.367-2.223,0.394-4.788,1.828-5.942
			c-0.002-0.458,0.371-0.544,0.457-0.914c-1.879,0.203-0.416-2.388,0-2.742c0-0.458,0-0.914,0-1.372
			c-1.82-5.082-2.159-14.244-9.142-15.541c-0.377-1.291,0.645-1.185,0.457-2.285c-2.621-0.96-3.955-1.315-4.571-3.2
			c-1.595-1.451-4.853-1.241-5.027-4.113c-15.312-4.974-36.312-11.273-54.394-14.627c-6.886-1.277-14.298-2.692-20.112-1.828
			c-11.286,1.677-11.02,15.415-4.57,21.483c-0.089-4.98-3.433-15.127,1.37-19.198c4.131-0.473,9.681,2.682,10.514,0
			c1.641-0.269,0.013,2.729,1.829,2.285c8.492,1.187,15.782,7.309,14.169,15.998c-2.278,12.275-19.34,3.336-27.425,0.915
			c1.188,3.135,8.178,7.215,11.884,4.57c0.387,3.31,4.421,1.688,6.856,3.657c0.137,0.898-0.617,0.906-0.914,1.371
			c8.426,1.63,16.033,4.078,21.025,9.142c8.926,2.931,22.002,6.003,31.528,5.886L125.346,779.353z M108.505,733.874
			c-2.592-2.796-0.681-9.265-1.371-12.342C111.568,722.144,109.992,731.197,108.505,733.874z M130.626,693.568 M140.5,582.461
			l-3.361,1.726c0,0-18.416,1.25-20.583,1.833s-10.54,1.724-10.54,1.724H91.721l-17.083,0.574h-7.75l-11.5-1.548l-9.333,2.435
			l-4.667,2.232l-3.25,4.25l-1.75,4.855l0.75,6.728l1.083,7.417l3.667,7.083l6.167,3.667l12.75,1.666l13.917,1.334l11.667,0.5
			l8.833,1.166l30.083,3.334l0.042,16.323h-4.313l-12.91-2.365l-18.402-1.563l-17.625-1l-18.625-3.938l-23,3.125l-6.75,3.75
			l-4,6.313l1.938,10.375l7.645,8.762l8.23,3.559l12.188,2.617l15.125,2.375l22.313,4.063l26.396,9.104l11.583,2.167l0.208,20.612
			l-16.208-6.194l-20.25-3.669l-3.75,1.167l3.75,6.5c0,0,16.958,23.125,17.458,23.125s12.723,3.125,12.723,3.125l6.902,6.5
			l13.125-9.875l0.125-15.5l5-3.336l6.25-0.664l11.671-5.874l20.829-7.876l6.875-5.125l1.146-12.646l-1.658-8.077l-3.863-5.62
			l-5.279-4.781l-3.971-2.25l-3.75-1.82l-1.125-1.68l0.425-2.635l2.825-5.49l13.653-6.875l7.222-8.754l2.375-3.121l3.75-6.625
			l-1.296-9.563l-2.204-13.187l-3.76-7.054l-5.24-8.196l1.685-1.753l-0.935-15.247l-25-1.375
			C164.846,573.27,140.653,572.778,140.5,582.461z"/>
		<path fill-rule="evenodd" clip-rule="evenodd" fill="#FCF27E" d="M119.475,560.638c0.682,4.495-3.285,8.292-8.229,8.685
			c-2.313-0.372-2.306-0.237-3.656,0.915c-3.505,0-7.008,0-10.513,0c-2.173,0.191-3.297-0.666-5.027-0.915c0-0.457,0-0.914,0-1.371
			c-2.339-4.388-2.24-14.749,2.285-16.455c2.438,0,4.876,0,7.313,0c4.584,0.977,9,0.404,11.885,2.285
			c0.013,0.444,0.56,0.355,0.914,0.458C116.242,556.253,118.854,557.45,119.475,560.638z"/>
		<path fill-rule="evenodd" clip-rule="evenodd" fill="#FCF27E" d="M54.111,653.428c4.231,1.708,7.925,5.233,7.313,9.598
			c-0.637,4.54-7.376,6.742-12.342,7.313c-2.437,0-4.874,0-7.313,0c-1.597-0.231-3.451-0.205-4.571-0.914
			c-3.87-1.92-3.623-7.956-3.656-13.713c0.539-2.356,2.058-3.73,3.2-5.485c0.864-0.81,3.018-0.332,4.57-0.457
			c2.392-0.105,3.546,1.024,5.027,1.829C48.372,652.551,51.193,652.43,54.111,653.428z"/>
		<path fill-rule="evenodd" clip-rule="evenodd" fill="#FCF27E" d="M77.88,717.876c0.263,1.87,2.444,1.822,2.286,4.114
			c0.317,3.061-0.663,4.822-2.286,5.942c-0.629-0.02-1.004,0.215-1.37,0.457c-2.146-0.666-3.139,1.049-6.4,0.457
			c-1.093-0.277-3.315,0.574-3.656-0.457c-0.846-0.679-2.172-0.876-3.656-0.914c-2.203-1.149-5.023-1.682-5.943-4.114
			c0.489-1.707-1.134-1.303-0.914-2.742c-0.372-4.639,0.379-8.154,3.2-9.599c1.418,0.047,1.305-1.438,3.199-0.915
			c1.641-0.269,2.211,0.531,3.2,0.915C69.878,713.08,74.857,714.5,77.88,717.876z"/>
		<path fill-rule="evenodd" clip-rule="evenodd" fill="#F87CBA" d="M76.052,602.69c0.219,2.524,1.816,3.671,2.743,5.485
			c-1.481,1.462-0.477,3.12-0.457,5.485c-3.899,7.856-16.003,5.907-26.055,5.027c-4.466-5.086-3.167-14.797-0.458-21.94
			C61.46,597.171,68.553,600.132,76.052,602.69z"/>
	</g>
	<g>
		<path fill-rule="evenodd" clip-rule="evenodd" fill="#FFFFFF" d="M130.827,509.124c0.953-1.363,2.403,0.606,4.112,0
			C134.037,510.436,132.087,508.966,130.827,509.124z"/>
		<path fill-rule="evenodd" clip-rule="evenodd" d="M171.051,521.009c-2.987,2.193-3.156,7.205-6.4,9.141
			C165.499,526.288,167.515,519.187,171.051,521.009z"/>
		<path fill-rule="evenodd" clip-rule="evenodd" d="M133.111,549.804c3.611,2.353,2.622,13.877,0.458,14.628
			C134.109,558.709,132.704,554.074,133.111,549.804z"/>
		<path fill-rule="evenodd" clip-rule="evenodd" fill="#FFFFFF" d="M95.174,587.743c1.743,0.911,4.788,0.285,7.771,0.457
			c2.515,0.145,2.344,0.554-2.286,0.914C99.044,589.24,96.041,589.493,95.174,587.743z"/>
		<path fill-rule="evenodd" clip-rule="evenodd" d="M49.465,594.599c7.82-0.694,16.432,2.11,22.854,4.114
			c10.47,3.27,10.784,19.5-1.371,22.855c3.387-1.639-3.279-0.481-4.571,0c0.142,0.62,1.145,0.379,1.829,0.457
			c-2.837,1.054-7.588,0.703-11.429,1.828c1.514-1.382,4.452-1.338,6.4-2.285c-6.077-0.324-11.545-1.255-14.627-4.571
			C47.176,609.175,46.977,599.729,49.465,594.599z M49.922,614.255c-0.208-0.148,0.135-1.597,0.457-1.372
			c-0.324,2.762,1.499,3.378,1.828,5.484c10.052,0.88,22.155,2.83,26.055-5.026c-0.184-2.631-0.919-4.832,0.457-5.486
			c-0.927-1.814-2.524-2.961-2.743-5.484c-7.498-2.558-14.592-5.52-24.227-5.942C51.463,599.528,46.25,611.626,49.922,614.255z"/>
		<path fill-rule="evenodd" clip-rule="evenodd" d="M106.143,600.542c5.684,1.65,3.633,13.196,1.829,17.369
			c-2.382-3.271,1.307-10.352-1.829-13.256c1.247-0.332,0.919,0.909,1.829,0.915C108.168,603.225,105.397,601.98,106.143,600.542z"
			/>
		<path fill-rule="evenodd" clip-rule="evenodd" d="M32.094,669.106c-0.06-7.975-2.187-14.865,0-22.854
			c2.615,0.346,3.156,0.209,4.114,0.457c2.004,0.518,6.791-0.043,9.142,0.456c8.482,1.804,21.916,9.797,16.912,19.656
			C58.733,673.775,40.685,673.659,32.094,669.106z M61.348,662.706c1.171-5.939-7.842-12.303-14.169-10.97
			c-2.638-1.781-5.756-3.083-10.513-2.743c-0.653,2.699-2.417,4.288-3.658,6.399c-0.168,5.358,0.313,10.356,1.372,13.256
			C43.593,671.797,59.667,671.239,61.348,662.706z"/>
		<path fill-rule="evenodd" clip-rule="evenodd" fill="#FFFFFF" d="M190.248,647.622c0.753,1.23-2.283,2.577-4.114,2.743
			C187.084,649.03,189.298,648.958,190.248,647.622z"/>
		<path fill-rule="evenodd" clip-rule="evenodd" d="M91.516,656.307c4.675,3.979,2.265,13.176-0.457,17.369
			C91.516,669.279,93.171,660.611,91.516,656.307z"/>
		<path fill-rule="evenodd" clip-rule="evenodd" fill="#FFFFFF" d="M27.524,671.849c0.713-1.265,2.244,0.454,2.285,1.37
			C28.374,673.436,28.602,671.99,27.524,671.849z"/>
		<path fill-rule="evenodd" clip-rule="evenodd" d="M107.057,721.671c4.421,1.2,1.781,7.923,1.371,11.884
			C106.343,730.24,108.86,725.031,107.057,721.671z"/>
		<path fill-rule="evenodd" clip-rule="evenodd" d="M173.89,514.843c9.153,1.563,17.831,3.879,25.499,7.994
			c5.857,3.143,10.476,7.576,15.999,11.885c2.55,1.988,4.786,2.242,5.485,6.398c0.535-0.073,0.385-0.833,0.456-1.371
			c3.593,9.073-3.592,17.429-3.657,26.054c-0.62-0.142-0.379-1.144-0.456-1.828c-1.385,1.205-0.789,4.393-0.915,6.856
			c-1.415-0.825-0.244-1.4-0.456-3.2c-2.13,4.118-3.262,9.234-7.314,11.428c1.026,1.126,0.848,1.323,2.743,0.914
			c-7.035,3.517-14.847,10.241-21.026,10.514c1.778,4.796,6.66,10.387,9.142,15.997c-0.938,7.202,3.629,11.986,2.742,20.57
			c0.976,0.213,0.871-0.653,0.915-1.372c3.911,3.276-4.226,9.813-2.743,11.885c-4.187,0.895-3.339,7.43-7.771,9.598
			c-0.128-0.737,0.433-0.787,0.457-1.37c-2.456,8.346-20.044,5.146-21.482,15.998c-2.744-2.467,1.82-4.646,1.828-7.313
			c6.699-6.333,16.727-6.52,21.483-14.626c-1.61-1.133-2.002,2.857-4.571,2.283c5.313-5.453,11.589-7.354,10.513-18.282
			c-1.152-11.707-4.957-24.457-10.97-30.625c-1.2-0.933-3.619-0.647-3.657-2.742c-4.523-0.549-9.436-4.127-12.341-2.286
			c-1.47,0.402-0.626-1.506-1.829-1.371c-8.673,1.316-23.252-4.567-32.91-0.914c-6.364-1.396-17.886-0.361-23.769,2.285
			c-5.212-1.449-11,2.349-16.912,2.286c-3.21-0.034-7.979-2.345-10.056,0c-4.043-1.111-8.666-0.942-13.713-0.457
			c-6.256,0.601-12.055-2.479-17.827-2.286c-4.73,0.159-8.782,2.495-13.255,3.199c-2.887,1.686-4.333,4.809-6.399,7.314
			c1.056,5.426,1.402,12.133,2.286,16.454c0.073,0.536,0.832,0.387,1.371,0.458c2.85,12.984,16.919,10.788,31.996,11.428
			c20.162,0.854,38.935,4.955,58.965,5.485c6.8,0.178,12.136,4.9,19.197,6.398c1.479,0.564,0.35-1.479,1.828-0.914
			c-0.979,2.574,3.418,2.713,5.942,3.199c-0.723-1.867-4.9-0.279-5.027-2.742c2.627,0.157,5.034,2.497,6.399,2.742
			c0.823,0.148,2.05-0.977,3.199-0.457c0.372,0.169-1.337,0.69-1.372,0.457c0.092,0.625,4.68,1.057,2.742,2.286
			c-10.396-1.793-22.511-1.867-29.253-7.314c-9.108-1.575-16.504-1.945-24.683-2.285c-0.748-0.333-1.989,0.908-0.915,0.914
			c-1.639-1.459-10.275-0.467-15.083-1.371c5.247-1.103-10.701-3.881-13.256-4.114c-1.953-0.178-4.253,0.917-4.571,0.915
			c-2.886-0.022-5.994-1.493-9.142-1.372c-6.323,0.245-16.902-0.407-21.94-2.742c-1.368,0.301,0.438,0.978,0,1.828
			c-10.072-6.241-15.506-27.824-4.57-37.938c5.212-1.031,9.158-4.667,14.17-4.571c1.421,0.026,1.306,0.959,2.742,1.371
			c5.367,1.543,13.546,0.545,19.197,0.915c3.362,0.219,5.406,0.737,8.686,0.456c0.747,0.334,1.988-0.908,0.914-0.914
			c3.77-0.115,20.107,1.142,22.854-1.372c0.13,0.739-0.432,0.787-0.457,1.372c4.875-1.372,9.711-2.784,15.542-3.2
			c-13.03-3.514-24.646-5.632-37.024-9.598c-1.503-1.546-2.698-3.396-4.114-5.027c-0.228,3.432,4.894,5.463,6.856,8.227
			c-6.801-3.207-10.58-9.024-10.513-17.37c0.93,0.441,0.987,1.756,0.914,3.2c1.006-14.535,9.313-21.769,22.854-23.769
			c0,0,0.774-1.163,1.371-0.457c0.541,0.831,2.383,0.36,3.199,0.914c-0.149-0.622,0.003-0.801,0.457-2.742
			c1.646,0.075,0.027,2.365,0.914,3.199c11.213,0.996,18.278,0.024,27.883-1.371c-0.486-1.037-2.873-0.174-4.113-0.458
			c15.035-1.802,28.862-9.428,43.423-8.684c-2.79,2.269-5.903,1.641-9.599,2.285c-9.506,1.658-18.563,5.907-27.882,7.771
			c0.068,0.845,1.547,0.28,1.827,0.914c-8.871-0.047-21.364,2.949-29.253,1.371c-0.874,0.184,1.021,1.364,1.828,1.371
			c-8.494-0.205-18.122-2.274-24.682,3.657c2.37,1.646-1.49,2.726-2.743,4.57c-0.967,1.423-0.761,3.338-1.372,4.571
			c-0.08,0.163-0.64-0.693-0.457-0.914c-2.567,3.098-1.723,8.248-0.914,12.341c0.536-0.074,0.387-0.833,0.458-1.37
			c1.138,3.279,4.624,4.211,6.398,6.855c14.902,2.122,25.715,8.047,41.595,7.771c2.4,3.376,5.856,1.529,10.971,1.371
			c4.913-0.152,10.119,1.851,15.084,2.285c11.087,0.968,22.146,1.815,31.539,5.485c1.897-0.999,4.465-1.325,5.485-3.2
			c-1.904,0.229-2.668,1.599-4.571,1.829c6.382-4.59,13.739-8.202,19.655-13.256c-0.121-5.517,5.094-9.056,5.485-14.627
			c0.088-1.255-0.655-2.765-0.457-4.114c0.219-1.503,2.014-3.634,2.284-5.484c0.191-1.301-0.801-2.056-0.456-3.2
			c0.785-2.613,3.194-4.787,1.828-7.771c-6.38-8.123-16.157-13.013-22.854-17.369c-0.535,0.073-0.386,0.834-0.457,1.371
			c-1.173-0.047-0.734-1.704-1.371-2.285c-6.967-2.306-14.097-3.997-21.523-5.343c0,0-0.477,0.002,0.055-1.107
			S173.727,514.815,173.89,514.843z M216.76,558.49c-0.021,0.627,2.231-6.519,2.285-7.313
			C217.577,552.909,216.543,555.073,216.76,558.49z M205.333,582.259c0.999-0.677,2.459-0.893,3.198-1.829
			C206.988,580.282,204.803,581.848,205.333,582.259z M100.658,589.115c4.63-0.36,4.801-0.77,2.286-0.914
			c-2.982-0.172-6.027,0.454-7.771-0.457C96.041,589.493,99.044,589.24,100.658,589.115z M145.453,638.481
			c-1.07-0.626-3.821-1.941-5.028-0.914C141.907,637.641,146.085,639.27,145.453,638.481z M186.134,650.365
			c1.831-0.166,4.867-1.513,4.114-2.743C189.298,648.958,187.084,649.03,186.134,650.365z"/>
		<path fill-rule="evenodd" clip-rule="evenodd" d="M89.232,566.718c-1.143,0.732,0.313,2.695,1.37,2.742
			c-6.009-1.073-3.061-17.255,0.457-20.112c12.304,0.122,28.437-0.592,30.168,9.6c2.259,13.292-16.929,15.385-29.253,11.884
			C92.401,573.023,89.822,567.914,89.232,566.718z M91.974,569.004c10.53,2.729,27.463,2.172,27.882-7.771
			c0.44-10.438-17.052-10.937-27.426-9.6C88.375,555.728,89.045,564.089,91.974,569.004z"/>
		<path fill-rule="evenodd" clip-rule="evenodd" fill="#FFFFFF" d="M219.045,551.177c-0.054,0.795-2.307,7.94-2.285,7.313
			C216.543,555.073,217.577,552.909,219.045,551.177z"/>
		<path fill-rule="evenodd" clip-rule="evenodd" fill="#FFFFFF" d="M208.531,580.43c-0.739,0.937-2.199,1.152-3.198,1.829
			C204.803,581.848,206.988,580.282,208.531,580.43z"/>
		<path fill-rule="evenodd" clip-rule="evenodd" fill="#FFFFFF" d="M140.425,637.567c1.207-1.027,3.958,0.288,5.028,0.914
			C146.085,639.27,141.907,637.641,140.425,637.567z"/>
		<path fill-rule="evenodd" clip-rule="evenodd" d="M108.428,752.295c-6.687-2.454-13.544-4.738-20.111-7.313
			c0,0-1.211-0.606-3.2-2.284c-13.442-5.908-30.969-7.731-37.024-21.026c-1.665-8.535,1.547-17.541,10.057-18.74
			c4.729-0.668,10.547,1.588,15.998,2.284c11.963,1.528,25.182,1.836,33.367,5.028c1.407,0.341,0.879-1.255,2.285-0.914
			c5.645,2.981,12.284,7.412,18.741,6.857c3.192,1.986,6.499,3.86,10.056,5.484c16.046-7.571,36.565-10.666,49.822-21.026
			c1.732-6.812,3.743-13.444,1.829-20.569c-3.852-2.823-9.22-13.398-16.912-11.427c-0.562-3.698-4.794-5.669-7.771-5.486
			c-0.35-1.732-1.176-3.495-3.2-2.284c-0.271-1.459,0.858-1.413,0-2.285c-0.531,0.074-0.813-0.102-0.914-0.457
			c-7.975-4.956-18.854-5.119-30.167-6.399c-8.756-0.991-17.806-3.323-26.97-4.572c-6.704-0.913-13.883-0.05-21.025-0.456
			c-12.483-0.711-24.668-4.856-34.282-5.028c-11.413-0.203-19.819,4.554-26.968,8.686c-5.954,12.124,4.625,18.449,11.428,23.311
			c15.431,5.309,31.51,5.925,47.537,9.6c15.318,3.512,29.188,10.918,44.337,11.885c5.376,0.342,8.87,0.408,13.256,1.827
			c-1.085,4.875-11.135-0.921-12.341,2.286c-1.565-1.916-11.013-1.052-13.713-4.572c-2.153,0.007-2.595-0.839-2.743,0.459
			c-1.864-1.184-3.866-2.229-6.399-2.743h-1.828c-14.01-6.146-31.935-9.483-49.823-11.428c-7.203-0.783-14.791-2.033-20.567-5.484
			c0,0-1.157,0.069-1.829-0.458c-4.143-4.846-9.273-8.705-10.513-16.454c-1.37,0.301,0.437,0.977,0,1.827
			c-2.583-3.29,0.542-7.702,0.914-10.97c6.733-3.322,11.947-10.601,21.483-9.598c1.216-0.004,1.166-1.272,1.828-1.829
			c7.083,0.036,15.598,2.3,21.94,4.571c1.808,0.077-0.146-0.702,0.914-1.372c0.882,2.979,8.321,1.58,11.884,3.199
			c0.704-0.241,0.029-0.477-0.457-0.456c2.942,0.183,6.012-0.048,9.143,0c12.19,0.188,25.811,4.587,38.852,5.027
			c14.377,0.486,28.554,2.537,39.31,7.771c1.712,3.057,7.07,4.754,7.771,7.313c0.864-0.812,3.019-0.333,4.57-0.456
			c6.342,4.932,12.894,9.657,15.998,17.825c-0.878,5.921-0.1,14.349-1.828,21.026c-0.535-0.074-0.386-0.833-0.457-1.371
			c-7.858,9.668-27.595,10.222-38.853,18.74c-3.304-0.353-7.651,1.023-11.428,2.743c3.636,5.964,10.35,8.849,15.541,13.256
			c-1.074,1.538,0.608,4.88,0.458,7.77c-1.374,0.461-0.81-1.018-0.914-1.828c-2.383,6.76-3.088,15.197-6.4,21.026
			c-0.339,2.07,1.255-0.699,0.915,1.371c-7.515,6.496-6.998,15.342-16.455,18.284c0.16-0.602,0.805-0.72,0.914-1.372
			c-1.252-0.48-3.278,1.546-1.372,1.372c-0.941,0.99-4.587-0.391-4.575,2.555h-3.189c0,0-3.662-2.446,1.341-4.176
			c5.01-1.066,9.43-2.989,12.824-6.149c-0.345-0.906-2.567,1.534-3.657,0c0.278-1.855,3.142-1.124,4.57-1.828
			c3.793-3.674,6.155-8.778,7.314-15.085c2.066,1.919-0.957,5.83-1.828,7.771c4.291-4.557,7.173-16.885,5.484-27.425
			c-1.158,1.188,0.642,3.297,0,5.484c-0.591-5.046-2.932-8.343-5.028-11.885c-2.184,0.218-2.594-0.193-1.371-1.371
			c-0.917-0.154-1.431,0.095-1.371,0.915c0.346-2.691-2.289-4.049-4.571-4.113c0.074-0.535,0.834-0.386,1.371-0.457
			c-0.375-2.142-3.142-1.386-4.57-2.286c-0.43-0.271,0.673-1.155,0.457-1.371c-0.36-0.36-1.598,0.271-1.372,0.456
			c-1.202-0.992-0.711-1.859-1.37-2.285c-2.639-1.703-6.499-1.61-8.229-2.743c-0.191-0.125-0.869-2.313-1.827-0.456
			c-1.559-1.394-8.853-1.212-9.143-3.656c-1.582,1.248-3.27-0.452-5.485,0c-2.786-3.038-13.324-3.216-24.226-5.941
			c-10.184-2.549-37.651-10.072-35.195,9.141c0.892,6.979,5.829,10.931,10.971,14.628c1.916-1.04,2.964,0.797,5.027,0.913
			c0.514-0.413-0.029-1.022,0.914-1.828c0.21,2.629,3.525,2.905,7.313,3.657c-1.007,1.27-3.258-0.064-4.571,0
			c7.846,3.886,19.342,4.122,24.226,10.97c9.688,2.417,19.783,7.259,27.883,5.028c1.102,1.567-3.687,0.964-2.742,2.742
			c-2.65-0.466-4.941-0.806-6.856-0.915C110.411,752.828,108.428,752.295,108.428,752.295z M180.192,667.277
			c-1.424-0.572-3.255-3.122-4.57-2.285C177.117,665.491,178.848,668.143,180.192,667.277z M29.809,673.219
			c-0.041-0.916-1.572-2.635-2.285-1.37C28.602,671.99,28.374,673.436,29.809,673.219z M33.467,674.591
			c-0.864-0.508-1.603-1.142-2.743-1.372C29.898,675.105,35.049,674.876,33.467,674.591z M189.335,678.247
			c-0.509-1.93-1.405-3.472-2.743-4.571C187.553,675.152,187.477,677.665,189.335,678.247z M42.608,677.333
			c-1.096-0.45-3.519-1.936-4.571-0.915C39.541,676.462,41.944,677.967,42.608,677.333z"/>
		<path fill-rule="evenodd" clip-rule="evenodd" fill="#FFFFFF" d="M175.622,664.991c1.315-0.837,3.146,1.713,4.57,2.285
			C178.848,668.143,177.117,665.491,175.622,664.991z"/>
		<path fill-rule="evenodd" clip-rule="evenodd" fill="#FFFFFF" d="M30.723,673.219c1.141,0.23,1.879,0.864,2.743,1.372
			C35.049,674.876,29.898,675.105,30.723,673.219z"/>
		<path fill-rule="evenodd" clip-rule="evenodd" fill="#FFFFFF" d="M186.592,673.676c1.338,1.1,2.234,2.642,2.743,4.571
			C187.477,677.665,187.553,675.152,186.592,673.676z"/>
		<path fill-rule="evenodd" clip-rule="evenodd" fill="#FFFFFF" d="M38.037,676.418c1.053-1.021,3.476,0.465,4.571,0.915
			C41.944,677.967,39.541,676.462,38.037,676.418z"/>
		<path fill-rule="evenodd" clip-rule="evenodd" d="M65.92,707.501c0.735-0.196,1.533,1.705,0.457,1.828
			c8.272,2.546,16.497,5.139,15.541,16.912c-5.39,11.142-18.278,1.85-27.425,0c0.861-3.943-2.682-13.311,0.914-18.284
			C59.153,707.016,66.476,711.346,65.92,707.501z M74.604,713.444c-0.898-0.138-0.906,0.617-1.371,0.914
			c-4.142-2.908-7.883-4.475-15.541-5.028c-2.47,3.05-3.504,11.462-0.915,16.455c2.649,0.921,15.755,5.471,18.741,2.742
			c-0.257,0.235-1.512-0.156-1.371-0.456C84.758,729.25,78.974,716.306,74.604,713.444z"/>
	</g>
</g>
</svg>
