<?xml version="1.0" encoding="utf-8"?>
<!-- Generator: Adobe Illustrator 21.1.0, SVG Export Plug-In . SVG Version: 6.00 Build 0)  -->
<svg version="1.1" id="圖層_1" xmlns="http://www.w3.org/2000/svg" xmlns:xlink="http://www.w3.org/1999/xlink" x="0px" y="0px"
	 viewBox="0 0 1618.6 368" style="enable-background:new 0 0 1618.6 368;" xml:space="preserve">
<style type="text/css">
	.st0{fill:#97CCEB;}
	.st1{fill:#FCF27E;}
	.st2{fill:#CECDBB;}
	.st3{fill:#F87CBA;}
	.st4{fill:#FFFFFF;}
</style>
<g>
	<g>
		<path class="st0" d="M1614.8,128.8c-1-0.2-0.2-2.3-0.5-3.2c0.1-0.9-0.5-1-0.5-1.8c-1.8,0.8-1-1.5-1.8-3.2c-4-3.2-7.1-7.2-12.8-8.7
			c0-0.5,0-0.9,0-1.4c-1.7-0.3-2.9-1.1-4.6-1.4c-9.4-1.9-19.5-6.5-30.2-7.8c-7.6-0.9-14.9-0.5-20.6-4.6c-1.4-0.9-4.6,0.1-5.9-0.9
			c0,0.5-0.4,0.5-0.5,0.9c1.7,0.3-3.1,0.9-5.5-0.9c-0.5,0-0.9,0-1.4,0c-0.5-0.1-1.3,0.1-1.4-0.5c-2.1,0.4-2.6-0.8-4.1-0.9
			c-1.8,1.2-5.3,0.1-7.3,0c-1.4-0.3-3.9,0.6-4.6-0.5c-2.4-0.9-7.1,0.4-8.7-1.4c-0.7-0.3-2.4,0.5-2.3-0.5c-1.2,0-2.6,0.2-3.2-0.5
			c0.4,1.7-3.4,1.1-3.2,0c-0.5,0-0.5-0.4-0.9-0.5c-0.3,2.1-3.2-0.6-4.6,0.9c-1.2,0-2.4,0-3.7,0c-2.1-1.2-4.8,0.9-6.9-0.5
			c-2.6,0-5.2,0-7.8,0c-1.5,1.4-7,1.2-8.7,0.9c-1.4,0.3-1.3-0.8-2.7-0.5c-0.1,0.8-0.8,1-1.8,0.9c0,0.5,0.7,0.7,0,0.9
			c-6.1,2.6-15.6,2.2-21,4.1c-4.9-2.3-10.1-1.4-14.2-4.6c-0.8,0.8-1.5-0.4-3.2,0c-0.5,2.2-2.2,1.5-2.7,1.4c-5.8,10.4-6,24.2-7.8,37
			c-2,14-7.3,26.2-11,37.9c-6.8,11.9-15.8,23.8-25.6,33.4c-12.2,11.8-27.9,18.2-44.8,25.6c-0.3-2.1,1.5-2.1,2.3-3.2
			c-4.1,0.5-7.8,3.8-11.4,3.2c9.3-6.6,20.8-6.6,29.7-11.4c6.1-3.3,12.5-9.3,17.8-14.2c5.6-5.1,15.2-10.9,18.3-16.5
			c5.9-10.6,11.8-21.4,16-33.4c0.9-2.6,2-5.3,2.7-7.8c5.4-17.4,3.9-43.4,14.6-54.4c-4.9-1.6-9.4-5.7-15.1-5c-4-3-8.4-5.6-12.3-8.7
			c-2.8,3.6-5.4,7.4-9.6,9.6c-2.2,3.9-4.7,7.5-7.8,10.5c0,0.8,0,1.5,0,2.3c-3.1,4-6.2,8.1-9.1,12.3c-3,1.1-4.2,6.5-7.8,5.5
			c7.2-8.5,13.5-17.9,19.2-27.9c5.2-4.4,11-8.2,14.2-14.6c-2.4-0.2-6.5-1.1-7.8-0.9c1.7,0.7,3.4,3.9,3.2,5c-2.9-0.4-2.9-3.8-4.1-5.9
			c-3.1-0.1-5.4-1-5.9-3.7c5.4-0.4,12.8,3,17.4,2.3c9.1-4,19.2-7,28.3-11c0-0.2,0-0.3,0-0.5c0.5-1.1,0.9-2.1,1.8-2.7
			c0.6,0.1,0.9,0.6,1.8,0.5c0.6,0,0.6,0.6,1.4,0.5c0.4-0.3,1.7-1.1,1.4,0.5c0.8,0,1.5,0,2.3,0c-1.2-2.1,4.1-2.7,5.9-1.8
			c1.2-0.1-0.6-0.8,0-1.8c1.8,0.3,1.4,0.3,3.2,0c-0.4-1.2-0.9-3.9,0-5c2.5,0.1,3,2.2,3.2,4.6c1.3,2.5,5.2,2.4,7.3,4.1
			c0.5,0,0.9,0,1.4,0c0.6-1.2,2-0.9,3.2-0.5c0.6,0.6,2,0.5,3.2,0.5c1.1,0,2.1,0,3.2,0c8.2,0.3,14,0.1,22.4,0c0,0.6-0.2,1-0.5,1.4
			c1.6-1.3,5.3-0.1,6.4-1.8c1-1.6,3.7-1.4,5.9-1.8c-0.2,0.8,0.4,0.9,0.9,0.9c0,0.2,0,0.3,0,0.5c0.7-0.1,1.7,0.2,1.8-0.5
			c-0.5-0.1-1.3,0.1-1.4-0.5c5.9-4.9,14-7.6,20.6-11.9c1.5-1.9,3.2-3.5,5-5c2.4-3.2,4.5-8.2,3.2-13.7c0-0.2,0-0.3,0-0.5
			c-0.2,0-0.3,0-0.5,0c-1.2,0.9-4,0.3-5,1.4c-1.6,0.7-0.3-1.6-1.4-1.4c-13.4,0.5-27.6-1.1-37.9-5.9c-0.8-2.7-3.6-3.4-6.4-4.1
			c-0.1-0.4,0.2-0.4,0.5-0.5c-0.6-0.7-1.6-0.9-2.7-0.9c-5.1-1-10-2.2-13.3-5c-0.4,0.3-0.7,0.8-0.9,1.4c-2.1-0.3-7.4-1.9-5.5-3.2
			c-2.8-1-5.6-2.1-7.8-3.7c-0.8,0-1.5,0-2.3,0c0,0.2,0,0.3,0,0.5c1.1,1.1,2,4.7,0.9,6.4c-1.5-2-2.2-4.8-2.7-7.8c-1,1-2.2-0.5-4.1,0
			c0.4,1.7,2.4,4.2,0.9,6.4c-2-1.1-2.4-3.7-3.2-5.9c0-0.3,0-0.6,0-0.9c-1.8,0-3.7,0-5.5,0c0-0.3,0-0.6,0-0.9
			c-0.9,0.5-2.2,0.6-3.2,0.9c-0.8,1-4.5,3.5-5.5,1.4c-1.5,1.3-2.9-0.1-4.6,0.9c-13.9,4.2-24.5,6.4-42.5,6.9
			c-0.7,0.1-0.2,1.4-0.9,1.4c-3.5-0.6-7.8-0.4-10.5-1.8c-0.5,0-0.9,0-1.4,0c-3.1,0.8-6.5,1.1-7.8-0.5c-0.2,0-0.3,0-0.5,0
			c0,0.2,0,0.3,0,0.5c-3,2.3-9.1,4-14.2,2.7c-0.6,0-1.2,0-1.8,0c0.1,1.7-2.4,0.6-3.2,1.4c-4.2,1.9-10.3,6.7-14.6,5.5
			c-2.5,1.4-5.3,2.6-7.3,4.6c-0.6,1.7-2.9,1.7-3.7,3.2c2.6-0.3,5.2-3,7.3-2.3c-3,3.4-7.6,3.8-11.4,5.5
			c-11.5,5.1-21.3,13.9-31.5,20.1c-0.9,0.1-0.9-0.6-1.4-0.9c-1.4,1-0.1,2-0.9,3.2c-1.6-0.2-1.1-1.3-2.7-0.5
			c-11,8.2-20.3,18.1-31.1,26.5c-0.4-1.4,2-2.3,0.9-2.7c-4.1,4.8-10.6,9.5-11.9,15.5c1.6-1.9,2.3-4.7,5.5-5c-3.4,5.9-8,10.5-11,16.9
			c-1.6-4.8,3.7-8.6,4.5-11.2c-0.3,0.4-1.2,0.3-1.3-0.2c0.2-6.2,6.5-8.7,7.3-12.8c-6.2,4.4-16.3,3.8-21.5,8.2c-0.2,0-0.3,0-0.5,0
			c-1.7,1.9-8.8,2.8-11.4,0.9c-1.1,0-2.1,0-3.2,0c-1.3,2.2-5.3,1.7-8.2,2.3c-1.2-0.2-0.8-2-1.8-2.3c-1.6,0.4-1.9-0.9-2.7,0
			c-1.7,2.4-5.6,1.3-8.2,1.4c-26.1,0.2-63.6,4.1-89.1-1.4c-2.8-0.7-5.5-0.1-8.2,0.5c-2.8,0-4.8,0.9-6.9-0.5c-1.4,0-2.7,0-4.1,0
			c-2,0.8-7.1,0.8-9.1,0c-3.8-0.3-8-0.2-11.4-0.9c-2.2,2-6.3,1.1-9.6,0.9c-1.1-0.3-2.1-0.7-3.7-0.5c-12.8,1.1-25.9,0-38.9,0.5
			c-0.8-0.6-2.7-0.1-3.2-0.9c-3.7,0.6-5.5,0.5-9.6,0.9c-2.1,0.8-7.5,0.8-9.6,0c-0.5,0-0.9,0-1.4,0c-20,2.7-37.6,0.7-55.8,0
			c-0.3,0-0.6,0-0.9,0c-8.2,2.1-18.3,0.6-27.4,0c-4.6-0.8-13.4-0.8-19.2,0c-2,1.1-8.7,1.7-10.5,0c-1.2,0-2.4,0-3.7,0
			c-2.4,0.8-8.1,0.8-10.5,0c-4.4,0-8.1-0.8-12.8-0.5c-1.1,1.3-4.9,1.3-5.9,0c-0.5,0-0.5-0.4-0.9-0.5c0,2-2-0.3-3.7,0.5
			c-12.5-1.4-27.8-1.3-40.7-4.1c-6.6,1.9-15.7,1.8-21,0c0-0.3-751.4-9.3-752.9-8.9c1.5,0,331.5,3.8,365.6,4.4
			c120.6,1.8,387.1,5,386.1,5.2c-0.4,0.1-0.5,0.5-0.9,0.5c-4,1.4-265.8-3.4-385.1-5.6C331.8,80.6,1.8,76.9,0.3,76.7H0.2L0,278.2
			l676.4-8.9l71.6-1.2c5.7,0.6,11.8,0.7,18-0.3c1.1-0.1,1.8,0.1,2.3,0.5c0,0.2,0,0.3,0,0.5c0.6,0,0.6-0.6,1.4-0.5
			c0.6-0.8,1.5-1.2,2.6-1.4l0,0c1.8-0.3,4.1,0.1,6.1,0c13.3-0.8,28.1-3.4,40.2-1.8c0.5,0,0.9,0,1.4,0c5.7-3.3,12.3-2.1,19.2-2.3
			c2.4-0.1,4.7-0.8,7.1-1.4l5.7,1.6l52.6-0.2h0.4c0.7,0.1,0.8,0.8,1.9,0.5c5.5,0.4,10.1-1.1,15.1,0c0.5,0,0.9,0,1.4,0
			c0.2,0,0.3,0,0.5,0c2,0,4,0,5.9,0c2.7,0,5.5,0,8.2,0c2,0,4,0,5.9,0c2.7,0,5.5,0,8.2,0c2.1,0,4.3,0,6.4,0c3.2,0.1,4.6-0.7,7.3,0
			c0.3,0.6,1.8,0.1,1.8,0.9c10.2-2.1,19.3-0.7,30.6-0.9c0.8,0,0.3-1.3,0.9-1.4c20.5-2.3,46,0.3,64.9,2.7c1.4,1.2,2-1,4.1-0.5
			c1.2-0.8,5.6-0.8,6.9,0c0.8,0,1.5,0,2.3,0c3.1-1.4,6.7,0.6,10.5,0c5-1.6,10.3,0.5,15.5,0c1.6-0.2,3.1-1,4.6-0.9
			c6.3,0.3,10.8,3.8,17.8,3.2c6.5-0.6,13.8-0.7,19.7,2.3c2.8-0.5,5.3,0.6,7.8,0.5c4.3-0.3,10.9,0.9,15.1,2.3c0.5,0,0.9,0,1.4,0
			c2.5-1.6,5.1,0.7,7.8,0.5c1.4-0.8-1.8-1.3,0-2.3c10.7,2.7,23.2,3.2,31.5,7.3c0.2,0,0.3,0,0.5,0c2.2-1.7,7.7-0.9,10.1,0
			c0-0.2,0-0.3,0-0.5c-2.5-2.6-3.3-11.5-1.4-15.5c1.5,0.2,0.7,2.6,0.9,4.1c5,2.4,3.4,11.5,7.3,15.1c-0.9,2.1,0.8,4.3,1.4,6.4
			c0.2,1.1-2.1-0.3-1.4,1.4c3.1,5.6,8,9.4,11.4,14.6c1.5,0.5,2,2,2.7,3.2c0.3,1.1,1.5,1.2,1.8,2.3c1.5,1.2,2.8,2.7,5,3.2
			c1.8,0.1,4.3,1.8,3.7,2.7c0.6,0.8,0.9,1.8,2.3,1.8c2.9,0,2.7,1.9,5,0.5c1.8,3.4,6.3,4.2,9.6,5.9c3.6,1.8,7.5,4.5,10.5,5.9
			c2.4-0.3,5.4,1.3,5,2.3c0.1,0.7,1.1,0.4,1.8,0.5c2-0.3,6.2,1.1,7.8,2.7c0.6,0.1,0.9,0.7,1.8,0.5c22.1,8.2,51.5,13.1,80,16.5
			c1.7,0.7,0.9-1.3,2.3-0.9c0.2,2.1,3.3,1.2,5.5,1.4c1.4,0.1-1.2-1.3,0.5-1.4c3.5,0.6,11.5-1.5,15.5,1.8c0.5,0,0.9,0,1.4,0
			c11-1.4,20.8,2.3,30.6,3.7c0.5,0.1,1.3-0.1,1.4,0.5c0.3,0,0.6,0,0.9,0c11.1-2.5,21.9,2.2,31.5,4.1c1,0.9,2.9,0.7,3.7,1.8
			c2-0.5,2.6,1.5,3.7,0.5c0.1-0.5-0.1-1.3,0.5-1.4c2.6-0.3,9.6,0.9,12.8,1.4c3.5,0.5,6.9,2.4,10.5,2.7c8.1,0.8,15.3-0.4,23.3,0.5
			c0.3,0,0.6,0,0.9,0c0.1-0.8,0.8-1,1.8-0.9c3.2-2.3,7.1-3.8,10.5-5.9c0.5,0,0.5,0.4,0.9,0.5c-0.9-0.9-0.1-1.2,0.5-1.8
			c0-0.3,0.1-0.5,0.5-0.5c2.2-2.4,5-4.1,7.3-6.4c0-0.2,0-0.3,0-0.5c0.9-2.6,2.2-4.8,2.3-8.2c1.5-0.3,1.4,0.9,2.3,0
			c0.4-2.2,0.4-4.8,1.8-5.9c0-0.5,0.4-0.5,0.5-0.9c-1.9,0.2-0.4-2.4,0-2.7c0-0.5,0-0.9,0-1.4c3.9-8.6-16.2-27.8-13.7-25.1
			c0.2,0,0.3,0,0.5,0c2.9-1.4,6.5-4.4,10.1-3.7c2.3,0.3,2.7-1.3,4.6-1.4c3.7-3.6,10-4.6,15.5-6.4c0.7-0.3,2.4,0.5,2.3-0.5
			c-0.4-1.9,4.7-2.3,6.9-3.2c4.8-4.2,11.3-8.5,11.9-16.5c0.6-7.9-4.3-13.1-7.8-18.7c-3.1-0.6-6-4-8.7-2.3c-0.8-3.4-7.7-12.5-2.7-8.2
			c0-0.2,0-0.3,0-0.5c-1.1-0.9,0.7-5,2.7-5.5c0.5-1.5,2-2,3.2-2.7c1.7-0.3,2.1-1.8,3.7-2.3c-0.6-1.1,2.6-2.3,4.1-2.7
			c2.2-1.4,3.9-3.4,5.9-5c1-2.3,3.9-2.8,5-5c0.4-0.1,0.9,0,0.9-0.5c-0.5,0-1.2-0.2-0.5-0.5c4.4-6.3,0.4-16.3,1.8-24.7
			c-0.4-1.1-1.3-4.1-0.5-5c0-0.3,0-0.6,0-0.9c-3.9-9.3-15.5-18.9-6.4-16c-0.1-1.1-0.1-2.2,0.9-2.3c5.9-3.3,11.3-7,16.9-10.5
			c0-0.2,0-0.3,0-0.5c2.7-8.1,3.1-18.5,8.2-24.2C1612.5,132.2,1613.5,130.3,1614.8,128.8z M1220.8,197.8c-2.4-5.4,1.4-10.1,0-16.9
			c-1.4,2.1,0.4,7.5-0.9,9.6c-2.7-8.2-1.3-21.4-1.8-32.5c-0.3-7.5-2.5-16,3.2-21.5c0.7-0.1,0.8,0.4,1.4,0.5
			c-2.1,17-2.9,33.8,0.9,50.7C1222,190.5,1221.3,194,1220.8,197.8z M1224,186.4c-0.1-1.2,0.6-1.5,1.8-1.4
			C1226,186.2,1225.2,186.5,1224,186.4z"/>
		<path class="st1" d="M994.3,174.9c3.3,1.8,7.3,5,7.8,8.2c3,0.3,3.7,7,4.6,11c-0.1,2.1-0.1,4.1,1.4,4.6c1,0.5,0.2,2.9,0.5,4.1
			c-6.7,1.8-12.8,4.2-20.1,5.5c-0.1-0.9-1.5-0.3-1.4-1.4c2.4-2.3-1.4-3.8-1.8-5.9c-1-2.8-3.2-4.4-5-6.4c-0.2,0-0.3,0-0.5,0
			c-2.9-2.7-7.3-3.9-11.9-5c-0.2,0-0.3,0-0.5,0c-4-2.7-10.4-3-17.4-2.7c-0.6,0-1.2,0-1.8,0c-2.3,0-4.2-0.4-5.9-0.9
			c-0.6-1-3.2-0.2-4.6-0.5c-2.7-0.8-6.2-0.8-5.5-5c0.3-1.1,0.7-2.1,0.5-3.7c0.4-1.4,1.4-2.2,1.8-3.7c1.8-1.7,4.4-2.6,7.3-3.2
			c0.1-0.5,0.7-0.5,1.4-0.5c7.6,0,15.2,0,22.9,0c1.1,0,2.1,0,3.2,0c3.7,0.8,8.5,0.6,12.3,1.4c3.5,0.7,7.3,1.3,10.1,2.7
			c0,0.2,0,0.3,0,0.5C993,173.8,993.3,174.7,994.3,174.9z"/>
		<path class="st1" d="M991.1,231.6c-1.3-0.8-2.3-2-2.7-3.7c0-1.1,0-2.1,0-3.2c2.3-1.8-0.4-4.2-1.8-5c-0.4,0-0.4-0.6-0.5-0.9
			c4.3,0.5,8.2,0.2,11.9,0c1.5-0.3,4.2,0.6,5-0.5c1.8,0,3.2-0.4,4.1-1.4c1.2-0.9,3.4-0.9,4.6-1.8c0.2,0,0.3,0,0.5,0c0,2,0,4,0,5.9
			c0.4,2.9-0.7,4.5-0.9,6.9c-3.1,1.3-5.3,3.5-9.6,3.7C998.1,231.6,994.6,231.6,991.1,231.6z"/>
		<path class="st2" d="M771.7,133.8c0.4,1.2,1.1,2.2,2.7,2.3c0.7-0.1,0.8-0.8,1.4-0.9c0.3,0,0.5,0.1,0.5,0.5c0,0.8,0,1.5,0,2.3
			c-0.7,6.4-2.4,13.3-2.7,18.7c0.4,0.5,0.6,1.2,0.5,2.3c-3-0.7,0.4,3.2-0.5,5.9c-0.6,7.8,0.3,13.9,0,22.4c0,1.8,0,3.7,0,5.5
			c0.4,1.6,0.3,2.5,0,3.7c-1.1,4.1-0.2,10.2-0.5,15.1c-4.1,0.7-5.3,4.4-8.7,5.9c-0.5,0-0.5-0.4-0.9-0.5c-0.2-0.6-0.6-0.9-1.4-0.9
			c-0.9,0.1-0.9,1.2-1.4,1.8c-0.9,0.1-0.3,1.5-1.4,1.4c-0.8,0-1.5,0-2.3,0c-0.6,0-0.4-0.8-0.9-0.9c0.1-0.4-0.2-0.4-0.5-0.5
			c-0.1-0.5-0.7-0.5-1.4-0.5c-1.2,0.3-0.9-0.9-1.4-1.4c-1.3,0-1.7,1-2.3,1.8c-0.7-0.1-0.8-0.8-1.4-0.9c-0.6,0-1.3-0.1-1.4,0.5
			c-1,0.7-2.4,3.1-3.7,0.9c-0.2-0.6-0.6-0.9-1.4-0.9c-0.3,0-0.6,0-0.9,0c-1.2-0.5-1.5-1.8-2.7-2.3c-0.3-1.2-0.2-2.9-0.9-3.7
			c-0.1-0.9-0.5-2.5,0-3.7c0.3-3.7-2.3-8.4-1.4-14.2c0.2,0,0.3,0,0.5,0c0-1.2-0.2-2.6,0.5-3.2c0.5,0,0.5,0.4,0.9,0.5
			c3.1,6.6,3.4,16.1,7.3,21.9c-1.1-9.7-5.2-20.4-7.8-30.2c-3.3-1.4-2.5-9-1.8-12.8c0-0.2,0-0.3,0-0.5c-1.5-6.2-1.3-19.7,0-27.4
			c0.2,0,0.3,0,0.5,0c2.3-3.3,7.9-3.7,10.5-0.5c-0.3,0.3-1.1,2.2,0,2.3c1.7,14.5,4.9,35.7,8.7,51.7c1.3,5.5,2,11.5,5,15.5
			c-4.6-21-8.9-42.3-12.3-64.5c0-1.5,0-3,0-4.6c1.7-2.1,3.8-3.8,5.9-5.5c0.5,0,0.5,0.4,0.9,0.5c1.8,6.9,2.3,16.2,3.2,26.1
			c0.3,1.4-0.6,3.9,0.5,4.6c2.3,8.5,4.3,17.3,8.2,24.2c-3.3-13.9-8.3-30.1-9.1-48c0-1.7,0-3.4,0-5c0.4-0.3,0.7-0.8,0.9-1.4
			c0.7-0.3,1.1-0.7,1.4-1.4c1.4-0.2,1.6,0.8,3.2,0.5c0.3,0.4,2.6,1,2.7,0c0.4-0.2,0.8-0.4,0.9-0.9c1.6-0.6,1.9-2.6,3.7-3.2
			C771.3,133,771.2,133.7,771.7,133.8z M767.1,141.1c-0.7-0.3,0.1-2.2-1.4-1.8c1.2,8.9-0.5,19.2,4.6,26.5c0.7-2-1.8-5.5-1.4-8.2
			c-0.3-1.4,0.6-3.9-0.5-4.6c-0.7-2-0.5-5-0.9-7.3C767.3,144.3,768.2,141.7,767.1,141.1z M741.1,156.6c-0.1-1.3,0.3-3-0.5-3.7
			c-0.9-0.4-2.1,1.2-0.9,1.4c1.9,17.6,6.4,36.6,13.3,50.7C749.4,190.4,743.5,174.1,741.1,156.6z"/>
		<path class="st2" d="M877.3,142.9c1.6,15.3,6.7,27.2,8.7,42.1c1.4,1.9,2-3.1,0.9-3.7c-2.3-12.3-6.1-23.1-7.8-36.1
			c0-0.9,0-1.8,0-2.7c1.8-0.7,4.2-0.7,5.9-1.4c0.3,0.8,0.2,1.9,0.9,2.3c0.9,4.6,2,8.9,2.7,13.7c0.6,3.3,0.2,4.5,0,7.3
			c0,0.2,0,0.3,0,0.5c1.3,14.3-0.8,28.9,0.5,44.8c-0.8,1-1.4,2.3-2.3,3.2c-0.3-0.1-1.8-1.1-1.8,0c-0.5,0.1-0.7,0.5-0.9,0.9
			c-0.6,0-0.4,0.8-0.9,0.9c-0.5,0-0.9,0-1.4,0c0-0.3-0.1-0.5-0.5-0.5c0-0.2,0-0.3,0-0.5c-0.6-1.2-2.7,0.4-2.7-0.5
			c-6.1-22.2-13.2-43.5-18.3-67.6c-0.1-1.3-0.1-2.5,1.4-2.3c1.3,0.1,2.3-0.1,2.7-0.9c0.5,0,0.5-0.4,0.9-0.5c1.2,0,2.6,0.2,3.2-0.5
			c0.8,0.9,0,3.4,0.9,4.1c1.6,9.6,2.8,18.7,5,26.5c3.6,12.9,8,25.1,12.3,37c-5-22.9-14-41.7-16.5-67.2c0.6,0,1,0.2,1.4,0.5
			c1.1-0.3,1.2-1.5,2.3-1.8c0.8-0.1,1,0.6,1.8,0.5C876,142,877.1,142,877.3,142.9z"/>
		<path class="st2" d="M859.5,148.4c5.5,22.4,11.7,44,18.3,65.4c0,0.3,0,0.6,0,0.9c-1.1,0-1.3-0.8-2.7-0.5c-0.1-0.5-0.5-0.7-0.9-0.9
			c-0.3-1-3-0.6-2.7,0.5c-0.6,0-0.4,0.8-0.9,0.9c-0.4-0.4-1-0.5-1.8-0.5c-0.5,0-0.5-0.4-0.9-0.5c-0.1-0.7-1.1-0.4-1.8-0.5
			c-0.6,0.2-0.9,0.6-0.9,1.4c-0.6,0-1.2,0-1.8,0c-0.9-0.9-1.1,0-2.3,0c-0.8,0-1.5,0-2.3,0c-0.7-0.7-0.6-2.1-1.4-2.7
			c0-0.2,0-0.3,0-0.5c0.1-4.6-0.1-11.1,0-14.2c0-0.3,0-0.6,0-0.9c0.3-1.5-0.6-4.2,0.5-5c3,6.6,2.9,16.3,7.3,21.5
			c-1.5-9.3-4.6-17-6.4-26.1c-0.5-1.1-0.8-2.2-0.9-3.7c0.2-3.2-0.4-6.1,0-8.2c-0.1-2.2,0-3.4,0.9-1.4c2.5,9.9,7.3,17.7,9.6,27.9
			c0,1.4-0.3,3,1.4,2.7c0.9-1.1,0.5-3.8-0.5-4.6c-3.4-10.7-8.1-20-10.5-31.5c0.3-1.4-0.8-1.3-0.5-2.7c1.2-4.5,2.5-9,0.5-13.3
			c0.3-1.7-0.6-4.6,0.5-5.5C859.1,147.3,858.8,148.3,859.5,148.4z"/>
		<path class="st1" d="M991.1,172.2c-3.8-1-8.1-1.6-11.4-3.2c-1.4-0.4-3.8,0.2-4.1-1.4c7.4-0.2,12.9,1.4,16.9,4.6
			C992,172.2,991.6,172.2,991.1,172.2z"/>
		<path class="st3" d="M780.8,173.1c15.4-0.8,29.4-0.9,47.1-0.5c0.7,0.3-0.1,2.2,1.4,1.8c0.1-0.7-0.2-1.7,0.5-1.8c1.1,0,2.1,0,3.2,0
			c0.3,1-1.3,1.5,0.5,1.4c6.1-0.7,9.8,0.1,15.5-0.9c-0.7,3.2,2.9,1.3,5.5,2.3c-0.5,1.4-0.1,2.3,0,4.6c-0.9-0.8-3-0.3-4.6-0.5
			c-0.4-0.7-1.5-0.7-2.3-0.9c-0.8,0-1.5,0-2.3,0c-1.1-1.1-4.1-0.2-5.9-0.5c-1.8,0-3.7,0-5.5,0c-15.9,1.7-31.2-3.5-45.3-1.4
			c1.5,1.1,5.8-0.6,5.5,2.3c-2.3-1.2-9.4,0.8-7.8-2.7c-2.5-0.2,0.1,1.9-1.8,2.3c-2.1-0.7-3.1,0-5.5,0c-0.1-0.4,0-0.9-0.5-0.9
			c-0.3-1.5,0.3-2.1,0.5-3.2C779.9,174.3,779.9,173.2,780.8,173.1z"/>
		<path class="st3" d="M928.9,175.4c-0.3,2.4,1,3.7,0,5.5c-12.4-1.9-25.4-2.2-37.5-2.3c0.9-2-0.1-3.2,0.5-5
			C906,172,916.5,174.2,928.9,175.4z"/>
		<path class="st2" d="M854.4,199.6c0.3,2.2,0.3,2.3,0,4.6c0,2.3,0,4.6,0,6.9c-3.5-1.9-2.6-10.5,0-12.8
			C854.4,198.7,854.4,199.2,854.4,199.6z"/>
		<path class="st1" d="M1014.4,215.2c-0.3-0.3-1.1-2.2,0.5-1.8c0.2,0,0.3,0,0.5,0c0.3,4.3,1.3,11.1-0.5,14.6
			c0.2-2.1,0.5-3.7-0.5-5.5c0-0.6,0-1.2,0-1.8C1015.2,219.8,1015.2,215.9,1014.4,215.2z"/>
		<path class="st3" d="M1013.9,204.6c0.2,0,0.3,0,0.5,0c1.4,2.5-0.5,5.2-0.9,7.3c-3.9,3.5-28.1,10.6-30.2,1.8
			c0.7-2.1,2.5-4.4,1.8-6.4c6,5.2,23.2,3,25.1-4.6c0.4-0.1,0.4,0.2,0.5,0.5c0,0.2,0,0.3,0,0.5c1.1,0.1,0.8,1.6,2.3,1.4
			C1013,204.7,1013.6,204.7,1013.9,204.6z"/>
		<path class="st1" d="M1008,233c0.5-0.8,1.9-0.5,2.7-0.9c2,0.7-4,3.2-5.5,1.8C1006.4,233.8,1007.4,233.6,1008,233z"/>
		<path class="st3" d="M662.9,176.8c16.4-2.4,34.1-1.8,51.2-4.1c0.3,0,0.6,0,0.9,0c1.1,0,2.1,0,3.2,0c1.1,0,2.1,0,3.2,0
			c3.9,0.3,9.6-1.1,11,1.8c0.9,1.1,0.5,3.5-0.5,4.1c-18.9,0.9-38.2,3.7-60.8,5.5c-0.9,0-1.8,0-2.7,0c-3.7,0-7.3,0-11,0
			c-0.1-0.4-656.7,24.3-657.2,24.4c-0.3-2.6,0.4-9.8,0-12.4C2,195.7,661.8,177.8,662.9,176.8z"/>
		<path class="st1" d="M1495.8,22.5c-3.6-0.1-5.6-1.8-8.2-2.7c-0.4-1.5,0.4-1.7,0.9-2.3c0.2,0,0.3,0,0.5,0c2-0.3,5.2,0.6,6.4-0.5
			c0.2,0,0.3,0,0.5,0c3.9,0,7.7-0.2,11-0.9c1.4-0.3,3.9,0.6,4.6-0.5c1.4,0,2.7,0,4.1,0c0.8,0.4,2.3,0.2,2.7,0.9
			c0.9,0.9,3.1,0.6,4.1,1.4c0.4,0.8,1.6,0.8,2.3,1.4c0,0.2,0,0.3,0,0.5c1.1-0.1,1.4,0.7,1.8,1.4c-0.5,2.3-4.1,1.4-5.9,2.3
			c-0.2,0-0.3,0-0.5,0c-2.1,0.3-5.5-0.6-6.9,0.5c-0.2,0-0.3,0-0.5,0c-1.8,0-3.7,0-5.5,0c-0.2,0-0.3,0-0.5,0c-0.9-1-3.8-0.2-5.5-0.5
			C1500.3,22.3,1497.9,22.5,1495.8,22.5z"/>
	</g>
	<g>
		<path class="st4" d="M1446.2,4.1c0.8-0.8,4.3-0.3,4.1,1.4C1448.7,5.2,1447.8,4.3,1446.2,4.1z"/>
		<path d="M1452.1,8.7c1.3-0.7,4.4,0.8,5.5,1.8C1455.6,10,1453.6,9.6,1452.1,8.7z"/>
		<path d="M1436.1,57.6c-1.6,0.9-4.2,0.7-5.9,1.4C1430.5,56.8,1434.4,57,1436.1,57.6z"/>
		<path class="st4" d="M1444.8,59c1.8-0.1,2.3,1.1,4.1,0.9C1448.1,60.8,1444.9,60.3,1444.8,59z"/>
		<path class="st4" d="M1462.2,61.7c-1,1.4-2.4-0.6-4.1,0C1457.2,60.7,1461.2,61.6,1462.2,61.7z"/>
		<path class="st4" d="M1474.5,61.7c-2.9,1.5-10.7,0.5-4.6,0.5C1471.4,62.1,1473,61.2,1474.5,61.7z"/>
		<path d="M1228.6,88.2c-1.3,5.7-8.6,9.4-9.6,16.9C1218.4,97.5,1225,93.2,1228.6,88.2z"/>
		<path class="st4" d="M1527.1,92.3c1-1.4,2.4,0.6,4.1,0C1530.3,93.6,1528.3,92.2,1527.1,92.3z"/>
		<path d="M894.4,133.9c2.4,5.8-0.5,10.2-1.4,15.1c-1.5-4.1,0.2-10.6-0.5-14.2C892.9,134.2,894.4,134.8,894.4,133.9z"/>
		<path d="M767.8,138c2.3,9.2,1.7,20.5,4.6,27.4C767,159.8,768,146.9,767.8,138z"/>
		<path d="M749.1,141.2c4.6,23.3,8.6,47.2,13.7,69.9C755,191.3,751.6,163.5,749.1,141.2z"/>
		<path class="st4" d="M1218.5,145.4c0.9,0.9,0.6,4.5,0,5.5C1217.2,149.5,1218.7,147.1,1218.5,145.4z"/>
		<path d="M741.3,152.7c3.9,17.8,9,36.6,13.3,52.6C747.9,190.3,742.8,171.3,741.3,152.7z"/>
		<path d="M890.8,162.3c1.5,0.4,0.3,4.1,0,5.5C889.5,166.4,891,164,890.8,162.3z"/>
		<path class="st4" d="M893.5,162.3c1.4-0.7,1.4,3,0,2.3C893.5,163.8,893.5,163,893.5,162.3z"/>
		<path class="st4" d="M855.6,172.8c-0.1,1.4-2.3,0.8-3.7,0.9C852,172.3,854.2,172.9,855.6,172.8z"/>
		<path d="M738.6,181.5c4.6,8.6,7.6,21.4,9.1,31.5C744.1,203.3,740.1,191.7,738.6,181.5z"/>
		<path d="M1424.2,205.2c0.2,0.7,0.6-0.2,1.4,0c1.2,6.1-0.1,12.6-0.5,18.7c-4.2-3.5,0-11.6-0.9-16c-1.3,1.4-2.1-4.9,0-5.9
			C1425,202.1,1425,205.2,1424.2,205.2z"/>
		<path class="st4" d="M1009.6,230.4c1,2.1-3.9,2.1-5.9,2.7C1005,231.5,1008.1,231.7,1009.6,230.4z"/>
		<path class="st4" d="M1586.5,230.8c0.8,1.2-2.3,2.6-4.1,2.7C1583.3,232.2,1585.5,232.2,1586.5,230.8z"/>
		<path class="st4" d="M1003.2,232.7c-1.5,1.8-6.1,1.5-8.7,0.9C996,232.4,1000,233.2,1003.2,232.7z"/>
		<path class="st4" d="M1008.7,262.4c2.3-0.8,7.8-0.8,10.1,0C1018.1,262.6,1009.8,262.5,1008.7,262.4z"/>
		<path class="st4" d="M905.4,264.2c-0.6,1-3.2,0.2-4.6,0.5C901.5,262.6,903.5,264.7,905.4,264.2z"/>
		<path class="st4" d="M1182.9,272.4c1.7-0.6,5.5,0.6,7.8,0.9C1189,273.9,1184.9,273.1,1182.9,272.4z"/>
		<path class="st4" d="M1403.7,354.2c-2.3,0.7-6.4-0.9-9.6-0.9C1396,352.3,1400.8,353.2,1403.7,354.2z"/>
		<path d="M1436.6,356.1c-1.7,0.9-8.4-1.2-4.1-0.9C1433.8,355.2,1435.5,356.2,1436.6,356.1z"/>
		<path class="st4" d="M1511.1,367c3.2-0.5,10.8-1.3,13.3,0.5C1520.6,366.6,1515.5,367.2,1511.1,367z"/>
		<path d="M782.9,83.2c0.8,1.8,5.3-0.2,9.6,0.5c-0.1-0.8-1.5-0.3-1.8-0.9c58.3,2.2,122.8,6.6,180.6,5.5c1.8,0.1-0.1-0.7,0.9-1.4
			c3.9,2.7,9.2,0.2,14.6,0c2.3-0.1,4.5,0.9,6.9,0.9c8.4,0.1,17.4-0.9,26.5-0.9c13-0.1,26.4,2.1,38.4,1.8c15.6-0.4,31.3,0.4,46.2,0
			c-0.8,1.3-4.7-0.4-5.5,0.9c17.5,2.2,38.2,0.3,57.6-0.9c6.7-0.4,13.7-1.6,19.7-0.5c2.6,0.5,9.5,0.5,15.1,0.5
			c-0.3-0.4-0.8-0.7-1.4-0.9c4.1-0.2,8.8,0.1,13.7-0.9c1.6-0.5-1.3-0.1-0.5-1.4c9.7-0.8,18.1-2.9,24.2-7.3c0.1,0.7-0.4,0.8-0.5,1.4
			c9.8-4.5,15.6-12.4,25.1-17.8c6.1-3.5,11.6-8.6,17.4-12.8c11.6-8.4,23.3-16.6,35.7-24.2c1.8-0.3,1.6,0,2.7-0.5
			c13.2-9.9,34.1-17.5,55.8-14.6c-0.1,0.5-0.8,0.4-1.4,0.5c1.1,0.8,4.1-0.5,6.4,0c-0.1-1.2-1.5-0.9-2.7-0.9
			c24,2.4,46.8-6.7,68.6-9.1c6.6,2.7,18.3,2.1,23.8,8.2c9.5,0.6,17.4,7.6,27,7.8c4.9,0.1,9.5-2.1,15.1-0.9c-5.1-0.8,3.5-1.4,5.5-1.4
			c8.9,0.2,22.3,4.6,25.6,10.5c-3.2,8-4.2,17.6-9.1,22.9c-0.5-3.1-3.2,4.1-5.5,5c-3.9-1.6-6.9,3.5-11.4,4.1c0,0.9,0,1.8,0,2.7
			c-0.6-0.1-0.4-1.1-0.5-1.8c-11.3,4.6-26.1,6.5-38.9,7.3c0.1-0.5,0.8-0.4,1.4-0.5c-10.2-1.1-21.3-2.6-29.3-4.6
			c0.5-1.8,1.6-0.1,3.2-0.5c-0.2-1.7-2.7-1.3-4.6-1.4c-1.6,0.3,2-1.1,3.2-0.9c-0.2-2-1.4-3.2-0.9-5.9c2.9-0.2,2.2,3.3,3.2,5
			c9.5,5.6,24.6,5.2,37.5,4.1c-0.1,0.5-0.9,0.3-0.9,0.9c7.2-1.7,7.4-1.5,13.7-3.2c-0.4,1-2.6,0.2-2.7,1.4c3.3-0.2,7.3-2,10.1-1.4
			c9.7-7.4,24.5-9.6,27.4-23.8c-1.5-2.4,1.1-4.5-0.5-7.8c-1.6-0.4-6.1,0.3-8.2,0.9c0.1-0.5,0.8-0.4,1.4-0.5
			c-12.4-1.7-29.8-0.9-39.8-6.9c-0.7-1.1-1-0.9-0.5-2.3c-6-1.6-10.9-4.3-17.4-5.5c-2.8-2.5-8.2-4.9-12.3-4.6
			c-1.2-1.6-5.7-3.3-8.7-4.6c0.5,2.7,1.7,4.7,1.4,8.2c-0.8-2.9-2-5.3-2.7-8.2c-1.5-0.1-2.6-0.7-4.6-0.5c0.2,2.7,1.9,3.8,1.4,7.3
			c-1.7-2.1-2.5-5.1-3.7-7.8c-13.4,1.9-24.4,3.5-35.2,8.2c-1.5-0.3-0.9-1-1.4-1.4c-8.4,2.7-22.4,3-30.2,2.3c1.2,1,4.1,0.5,5.5,1.4
			c-11.9-0.1-19.9-2.2-32.5-0.9c1.1,1.1,4.1,0.2,5.9,0.5c-1.9,0.9-8.6,0.8-11.9,1.8c0.3,1,2.6,0.2,3.7,0.5
			c-14.2,2.1-22.8,9.8-33.8,15.1c2.8,1.9,6.9-2.4,10.5-2.7c-16.1,6.9-30.2,15.8-43.4,25.6c6.9-7.6,19.5-13.4,27.9-21
			c-22.8,14.6-44.3,30.3-62.6,49.4c2.7-6.2,10.5-11.1,15.1-16.9c-5.6,3.5-10.8,8.7-13.7,12.3c-4.5,5.6-11.4,9.6-14.6,18.3
			c-0.6-6.1,5.4-9.6,8.2-13.7c-4.2,0-6.9,2.9-10.5,4.1c-1.6,0.5-3.3,0.1-5,0.5c-6.8,1.3-11.8,8.7-23.3,4.6c-1,2.3-6.4,2.4-8.7,1.8
			c0.2-1,2.4,0,2.7-0.9c-4.8-1.3-7.5,0.8-11.9-0.5c0.2,1,2.3,0.2,3.2,0.5c-15.4,1.9-37.7,0.5-55.8,2.3c-15.7,1.6-32.7-2.8-46.2-2.3
			c-20.6,0.9-40.2-2.1-62.6-2.3c-5.6-0.1-11.2,0.6-16.9,0.9c-34.3,1.6-69.7,2.5-104.7,0.9c-12.8-0.6-26.1,0.7-38.9,0
			c-10.3-0.6-19.8,0.2-32-0.5c-14.3-0.8-461-11.4-478.4-9.9c-8,0.7-15.7,0.6-24.2,0.5c-0.2-0.1-316.3-3.1-317.6-5.6
			c1.3-1.4,313.2,4.2,316.6,3.7c3.5,0.1,5.6,0.1,6.9,0.1c3.2,0,6,0.1,8.2,0C340.7,77.9,779.8,84.3,782.9,83.2z M1450.3,5.5
			c0.1-1.7-3.3-2.2-4.1-1.4C1447.8,4.3,1448.7,5.2,1450.3,5.5z M1479.1,15.1c-1.6,0.1-5.4-1.9-5-0.9
			C1475.3,14.7,1477.8,16.2,1479.1,15.1z M1482.3,17.8c6.3,3.7,16.1,6.3,25.6,6.4c6.2,0.1,13.5-0.1,18.3-2.7
			C1517.8,11.1,1497.3,17.2,1482.3,17.8z M1523,24.7c2.2-0.5,3.3,0.4,4.6-1.4C1526.1,23.6,1522.5,24.1,1523,24.7z M1448.9,59.9
			c-1.8,0.1-2.3-1.1-4.1-0.9C1444.9,60.3,1448.1,60.8,1448.9,59.9z M1458.1,61.7c1.7-0.6,3.2,1.4,4.1,0
			C1461.2,61.6,1457.2,60.7,1458.1,61.7z M1469.9,62.2c-6.1,0.1,1.6,1,4.6-0.5C1473,61.2,1471.4,62.1,1469.9,62.2z M793.4,85
			c18.3,1.8,33.2,3.8,50.7,1.8C829.2,85.9,808.2,84.5,793.4,85z M844.6,87.3c1.1-0.3,3.3,0.6,3.7-0.5
			C847,86.3,845.5,86.3,844.6,87.3z M836.4,88.7c7.3,1.1,15-0.2,20.1,0.5c-1.9-0.1-0.1-0.3,0-0.9c13.8,0.3,31.5,1.3,43.9,0.5
			C879.8,87.5,855.3,86.3,836.4,88.7z M907.3,89.1c3.6,0.2,1.5-0.8-0.9-0.5c-1.7,0.3-4.6-0.6-5.5,0.5
			C903.6,89.4,904.1,89.7,907.3,89.1z M1200.3,88.7c-4.9,0.5-3,1.3,2.7,0.9c0-0.8,1.3-0.3,1.4-0.9
			C1202.7,88.8,1201.4,88.6,1200.3,88.7z M1155.9,90c5.4-1,12.1,2,15.1-0.9C1166.6,89.5,1158.2,88.7,1155.9,90z"/>
		<path class="st4" d="M1474,14.2c-0.4-1,3.4,1,5,0.9C1477.8,16.2,1475.3,14.7,1474,14.2z"/>
		<path class="st4" d="M1527.5,23.3c-1.3,1.7-2.4,0.9-4.6,1.4C1522.5,24.1,1526.1,23.6,1527.5,23.3z"/>
		<path d="M1586,173.2c1.9-1,4.5-1.3,5.5-3.2c-1.9,0.2-2.7,1.6-4.6,1.8c6.4-4.6,13.7-8.2,19.7-13.3c-0.1-5.5,5.1-9.1,5.5-14.6
			c0.1-1.3-0.7-2.8-0.5-4.1c0.2-1.5,2-3.6,2.3-5.5c0.2-1.3-0.8-2.1-0.5-3.2c0.8-2.6,3.2-4.8,1.8-7.8c-6.4-8.1-16.2-13-22.9-17.4
			c-0.5,0.1-0.4,0.8-0.5,1.4c-1.2,0-0.7-1.7-1.4-2.3c-16.5-5.5-33.9-7.5-53.9-9.6c0.9,0.8,1.8,1.5,3.7,1.4
			c-23-4.4-51.3-7.7-79.1-4.6c-2-0.3,0.4,0.9-0.9,0.9c-6.2-0.9-13.4,0.5-19.7,0.9c-0.5-2.1-3.4-1.8-5.9-1.8
			c-3.3-1.5-8.4-1.4-11.9-2.7c4.2,3.3,11,3.9,15.5,6.9c-5-0.7-11.9-3.3-16.9-5.5c-1.2,1.3,1.7,1,2.3,1.8c-0.4,1.1-1.8-0.6-3.2,0
			c-1.4,1.3-0.1,5.4-2.7,5.5c0.6-1.2,0.5-3.1,0.9-4.6c-7.5,8.7-7.4,25.8-9.1,37.5c-1.9,13.2-6.2,26.8-11,38.4
			c-2.6,6.4-7.3,11.6-11.9,17.4c-4.2,5.4-8.7,11.1-13.3,15.5c-12.5,12.2-29.6,18.8-44.8,25.6c2.9-3.6,8.8-4.3,13.3-6.4
			c-7.2,0.8-14.7,5.1-22.4,6.9c10.2-6.2,23.5-6.3,32.9-13.3c5.5-4.1,11-9,16.5-13.7c5.3-4.5,12.2-8.6,16-13.7
			c2.1-2.8,2.4-6.7,5.5-8.7c6.7-16,16.7-33.4,18.7-54.9c1.1-11.2,2.4-22.6,7.3-31.1c0.9-1,2.9-0.7,3.2-2.3
			c-10.7-6.1-19.9-5.1-27.4-14.2c-8.7,7.7-13.2,13.6-19.7,21.9c0.2,0.7,0.6-0.2,1.4,0c-5.1,6.3-8.8,14.4-16.9,18.7
			c7.6-7.9,13.7-17.4,19.2-27.4c5.3-4.6,11.4-8.4,14.6-15.1c-4.5-1.3-11.2-1.5-15.1-4.6c4.3-1.4,12,2,16.5,2.3
			c11.8-4.9,23.9-9.3,35.7-14.2c-1.8,3-8.8,3.3-11,7.3c-1.2,0.3-0.9-0.9-1.8-0.9c-7.1,3.7-15.6,6-22.9,9.6c0.5,2.9,3.6,3.1,6.4,3.7
			c5.7,4.1,14.3,6.6,23.3,8.7c9.1,2,15.8,3.1,26.5,3.7c10.4,0.5,23.2-2.1,36.1-2.7c16.3-0.8,32,2.5,47.5,4.1
			c0.1,0.7-0.4,0.8-0.5,1.4c22.3,3.4,45.9,3.1,64,12.8c5.9,3.1,10.5,7.6,16,11.9c2.6,2,4.8,2.2,5.5,6.4c0.5-0.1,0.4-0.8,0.5-1.4
			c3.6,9.1-3.6,17.4-3.7,26.1c-0.6-0.1-0.4-1.1-0.5-1.8c-1.4,1.2-0.8,4.4-0.9,6.9c-1.4-0.8-0.2-1.4-0.5-3.2
			c-2.1,4.1-3.3,9.2-7.3,11.4c1,1.1,0.8,1.3,2.7,0.9c-7,3.5-14.8,10.2-21,10.5c1.8,4.8,6.7,10.4,9.1,16c-0.9,7.2,3.6,12,2.7,20.6
			c1,0.2,0.9-0.7,0.9-1.4c3.9,3.3-4.2,9.8-2.7,11.9c-4.2,0.9-3.3,7.4-7.8,9.6c-0.1-0.7,0.4-0.8,0.5-1.4c-2.5,8.3-20,5.1-21.5,16
			c-2.7-2.5,1.8-4.6,1.8-7.3c6.7-6.3,16.7-6.5,21.5-14.6c-1.6-1.1-2,2.9-4.6,2.3c5.3-5.5,11.6-7.4,10.5-18.3
			c-1.2-11.7-5-24.5-11-30.6C1582.8,173.9,1586,173.2,1586,173.2z M1394.5,78.2c3.8,3.5,9,5.6,14.6,7.3
			C1405.4,82.2,1398.4,79.8,1394.5,78.2z M1422.4,88.7c-3-1.9-8.4-3.8-11.9-3.7C1414.1,86.4,1418.4,89.2,1422.4,88.7z M1512.4,91
			c-15.4-1.1-33.9-3.5-47.1-0.5c19.9-1.5,38,0.3,58.5,1.8C1521,90,1516.4,91.3,1512.4,91z M1452.1,91.9c-3.4,0-6.7,0-10.1,0
			C1443.8,93.9,1449.6,93,1452.1,91.9z M1531.2,92.3c-1.7,0.6-3.2-1.4-4.1,0C1528.3,92.2,1530.3,93.6,1531.2,92.3z M1534.8,94.6
			c-1.9,0.1-3-0.7-4.6-0.9C1530.3,95.1,1535.7,95.3,1534.8,94.6z M1613,141.7c0,0.6,2.2-6.5,2.3-7.3
			C1613.8,136.1,1612.8,138.3,1613,141.7z M1403.7,151.8c0.7-3,3.7-6.1,2.3-9.6C1406.2,146.1,1402.7,148.6,1403.7,151.8z
			 M1401.4,157.7c0.3-1,2.2-4.9,0.5-1.8c-0.8,1.4-2.8,4.5-2.3,7.8C1400,161.9,1400.7,159.7,1401.4,157.7z M1601.6,165.5
			c1-0.7,2.5-0.9,3.2-1.8C1603.2,163.5,1601,165.1,1601.6,165.5z M1397.3,168.2c-2.5,5-6.8,10.6-8.2,15.1
			C1392.2,179.3,1396.9,172,1397.3,168.2z M1354.3,215.3c8.4-4.2,16.6-11.1,21-17.8C1368.7,203.5,1360.3,210.2,1354.3,215.3z
			 M1582.4,233.6c1.8-0.2,4.9-1.5,4.1-2.7C1585.5,232.2,1583.3,232.2,1582.4,233.6z"/>
		<path d="M1381.7,74c2.1-0.8,2.3,4.1,4.6,4.6c-0.3,1.1-1.2-0.8-2.3-0.5C1383.9,76.1,1383.1,74.8,1381.7,74z"/>
		<path class="st4" d="M1530.3,93.7c1.6,0.2,2.6,1,4.6,0.9C1535.7,95.3,1530.3,95.1,1530.3,93.7z"/>
		<path d="M0.2,193.8c15.6-2.2,692-21.5,708.3-23.2c5.7-0.6,10.8,0.1,16.3-0.8c2.5-0.9,7.4-0.7,10.6-1.6c-0.4-10.5,0-19.1-0.5-31.1
			c1.9,0,0.6,3.3,0.5,4.1c1.5-1.8,1.5-5.2,2.3-7.8c2.9-0.3,3,2.2,4.6,3.2c2.1-1.2,3.7-3,5-5c2.2,0.5,1.6,3.9,2.7,5.5
			c2.6-1.2,2.7-5,5.5-5.9c1.2,1.5,1.6,3.8,3.2,5c3.3-0.8,3-5.2,5.5-6.9c2.1,0.7,2.2,3.3,2.7,5.5c3.4-1,3.9-5,6.9-6.4
			c0.6,1.7,1.1,3.5,1.4,5.5c2.4-0.2,2-3.2,4.1-3.7c0.1,1.6-1.8,4.8-4.1,5.5c-1.7-0.6-1.7-2.9-2.3-4.6c-2.1,1.4-3,4-5,5.5
			c-0.4-0.4-1-0.5-1.8-0.5c-1.3-1.5-1-3.1-1.4-4.6c-2.8,1.2-2.3,5.7-5,6.9c1.1,18.6,4.8,37.2,10.1,53c-2.8-2.3-3.3-6.7-4.6-10.5
			c-3.1-9.2-4.9-21.7-6.4-33.8c-0.8-6.2,0.8-10.6-3.7-13.7c-1.9,1.3-2.2,4.2-4.6,5c-1.7-0.6-2.6-2-2.7-4.1c-1.8,0.8-2.8,2.4-4.1,3.7
			c-2.7,0.1-3.4-1.8-4.6-3.2c-2.7,7.3-2.3,22.9-2.3,32.9c0.2,0.6,0.6,0.9,1.4,0.9c-2.5,11.5,0.5,25,0.5,37c0.6-0.2,0.9-0.6,0.9-1.4
			c0.3,5.7,0.7,11.1,2.3,17.4c1.4-1,1.2-3.7,2.7-4.6c2.3,0,1.2,3.4,2.7,4.1c1-1.5,1.4-3.5,2.7-4.6c2.2,0.7,2.7,3.1,3.7,5
			c1.8-0.6,1.1-3.7,3.2-4.1c1.7,0.8,1.7,3.1,3.2,4.1c1.6-1.8,2.2-4.5,3.7-6.4c1.5,1.1,2.5,2.7,3.2,4.6c1.5-1.7,2.1-4.3,3.7-5.9
			c1.8,0.5,1,3.6,2.3,4.6c1-1.9,1.4-4.4,1.8-6.9c0.9,2.8,0.4,8.4-1.8,9.6c-1.8-0.6-1.8-3.1-2.3-5c-2.3,1.1-0.9,5.8-3.7,6.4
			c-2.1-0.6-1-4.5-3.2-5c-1.7,1.5-1.1,5.3-3.7,5.9c-1.3-0.9-2.4-1.9-2.7-3.7c-2.1,0.2-1.4,3.2-3.2,3.7c-1.2-1.5-2.6-2.9-3.2-5
			c-2.5,0.5-1.2,4.9-3.7,5.5c-1.6-1.1-1.8-3.6-2.3-4.6c-1.5,1.5-1.1,4.9-3.7,5.5c-1.9,0.2,0.2-1-0.5-2.3c-4.4-9.9-5.8-27.2-6.4-42.1
			c-16.7,1.4-35.2,0.3-52.1,3.2c-0.8,0.1-4.2,0.1-5,0.3C670,185.1,5.1,208.2,0.2,210.8l-0.1-2.4c27.3-2.8,710.8-29.1,734.7-30.2
			c-0.6-3.6,2-9.2-1.4-8.2c0.4,0.1,0.9,0,0.9,0.5C709.6,173.4,26.2,194.3,0.1,196L0.2,193.8L0.2,193.8z"/>
		<path class="st4" d="M1615.3,134.4c-0.1,0.8-2.3,7.9-2.3,7.3C1612.8,138.3,1613.8,136.1,1615.3,134.4z"/>
		<path d="M934.2,171.4c-1,1.5-0.4,2.2-0.9,3.7c1.3-0.5,1.4-2.3,1.8-3.7c-1.4-2-2.7,1.1-3.7,0.5c8.3-6.9,28.2-4.7,44.3-3.7
			c10.5,0.7,22.5,5.4,28.3,10.5c0.3,2.6,2.4,3.4,3.7,5c0.8,5.6,5.3,9.9,4.1,16c4.9,1.8,10.6,10.6,3.7,13.7
			c0.2,7.5,2.2,13.6-1.8,17.8c-5.9,1.1-11,4.7-16.9,4.1c-7.3-0.7-10.2-8.2-11-16.5c-0.8-1.5-2.3-2.2-2.7-4.1
			c6.8-16.2-7.5-23.5-21-25.1c-8.9,1-21.6-1.8-30.6-3.7c0.4-2.2-1.5-2.1-1.4-4.1c-10.7-0.4-23.2-3.1-32.5-0.9
			c-1.3,0.1-1.6-0.7-0.9-1.4c-1.1,0.4-1.7,1.4-3.7,0.9c0.6,8.7-1.2,18.3-0.9,28.8c-2.8-5.4-1-13-0.9-18.7c0.2-9-0.5-19,0.9-27.4
			c-2.7-7.3-3.2-19.7-7.3-27c-7.8,4.5-3,17-0.5,27.4c1.8,7.3,4.2,14.4,4.1,21.5c-3.3-13.3-8.5-29.5-9.1-42.5c-1.1-1.3-2-2.9-2.7-4.6
			c-1.8,0.9-1.8,5.1-4.6,3.7c2.3,25.9,11.9,44.5,16.5,68.1c-4-13.5-11.2-31.7-15.1-48.5c-1.6-6.7-0.4-12.5-2.3-18.7
			c-1.8-6.2-3.7-1.3-6.9,0.5c-1.6-0.9-4-3.6-2.3-5c2.3-0.3,1.8,2.2,2.7,3.2c2.3-0.8,2.2-3.9,4.6-4.6c1.1,1.1,2.4,1.9,2.7,3.7
			c2.7-0.8,3-4.1,5.9-4.6c0.8,1,0.4,3.2,1.8,3.7c2.6-0.8,2.6-4.2,5.5-4.6c2.4,0.1,1.2,3.7,2.7,4.6c1.8,0.1,2.6-3.2,3.7-2.3
			c-0.1,2.2-1.6,3-3.7,3.2c0,2.2,1.6,4.5,2.3,7.3c0.7,3.1-0.2,8.3,3.2,7.8c0.9-0.8-1.8-1.8-1.8-3.2c2.5,1.6,2.1-3.2,3.2-4.6
			c0.7,7.7-0.3,12.2,0.5,19.2c-3.2-1.3-0.4,3.2-1.8,5c6.4,0.3,14.4-1,22.9-0.5C924.6,172,930,175.5,934.2,171.4z M893.5,164.6
			c1.4,0.7,1.4-3,0-2.3C893.5,163,893.5,163.8,893.5,164.6z M1009.2,197c-0.8-2.9-1.1-6.7-1.8-9.1c-3.5-11.6-15.5-16.4-27.4-18.3
			c-12.4-2-28.3-2.1-37.9,0.5c-0.3-1,1.3-1.5-0.5-1.4c-3.1,0.2-1.9,3.6-4.1,1.8c-2.4,4.1-5,6.4-3.7,12.3c11.7,6,29.4,3.7,41.6,8.7
			c2.5,1,3.9,3.7,6.9,3.2c1.6,4.3,5.8,6.1,7.3,10.5c-0.2,0.9-1.8,0.4-1.4,1.8c6.2,4.2,16.5,0.5,21.5-2.3
			C1011,201.3,1009.9,199.5,1009.2,197z M893.5,173.2c-0.5,1.8,0.4,3.1-0.5,5c12.1,0.1,25.1,0.4,37.5,2.3c1-1.8-0.3-3.1,0-5.5
			C918.1,173.9,907.7,171.7,893.5,173.2z M955.7,188.8c-1.5-0.6-6.8-1.9-6.9-0.9C951.4,187.6,953.9,189.8,955.7,188.8z M986.8,207.1
			c0.4,4.2-3.3,6.3-0.5,9.1c3.3,3.2,24.6,1,28.8-4.6c3.3-4.4,1-9.1-3.2-9.6C1010.5,210.2,992.8,212.2,986.8,207.1z M987.7,218.5
			c2.6,4.7,0.5,11.7,5.9,13.3c7.2,2.1,13.9-2.2,18.7-3.2c0.9-3.6,3.2-10.4,0.9-14.2C1005.9,218.4,997.6,219.1,987.7,218.5z
			 M1003.7,233.1c2-0.6,6.9-0.7,5.9-2.7C1008.1,231.7,1005,231.5,1003.7,233.1z M994.5,233.6c2.6,0.6,7.2,0.9,8.7-0.9
			C1000,233.2,996,232.4,994.5,233.6z"/>
		<path d="M1223.6,187.4c-1.8,2.5-3.2,5.3-2.7,10.1c-0.8-6.4,1.7-14.9-0.5-23.3c-1.3,3.1,0,10.8-0.5,16c-3.1-9.4,0.7-24.6-1.8-37
			c-1-4.9-0.7-13.1,4.1-16.5c0.4,8.5-3.7,19.2-1.4,28.3c0.3,2-0.9-0.4-0.9,0.9c1.1,6.7,2.5,13,2.3,21
			C1222.1,188.7,1222.6,187.1,1223.6,187.4z M1218.5,150.8c0.6-0.9,0.9-4.6,0-5.5C1218.7,147.1,1217.2,149.5,1218.5,150.8z"/>
		<path class="st4" d="M1604.8,163.6c-0.7,0.9-2.2,1.2-3.2,1.8C1601,165.1,1603.2,163.5,1604.8,163.6z"/>
		<path class="st4" d="M948.8,187.9c0.1-1,5.3,0.3,6.9,0.9C953.9,189.8,951.4,187.6,948.8,187.9z"/>
		<path d="M1534.8,304.9c16-7.6,36.6-10.7,49.8-21c1.7-6.8,3.7-13.4,1.8-20.6c-3.9-2.8-9.2-13.4-16.9-11.4c-0.2-1.5-1-2.7-2.1-3.6
			c-2.9-3.4-0.1-2.8-0.1-2.8c0.6,0.6,1.1,1.2,1.3,1.8c0.9-0.8,3-0.3,4.6-0.5c6.3,4.9,12.9,9.7,16,17.8c-0.9,5.9-0.1,14.3-1.8,21
			c-0.5-0.1-0.4-0.8-0.5-1.4c-7.9,9.7-27.6,10.2-38.9,18.7c-3.3-0.4-7.7,1-11.4,2.7c3.6,6,10.3,8.8,15.5,13.3
			c-1.1,1.5,0.6,4.9,0.5,7.8c-1.4,0.5-0.8-1-0.9-1.8c-2.4,6.8-3.1,15.2-6.4,21c-0.3,2.1,1.3-0.7,0.9,1.4c-7.5,6.5-7,15.3-16.5,18.3
			c0.2-0.6,0.8-0.7,0.9-1.4c-1.3-0.5-3.3,1.5-1.4,1.4c-1,1-4.7-0.4-4.6,2.7c-20.9-1.4-41.4-3.6-63.1-4.1c2.6-1.6,10-0.8,13.7-0.5
			c-25.1-4.7-49.8-5.8-76.8-6.4c-2,0.1,0.2-1.3-0.9-1.8c-12.2-2.8-27.4-2.4-38.4-6.4c-7.6-0.4-18.5-1.3-26.1-2.7
			c-27.2-5.2-54.6-15.3-72.7-27.4c-3.1,0-4.1-2-7.3-1.8c-10.6-7.5-21-15.2-28.3-26.1c0.2-4.3-2.5-5.7-3.2-9.1
			c-0.6,0.1-0.4,1.1-0.5,1.8c-0.7-0.4-1-1.2-0.9-2.3c-1.7-3-4.7-2.3-7.8-2.7c-15.1-2.1-34.3-5.5-53.5-6.4
			c-8.7-0.4-18.7-0.6-26.1-1.4c-13-1.3-25.3-3.4-37.5-2.3c-14.1-3-27.5-2.4-42.5-3.7c-1.3,0.4-0.5,0.7-0.5,1.8
			c-1.4,0.5-0.8-1-0.9-1.8c-2.5-0.3-4.6,0.5-5.9,0c0.8-1,3.5-0.2,5-0.5c-5.9-1.3-12.9-1.4-19.7-1.8c0.6,1.6,3.6,0.7,5,1.4
			c-1.6,1.3-4.4-0.9-5.5,0.9c-1.3,0.1-1.1-1.4-2.3-1.4c-22.9,0.9-45.6-0.1-71.8,1.4c-5.5,0.3-11.3,1.9-15.1,1.4
			c-2.9-0.4-9.1-0.1-13.7-0.5c-5.6-0.5-10.8,1.5-16,1.4c-2.5-0.1-4.8-1.6-7.3-1.8c-5.5-0.6-11.3,0.2-16.9,0.5
			c-24.5,1.1-114.9,4.3-116.1,4.1c-6.6-1.1-767,10.8-771,9c-0.5-3.4,768-11.7,777.4-12.2c9.7-0.5,89.3-5.3,115.6-4.1
			c10.2,0.5,18.5,2.4,28.8,0.5c27.5,2.7,56.5-1.4,83.6,0c-0.8-2.4-4.3-0.2-7.3-0.9c21-4.6,44,1.8,66.3,1.8c15.1,0,29.7,0.5,43,2.7
			c-0.1-0.5-0.8-0.4-1.4-0.5c13.8-0.9,29.3,4,47.5,4.1c-2.1-1.4-6-1-8.7-1.8c10.5,0.2,25.2,2.6,36.1,3.7c-0.1-2.1-3.3-1.2-4.6-2.3
			c6.6,0.7,17.9,2.2,25.1,5c2,0.3-0.4-0.9,0.9-0.9c4.2,2.8,11.6,2.4,16.9,4.1c-1.3-4.4-4-12.1-1.4-17.4c-0.3,3.8,1.1,5.9,1.4,9.1
			c1.2-1.1-0.7-3,0-5c0.6,2.3,2.3,3.5,1.8,6.9c0.6-0.1,0.4-1.1,0.5-1.8c1.2,2.3,1.7,10.1,3.2,9.1c0.2,2.1,1,4.7,1.8,7.3
			c-0.6-0.2-0.7-0.8-1.4-0.9c1.7,7.9,8.4,10.8,11.9,16.9c-1.5,0.1-1.3-1.4-2.3-1.8c2.1,2.5,6.8,7.5,11.4,9.1
			c2.8,4.4,7.7,5.6,12.3,7.8c6.6,3.1,12.8,8,19.7,11c4.5,2,10,3.1,15.1,5c14.2,5.3,30.4,9.7,46.6,12.3c14,2.3,27.6,4,43.4,5
			c2.8,0.2,4.6,0.5,6.4,0c-0.5-2.3-3.1,0.3-5-0.5c8-3,19.3,1.7,26.5,4.1c-0.6,1.3-4.4-0.4-5,0.9c16.1,2.4,46,0.6,64.4,5.9
			c2.1,0.3-0.7-1.3,1.4-0.9c18.3,2.5,49.2,10.1,63.1-2.7c-0.3-0.9-2.6,1.5-3.7,0c0.3-1.9,3.1-1.1,4.6-1.8c3.8-3.7,6.2-8.8,7.3-15.1
			c2.1,1.9-1,5.8-1.8,7.8c4.3-4.6,7.2-16.9,5.5-27.4c-1.2,1.2,0.6,3.3,0,5.5c-0.6-5-2.9-8.3-5-11.9c-2.2,0.2-2.6-0.2-1.4-1.4
			c-0.9-0.2-1.4,0.1-1.4,0.9c0.3-2.7-2.3-4-4.6-4.1c0.1-0.5,0.8-0.4,1.4-0.5c-0.2-0.9-0.8-1.3-1.6-1.5
			C1531.7,307.2,1534.8,304.9,1534.8,304.9z M1576.4,250.5c-1.4-0.6-3.3-3.1-4.6-2.3C1573.4,248.7,1575.1,251.4,1576.4,250.5z
			 M1585.6,261.5c-0.5-1.9-1.4-3.5-2.7-4.6C1583.8,258.4,1583.7,260.9,1585.6,261.5z M1394.1,353.3c3.2,0,7.3,1.6,9.6,0.9
			C1400.8,353.2,1396,352.3,1394.1,353.3z M1524.3,367.5c-2.5-1.8-10-0.9-13.3-0.5C1515.5,367.2,1520.6,366.6,1524.3,367.5z
			 M1018.8,262.4c-2.3-0.8-7.8-0.8-10.1,0C1009.8,262.5,1018.1,262.6,1018.8,262.4z M1219.9,273.3c-0.5-1.3-0.4-3.2-1.4-4.1
			C1218.5,270.8,1219.4,273.8,1219.9,273.3z M1190.7,273.3c-2.3-0.3-6.1-1.5-7.8-0.9C1184.9,273.1,1189,273.9,1190.7,273.3z"/>
		<path class="st4" d="M1571.9,248.2c1.3-0.8,3.1,1.7,4.6,2.3C1575.1,251.4,1573.4,248.7,1571.9,248.2z"/>
		<path class="st4" d="M1582.8,256.9c1.3,1.1,2.2,2.6,2.7,4.6C1583.7,260.9,1583.8,258.4,1582.8,256.9z"/>
		<path class="st4" d="M1218.5,269.2c0.9,0.9,0.9,2.8,1.4,4.1C1219.4,273.8,1218.5,270.8,1218.5,269.2z"/>
		<path d="M1258.8,320c1-1.2,2.3,1.1,3.2,1.4C1261.4,322.2,1259.6,320.3,1258.8,320z"/>
		<path d="M1411.9,353.8c-0.3-0.9,3.6,1.1,5,1.4c4.4,0.9-3.4-0.2-4.1,0.5C1413.7,354.7,1412.3,354.6,1411.9,353.8z"/>
		<path d="M856,177.4c1.2-0.4-1.3-1.6,0-2.3c-1.9-1.1-3.9,0.3-5.5-0.5c-0.3-1,0.9-0.7,0.9-1.4c-6.5-0.1-9.9,0.1-17.8,0.5
			c2.2-1.2-0.4-1.6-2.3-1.4c-1,0.1-0.1,2-0.9,2.3c-0.9-0.1-0.1-2-0.9-2.3c-10.1-0.2-21.3,0-31.5-0.9c0.3,0.5,1.1,0.5,0.9,1.4
			c-4.2-2.1-11.6,1.5-16.9,0c-0.2-0.1,0.7-0.5,0.9-0.5c-0.9,0-3.3,0.9-4.1,0c2.6-3.1,8-2.7,10.5-1.4c10.5-0.3,25.7-1.6,40.7-0.5
			c3.5,0.3,7.2,2.2,10.5,2.3c5.4,0.1,10.1-2.7,15.1-1.4c2.1-10.6-1.2-24,4.6-31.1c2.7,0.4,0.7,1.8,0.9,3.2
			c4.3,22.9,13.8,46.6,19.2,69.5c0,0.8,2.2-0.7,2.7,0.5c-0.3,2,0.8,2.6,0.5,4.6c2.6-0.5,1-5.1,3.7-5.5c2.1,1.5,2.4,5.4,1.8,7.3
			c3.5-1.1,1.8-5,2.7-8.2c2.2,3.4,1,8.1-1.8,10.1c-2.3-0.9-2-4.4-3.2-6.4c-0.8,1.5-1,3.5-2.7,4.1c-2.3-0.2-2.2-2.7-3.2-4.1
			c-0.9,1.2-1.2,3-2.7,3.7c-1.8-0.5-2.9-1.7-3.7-3.2c-0.5,1.6-1.8,2.5-2.7,3.7c-1.6-0.5-2.7-1.6-3.2-3.2c-1.1,0.9-1.8,2.1-2.7,3.2
			c-1.8-0.1-1.4-2.2-3.2-2.3c-0.5,0.7-0.6,4.2-2.7,4.6c-1.9-2-2.8-6.1-3.2-8.7c-1.4-9.5,0.3-18.3-0.5-31.1
			c-19.1-4.1-41.4,0.8-55.3-4.6c-1.3,0.1-1,1.7-1.8,2.3c-4.1-0.3-13.9-0.8-21.5,0.9c-0.4,12.8-0.4,27.3-0.9,35.2
			c-3.2-11.4-0.3-22.4-0.9-32.5c-0.5-7.8-1.3-15.7,0.5-22.9c-0.3-0.8-1.1-0.3-0.9,0.5c-1-0.1-0.2-1.9-0.5-2.7
			c0.5,0.3,0.5,1.1,1.4,0.9c-1.7-7,1-17.8,3.7-25.6c-1.1,13.2-0.6,31.1-1.8,44.8c1.7,0.6,6-0.9,8.2,0c1.6-0.6,0.1-1.5,0.9-2.7
			c-0.2,3.3,5.1,2.5,8.7,3.2c0.2-3-4.3-1.2-5.9-2.3c6.8-1.5,14.8-0.2,22.9,0.9c7.1,1,14.6-0.1,21.9,0.5c7.2,0.5,14.4,1.6,21.5,1.8
			C856.4,178.6,855,176.3,856,177.4z M858.3,164.6c3.9,13.1,10.9,25.4,12.3,39.3c-3.3-12.8-8.8-23.5-12.3-36.1
			c0.4,3-1.2,5.4,0.9,6.4c-0.7,0-1.6-0.1-1.4,0.9c0.1,13.7,7.9,24.5,8.2,37.9c-3.7-7.1-4.5-17.1-7.8-24.7c0.4,9.6-1.3,21.1,2.3,30.6
			c1.1-1.5,1.2-4,3.2-4.6c1.4,0.1,0.1,3,1.8,2.7c1.2-1.2,0.6-4.3,3.2-4.1c1.4,0.7,0.5,3.7,2.7,3.7c1.5-1.1,0.4-4.7,3.7-4.1
			c1.4,1.2,0.8,4.4,3.2,4.6c0.5-0.7,0.6-1.9,1.4-2.3c-7.2-22.8-13.7-46.3-19.7-70.4C859.2,151.8,859.2,157.5,858.3,164.6z
			 M851.9,173.7c1.4-0.1,3.6,0.5,3.7-0.9C854.2,172.9,852,172.3,851.9,173.7z"/>
	</g>
</g>
</svg>
