<?xml version="1.0" encoding="utf-8"?>
<!-- Generator: Adobe Illustrator 21.1.0, SVG Export Plug-In . SVG Version: 6.00 Build 0)  -->
<svg version="1.1" id="圖層_1" xmlns="http://www.w3.org/2000/svg" xmlns:xlink="http://www.w3.org/1999/xlink" x="0px" y="0px"
	 viewBox="0 0 743.7 550" style="enable-background:new 0 0 743.7 550;" xml:space="preserve">
<style type="text/css">
	.st0{fill:#B0DDE5;}
	.st1{opacity:0.5;fill:#D05399;}
	.st2{fill:#FFFFFF;}
</style>
<g>
	<path class="st0" d="M579.1,247.5c-12-8-26.3-12.5-40.6-12.9c-4-1.2-25.6-12-26.9-13.3c-13.8-13.7-5.8-32.6-2.2-39
		c6.1-10.9,13.8-20.5,19.2-31.9c2.6-5.6,2.8-11.1,1.4-15.9c-2.5-9.7-11-18-21.1-17.5c-5.4-0.5-10.8,1.3-14.9,6
		c-8,5.2-24.6,15.5-29.8,6.7C445,97.3,522.1,65.7,442.5,7.6c-20.2-14.8-55.8,8.2-68,28.7c-10.8,18.1-13.3,58.7-36.1,67
		c-1.2,0-2.4-0.1-3.3-0.1c-2.4-0.8-6-1.9-7.7-2.2c-20.1-11.1-30-37.5-38.8-60.1c-0.7-1.8-1.6-3.4-2.6-4.9c-0.5-2.9-1-5.8-1.4-8.7
		c-4.2-27.9-46.6-16-42.4,11.7c2,12.9,5.3,26.5,4.9,39.6c-0.3,8.9-4.7,14.1-9.9,19.4c-0.2,0-0.3,0.1-0.5,0.1
		c-11-0.3-22-0.3-32.9,0.6c-11.9-5.8-26.8-7.4-39.2-9c-16.2-2-33.5,0.6-46,10.1c-12.3,4.8-22.6,14-28.7,29.4
		c-7.8,19.6-0.2,40.3,16.5,52.6c16.6,12.2,39.5,15.6,59.2,19.6c4.6,1.3,17.3,0,20.6,3.6c3.7,4,3.2,6,0.5,11.5
		c-5.4,11-25.6,25.6-35.3,32.7c-19,14-12.6,39.6,12.3,41.1c21.4,1.3,65.9-8.2,41.8,33.9c-18.3,32-72.8,103.7-15,128
		c43.3,18.3,94.5-31.1,131-39.3c21.7-4.9-42,55.7-9.2,66.6c18.8,6.3,93.5-87.2,70.4-4.3c-2.6,9.4-4.2,18.3-3.3,28.3
		c1.4,14.4,21.4,42,44.1,43.6c31.1,2.2,49.9-24.4,52.5-53.7c0.7-8-2.1-14.9-2.7-23c-0.6-8.1-1.6-20.1,0.2-28.1
		c1.3-5.8,13.2-17.9,15-19c11.5-6.7,22.1,0.1,34.4,1c24.9,1.8,31-32.8,12.1-44.6c-6-3.8-8.7-5.1-10.5-11.6c-4.1-14.4,9-18.9,12.4-21
		c21.8,0.3,43.9,15.6,65.7,9.6c17.5-4.9,31.4-27.5,31.6-44.8C634.9,279.6,607.6,259.9,579.1,247.5z"/>
	<path class="st0" d="M86.3,440.8c-0.8-6.7-5.3-11.8-11.1-14.6c8.4-10.7,12.5-22.3-2.5-26.9c-9.6-2.9-21.2,3.2-29,8.3
		c-1,0.6-1.9,1.3-2.9,2c-0.5-1-1-1.7-1.3-2.1c-5.4-6.5-13.4-10.2-21.6-6.9c-7.7,3-12.5,10.7-12.9,18.9c-0.2,4.2,0.9,8.2,2.7,11.9
		c0.9,1.8,1.9,3.4,2.9,5.1c-1.1,0.7-2.2,1.5-3.3,2.4c-9.9,7.8,0.8,22.2,11.3,20.1c0,0.7,0,1.4-0.1,2.1c0.1,1.4,0.3,2.8,0.5,4.1
		c-2,2.4-3,5.3-2.6,8.9c0.8,5.9,5.8,10.3,11.8,10.4c6.9,0.1,14.9,1.3,20.3-3.9c3.5-3.4,5-8.6,3.8-13.4c-0.2-0.9-0.6-1.8-0.9-2.7
		c2.4,1.9,4.5,3.9,5.6,6.5c6.1,14.1,26.7,1.9,20.7-12.1c-0.4-0.8-0.8-1.6-1.2-2.3C82.9,453.7,87.3,449,86.3,440.8z"/>
	<path class="st0" d="M67.8,290.1c0-1.1-0.2-2-0.5-3c0.6-3.7-0.2-7.6-2.6-10.7c-7.3-9.4-22.2-4.9-24.5,6.3c-0.3,1.4-0.5,2.8-0.5,4.2
		c-1.2,4.3-0.5,8.8,2.3,12.3c4.1,5.3,11.2,5.8,16.5,2.5C63.6,300.6,68,295.4,67.8,290.1z"/>
	<path class="st0" d="M732.2,381.4c-4.8-4.4-10.1-7-16.8-5.5c-4.3,0.9-8.3,3-11.4,5.9c-4.1,1.9-6.5,5.9-7.1,10.8
		c-0.7,5.9,1.8,11.7,5.9,16.1c0.1,0.2,0.2,0.4,0.3,0.6c3.7,6.4,10.4,7.6,17.2,6.5c2.2-0.4,4.2-1.8,5.7-3.6c1.7-0.6,3.3-1.3,4.8-2.2
		c5.1-3.1,8-8.3,8.1-14.3C739,390.2,736.1,385,732.2,381.4z"/>
	<path class="st0" d="M719.4,262.2c-1.2-1.2-3-2-4.8-2.3c-3.4-2.2-8.8-0.5-10.7,3c-2.2,4.1-0.8,8.3,2.9,10.9c1.2,0.9,2.7,1.5,4.2,2
		c2.5,0.8,4.7,0.2,7-0.8c2.6-1.1,3.8-4.3,4-6.9C722,266,720.9,263.8,719.4,262.2z"/>
	<path class="st0" d="M49.3,34.2c-4.1,0.2-8.3,3.5-8,8c0,0.2,0,0.4,0,0.5c-0.1,0.3-0.2,0.6-0.3,0.8c-1.5,3.9,1.7,8.9,5.6,9.8
		c4.6,1,8.2-1.4,9.8-5.6c0.7-1.7,1-3.8,0.8-5.6C57,38,53.8,34,49.3,34.2z"/>
	<g>
		<path d="M321.4,414.6c-8.5,6.9-16.9,13.9-25.6,20.5c-6,4.5-11.9,8.9-19.6,10.9c-12.9,3.3-25.5,7.9-38.3,11.6
			c-4.8,1.4-9.8,2.1-14.7,2.5c-5.5,0.4-11,0.6-16.4,0c-11.3-1.3-14.9-2.6-27.7-10.5c-1.3-1.3-5.5-5-7.1-5.9
			c-4.2-2.5-8.9-21.3-9-26.5c-0.7-13,6.9-29.8,8.8-34.8c0.2-0.6,9.5-18,12.6-26.8c1.6-4.6,4.3-8.8,6.5-13.2c0.3-0.6,0.7-1.3,1-1.9
			c2.1-4.2,4.2-8.4,6.3-12.6c2.9-5.7,6.2-11.3,8.5-17.3c2.2-5.9,0.4-9.1-5.1-11.8c-3.1-1.5-6.1-3.7-9.4-4.1
			c-4.2-0.6-8.8-0.6-12.8,0.6c-9.1,2.8-17.1-1-25.2-3.2c-10.9-3-16.3-11.8-17.4-22.2c-0.7-6.7,3.6-12.8,8.5-17.3
			c6.3-5.8,13.5-10.7,19.7-16.6c6.5-6.2,12.4-13,18.5-19.6c1-1.1,2.3-2.2,2.6-3.5c0.7-3.4-2.2-5.2-7.2-5.7c-9.4-0.8-18.8-1.4-28.1-3
			c-4.9-0.8-9.3-4.3-14.1-5.2c-10.2-1.9-17.5-9-26.2-13.4c-9.6-4.8-15.2-13.6-21.2-22c-4.2-5.8-5.9-12.1-5.6-19.2
			c0.2-4.8-0.3-9.7,0.1-14.4c0.8-8.4,5.8-14.7,11.4-20.3c4.6-4.7,9.9-8.7,15.1-12.7c1.9-1.4,4.4-2,6.6-2.9c5.1-2.2,10-5.2,15.3-6.4
			c6.2-1.4,12.8-1.3,19.2-1.6c10.3-0.4,20.2,1.8,30.1,4.6c13.2,3.7,26.7,6.5,40.3,8.5c3.1,0.5,11.5-1.2,14.9-3.4
			c10.6-7,9.8-18.7,7.2-31.3c-1.4-6.4,0.7-13.9-1.7-19.8c-3.6-8.8,0.4-16.3,1.9-24c0.9-4.6,4.8-9,10-10.9
			c11.7-4.4,22.9-0.4,28.8,10.9c3.7,7.1,6.2,14.9,9.6,22.3c5.6,12.3,11.1,24.5,19,35.7c4.2,6,6.4,11.4,12.9,15.7
			c4.5,2.9,8.2,5.8,14.8,5.7c9.8-2,11-8.4,13.4-12.3c2.3-3.7,3.2-8.3,4.2-12.7c1.1-4.7,1.1-9.7,2.5-14.3c2.9-9.6,6.8-18.7,13.5-26.4
			c6.8-7.8,13-16.2,20.6-23.1c4.3-3.9,10.8-5.5,16.3-8.1c5.6-2.7,11.5-2.7,17.5-3c10.9-0.4,20.4,3.1,28.1,10.3
			c7.4,6.9,14.8,14.3,20.4,22.7c3.8,5.7,4.6,13.4,6.5,20.2c0.9,3.1,2,6.3,1.8,9.5c-0.2,5.3-0.3,11-2.3,15.7
			c-3.9,9.2-9,17.9-13.8,26.7c-1,1.8-2.9,3.2-4,4.9c-0.9,1.4-1.9,3.2-1.7,4.6c0.7,4,1.5,8,3.2,11.7c1.7,3.8,4.7,5.9,9.1,3.2
			c5.6-3.5,11.2-6.9,16.8-10.4c1.3-0.8,2.7-1.5,4-2.2c10-5.3,21.3-4.5,29,2.6c12.5,11.6,12.8,24.7,3.3,38.9
			c-6.3,9.4-11.5,19.4-17.5,29c-7.2,11.5-3.2,21.8,4,30.9c3.2,4.1,9.2,6.1,14.1,8.9c7,3.9,14.9,2.1,22.3,3.1c6.7,0.9,13.5,3,19.4,6
			c12.2,6.2,24.5,12.7,35.8,20.4c10.8,7.3,19.1,17.4,26,28.7c6.7,11,7.3,22.5,5.9,34.9c-2,16.8-11.4,27.3-25.4,35.6
			c-6.2,3.7-12.7,3.4-19.1,4.5c-5.6,1-10.7,1.8-18.4-0.2c-9.6-5.1-20.6-4.6-30.6-7.8c-5.2-1.7-9.4-2.1-13.9,0.6
			c-4.7,2.7-6.9,9.5-4.4,14.2c3.8,6.9,8.6,12.5,15.8,16.7c7.5,4.4,10.9,12.1,9.5,21.4c-1,6.9-4.6,11.7-10.9,14.7
			c-6.8,3.3-13.2,7.5-20.2,9.8c-3.6,1.2-8.1,2.4-12.7-0.9c-9.5-6.8-26.5-0.8-28.9,10.6c-2,9.4-1.9,19.3-1.7,28.9
			c0.1,8.1,2.3,16.2,2.3,24.3c0,7.6-0.7,15.6-3,22.8c-1.8,5.5-6.8,9.9-9.9,15c-6.8,11.1-18.8,13-29.6,16.8
			c-6.7,2.4-13.6,3.6-21.2,2.4c-8-1.2-14.3-4.7-19.6-10c-8.8-8.9-15.2-19.1-18.2-31.8c-2.7-11.5-1.1-21.8,2.6-32.6
			c2.4-7.1,3.5-14.8,4.2-22.3c0.7-7.3-3.2-9.3-10.1-8c-8.4,1.6-13,7.8-17.4,13.6c-6,8-13.3,14-21.7,19.2c-9.5,5.9-19.3,7.7-29.1,2.2
			c-4-2.3-7.1-7.2-9.1-11.7c-1-2.3,0.4-6.5,2-9c5-7.7,11.4-14.6,15.9-22.5C318.5,430.4,324.8,424.6,321.4,414.6z M352.3,100.5
			c-3.6,2-7,5-10.9,5.8c-9.5,1.9-16.8-4-22.9-9.8c-6.3-5.9-11.3-13.5-16-20.9c-4.1-6.5-7.2-13.8-10.5-20.9
			c-3.7-7.7-7.7-15.3-10.6-23.3c-2.7-7.4-7.2-13-13.7-17c-2-1.2-3.7-1.9-6.7-1.8c-2.5,0.1-5.2,1.4-7.2,2.9c-1.9,1.4-3.3,3.9-4.5,6.1
			c-4,7.5-3.9,11.3-4,19.3c0,2.1,4.7,25.2,3.7,42c-0.2,3-1.2,6.4-3,8.7c-4.7,5.9-11.7,8.9-18.4,11.9c-9.6,4.3-19.9,2.7-30,2.9
			c-0.6,0-1.3-0.1-1.8-0.4c-7.5-3.6-14.9-7.3-22.5-10.7c-8.6-3.8-17.7-4.5-26.7-2.5c-14.7,3.2-27,11.2-38.2,20.8
			c-5.8,5-11.2,10.5-15.9,16.6c-2.5,3.3-3.6,8-4,12.2c-0.7,7.8,2.9,14.4,7.1,20.7c5.2,7.9,12.4,13.3,20.1,18.8
			c10.8,7.7,22.4,12.7,34.7,16.6c9.6,3.1,19.6,3.2,29.6,2.7c5-0.2,8.3,2.4,10.7,5.7c1.4,2,1.7,6.3,0.4,8.4
			c-6.9,11.4-15.5,21.3-27.4,28.1c-4.2,2.4-8.1,5.5-11.5,8.9c-2.7,2.7-7.1,6.8-8.3,10c-2.4,6-4.3,10.9,1.2,18.2
			c0.8,1.1,4.6,3.5,6.9,5c5,2.7,12.5,4.6,19,4.8c5.9,0.2,11.9-5,17.7-4.5c8.2,0.7,15.6,3.1,20.9,11c4.2,6.2,3.4,11.8,1.2,17.2
			c-4.5,10.8-10,21.1-15.2,31.6c-2.1,4.3-4.8,8.4-6.7,12.9c-2.4,5.8-3.9,12-6.3,17.8c-3.8,9.2-8.2,18.1-12,27.2
			c-4.3,10.1-3,20.7,1.1,30c4.2,9.4,17.5,17.6,25.2,18.6c6,1.7,25.8,3.4,32.7,0.5c4.1-1.7,8.6-2.6,12.8-4.1c5.9-2,12-3.7,17.4-6.6
			c7.3-3.9,13.8-9.2,21.2-13c13.5-6.9,27.3-13.1,41.1-19.5c1-0.5,3.2,0,3.9,0.9c3.8,4.9,3.2,14.6-0.6,19.9
			c-6.1,8.4-12,16.9-17.8,25.5c-2.8,4.1-1.2,16.5,2.2,19.4c4.8,4.1,19,2.1,22.6-3.2c0.7-1,1.7-1.8,2.6-2.6
			c6.7-6,13.5-11.7,19.9-17.9c4-3.9,7.2-8.6,11.3-12.5c3.5-3.2,7.7-4.9,12.8-3.1c6.9,2.5,13.3,13.9,11.6,21
			c-0.8,3.3-1.9,6.5-2.4,9.8c-0.6,4.4,0.4,9.3-1.3,13.1c-3.4,7.4-10.6,28.2,7.7,49.1c4.7,6.3,11,11.3,18.9,13.7
			c7.3,2.2,13,1.1,21.8-0.7c10.1-3,16.1-5.5,23.6-10.4c4.3-2.8,8.8-8.1,10.1-14.4c1.1-5.4,3.5-10.5,4.4-15.9
			c1.6-9.7-1.9-18.9-3.6-28.3c-1.5-8.4-2.7-17-3.9-25.4c-0.1-1,0.7-2.1,0.9-3.1c0.4-2,0.9-4,0.9-6c0.2-8.3,7.5-15.5,15.8-15.6
			c2,0,4.4,0.4,6.1-0.5c7.4-4.1,15.4-4.8,23.6-5.3c7.7-0.4,15.5-1.2,23-3c3.4-0.8,7.9-3.8,8.7-6.7c0.8-2.9,0.9-11.2-1.5-13.9
			c-6.2-7.1-16.1-9.5-22-16.8c-9-11.1-2.5-28,11.5-30.1c6.3-1,15-0.2,19.7,1.2c8.8,4.9,16.7,2.9,22.7,6c2.8,1.4,6.1,2.8,9.2,2.9
			c9.3,0.4,18.5-0.6,26.5-5.7c6.8-4.3,15.5-11.2,17.7-20.1c1.3-5.4,1.9-7.9,2.9-13.3c0.7-4,1-8.7-0.4-12.3
			c-4.6-11.8-8.9-23.6-18.1-33.3c-7.8-8.2-15.8-15.6-25.9-20.5c-7.6-3.7-15.3-7.3-23-10.9c-2.4-1.1-4.8-2.3-7.4-2.6
			c-6.7-1-13.6-2.5-20.2-2c-9.3,0.6-17.3-0.8-23-8.5c-3.4-4.6-5.8-9.9-9-14.6c-6.4-9.5-4.6-18.9,0-28.3c3.1-6.4,6.6-12.6,10-18.8
			c3.5-6.3,7.3-12.4,10.7-18.7c2.3-4.3,6.1-8.6,2.9-13.9c-2-3.2-4.9-5.9-7.5-8.7c-4.9-5.3-18.6-6.2-24.4-1.8
			c-6.3,4.9-12.7,9.7-19.2,14.4c-3.8,2.7-9.9,1.5-12.3-2.2c-2.1-3.4-3.7-7.2-5.9-10.4c-3-7.7-0.2-16.3,4.7-24.7
			c5.6-9.6,9.7-20.2,11.1-31.7c0.3-2.5,0.8-6.9,1.1-9.5c0.9-9.4-4-16.3-7.6-24.8c-3-7-8.8-11.6-14.3-16.7
			c-9.3-8.5-19.6-12-32.3-11.3c-11,0.6-20,4.7-27.8,11.8c-10.3,9.4-19.4,19.8-24.8,33c-1.7,4.2-3.5,8.4-4.7,12.7
			c-1,3.7-2.9,7.3-3.6,10.7c-1.5,7.8-0.9,9.2-2.7,15.5C357,93.5,354.2,99.4,352.3,100.5z M88.2,126.3c0.4,0.1,0.8,0.3,1.2,0.4
			c11.6-17.3,28.1-28.4,47-36.6c-1.3-0.7-2.3-1.2-3-0.8c-7.6,3.4-15.3,6.8-22.7,10.6c-9.5,4.9-15.9,13-21.6,21.7
			C88.3,122.9,88.5,124.7,88.2,126.3z M271.2,442.6c11.4-3.1,21.4-9,29.7-17.5C289.3,428,281.3,437.1,271.2,442.6z M471.2,456.4
			c0.8-3.6,2.5-7.3,2.1-10.9c-0.7-6.7,1.9-11.7,6.1-16.3c0.6-0.6,2-0.4,3-0.6c-0.6-0.6-1.2-1.2-1.8-1.8
			C472.3,429.6,466.8,447,471.2,456.4z M207.3,100.6c-7.4-2-14.8-4-22.2-5.9C191.4,100.5,199,102.3,207.3,100.6z M523,423.5
			c-0.1-0.7-0.1-1.3-0.2-2c-5.6,0.6-11.2,1.1-16.7,1.7c0,0.1,0,0.2,0,0.3C511.8,423.5,517.4,423.5,523,423.5z"/>
		<path d="M80.5,428.2c5.1,1,9.9,5.8,10.6,11.4c1.3,10.9,1.1,10.7-10.3,17.3c3.3,8.7,2.3,16.1-4.4,19.8c-8.5,4.8-15.3-0.7-21.9-6.9
			c-1.7,8.1-6.1,13.6-13.3,15.3c-5.7,1.4-12,0.7-18,0.7c-1.3,0-2.6-0.8-3.9-1.2c-4.9-1.4-5.4-5.6-5.8-9.5c-0.5-4.8-0.3-9.7-0.4-14.9
			c-4.9,0.1-9.1-1.5-11.8-6c-2.5-4.1-1.6-13.7,1.8-17.2c1.9-1.9,3.5-2.9,2.2-7.1c-3.6-11.2-0.2-21.6,9-29.3
			c4.9-4.1,21.8-5.2,26.9,1.8c1.7,2.4,3.6,2.7,6.2,0.4c4.5-4.1,9.9-6.5,16.2-6.1c5.9,0.4,11.8-1,17.4,2.7c3.7,2.4,6.4,6.4,5,10.6
			C84.1,416.1,82.4,422,80.5,428.2z M19.7,457c-0.5,5.1-1.6,9.4-1.1,13.5c0.4,4-1,9.3,4.1,11.5c2.6,1.1,5.8,0.9,8.7,1.1
			c11.8,1.1,17.4-8.9,17.9-18.2c0.2-4,1.8-4.9,4.3-3.3c3.6,2.3,6.3,6,9.8,8.6c2.2,1.7,6.7,4.1,7.4,3.4c2.6-2.6,5-6.1,5.7-9.6
			c0.6-2.8-1.5-6.2-2.4-9.5c12.4-5.8,11.8-4.7,11.2-14.8c-0.5-8.6-8.1-8.5-15.3-9.9c1.2-1.8,1.8-3.2,2.8-4.2
			c5.1-5.4,7.5-11.8,7.6-19.1c0-1.2-1-3-2.1-3.5c-3.1-1.4-6.4-3.1-9.7-3.2c-9.1-0.1-16.6,4.2-23.2,10.4c-1.2,1.2-3.1,2.8-4.4,2.5
			c-1.2-0.2-2.3-2.5-2.8-4.1c-1.3-3.9-2.9-6.9-7.9-6.2c-0.9,0.1-1.9-0.6-2.7-0.5c-3.7,0.8-8.1,0.8-10.8,2.9
			c-6.1,4.9-6.9,12.1-6.5,19.7c0.3,4.4,2,6.9,7.4,8.5c-9.1,3.3-14.1,9.1-12.6,17.1C6.4,456.4,12.5,458.1,19.7,457z"/>
		<path d="M717,375.7c-3.5,1.7-7.1,3.1-10.3,5.2c-3.7,2.4-6.8,5.6-10.4,8.1c-0.8,0.6-2.4,0.2-3.6,0.2c0.2-1.2,0.1-2.9,0.8-3.6
			c6.2-6.3,13.8-10.7,22.1-13.2c3.4-1,8.2,0.5,11.5,2.4c5.6,3.3,11.3,6.7,14.8,12.7c2.7,4.7,2.5,12-1,16
			c-6.2,7.2-12.8,13.7-22.8,15.6c-6.8,1.3-13.6-0.6-17.3-6.1c-2.2-3.3-4-6.8-6.1-10.1c-1.3-2.1-1-3.8,1.5-4.3c1-0.2,3.2,1,3.3,1.8
			c0.9,5.2,5.7,7.3,8.1,11.3c2.7,4.5,7.3,2.9,11.2,3.1c7.1,0.5,21-12.5,19-20.5c-0.9-3.7-2.8-7.6-5.4-10.2
			C728.5,380.4,724.1,376.1,717,375.7z"/>
		<path d="M71,288.2c0.5,4.4-0.9,8.3-5.1,11.1c-3.5,2.3-6.4,5.7-10.1,7.2c-9.5,3.8-17.5-1.2-17.3-13.8c0.1-2.6,0.3-5.2-0.1-7.7
			c-1.1-7.2,3.3-10.7,8.6-14.2c12.8-8.3,22.9,3,24,13.5C71.1,285.5,71,286.6,71,288.2z M43.8,289.6c0.4,2.5,0.9,4.9,1.2,7.4
			c0.3,2.2-0.6,5.2,3.3,5c2.5-0.1,5.4,0.4,7.4-0.7c8.5-4.7,11-10.3,9.6-20c-0.8-5.5-8.6-9.2-13.5-6.6
			C45.7,277.9,43,282.6,43.8,289.6z"/>
		<path d="M49,31.8c9.7-2,12.4,8.4,8.7,16.6c-0.5,1.1-0.9,2.3-1,3.5c-0.1,1.6-4.6,7.2-7.2,7.5c-3.8,0.4-10-6-10.1-10
			c0-2.9-0.3-5.8,0.1-8.6C40.3,35.3,41.5,30.7,49,31.8z M44.4,47.6c0.1,1.4,1.4,3.2,2.6,4.1c0.8,0.6,2.9,0.1,3.8-0.6
			c2.5-1.8,4.2-9.9,2.9-12.6c-0.3-0.7-1.3-1.5-2.1-1.6C49.7,36.7,44.2,43.9,44.4,47.6z"/>
		<path d="M710.9,256c6.9-1,12.3,6.8,12.7,12.2c0.4,4.8-6.5,10.4-12.6,10.7c-5.1,0.2-10.3-6.4-10.3-13
			C700.8,259.5,704.3,256,710.9,256z M709.2,259c-5.2,2-6.6,10.2-2,15c3,3.1,7.6,1.2,10.7-1.3C724.1,266.4,713.2,257.8,709.2,259z"
			/>
	</g>
</g>
<g>
	<path class="st0" d="M473.5,280.6c0.2-3.7-0.7-6.9-2.3-9.5c-0.9-11.4-3.8-22.4-8.7-32.9c-3.4-14.2-8.5-27.6-14.9-38.7
		c-9-15.4-22.6-26.9-37.4-36.5c-6.2-4-11.8-7.4-18.6-8.2c-6.9-4.2-17.6-3.8-22.8,2.6c-3.1,3.9-5.4,7.4-7.3,11.4
		c-4.6,3.2-8.8,6.6-12.8,10.2c-8,4.9-16.9,9.2-23.5,13.3c-14,8.6-29.4,13.5-44.1,20.4c-16.1,7.5-25.8,19.5-28.6,34.1
		c-9.6,14.7-4,39.8-1.2,55.3c2.1,11.8,5.2,24.2,11.3,34.4c0.1,0.6,0.1,1.1,0.3,1.7c10.5,49.8,68.9,86.1,118.5,68.9
		c11.5-4,20.6-11.9,29.5-19.9c3.4-3,6.9-6.1,10.4-9.1c3.1-1.6,6.1-3.4,9-5.3c10.4-7,16.4-13.8,19.7-21.5
		C467.1,332,472.3,306,473.5,280.6z"/>
	<path class="st1" d="M454.1,209.3c-6.6-15-11.3-24-23-32.4c-0.4-0.7-28.7-19.3-45.9-23.6c-23.5-8.4-47.6-9.6-71,0
		c-2.3-2-4.5-4-6.8-6c-0.3-2.1-0.6-4.2-1-6.3c-0.3-3.1-0.2-6.2-0.1-9.2c0.1-5.6,0.4-11.2,1-16.8c0.3-3-3.3-4.3-5.5-3.2
		c-7.3,3.6-16.2,7.6-21.1,14.3c-0.8,1.1-0.5,2.6,0,3.7c3.7,8.2,24.9,23.2,16.4,33c-0.5,0.5-9.5,4.7-13,7.9
		c-8.4,7.6-19.8,37.4-20.5,38.2c-16.1,20.9-15.4,60.4-13.8,85.2c0.2,2.3,1.7,14.5,2.3,18.6c2.2,16.3,24.8,54.7,25.8,56.6
		c5.7,10.1,14.5,20,25.1,25.1c4.2,2,26.1,13.6,35.9,13.6c1.6,0.4,22,2.3,23.6,2.5c30.1-5.6,50-26,52.3-28.6
		c21.6-24.7,44-50.9,52-83.5C474.2,268.4,466.4,237.1,454.1,209.3z"/>
	<g>
		<path d="M426.8,375c-4,3-8.8,5.3-11.9,9.1c-8.1,9.9-18.2,16.7-29.5,22.1c-7.2,3.5-14.5,6.3-22.6,5.9c-8.6-0.4-17.3-0.4-25.9-1
			c-3.4-0.2-6.7-1.5-10-2.6c-4.4-1.6-8.6-3.7-12.9-5.3c-11.8-4.4-21.2-12.2-29.6-21.2c-10.4-11.2-18.9-23.5-24-38.1
			c-3-8.6-7.2-16.8-9.4-25.6c-2.2-8.9-2.7-18.2-3.8-27.3c-0.8-6.5-2-13.1-1.6-19.6c0.5-9,2.2-18,3.7-26.9c1-5.9,2-12,4.1-17.6
			c4-10.7,8.7-21.2,13.2-31.7c2.2-5.2,8-16.6,8.3-17.1c3.6-5.5,9.4-11.1,16-14.4c6.8-3.4,5.1-8.5,3.6-14c-5.3,0.4-6.8-4.1-9.3-7.6
			c-1.6-2.2-3.4-4.2-5.4-6c-3.1-2.8-3.5-10.7,0.1-13c8.2-5.3,16.6-10.2,25-15.1c0.7-0.4,2.6,0.1,3.1,0.8c0.9,1.2,1.5,2.8,1.5,4.3
			c-0.3,7.5-1.1,15.1-1,22.6c0.1,4.3,1.6,8.6,2.4,13.2c4.8-1.2,9.1-2.4,13.4-3.4c6.8-1.6,13.5-4.2,20.8-2.2c3,0.8,6.3,0.8,9.5,1.1
			c9.8,0.9,19.7,1.6,29.5,2.8c2.7,0.3,5.3,2.1,7.8,3.4c7,3.5,13.9,7.1,20.8,10.6c10.1,5,18.5,12,26.7,19.7c5.4,5,8.3,11.1,11.7,17.1
			c4.6,8.2,8.7,16.7,12.3,25.4c2.8,7,4.6,14.5,6.6,21.8c1.6,5.9,3.7,11.8,4.3,17.9c0.9,8.9,1.2,17.9,0.9,26.8
			c-0.2,7.5-0.8,15.3-2.8,22.5c-2.5,8.7-6,17.2-10.3,25.1c-3.4,6.3-8.6,11.7-13.3,17.3c-5.7,6.8-11.7,13.4-17.7,19.9
			c-0.8,0.8-2.9,0.4-4.4,0.6c1.4-0.9,3.2-1.5,4.1-2.8c7.5-9.6,15.1-19.2,22.1-29.2c4.4-6.3,8.5-12.8,10.2-20.6
			c1.9-8.3,5.5-16.1,5.4-25c-0.1-5.7,1.4-11.3,2.2-17c-0.4-0.1-0.8-0.2-1.2-0.3c-0.7,1.4-1.9,2.7-2.1,4.2c-1.9,12.6-2,25.5-7.8,37.3
			c-4.1,8.4-7.1,17.3-11.8,25.3c-3.8,6.6-9.5,12-14.1,18.1C431.2,368.2,429.1,371.6,426.8,375z M377.3,201.6
			c-5.2,5.5-10.7,11.1-15.9,16.9c-1.4,1.5-2.6,3.8-2.6,5.7c0,12.1,0.4,24.1,0.8,36.1c0.5,13.5,1.4,26.9,1.7,40.3
			c0.5,20.1,0.6,40.2,1,60.2c0.1,3.3,0.4,6.7,0.8,10c0.8,6.6,1.9,13.2,2.5,19.8c0.1,1-1.2,2.2-1.8,3.3c-1-0.6-2.6-1-3-1.8
			c-0.8-1.8-1-3.9-1.2-5.9c-0.4-5.4-0.5-10.8-1-16.2c-0.5-6.4-1.5-12.7-1.7-19.1c-0.5-17.5-0.7-35-0.9-52.4c-0.1-14.3,0-28.6,0-42.9
			c0-3-0.1-5.9-0.1-8.9c0-7.6,0-15.3,0-23.1c-1.1,0.1-1.8,0-2.3,0.3c-8.3,5.9-16.7,11.7-24.9,17.7c-5.9,4.3-11.5,9-17.6,13
			c-4.1,2.7-9.5,3.8-13.3,6.8c-6.1,4.8-12.5,7.7-20.2,7.4c-1.8-0.1-3.7,0-5.1,0c4.5,32.1,5.9,64.1,13.6,95.3c-1.6,0-2.9,0-4.6,0
			c-7.5-31.3-11.1-63-10.6-95c-7.9,1.1-12.8-4.8-18.1-7.9c-0.6,3.2-1.4,5.7-1.6,8.3c-1.5,20.1,2.4,40,4.8,47.3
			c3.5,10.9,8.1,21.4,12.5,32c2,4.8,4.7,9.4,7.5,13.8c2.5,4,16,21.7,21.3,24.8c10.4,6.2,25.8,15,35.7,16.7
			c4.9,0.8,10.1-0.3,15.1,0.2c12.2,1.4,23.5-2.4,34.8-5.8c12.1-3.6,23.3-9.3,31.7-19.4c5.9-7.1,13.4-13.1,18.8-20.5
			c4.4-6.2,10.9-10.2,14.7-17.2c6.1-11.2,11.2-22.5,13.3-35.2c0.8-4.7,1.1-9.5,1.8-14.2c1-6.2,2.7-12.3,3.3-18.6
			c1-10.5-1.6-20.6-4.6-30.5c-3-9.8-7-19.3-10.2-29c-3-9.1-7.8-16.9-13.1-24.5c-1.4-2.1-15.4-15.8-29.8-25.6
			c-5.1-3.5-11.2-4.3-18.2-3.6c-1.1,5-2.1,10.2-3.5,15.3c-1.3,4.7-3.8,9.1-4.3,13.8c-1.1,9.4-1.6,19-1.7,28.5
			c-0.1,6.9,0.9,13.8,1.5,20.7c0.5,5,1.4,10.1,1.6,15.1c0.3,8.2,0.1,16.3,0.2,24.5c0.2,9.2,0.7,18.3,0.8,27.5
			c0.4,24.7,0.6,49.4,0.9,74.1c0,2.7,0.6,5.4,1,8.3c-1.8,0-3,0-5.1,0c-0.4-5.5-0.9-10.8-1.2-16.1c-0.2-3.1,0-6.2,0-9.3
			c-0.3-10.9-0.8-21.7-0.8-32.6c-0.1-21.1,0-42.2-0.1-63.3c0-6.9-0.6-13.8-0.9-20.7c-0.6-13-1.2-26-1.7-39
			C377.2,204.9,377.3,202.8,377.3,201.6z M255.1,250.3c0,7.2,2.3,11.5,8,13.1c7,2,14.5,2.8,21.3,0.2c8.3-3.2,16.3-7.6,23.9-12.3
			c6.7-4.1,12.5-9.6,18.9-14c8.9-6.2,18.4-11.5,26.9-18.1c6.4-5,11.9-11.3,17.1-17.6c2.5-3,3.8-7,5-10.8c3.1-9.4,5.8-18.9,8.5-28.4
			c0.5-1.6,0.4-4.2-0.6-5.2c-2.9-3-12.3-1.5-14.9,1.9c-6.8,8.6-8.9,11.7-20.8,21.6c-0.3,0.3-17.7,11.6-22.5,13.9
			c-12.6,6-25.2,11.9-37.8,17.9c-2.5,1.2-5,2.7-7.6,3.3c-7.2,1.7-13.2,6.1-17.8,11.1C257.3,232.8,254.7,241,255.1,250.3z
			 M367.3,155.9c-0.3-0.3-0.8-1-1.4-1.1c-9.2-1.6-18.4-3.6-27.7-4.4c-11.4-0.9-22.3,1.4-31.9,8.4c-3.1,2.3-6.4,4.1-9.5,6.4
			c-10.6,8-16.8,19.3-23.2,30.6c-2.3,4-4.1,8.3-6.1,12.4c-2.2,4.4-4.4,8.7-6.6,13.1c1.5,0.4,2.2,0.1,2.8-0.2
			c5.2-2.9,10.3-6,15.6-8.6c4.1-2,8.6-3.2,12.7-5.1c10.7-5.1,21.2-10.6,31.8-15.7c12.2-5.8,23.1-13.1,32.3-23.1
			C359.8,164.6,363.3,160.4,367.3,155.9z M281.1,126.9c3.8,5.6,7.3,11.4,11.5,16.7c2,2.6,5.3,4.5,8.9,3c3.3-1.4,4.9-4.2,4.2-8
			c-0.5-2.3-0.9-4.6-0.9-6.9c-0.1-4,0.1-8.1,0.3-12.1c0.1-2.3,0.8-4.5,0.9-6.8c0-0.3-2.3-1.2-3-0.9c-3,1.4-5.9,3-8.5,4.9
			C290.2,119.8,286.1,123.1,281.1,126.9z M387.5,400.5c-3.1,0.4-5.9,0.2-8.2,1.3c-8.8,4.1-17.9,5.5-27.5,5c-1.3-0.1-2.6,0.8-3.9,1.3
			C362.3,411.1,375.2,408.5,387.5,400.5z"/>
		<path class="st2" d="M387.5,400.5c-12.3,7.9-25.2,10.6-39.5,7.6c1.3-0.4,2.6-1.3,3.9-1.3c9.6,0.5,18.7-1,27.5-5
			C381.6,400.8,384.4,401,387.5,400.5z"/>
		<path d="M401.1,170.7c0.3,2.4,0.7,4.9,1,7.3c0.6,4.5,1.4,8.9,1.6,13.4c0.7,14.2,1.3,28.3,1.6,42.5c0.2,9.3-0.6,18.6-0.5,27.9
			c0,8.5,0.6,17,0.7,25.5c0.1,6.7-0.1,13.4,0,20c0.1,3.3,0.7,6.6,0.7,10c0,2.9-0.7,5.8-0.7,8.6c-0.1,8,0,15.9-0.1,23.9
			c0,1.3-1.2,2.5-1.9,3.7c-0.8-1.3-2.3-2.6-2.3-3.9c-0.2-6.5,0-13-0.1-19.4c-0.3-11.2-0.8-22.5-1-33.7c-0.1-4.2,0.8-8.3,0.9-12.5
			c0.1-3.2-0.7-6.4-0.7-9.5c0.1-6.6,0.8-13.1,0.8-19.7c-0.1-10.5-0.5-20.9-0.8-31.4c-0.5-16-1.2-31.9-1.7-47.9
			c-0.1-1.6,0.4-3.2,0.7-4.7C399.8,170.7,400.4,170.7,401.1,170.7z"/>
		<path d="M330.2,390.9c-0.8-3.2-2.3-6.3-2.4-9.5c-0.6-12,0.1-24.2-1.2-36.1c-3.2-29.7-2.3-59.5-2.5-89.3c0-1,0.2-2,0.3-2.9
			c0.5-0.2,1-0.3,1.4-0.5c0.6,1.7,1.6,3.4,1.7,5.1c0.2,8.3-0.1,16.6,0.2,24.8c0.4,11.9,1.1,23.8,1.7,35.7
			c0.9,17.6,1.7,35.2,2.7,52.8c0.3,4.8,1.3,9.5,1.6,14.2c0.1,1.9-0.9,3.8-1.4,5.7C331.6,391,330.9,390.9,330.2,390.9z"/>
		<path d="M428.8,194.8c-0.3,3-0.7,6-1,9c-0.1,1-0.2,2-0.2,3.1c0.3,8.1,1,16.1,0.8,24.2c-0.2,8.1-1.3,16.2-1.9,24.3
			c-0.1,1.7,0.3,3.4,0.2,5.1c-0.3,9.7-0.8,19.4-0.8,29.1c0,10.6,0.6,21.1,0.7,31.7c0,1.9-0.8,3.8-1.3,5.7c-0.5,0-1,0.1-1.5,0.1
			c-0.5-5.9-1-11.8-1.5-17.7c-0.3-3.3-0.7-6.6-0.8-10c-0.4-10-0.9-20-0.8-30.1c0.2-10,0.9-20.1,1.7-30.1c1.1-14,2.3-28.1,3.6-42.1
			c0.1-0.9,0.8-1.8,1.2-2.8C427.7,194.6,428.2,194.7,428.8,194.8z"/>
		<path d="M444.8,333.4c-0.7-9-1.4-17.2-1.9-25.4c-0.4-5.8-0.9-11.6-1-17.5c-0.4-15.1-0.7-30.2-0.9-45.3c-0.1-6.1-0.1-12.1,0.1-18.2
			c0.1-1.9,0.9-3.8,1.4-5.7c0.4,0,0.9,0,1.3,0c0.8,4.5,2.2,8.9,2.3,13.4c0.3,11.4-0.1,22.7,0.2,34.1c0.3,12,1.2,23.9,1.5,35.8
			c0.2,7.9-0.3,15.8-0.8,23.7C446.9,330,445.6,331.6,444.8,333.4z"/>
		<path d="M309.1,384.4c-3.5,0.6-5.1-0.7-5.2-3.9c-0.3-5.8-0.5-11.7-0.9-17.5c-0.8-11.4-2.2-22.9-2.5-34.3
			c-0.4-15.8-0.1-31.7-0.2-47.5c0-3.5,0-6.9,0-10.4c0.5-0.1,1-0.2,1.5-0.3c0.4,1.4,1,2.8,1,4.3c0.4,11-0.2,22.1,1.3,33
			c1.5,10.5,0.8,21,1.5,31.5c0.9,13.5,2.3,26.9,3.4,40.4C309.2,381.1,309.1,382.6,309.1,384.4z"/>
	</g>
</g>
</svg>
