<?xml version="1.0" encoding="utf-8"?>
<!-- Generator: Adobe Illustrator 21.1.0, SVG Export Plug-In . SVG Version: 6.00 Build 0)  -->
<svg version="1.1" id="圖層_1" xmlns="http://www.w3.org/2000/svg" xmlns:xlink="http://www.w3.org/1999/xlink" x="0px" y="0px"
	 viewBox="0 0 210.1 191.1" style="enable-background:new 0 0 210.1 191.1;" xml:space="preserve" preserveAspectRatio="none" 
	 >
<style type="text/css">
	.st0{fill:none;stroke:#000000;stroke-width:20;stroke-miterlimit:10;}
</style>
<path d="M14.6,6.9c-0.5-0.2-1.3-0.5-1.9-1c-0.5-0.3-1.1-0.9-1.1-1.4c0-0.5,0.5-1.3,1-1.5c0.7-0.3,1.5-0.3,2.3-0.4
	c9.8-0.1,19.7-0.2,29.5-0.3c23.8-0.1,14.9,1.4,30.1,1.2c7.6-0.1,41.3-1,50.5-0.7c8,0.3,16.3-0.3,24.3,0.3c6.1,0.5,12.1,0.4,18.3,1
	c6.8,0.6,18.1-1.6,24.3,1.3c5.6,2.6,6.2,3.2,12,5.4c4.6,1.8,6.1,11.3,6.1,16.4c0,13.8,0,27.6-0.2,41.4c-0.1,9.8-0.3,19.5-0.7,29.3
	c-0.4,10.7,0.9,21.3,0.2,32c-0.8,12.2,0.6,27.7-0.7,39.9c-0.7,6.4-3,12.4-8.3,16.6c-1.4,1.1-3.3,2-5.1,2.3
	c-8.5,1.5-19.9,0.8-28.5,1.5c-11.6,1-24.5,0.3-36.1,0.7c-15.6,0.5-25.1,0.7-34.3-0.2c-18.5-0.8-32.1-0.2-53.9-0.5
	c-6.7-0.7-13.2-0.3-19.9-1.4c-5.8-0.9-10.5-1.7-14.9-5.4C3.6,180,1,171.1,0.9,161.4c-0.2-6-0.8-12.7-0.8-18.8
	C0,108.4,0,74.1,0.1,39.9c0-8.1,0.7-16.2,1.3-24.3c0.1-1.4,0.7-2.7,1.3-4c0.7-1.7,2.6-2.4,4.3-1.5c0.4,0.2,0.9,0.9,0.9,1.4
	c0,0.4-0.7,1.2-0.9,1.1c-2.6-0.4-2.7,1.6-2.9,3.1c-0.5,4.1-1.1,8.1-1.1,12.2c-0.1,40.5-0.1,81,0,121.5c0,5-0.4,14.6,0.5,19.6
	c0.5,2.9,3.5,9.2,4.1,9.9c4.9,6.1,8,5.8,15.7,7.1c9.4,1.5,18.3,0.2,27.7,1.4c10.4,1.3,22.9,0,33.3,0.8c17.8,1.5,27.9,0.4,37.7,0
	c15.7-0.6,32.8-0.3,48.5-1.2c4.9-0.3,12.6,0.8,17.5,0c1.3-0.2,2.5-0.5,3.8-0.6c6.4-0.4,10-4.2,12.1-9.7c1-2.7,1.8-5.6,2.1-8.5
	c1.1-10-0.5-23.2,0.3-33.1c1.4-16.8,0.2-33.6,0.2-50.5c0-18.3,0.6-36.6,0.9-55c0-0.7,0-1.3,0-2c-0.3-4-0.7-9-3-11.7
	c-3.3-3-4.8-3.7-9-5.4c-4.4-1.8-10-4.1-15.6-3.4c-6.9-0.3-14.7-0.3-20.8-0.9c-11.9-1-75.6-0.9-95.5-0.9c-21.4,0,30.6,0.3,25.5,0.3
	c-18.6,0-52.6-0.1-72,0.2C16.3,5.9,15.6,6.4,14.6,6.9z"/>
</svg>
