<svg xmlns="http://www.w3.org/2000/svg" viewBox="0 0 1577.41 630.18"><title>資產 1</title><g id="圖層_2" data-name="圖層 2"><g id="圖層_1-2" data-name="圖層 1"><path d="M319.29,0Q461,0,602.75.14c6.6,0,13.18,1.64,19.8,2.17,9.27.75,18.58,1,27.84,1.79,7.26.62,14.47,1.77,21.71,2.67,3.62.45,7.27.74,10.88,1.3,4.73.74,9.42,1.74,14.15,2.5A79.49,79.49,0,0,0,708.43,12c24,.34,48.19-1.48,71.91,1.15,47.27,5.24,94.54,1.85,141.78,2.66,18.49.32,36.35,4.27,54.54,6.1,10.09,1,20.24,2,30.36,2q269.71.18,539.42,0c5.73,0,9.15,2.05,13,6.32,6.54,7.21,10.5,14.74,10.1,24.59-.07,1.64,1.93,3.3,2.72,5.06,1.79,4,4.85,8,4.89,12,.35,39.66.21,79.32.14,119,0,3.15.06,6.52-1,9.41-3.73,10.52-3,21.36-3,32.17q0,168.23.07,336.45c0,7.26-1.2,13.72-5.75,19.66-1.64,2.14-2.24,5.57-2.23,8.4a21.05,21.05,0,0,1-6.7,16.07c-15.31,14.82-8.39,12-28.79,12.27a100.11,100.11,0,0,0-21.12,2.61c-8.42,1.92-18.54,3.59-26.07.64-12.23-4.8-24.14-2.73-36.06-2.78-77.49-.38-155-.15-232.46-.27-7.13,0-14.25-1.11-21.38-1.68-5.31-.43-10.62-1.16-15.93-1.18-26.33-.12-52.66.21-79-.21-7.19-.11-14.48-1.78-21.5-3.61-10.49-2.73-20.8-5.57-31.86-5.36-20.32.39-40.81,1.73-61-.2-53.57-5.13-107.19-1.87-160.77-2.53s-107.32-.11-161-.24c-4.08,0-8.17-1.26-12.24-2-7.15-1.28-14.28-3.73-21.42-3.74-119.65-.24-239.3,0-358.95-.4-15.84-.05-31.67-3.16-47.51-4.82-3.8-.4-7.62-.82-11.44-.91-7.63-.18-15.3.55-22.66-2.6-2-.86-4.6-.43-6.93-.43-29.16,0-58.35.77-87.47-.34-15-.57-30-3.29-42.57-14.1-9.76-8.39-19.86-16.31-27.3-26.84-4.95-7-8.91-14.71-13.11-22.22a11.91,11.91,0,0,1-1-5.35A71.37,71.37,0,0,0,2.19,498,23.64,23.64,0,0,1,.26,488.3c-.13-49.49-.29-99,.08-148.48.06-8,2.79-16,4.12-24A86.69,86.69,0,0,0,6.1,302q.15-111.73.07-223.47c0-2.63.4-5.11-3.26-6.29C1.57,71.79.35,68.73.31,66.85c-.24-10.66-.58-21.35,0-32a41.76,41.76,0,0,1,13-28.32C18.41,1.8,25.57,0,32.83,0q126,0,252,0Zm2.2,9.38c-95.15,0-190.31.21-285.46-.19C18,9.15,12.21,20.46,9.83,34.39c-1.16,6.8-.29,14-.19,21,0,1.14.6,3.08,1.3,3.27,4.85,1.33,4.61,5.08,4.61,8.8q0,117.23-.09,234.46c0,4.95-1,9.92-1.79,14.83-1.26,7.7-3.89,15.35-3.95,23-.36,49.49-.21,99-.11,148.48a19.31,19.31,0,0,0,1.6,7.69c4.28,9.49,7.22,19.26,7.39,29.76a7.35,7.35,0,0,0,.55,3.41c4,6.88,7.2,14.44,12.32,20.33C39,558,48,565.22,56,573.34c10.79,10.91,25.14,12.18,38.74,12.79,26.28,1.18,52.65-.08,79,.51,15.88.35,31.72,2.26,47.58,3.52,2,.16,3.92.78,5.91,1,13,1.46,26.06,4.08,39.1,4.11,119.81.32,239.63.16,359.45.27,6.77,0,14,0,20.22,2.12,8.91,3,17.74,3.88,27,3.86,51.49-.11,103-.62,154.47.1s103.2-2.69,154.78,2.48c20.79,2.08,42,.63,63,.25,11.73-.21,22.71,2.6,33.81,5.69,6.19,1.72,12.68,3.23,19.05,3.32,25.49.35,51,0,76.49.14,6,0,12,.62,17.94,1,9.13.61,18.25,1.84,27.37,1.85q136.73.21,273.46.13c4.16,0,8.77-1.4,12.25,2.54.32.37,1.53,0,2.32-.1,7.69-1,15.45-3.14,23.06-2.71,9.11.51,15.56-2.33,21.09-9.22a18.61,18.61,0,0,0,4.16-10.28,35,35,0,0,1,4.17-13.51,24.57,24.57,0,0,0,3.7-13.11q-.11-167.22-.05-334.45c0-12.47-.87-25,3.4-37.12.7-2,.56-4.29.56-6.45q.06-59.74,0-119.48c0-1.74-.2-4.14-1.3-5.1-5.91-5.14-6.75-11.77-6.94-19-.19-7-8.69-15.09-15.05-15.09q-270,0-539.92-.06a206.45,206.45,0,0,1-23.42-1.47c-17-2-33.95-5.53-51-6.23-51.21-2.11-102.52,2.48-153.75-3.59-20.88-2.47-42.31.12-63.43-.88-14.49-.68-28.88-3.57-43.32-5.48-5.58-.74-11.13-1.79-16.74-2.21-10.27-.78-20.58-1.07-30.86-1.83-6.62-.49-13.19-2.13-19.79-2.14Q462,9.29,321.49,9.41Z"/></g></g></svg>