<svg xmlns="http://www.w3.org/2000/svg" viewBox="0 0 905.78 807.51"><title>short-textline</title><g id="圖層_2" data-name="圖層 2"><g id="圖層_1-2" data-name="圖層 1"><path d="M73.83,177.48c3.28-19.72,14.72-32.5,29.72-42.87,11.64-8,22.88-16.69,34.76-24.35,17.63-11.36,35.58-22.24,53.56-33,16.69-10,33.64-19.6,50.38-29.54,4.12-2.45,7.49-6.59,11.85-8.12a99.17,99.17,0,0,0,25.26-13.35c4.49-3.22,10.84-3.9,16.41-5.56,10.84-3.24,21.59-6.89,32.59-9.4,14.89-3.4,29.91-6.48,45-8.57A274.37,274.37,0,0,1,409.27.52c38.49-.24,77-1.23,115.45.39,22.62,1,45.36,5,67.51,10C619.8,17.12,647,25.18,674,33.65,688.2,38.1,701.61,45.07,715.33,51c2.43,1.05,4.57,2.83,7,3.78,25.55,9.79,47.07,26.11,68.65,42.3,13.46,10.1,24.37,22.76,34.35,36.09,7.55,10.09,13.91,21.07,20.74,31.68,4.41,6.86,8.35,14.05,13.17,20.61,6.17,8.41,9.45,17.83,12,27.76a84.84,84.84,0,0,0,6,16.82c6.66,13.3,12.44,26.84,16,41.37,2.19,9,5.71,17.77,8,26.79,2,7.87,4.33,16,4.34,24,.06,33.12,1,66.2-1.55,99.37-1.85,23.94-9.7,46.19-14.12,69.35-1,5.06-1.59,10.19-2.5,15.27-.55,3.11-.91,6.35-2.1,9.23-6.22,15-11.82,30.22-21.18,43.91-14.29,20.88-26.75,43-41,63.87-15,21.93-30.24,43.77-50.85,61.3-17.75,15.09-34.42,31.45-51.69,47.11a105.33,105.33,0,0,1-11.91,9q-11,7.39-22.18,14.38c-17.65,11-37.68,15.75-57.37,21.36-9.44,2.69-18.7,5.54-27.16,11-9.85,6.36-21.38,8.21-32.86,9.45-30.93,3.33-61.42,10.54-92.75,10.43-30.82-.11-61.65,0-92.48,0-9,0-18-.49-27,.1-18.57,1.24-35.71-3.33-53-9.78-31.32-11.68-59.73-28.39-87.6-46.43a194.69,194.69,0,0,1-30.39-24.21c-4.24-4.14-9.81-6.89-14.36-10.76s-9.27-7.81-12.61-12.63c-6.32-9.11-13.36-17.91-16-29.15a20.82,20.82,0,0,0-4.67-8.19c-10.56-12.27-17.11-26.93-25-40.8-5.52-9.68-12-18.85-17.06-28.75A344.49,344.49,0,0,1,82,564.6c-11.63-29.74-19.83-60.38-22.24-92.34-3.47-45.88-3.35-91.84-3.11-137.81.15-29.16.08-58.32.09-87.48,0-6.65-5.42-13.54-11.29-16.71-12.86-6.94-25.44-14.41-38-21.88a17.39,17.39,0,0,1-5.17-5.33C-2.24,196.32.14,190.7,8,189.17c11.08-2.15,22.17-4.22,33.26-6.33a5.33,5.33,0,0,0,1.46-.33C52.49,177.42,62.95,176.24,73.83,177.48Zm-63,19.93L10,199.63c1.14.63,2.28,1.24,3.41,1.89,11.68,6.7,23.1,13.9,35.11,19.95,10.77,5.42,17.39,15,17.58,27,1,67.27-2.28,134.56,2,201.82,1.8,28.34,4.16,56.27,13.08,83.47,8.48,25.85,17.72,51.13,32.55,74.26,12,18.73,20.44,39.66,34.64,57.16,2.41,3,3.14,7.27,4.81,10.89,5.68,12.32,12.38,23.89,23.24,32.54,8.05,6.41,16,13,23.94,19.51,3.09,2.53,5.9,5.46,9.2,7.67,34.06,22.89,69,44.1,108.31,57.13,9,3,17.81,5.07,27.29,5,44.49-.12,89,0,133.46-.09a184.47,184.47,0,0,0,22.45-.92c21.15-2.64,42.24-5.71,63.34-8.7,11.37-1.61,22.62-3.33,33.14-8.71,8.82-4.5,18-9,27.5-11.36,28.61-7.09,55.34-18,79.16-35.54,3.21-2.37,6.56-4.6,9.51-7.26q30.58-27.63,61-55.47a94.18,94.18,0,0,0,10-10.47c7.39-9.23,15-18.33,21.6-28.13,12.22-18.26,23.93-36.86,35.5-55.55,10.82-17.48,24.76-33.19,30.78-53.44,2.08-7,4.43-13.88,6.15-20.95s2.09-14.24,4.17-21c7.72-25.14,12.47-50.82,13.21-77,.77-27.47.25-55,.23-82.46a27.29,27.29,0,0,0-.8-7.43c-7.38-25.71-12.69-52.11-25-76.21-2.72-5.31-5.74-10.75-7-16.48-2.73-12.75-6.75-24.67-15.31-34.8a60.19,60.19,0,0,1-5.85-9.29c-4.28-7.53-8.07-15.36-12.72-22.64-20.16-31.55-48.12-55.21-79.28-74.89-17-10.71-35.32-19.57-53.9-27.21S658.22,38.45,638.71,33c-23.52-6.62-47.17-13.09-71.14-17.71-19.54-3.77-39.4-6.41-59.55-6-25.31.56-50.65-.13-76,.21-18.8.25-37.66.57-56.37,2.2-13.87,1.21-27.68,4-41.27,7.15-13.91,3.23-27.61,7.49-41.21,11.89-5.4,1.75-10.27,5.13-15.39,7.73-4.66,2.37-9.37,4.66-14,7-3.21,1.63-6.46,3.22-9.56,5.07-2.56,1.52-4.8,3.57-7.37,5.08-15.37,9-30.92,17.65-46.15,26.86C180,95,159.48,107.67,139.15,120.7c-10.5,6.73-20.16,14.76-30.64,21.51-10,6.45-17,15.33-22.74,25.35-2.06,3.59-3,7.75,0,11.76.67.91,1.08,3,.53,3.68-3.52,4.65-1.86,9.94-2.18,15-.22,3.32-.42,6.91-4.62,7s-4.75-3.43-4.78-6.79c0-3.77,0-7.54,0-11.78-9.14.26-17.53-1.1-25.54,3.42-3.16,1.78-7.32,1.84-11.05,2.55C29,194.09,19.93,195.73,10.86,197.41Z"/></g></g></svg>