<svg xmlns="http://www.w3.org/2000/svg" viewBox="0 0 309.53 268.93"><defs><style>.cls-1{fill:#fff;}</style></defs><title>0.textline-bottom</title><g id="圖層_2" data-name="圖層 2"><g id="圖層_1-2" data-name="圖層 1"><path d="M202,0c.39,6.77.62,13.55,1.23,20.29.3,3.35,2,6.66,1.88,9.94-.65,15.68-2,31.33-2.55,47-.4,11,.19,22,.09,33-.09,9-.42,18-.89,27-.23,4.29,1.9,5.1,5.5,4.79,8.81-.74,17.62-1.75,26.44-2,16.72-.4,33.45-.41,50.18-.38,7.13,0,14.26.5,21.38.91,1.51.09,3,.76,4.3.53-13.7,0-27.41,0-41.11,0-7.29,0-14.58.17-21.87.31-3.92.08-7.84.23-11.76.38-8.94.35-17.89.64-26.82,1.12-6.4.35-6.39.47-5.85,8.44l85.53,1.9c-2.78,1.07-4.5,2.33-6.18,2.27-10-.36-20-1.09-30-1.56-3.69-.17-7.41.13-11.11,0-11.92-.37-23.84-.89-35.76-1.13-.88,0-2.51,1.71-2.57,2.7-.81,12.25-1.82,24.51-1.91,36.77-.11,13.59.77,27.19,1,40.78,0,2-1.4,4-2,6.06a17.79,17.79,0,0,0-1,4.74c-.1,8.32,0,16.64-1,25,0-6.32-.15-12.64,0-19,.22-7.44,3.17-15.93.52-22.05-3.93-9.08-2.13-17.71-2.38-26.44-.44-14.87.48-29.77.49-44.66,0-1.71-2-4.72-3.35-4.92a140.27,140.27,0,0,0-22-1.81c-8.21.12-16.39,1.38-24.59,2.09-.54,0-1.12-.39-1.73-1.24,3.75-2.28,8-1.34,12-1.52,4.49-.2,9-.1,13.49-.12,4.33,0,8.67-.21,13,0s8.43.76,12.66,1.16c1.35-4.93-.48-5.88-4.36-5.57-12,.94-24,1.66-36,2.43-1.62.1-3.25,0-5.91,0,1.22-1.12,1.6-1.78,2-1.81,6.77-.46,13.55-.85,20.32-1.24s13.53-.78,20.3-1.15c3.8-.21,4.31-2.52,4.28-5.79-.25-26.72-.6-53.44-.43-80.16.1-14.9,1-29.8,1.87-44.68.1-1.79,2.29-3.37,2.83-5.24.67-2.31.62-4.83.89-7.26Zm-2.6,77.94-.6,0V97.78l.6,0Z"/><path d="M0,160l8.39-.87-7.24-3,33.74-2.48-.12-1.75L8.58,153.1l-.18-1c.49-.29,1-.81,1.47-.83,9.42-.45,18.85-1.1,28.27-1.13,4.88,0,9.77,1.69,14.63,1.56,7.5-.19,15-1.28,21.93-1.94,1.68.79,3.2,2.15,4.64,2.08q15.82-.77,31.61-2.05c8.64-.69,17.26-1.67,26.19-2.54v4.84c-13.26,1.84-26.22,4.1-39.27,5.29-9.88.9-19.9.1-29.83.64C54,158.81,40,160.38,25.91,161.1c-8.61.44-17.27,0-25.91-.12Zm47.8-3.72-.15-1.86-29.41,3.28.14,1.22Zm48.37-1-.35-.36H69.31l.09.36ZM132,150.79l-.14-1.32L115.6,151l.17,1.51Z"/><path class="cls-1" d="M199.38,77.94V97.75l-.6,0V77.92Z"/><path class="cls-1" d="M47.8,156.26,18.38,158.9l-.14-1.22,29.41-3.28Z"/><path class="cls-1" d="M96.17,155.24H69.4l-.09-.36H95.82Z"/><path class="cls-1" d="M132,150.79l-16.28,1.76L115.6,151l16.31-1.57Z"/></g></g></svg>