<svg xmlns="http://www.w3.org/2000/svg" viewBox="0 0 350.93 323.1"><defs><style>.cls-1{fill:#fff;}</style></defs><title>0.textline-top</title><g id="圖層_2" data-name="圖層 2"><g id="圖層_1-2" data-name="圖層 1"><path d="M40.12,318.56c.87-5.36,1.85-10.7,2.59-16.08,1.31-9.54,2.71-19.07,3.64-28.65,1.2-12.4,2.24-24.83,2.84-37.27.43-8.91-.11-17.86.08-26.78,0-2.13,1.4-4.22,2-6.36a18.27,18.27,0,0,0,.91-4.78c0-9.83-.2-19.66,0-29.49.12-7.21.81-14.4,1-21.61.08-2.72-.46-5.46-.08-8.26-1.37-3.13-3.22-6,1-9.1.86-.62.85-2.67.94-4.08.33-5.26.71-10.53.74-15.8.09-16.63,0-33.27,0-50.85H4.6l0-1.46c16.66-3,33.29-1,50.12,1.44a17.1,17.1,0,0,0,.74-2.65,19.22,19.22,0,0,0-.18-2.84l-12.24-.65V52.12l12.07-1-.21-1.41c-4.77,1.15-10.17-3.46-14.51,2.55-.45.62-2.19.41-3.34.43-7.93.09-15.87-.15-23.77.33C9,53.3,4.75,54.76.2,55.74-.48,53.65.49,52.3,3.89,52a70.37,70.37,0,0,0,15-3.08L1.58,47.3l.14-1.65c5.73.66,11.45,1.58,17.2,1.9s11.81.25,17.71,0,12.06-.86,18.08-1.31L54.79,45h-13V43.32c2,0,4,.05,6,0a7.65,7.65,0,0,0,7.69-7.84c.23-7.48.72-14.94.85-22.42,0-2.75-.63-5.5-1-8.26l1.83-.42L58.92,10l.54,0V0l1.79,0V38.44l82.49,6.26-.06.75h-29l-.45,1.24c1.42.52,2.84,1.47,4.27,1.49,9.7.13,19.4.07,29.26.07l.69-4c2,.63,3.66,1.52,5.37,1.62a96.55,96.55,0,0,0,11.74,0c10.63-.66,21.24-1.55,31.86-2.27,2.82-.19,5.68.12,8.49-.15,13.85-1.37,27.68-3,41.54-4.25a142.18,142.18,0,0,1,20.17-.46l-18.74,2.08.11,1.71c3.72,0,7.44-.06,11.16,0,9.84.2,19.68.47,29.52.7,4,.09,8.13-.43,12,.34,5.54,1.09,10.69-1.3,16.18-.83a74.7,74.7,0,0,0,16.81-.86c7.8-1.12,12.62-.44,16.27,3.3-3.58,2.52-8.13,1.94-9.73-.56H316.73l0,.61L344,49.32l-.27.77-10.89,3.2-.52-1,3.31-2.92c-10.66-2.64-21.12-.92-31.6-.26l14.87,1-.07.29c-7.57,0-15.13,0-22.7,0-4.5,0-9-.21-13.51-.24-24.94-.22-49.87-.59-74.81-.53-13.53,0-27,1-40.58,1.23-15.77.28-31.55,0-47.32.39-8.92.21-17.82,1.47-26.74,1.84-9.83.4-19.68.32-29.53.48a22.47,22.47,0,0,0-2.48.31C60.69,60,58.72,66.21,60,71.65c2.52,10.56-1.25,20.46-1.09,30.66s.67,20.54,1,30.82q.18,5.64.22,11.29c.07,10,0,20,.18,30,.28,13.1.83,26.18,1.2,39.28a38.26,38.26,0,0,1-1.13,11.88L58.13,148l-.92-.08c-.38,3.69-1,7.37-1.1,11.06q-.5,15.81-.65,31.63c-.12,12.09,0,24.19-.16,36.28-.07,5.28.81,11.23-1.29,15.67-2.82,6,0,12.12-2,17.14-3.87,9.86-1.14,20.08-3.52,29.88-.57,2.34.79,5.11,1.05,7.7.36,3.55.53,7.13.78,10.69l-2.39.42-2.55-7-3.47,17.37Zm72.6-272.41.17-2C96,43.49,79.18,39.74,62.14,41.49L62,43.37Zm-17.6,5,.06-1.11h-34V51.2Z"/><path d="M61.39,229.87c0,12.23-.07,24.46,0,36.69.05,6.39.39,12.77.63,19.16.4,10.77.92,21.53,1.13,32.3,0,1.68-1.27,3.38-1.95,5.08-1.41-1.19-3.42-2.12-4.1-3.64-1.15-2.57-1.47-5.51-2.14-8.3l1.21-.39L60,319.6l.57-.31V230Z"/><path class="cls-1" d="M112.72,46.15,62,43.37l.09-1.88c17-1.75,33.82,2,50.75,2.64Z"/><path class="cls-1" d="M95.12,51.2H61.18V50.08h34Z"/></g></g></svg>